G04 Layer_Physical_Order=1*
G04 Layer_Color=255*
%FSLAX44Y44*%
%MOMM*%
G71*
G01*
G75*
%ADD10R,1.3000X0.7000*%
G04:AMPARAMS|DCode=11|XSize=1mm|YSize=1mm|CornerRadius=0.1mm|HoleSize=0mm|Usage=FLASHONLY|Rotation=0.000|XOffset=0mm|YOffset=0mm|HoleType=Round|Shape=RoundedRectangle|*
%AMROUNDEDRECTD11*
21,1,1.0000,0.8000,0,0,0.0*
21,1,0.8000,1.0000,0,0,0.0*
1,1,0.2000,0.4000,-0.4000*
1,1,0.2000,-0.4000,-0.4000*
1,1,0.2000,-0.4000,0.4000*
1,1,0.2000,0.4000,0.4000*
%
%ADD11ROUNDEDRECTD11*%
%ADD12R,1.0000X1.6000*%
%ADD13R,0.7000X1.3000*%
%ADD14O,1.6000X0.8000*%
%ADD15R,1.6000X1.0000*%
%ADD16O,0.8000X1.6000*%
G04:AMPARAMS|DCode=17|XSize=6mm|YSize=3mm|CornerRadius=0.75mm|HoleSize=0mm|Usage=FLASHONLY|Rotation=270.000|XOffset=0mm|YOffset=0mm|HoleType=Round|Shape=RoundedRectangle|*
%AMROUNDEDRECTD17*
21,1,6.0000,1.5000,0,0,270.0*
21,1,4.5000,3.0000,0,0,270.0*
1,1,1.5000,-0.7500,-2.2500*
1,1,1.5000,-0.7500,2.2500*
1,1,1.5000,0.7500,2.2500*
1,1,1.5000,0.7500,-2.2500*
%
%ADD17ROUNDEDRECTD17*%
G04:AMPARAMS|DCode=18|XSize=1.5mm|YSize=2mm|CornerRadius=0.375mm|HoleSize=0mm|Usage=FLASHONLY|Rotation=270.000|XOffset=0mm|YOffset=0mm|HoleType=Round|Shape=RoundedRectangle|*
%AMROUNDEDRECTD18*
21,1,1.5000,1.2500,0,0,270.0*
21,1,0.7500,2.0000,0,0,270.0*
1,1,0.7500,-0.6250,-0.3750*
1,1,0.7500,-0.6250,0.3750*
1,1,0.7500,0.6250,0.3750*
1,1,0.7500,0.6250,-0.3750*
%
%ADD18ROUNDEDRECTD18*%
%ADD19C,0.6000*%
%ADD20C,0.3000*%
%ADD21C,1.0000*%
%ADD22C,0.5000*%
%ADD23O,1.7000X1.8000*%
%ADD24O,1.6000X1.8000*%
%ADD25C,1.8000*%
%ADD26R,1.8000X1.8000*%
%ADD27C,2.0000*%
G04:AMPARAMS|DCode=28|XSize=6mm|YSize=6mm|CornerRadius=1.8mm|HoleSize=0mm|Usage=FLASHONLY|Rotation=0.000|XOffset=0mm|YOffset=0mm|HoleType=Round|Shape=RoundedRectangle|*
%AMROUNDEDRECTD28*
21,1,6.0000,2.4000,0,0,0.0*
21,1,2.4000,6.0000,0,0,0.0*
1,1,3.6000,1.2000,-1.2000*
1,1,3.6000,-1.2000,-1.2000*
1,1,3.6000,-1.2000,1.2000*
1,1,3.6000,1.2000,1.2000*
%
%ADD28ROUNDEDRECTD28*%
%ADD29C,1.9000*%
G04:AMPARAMS|DCode=30|XSize=1.9mm|YSize=2mm|CornerRadius=0mm|HoleSize=0mm|Usage=FLASHONLY|Rotation=315.063|XOffset=0mm|YOffset=0mm|HoleType=Round|Shape=Round|*
%AMOVALD30*
21,1,0.1000,1.9000,0.0000,0.0000,45.1*
1,1,1.9000,-0.0353,-0.0354*
1,1,1.9000,0.0353,0.0354*
%
%ADD30OVALD30*%

G04:AMPARAMS|DCode=31|XSize=1.9mm|YSize=2mm|CornerRadius=0mm|HoleSize=0mm|Usage=FLASHONLY|Rotation=24.678|XOffset=0mm|YOffset=0mm|HoleType=Round|Shape=Round|*
%AMOVALD31*
21,1,0.1000,1.9000,0.0000,0.0000,114.7*
1,1,1.9000,0.0209,-0.0454*
1,1,1.9000,-0.0209,0.0454*
%
%ADD31OVALD31*%

%ADD32C,1.6000*%
G04:AMPARAMS|DCode=33|XSize=1.9mm|YSize=2mm|CornerRadius=0mm|HoleSize=0mm|Usage=FLASHONLY|Rotation=163.883|XOffset=0mm|YOffset=0mm|HoleType=Round|Shape=Round|*
%AMOVALD33*
21,1,0.1000,1.9000,0.0000,0.0000,253.9*
1,1,1.9000,0.0139,0.0480*
1,1,1.9000,-0.0139,-0.0480*
%
%ADD33OVALD33*%

G04:AMPARAMS|DCode=34|XSize=1.9mm|YSize=2mm|CornerRadius=0mm|HoleSize=0mm|Usage=FLASHONLY|Rotation=323.650|XOffset=0mm|YOffset=0mm|HoleType=Round|Shape=Round|*
%AMOVALD34*
21,1,0.1000,1.9000,0.0000,0.0000,53.6*
1,1,1.9000,-0.0296,-0.0403*
1,1,1.9000,0.0296,0.0403*
%
%ADD34OVALD34*%

G04:AMPARAMS|DCode=35|XSize=1.9mm|YSize=2mm|CornerRadius=0mm|HoleSize=0mm|Usage=FLASHONLY|Rotation=33.388|XOffset=0mm|YOffset=0mm|HoleType=Round|Shape=Round|*
%AMOVALD35*
21,1,0.1000,1.9000,0.0000,0.0000,123.4*
1,1,1.9000,0.0275,-0.0418*
1,1,1.9000,-0.0275,0.0418*
%
%ADD35OVALD35*%

G04:AMPARAMS|DCode=36|XSize=1.9mm|YSize=2mm|CornerRadius=0mm|HoleSize=0mm|Usage=FLASHONLY|Rotation=103.066|XOffset=0mm|YOffset=0mm|HoleType=Round|Shape=Round|*
%AMOVALD36*
21,1,0.1000,1.9000,0.0000,0.0000,193.1*
1,1,1.9000,0.0487,0.0113*
1,1,1.9000,-0.0487,-0.0113*
%
%ADD36OVALD36*%

G04:AMPARAMS|DCode=37|XSize=1.9mm|YSize=2mm|CornerRadius=0mm|HoleSize=0mm|Usage=FLASHONLY|Rotation=172.744|XOffset=0mm|YOffset=0mm|HoleType=Round|Shape=Round|*
%AMOVALD37*
21,1,0.1000,1.9000,0.0000,0.0000,262.7*
1,1,1.9000,0.0063,0.0496*
1,1,1.9000,-0.0063,-0.0496*
%
%ADD37OVALD37*%

G04:AMPARAMS|DCode=38|XSize=1.9mm|YSize=2mm|CornerRadius=0mm|HoleSize=0mm|Usage=FLASHONLY|Rotation=332.467|XOffset=0mm|YOffset=0mm|HoleType=Round|Shape=Round|*
%AMOVALD38*
21,1,0.1000,1.9000,0.0000,0.0000,62.5*
1,1,1.9000,-0.0231,-0.0443*
1,1,1.9000,0.0231,0.0443*
%
%ADD38OVALD38*%

G04:AMPARAMS|DCode=39|XSize=1.9mm|YSize=2mm|CornerRadius=0mm|HoleSize=0mm|Usage=FLASHONLY|Rotation=42.098|XOffset=0mm|YOffset=0mm|HoleType=Round|Shape=Round|*
%AMOVALD39*
21,1,0.1000,1.9000,0.0000,0.0000,132.1*
1,1,1.9000,0.0335,-0.0371*
1,1,1.9000,-0.0335,0.0371*
%
%ADD39OVALD39*%

G04:AMPARAMS|DCode=40|XSize=1.9mm|YSize=2mm|CornerRadius=0mm|HoleSize=0mm|Usage=FLASHONLY|Rotation=111.776|XOffset=0mm|YOffset=0mm|HoleType=Round|Shape=Round|*
%AMOVALD40*
21,1,0.1000,1.9000,0.0000,0.0000,201.8*
1,1,1.9000,0.0464,0.0186*
1,1,1.9000,-0.0464,-0.0186*
%
%ADD40OVALD40*%

G04:AMPARAMS|DCode=41|XSize=1.9mm|YSize=2mm|CornerRadius=0mm|HoleSize=0mm|Usage=FLASHONLY|Rotation=181.453|XOffset=0mm|YOffset=0mm|HoleType=Round|Shape=Round|*
%AMOVALD41*
21,1,0.1000,1.9000,0.0000,0.0000,271.5*
1,1,1.9000,-0.0013,0.0500*
1,1,1.9000,0.0013,-0.0500*
%
%ADD41OVALD41*%

G04:AMPARAMS|DCode=42|XSize=1.9mm|YSize=2mm|CornerRadius=0mm|HoleSize=0mm|Usage=FLASHONLY|Rotation=341.100|XOffset=0mm|YOffset=0mm|HoleType=Round|Shape=Round|*
%AMOVALD42*
21,1,0.1000,1.9000,0.0000,0.0000,71.1*
1,1,1.9000,-0.0162,-0.0473*
1,1,1.9000,0.0162,0.0473*
%
%ADD42OVALD42*%

G04:AMPARAMS|DCode=43|XSize=1.9mm|YSize=2mm|CornerRadius=0mm|HoleSize=0mm|Usage=FLASHONLY|Rotation=50.807|XOffset=0mm|YOffset=0mm|HoleType=Round|Shape=Round|*
%AMOVALD43*
21,1,0.1000,1.9000,0.0000,0.0000,140.8*
1,1,1.9000,0.0387,-0.0316*
1,1,1.9000,-0.0387,0.0316*
%
%ADD43OVALD43*%

G04:AMPARAMS|DCode=44|XSize=1.9mm|YSize=2mm|CornerRadius=0mm|HoleSize=0mm|Usage=FLASHONLY|Rotation=120.486|XOffset=0mm|YOffset=0mm|HoleType=Round|Shape=Round|*
%AMOVALD44*
21,1,0.1000,1.9000,0.0000,0.0000,210.5*
1,1,1.9000,0.0431,0.0254*
1,1,1.9000,-0.0431,-0.0254*
%
%ADD44OVALD44*%

G04:AMPARAMS|DCode=45|XSize=1.9mm|YSize=2mm|CornerRadius=0mm|HoleSize=0mm|Usage=FLASHONLY|Rotation=190.163|XOffset=0mm|YOffset=0mm|HoleType=Round|Shape=Round|*
%AMOVALD45*
21,1,0.1000,1.9000,0.0000,0.0000,280.2*
1,1,1.9000,-0.0088,0.0492*
1,1,1.9000,0.0088,-0.0492*
%
%ADD45OVALD45*%

G04:AMPARAMS|DCode=46|XSize=1.9mm|YSize=2mm|CornerRadius=0mm|HoleSize=0mm|Usage=FLASHONLY|Rotation=349.821|XOffset=0mm|YOffset=0mm|HoleType=Round|Shape=Round|*
%AMOVALD46*
21,1,0.1000,1.9000,0.0000,0.0000,79.8*
1,1,1.9000,-0.0088,-0.0492*
1,1,1.9000,0.0088,0.0492*
%
%ADD46OVALD46*%

G04:AMPARAMS|DCode=47|XSize=1.9mm|YSize=2mm|CornerRadius=0mm|HoleSize=0mm|Usage=FLASHONLY|Rotation=59.517|XOffset=0mm|YOffset=0mm|HoleType=Round|Shape=Round|*
%AMOVALD47*
21,1,0.1000,1.9000,0.0000,0.0000,149.5*
1,1,1.9000,0.0431,-0.0254*
1,1,1.9000,-0.0431,0.0254*
%
%ADD47OVALD47*%

G04:AMPARAMS|DCode=48|XSize=1.9mm|YSize=2mm|CornerRadius=0mm|HoleSize=0mm|Usage=FLASHONLY|Rotation=129.199|XOffset=0mm|YOffset=0mm|HoleType=Round|Shape=Round|*
%AMOVALD48*
21,1,0.1000,1.9000,0.0000,0.0000,219.2*
1,1,1.9000,0.0387,0.0316*
1,1,1.9000,-0.0387,-0.0316*
%
%ADD48OVALD48*%

G04:AMPARAMS|DCode=49|XSize=1.9mm|YSize=2mm|CornerRadius=0mm|HoleSize=0mm|Usage=FLASHONLY|Rotation=198.889|XOffset=0mm|YOffset=0mm|HoleType=Round|Shape=Round|*
%AMOVALD49*
21,1,0.1000,1.9000,0.0000,0.0000,288.9*
1,1,1.9000,-0.0162,0.0473*
1,1,1.9000,0.0162,-0.0473*
%
%ADD49OVALD49*%

G04:AMPARAMS|DCode=50|XSize=1.9mm|YSize=2mm|CornerRadius=0mm|HoleSize=0mm|Usage=FLASHONLY|Rotation=358.549|XOffset=0mm|YOffset=0mm|HoleType=Round|Shape=Round|*
%AMOVALD50*
21,1,0.1000,1.9000,0.0000,0.0000,88.5*
1,1,1.9000,-0.0013,-0.0500*
1,1,1.9000,0.0013,0.0500*
%
%ADD50OVALD50*%

G04:AMPARAMS|DCode=51|XSize=1.9mm|YSize=2mm|CornerRadius=0mm|HoleSize=0mm|Usage=FLASHONLY|Rotation=68.227|XOffset=0mm|YOffset=0mm|HoleType=Round|Shape=Round|*
%AMOVALD51*
21,1,0.1000,1.9000,0.0000,0.0000,158.2*
1,1,1.9000,0.0464,-0.0186*
1,1,1.9000,-0.0464,0.0186*
%
%ADD51OVALD51*%

G04:AMPARAMS|DCode=52|XSize=1.9mm|YSize=2mm|CornerRadius=0mm|HoleSize=0mm|Usage=FLASHONLY|Rotation=137.905|XOffset=0mm|YOffset=0mm|HoleType=Round|Shape=Round|*
%AMOVALD52*
21,1,0.1000,1.9000,0.0000,0.0000,227.9*
1,1,1.9000,0.0335,0.0371*
1,1,1.9000,-0.0335,-0.0371*
%
%ADD52OVALD52*%

G04:AMPARAMS|DCode=53|XSize=1.9mm|YSize=2mm|CornerRadius=0mm|HoleSize=0mm|Usage=FLASHONLY|Rotation=207.583|XOffset=0mm|YOffset=0mm|HoleType=Round|Shape=Round|*
%AMOVALD53*
21,1,0.1000,1.9000,0.0000,0.0000,297.6*
1,1,1.9000,-0.0232,0.0443*
1,1,1.9000,0.0232,-0.0443*
%
%ADD53OVALD53*%

G04:AMPARAMS|DCode=54|XSize=1.9mm|YSize=2mm|CornerRadius=0mm|HoleSize=0mm|Usage=FLASHONLY|Rotation=7.259|XOffset=0mm|YOffset=0mm|HoleType=Round|Shape=Round|*
%AMOVALD54*
21,1,0.1000,1.9000,0.0000,0.0000,97.3*
1,1,1.9000,0.0063,-0.0496*
1,1,1.9000,-0.0063,0.0496*
%
%ADD54OVALD54*%

G04:AMPARAMS|DCode=55|XSize=1.9mm|YSize=2mm|CornerRadius=0mm|HoleSize=0mm|Usage=FLASHONLY|Rotation=76.940|XOffset=0mm|YOffset=0mm|HoleType=Round|Shape=Round|*
%AMOVALD55*
21,1,0.1000,1.9000,0.0000,0.0000,166.9*
1,1,1.9000,0.0487,-0.0113*
1,1,1.9000,-0.0487,0.0113*
%
%ADD55OVALD55*%

G04:AMPARAMS|DCode=56|XSize=1.9mm|YSize=2mm|CornerRadius=0mm|HoleSize=0mm|Usage=FLASHONLY|Rotation=216.983|XOffset=0mm|YOffset=0mm|HoleType=Round|Shape=Round|*
%AMOVALD56*
21,1,0.1000,1.9000,0.0000,0.0000,307.0*
1,1,1.9000,-0.0301,0.0399*
1,1,1.9000,0.0301,-0.0399*
%
%ADD56OVALD56*%

G04:AMPARAMS|DCode=57|XSize=1.9mm|YSize=2mm|CornerRadius=0mm|HoleSize=0mm|Usage=FLASHONLY|Rotation=15.844|XOffset=0mm|YOffset=0mm|HoleType=Round|Shape=Round|*
%AMOVALD57*
21,1,0.1000,1.9000,0.0000,0.0000,105.8*
1,1,1.9000,0.0137,-0.0481*
1,1,1.9000,-0.0137,0.0481*
%
%ADD57OVALD57*%

G04:AMPARAMS|DCode=58|XSize=1.9mm|YSize=2mm|CornerRadius=0mm|HoleSize=0mm|Usage=FLASHONLY|Rotation=157.434|XOffset=0mm|YOffset=0mm|HoleType=Round|Shape=Round|*
%AMOVALD58*
21,1,0.1000,1.9000,0.0000,0.0000,247.4*
1,1,1.9000,0.0192,0.0462*
1,1,1.9000,-0.0192,-0.0462*
%
%ADD58OVALD58*%

G04:AMPARAMS|DCode=59|XSize=1.9mm|YSize=2mm|CornerRadius=0mm|HoleSize=0mm|Usage=FLASHONLY|Rotation=225.000|XOffset=0mm|YOffset=0mm|HoleType=Round|Shape=Round|*
%AMOVALD59*
21,1,0.1000,1.9000,0.0000,0.0000,315.0*
1,1,1.9000,-0.0353,0.0353*
1,1,1.9000,0.0353,-0.0353*
%
%ADD59OVALD59*%

%ADD60O,2.0000X2.6000*%
%ADD61C,4.0000*%
%ADD62C,1.0000*%
G36*
X-401670Y-170423D02*
X-402240Y-170374D01*
X-402750Y-170470D01*
X-403200Y-170711D01*
X-403590Y-171097D01*
X-403920Y-171627D01*
X-404190Y-172303D01*
X-404400Y-173123D01*
X-404550Y-174088D01*
X-404640Y-175199D01*
X-404666Y-176273D01*
X-404650Y-177162D01*
X-404493Y-179083D01*
X-404355Y-179862D01*
X-404178Y-180522D01*
X-403961Y-181063D01*
X-403705Y-181483D01*
X-403410Y-181782D01*
X-403075Y-181963D01*
X-402701Y-182022D01*
X-412640D01*
X-412265Y-181963D01*
X-411931Y-181782D01*
X-411635Y-181483D01*
X-411379Y-181063D01*
X-411162Y-180522D01*
X-410985Y-179862D01*
X-410847Y-179083D01*
X-410749Y-178183D01*
X-410672Y-176079D01*
X-410677Y-175107D01*
X-411031Y-169576D01*
X-411142Y-169079D01*
X-411267Y-168705D01*
X-411407Y-168452D01*
X-401670Y-170423D01*
D02*
G37*
G36*
X-234564Y-155182D02*
X-233063Y-157138D01*
X-232358Y-157874D01*
X-231684Y-158449D01*
X-231039Y-158862D01*
X-230425Y-159115D01*
X-229841Y-159206D01*
X-229287Y-159135D01*
X-228764Y-158904D01*
X-238961Y-165166D01*
X-238518Y-164804D01*
X-238207Y-164345D01*
X-238028Y-163786D01*
X-237981Y-163129D01*
X-238065Y-162373D01*
X-238281Y-161519D01*
X-238629Y-160567D01*
X-239108Y-159516D01*
X-239719Y-158366D01*
X-240462Y-157118D01*
X-235359Y-153963D01*
X-234564Y-155182D01*
D02*
G37*
G36*
X296027Y-160432D02*
X295967Y-159862D01*
X295786Y-159352D01*
X295484Y-158902D01*
X295062Y-158512D01*
X294519Y-158182D01*
X293856Y-157912D01*
X293072Y-157702D01*
X292167Y-157552D01*
X291142Y-157462D01*
X289996Y-157432D01*
Y-151432D01*
X291142Y-151402D01*
X292167Y-151312D01*
X293072Y-151162D01*
X293856Y-150952D01*
X294519Y-150682D01*
X295062Y-150352D01*
X295484Y-149962D01*
X295786Y-149512D01*
X295967Y-149002D01*
X296027Y-148432D01*
Y-160432D01*
D02*
G37*
G36*
X321989Y-172961D02*
X322092Y-173027D01*
X322263Y-173086D01*
X322502Y-173136D01*
X322810Y-173179D01*
X323630Y-173241D01*
X325374Y-173276D01*
Y-179276D01*
X324724Y-179280D01*
X322502Y-179416D01*
X322263Y-179466D01*
X322092Y-179525D01*
X321989Y-179591D01*
X321955Y-179664D01*
Y-172887D01*
X321989Y-172961D01*
D02*
G37*
G36*
X228950Y-178798D02*
X228472Y-178484D01*
X227941Y-178326D01*
X227354Y-178323D01*
X226713Y-178475D01*
X226018Y-178782D01*
X225267Y-179245D01*
X224462Y-179862D01*
X223602Y-180635D01*
X222688Y-181562D01*
X221719Y-182645D01*
X217165Y-178738D01*
X218094Y-177611D01*
X219516Y-175588D01*
X220010Y-174693D01*
X220358Y-173876D01*
X220561Y-173136D01*
X220619Y-172473D01*
X220532Y-171888D01*
X220299Y-171381D01*
X219921Y-170951D01*
X228950Y-178798D01*
D02*
G37*
G36*
X-342725Y-170404D02*
X-342980Y-170495D01*
X-343205Y-170646D01*
X-343400Y-170858D01*
X-343565Y-171131D01*
X-343700Y-171464D01*
X-343805Y-171858D01*
X-343880Y-172313D01*
X-343925Y-172828D01*
X-343940Y-173404D01*
X-346940D01*
X-346955Y-172828D01*
X-347000Y-172313D01*
X-347075Y-171858D01*
X-347180Y-171464D01*
X-347315Y-171131D01*
X-347480Y-170858D01*
X-347675Y-170646D01*
X-347900Y-170495D01*
X-348155Y-170404D01*
X-348440Y-170373D01*
X-342440D01*
X-342725Y-170404D01*
D02*
G37*
G36*
X240295Y-157354D02*
X239552Y-158603D01*
X238460Y-160804D01*
X238112Y-161757D01*
X237895Y-162611D01*
X237810Y-163367D01*
X237857Y-164024D01*
X238035Y-164582D01*
X238346Y-165042D01*
X238787Y-165403D01*
X228598Y-159138D01*
X229121Y-159369D01*
X229675Y-159439D01*
X230259Y-159348D01*
X230874Y-159094D01*
X231520Y-158680D01*
X232195Y-158103D01*
X232901Y-157365D01*
X233638Y-156465D01*
X234405Y-155404D01*
X235203Y-154181D01*
X240295Y-157354D01*
D02*
G37*
G36*
X-321955Y-159523D02*
X-321987Y-159094D01*
X-322084Y-158642D01*
X-322244Y-158168D01*
X-322469Y-157671D01*
X-322758Y-157152D01*
X-323111Y-156610D01*
X-323529Y-156046D01*
X-324557Y-154851D01*
X-325168Y-154220D01*
X-324107Y-151038D01*
X-323698Y-151425D01*
X-323332Y-151726D01*
X-323009Y-151942D01*
X-322730Y-152071D01*
X-322493Y-152114D01*
X-322299Y-152071D01*
X-322149Y-151942D01*
X-322041Y-151726D01*
X-321977Y-151425D01*
X-321955Y-151038D01*
Y-159523D01*
D02*
G37*
G36*
X321775Y-143103D02*
X322071Y-147723D01*
X322150Y-147902D01*
X322239Y-147963D01*
X315301D01*
X315390Y-147902D01*
X315469Y-147723D01*
X315540Y-147423D01*
X315601Y-147002D01*
X315695Y-145802D01*
X315770Y-141962D01*
X321770D01*
X321775Y-143103D01*
D02*
G37*
G36*
X-243839Y-135793D02*
X-244146Y-136259D01*
X-244321Y-136824D01*
X-244364Y-137488D01*
X-244275Y-138250D01*
X-244055Y-139111D01*
X-243703Y-140070D01*
X-243219Y-141128D01*
X-242604Y-142284D01*
X-241857Y-143539D01*
X-246949Y-146712D01*
X-247743Y-145495D01*
X-249239Y-143546D01*
X-249941Y-142814D01*
X-250613Y-142243D01*
X-251254Y-141834D01*
X-251864Y-141587D01*
X-252444Y-141501D01*
X-252994Y-141577D01*
X-253513Y-141814D01*
X-243400Y-135425D01*
X-243839Y-135793D01*
D02*
G37*
G36*
X-268808Y-151049D02*
X-269429Y-151788D01*
X-269976Y-152542D01*
X-270451Y-153312D01*
X-270852Y-154097D01*
X-271181Y-154898D01*
X-271436Y-155714D01*
X-271619Y-156546D01*
X-271728Y-157393D01*
X-271765Y-158256D01*
X-277765D01*
X-277801Y-157393D01*
X-277911Y-156546D01*
X-278093Y-155714D01*
X-278349Y-154898D01*
X-278677Y-154097D01*
X-279079Y-153312D01*
X-279553Y-152542D01*
X-280101Y-151788D01*
X-280721Y-151049D01*
X-281415Y-150326D01*
X-268115D01*
X-268808Y-151049D01*
D02*
G37*
G36*
X-337894Y-151668D02*
X-337731Y-151785D01*
X-337487Y-151991D01*
X-336260Y-153135D01*
X-334295Y-155073D01*
X-335833Y-157779D01*
X-336365Y-157267D01*
X-337284Y-156518D01*
X-337670Y-156280D01*
X-338007Y-156133D01*
X-338296Y-156077D01*
X-338536Y-156112D01*
X-338727Y-156238D01*
X-338869Y-156456D01*
X-338963Y-156764D01*
X-337973Y-151698D01*
X-337974Y-151639D01*
X-337894Y-151668D01*
D02*
G37*
G36*
X284413Y-144401D02*
X284496Y-145362D01*
X284642Y-146282D01*
X284851Y-147162D01*
X285123Y-148001D01*
X285456Y-148799D01*
X285853Y-149557D01*
X286312Y-150274D01*
X286833Y-150951D01*
X287418Y-151587D01*
X283175Y-155829D01*
X282539Y-155245D01*
X281863Y-154724D01*
X281146Y-154264D01*
X280388Y-153868D01*
X279589Y-153534D01*
X278750Y-153263D01*
X277871Y-153054D01*
X276950Y-152908D01*
X275989Y-152824D01*
X274987Y-152803D01*
X284391Y-143399D01*
X284413Y-144401D01*
D02*
G37*
G36*
X-220338Y-170413D02*
X-220530Y-170937D01*
X-220572Y-171527D01*
X-220464Y-172183D01*
X-220205Y-172905D01*
X-219796Y-173694D01*
X-219237Y-174548D01*
X-218528Y-175468D01*
X-217668Y-176454D01*
X-216658Y-177506D01*
X-220849Y-181800D01*
X-221903Y-180788D01*
X-223811Y-179218D01*
X-224664Y-178660D01*
X-225450Y-178254D01*
X-226169Y-177998D01*
X-226821Y-177894D01*
X-227407Y-177942D01*
X-227925Y-178140D01*
X-228376Y-178490D01*
X-219996Y-169955D01*
X-220338Y-170413D01*
D02*
G37*
G36*
X-295713Y-196500D02*
X-295532Y-197010D01*
X-295230Y-197460D01*
X-294808Y-197850D01*
X-294265Y-198180D01*
X-293602Y-198450D01*
X-292818Y-198660D01*
X-291914Y-198810D01*
X-290888Y-198900D01*
X-289743Y-198930D01*
Y-204930D01*
X-290888Y-204960D01*
X-291914Y-205050D01*
X-292818Y-205200D01*
X-293602Y-205410D01*
X-294265Y-205680D01*
X-294808Y-206010D01*
X-295230Y-206400D01*
X-295532Y-206850D01*
X-295713Y-207360D01*
X-295773Y-207930D01*
Y-195930D01*
X-295713Y-196500D01*
D02*
G37*
G36*
X-321955Y-204557D02*
X-321982Y-204342D01*
X-322061Y-204151D01*
X-322194Y-203982D01*
X-322380Y-203836D01*
X-322619Y-203712D01*
X-322911Y-203610D01*
X-323257Y-203531D01*
X-323656Y-203475D01*
X-324107Y-203441D01*
X-324612Y-203430D01*
Y-200430D01*
X-324107Y-200419D01*
X-323656Y-200385D01*
X-323257Y-200329D01*
X-322911Y-200250D01*
X-322619Y-200148D01*
X-322380Y-200025D01*
X-322194Y-199878D01*
X-322061Y-199709D01*
X-321982Y-199517D01*
X-321955Y-199303D01*
Y-204557D01*
D02*
G37*
G36*
X296027Y-204374D02*
X295967Y-203804D01*
X295786Y-203294D01*
X295484Y-202844D01*
X295062Y-202454D01*
X294519Y-202124D01*
X293856Y-201854D01*
X293072Y-201644D01*
X292167Y-201494D01*
X291142Y-201404D01*
X289996Y-201374D01*
Y-195374D01*
X291142Y-195344D01*
X292167Y-195254D01*
X293072Y-195104D01*
X293856Y-194894D01*
X294519Y-194624D01*
X295062Y-194294D01*
X295484Y-193904D01*
X295786Y-193454D01*
X295967Y-192944D01*
X296027Y-192374D01*
Y-204374D01*
D02*
G37*
G36*
X258814Y-219970D02*
X258849Y-220430D01*
X258908Y-220835D01*
X258990Y-221187D01*
X259096Y-221485D01*
X259225Y-221728D01*
X259377Y-221917D01*
X259554Y-222053D01*
X259753Y-222134D01*
X259977Y-222161D01*
X254627D01*
X254851Y-222134D01*
X255050Y-222053D01*
X255226Y-221917D01*
X255379Y-221728D01*
X255508Y-221485D01*
X255614Y-221187D01*
X255696Y-220835D01*
X255755Y-220430D01*
X255790Y-219970D01*
X255802Y-219456D01*
X258802D01*
X258814Y-219970D01*
D02*
G37*
G36*
X-337664Y-209986D02*
X-337264Y-210326D01*
X-336858Y-210626D01*
X-336446Y-210886D01*
X-336029Y-211106D01*
X-335607Y-211286D01*
X-335178Y-211426D01*
X-334745Y-211526D01*
X-334305Y-211586D01*
X-333860Y-211606D01*
Y-214606D01*
X-334305Y-214626D01*
X-334745Y-214686D01*
X-335178Y-214786D01*
X-335607Y-214926D01*
X-336029Y-215106D01*
X-336446Y-215326D01*
X-336858Y-215586D01*
X-337264Y-215886D01*
X-337664Y-216226D01*
X-338059Y-216606D01*
Y-209606D01*
X-337664Y-209986D01*
D02*
G37*
G36*
X-267468Y-215326D02*
X-267916Y-215189D01*
X-269250Y-214865D01*
X-269692Y-214786D01*
X-271011Y-214635D01*
X-271448Y-214613D01*
X-271884Y-214606D01*
X-273829Y-211606D01*
X-273351Y-211584D01*
X-272913Y-211516D01*
X-272513Y-211404D01*
X-272151Y-211248D01*
X-271828Y-211046D01*
X-271544Y-210799D01*
X-271298Y-210508D01*
X-271091Y-210172D01*
X-270922Y-209791D01*
X-270792Y-209365D01*
X-267468Y-215326D01*
D02*
G37*
G36*
X-402666Y-183024D02*
X-402473Y-183933D01*
X-402152Y-184885D01*
X-401704Y-185881D01*
X-401128Y-186920D01*
X-400425Y-188002D01*
X-399594Y-189128D01*
X-397550Y-191509D01*
X-396337Y-192765D01*
X-398458Y-199129D01*
X-398710Y-198907D01*
X-399001Y-198709D01*
X-399330Y-198533D01*
X-399697Y-198382D01*
X-400102Y-198253D01*
X-400546Y-198148D01*
X-401027Y-198067D01*
X-401547Y-198008D01*
X-402701Y-197962D01*
X-402731Y-182158D01*
X-402666Y-183024D01*
D02*
G37*
G36*
X-295713Y-173640D02*
X-295532Y-174150D01*
X-295230Y-174600D01*
X-294808Y-174990D01*
X-294265Y-175320D01*
X-293602Y-175590D01*
X-292818Y-175800D01*
X-291914Y-175950D01*
X-290888Y-176040D01*
X-289743Y-176070D01*
Y-182070D01*
X-290888Y-182100D01*
X-291914Y-182190D01*
X-292818Y-182340D01*
X-293602Y-182550D01*
X-294265Y-182820D01*
X-294808Y-183150D01*
X-295230Y-183540D01*
X-295532Y-183990D01*
X-295713Y-184500D01*
X-295773Y-185070D01*
Y-173070D01*
X-295713Y-173640D01*
D02*
G37*
G36*
X295773Y-182276D02*
X295713Y-181706D01*
X295532Y-181196D01*
X295230Y-180746D01*
X294808Y-180356D01*
X294265Y-180026D01*
X293602Y-179756D01*
X292818Y-179546D01*
X291914Y-179396D01*
X290888Y-179306D01*
X289743Y-179276D01*
Y-173276D01*
X290888Y-173246D01*
X291914Y-173156D01*
X292818Y-173006D01*
X293602Y-172796D01*
X294265Y-172526D01*
X294808Y-172196D01*
X295230Y-171806D01*
X295532Y-171356D01*
X295713Y-170846D01*
X295773Y-170276D01*
Y-182276D01*
D02*
G37*
G36*
X-321955Y-181950D02*
X-321984Y-181688D01*
X-322071Y-181453D01*
X-322217Y-181246D01*
X-322421Y-181067D01*
X-322683Y-180915D01*
X-323003Y-180791D01*
X-323381Y-180694D01*
X-323818Y-180625D01*
X-324313Y-180584D01*
X-324866Y-180570D01*
Y-177570D01*
X-324313Y-177556D01*
X-323818Y-177515D01*
X-323381Y-177446D01*
X-323003Y-177349D01*
X-322683Y-177225D01*
X-322421Y-177073D01*
X-322217Y-176894D01*
X-322071Y-176686D01*
X-321984Y-176452D01*
X-321955Y-176189D01*
Y-181950D01*
D02*
G37*
G36*
X-206003Y-188125D02*
X-205278Y-188744D01*
X-204519Y-189326D01*
X-202896Y-190381D01*
X-202034Y-190854D01*
X-200205Y-191690D01*
X-199238Y-192054D01*
X-198238Y-192381D01*
X-210187Y-196692D01*
X-209652Y-196423D01*
X-209290Y-196066D01*
X-209102Y-195620D01*
X-209086Y-195086D01*
X-209244Y-194463D01*
X-209574Y-193752D01*
X-210078Y-192952D01*
X-210756Y-192063D01*
X-211606Y-191086D01*
X-212629Y-190020D01*
X-206694Y-187470D01*
X-206003Y-188125D01*
D02*
G37*
G36*
X214122Y-191491D02*
X213198Y-192613D01*
X211786Y-194624D01*
X211297Y-195513D01*
X210953Y-196325D01*
X210755Y-197059D01*
X210701Y-197716D01*
X210793Y-198295D01*
X211029Y-198797D01*
X211411Y-199221D01*
X202290Y-191482D01*
X202773Y-191790D01*
X203309Y-191943D01*
X203901Y-191941D01*
X204547Y-191784D01*
X205248Y-191471D01*
X206004Y-191003D01*
X206814Y-190380D01*
X207679Y-189602D01*
X208598Y-188668D01*
X209573Y-187580D01*
X214122Y-191491D01*
D02*
G37*
G36*
X-256463Y-190388D02*
X-257186Y-189694D01*
X-257925Y-189074D01*
X-258679Y-188526D01*
X-259449Y-188052D01*
X-260234Y-187650D01*
X-261035Y-187322D01*
X-261851Y-187066D01*
X-262683Y-186884D01*
X-263530Y-186774D01*
X-264392Y-186738D01*
Y-180738D01*
X-263530Y-180701D01*
X-262683Y-180592D01*
X-261851Y-180409D01*
X-261035Y-180154D01*
X-260234Y-179825D01*
X-259449Y-179424D01*
X-258679Y-178949D01*
X-257925Y-178402D01*
X-257186Y-177781D01*
X-256463Y-177088D01*
Y-190388D01*
D02*
G37*
G36*
X253629Y-141596D02*
X253110Y-141359D01*
X252561Y-141283D01*
X251980Y-141369D01*
X251370Y-141616D01*
X250729Y-142025D01*
X250057Y-142596D01*
X249355Y-143328D01*
X248622Y-144221D01*
X247859Y-145277D01*
X247065Y-146494D01*
X241974Y-143319D01*
X242721Y-142064D01*
X243820Y-139851D01*
X244172Y-138892D01*
X244392Y-138031D01*
X244480Y-137269D01*
X244437Y-136606D01*
X244262Y-136041D01*
X243955Y-135574D01*
X243517Y-135206D01*
X253629Y-141596D01*
D02*
G37*
G36*
X284329Y-59489D02*
X283763Y-59418D01*
X283216Y-59510D01*
X282689Y-59766D01*
X282180Y-60185D01*
X281691Y-60767D01*
X281221Y-61513D01*
X280770Y-62422D01*
X280339Y-63494D01*
X279927Y-64730D01*
X279534Y-66129D01*
X273725Y-64627D01*
X274062Y-63206D01*
X274448Y-60764D01*
X274496Y-59744D01*
X274448Y-58856D01*
X274305Y-58103D01*
X274065Y-57483D01*
X273728Y-56996D01*
X273296Y-56643D01*
X272768Y-56423D01*
X284329Y-59489D01*
D02*
G37*
G36*
X-313617Y-58980D02*
X-314062Y-58190D01*
X-314557Y-57483D01*
X-315103Y-56859D01*
X-315700Y-56318D01*
X-316346Y-55860D01*
X-317043Y-55486D01*
X-317791Y-55194D01*
X-318588Y-54986D01*
X-319437Y-54862D01*
X-320335Y-54820D01*
X-318298Y-48820D01*
X-317496Y-48795D01*
X-316679Y-48719D01*
X-315846Y-48594D01*
X-314998Y-48418D01*
X-313255Y-47915D01*
X-312361Y-47588D01*
X-310526Y-46784D01*
X-309585Y-46306D01*
X-313617Y-58980D01*
D02*
G37*
G36*
X337398Y-58285D02*
X337356Y-58033D01*
X337229Y-57897D01*
X337017Y-57876D01*
X336720Y-57972D01*
X336338Y-58183D01*
X335871Y-58510D01*
X335320Y-58953D01*
X333962Y-60186D01*
X333156Y-60977D01*
X331035Y-54613D01*
X332244Y-53375D01*
X335107Y-50075D01*
X335807Y-49114D01*
X336380Y-48222D01*
X336826Y-47400D01*
X337144Y-46646D01*
X337335Y-45962D01*
X337398Y-45346D01*
Y-58285D01*
D02*
G37*
G36*
X-273307Y-56564D02*
X-273740Y-56917D01*
X-274076Y-57404D01*
X-274316Y-58024D01*
X-274459Y-58778D01*
X-274507Y-59665D01*
X-274458Y-60686D01*
X-274313Y-61840D01*
X-274072Y-63127D01*
X-273734Y-64548D01*
X-279543Y-66052D01*
X-279936Y-64654D01*
X-280780Y-62346D01*
X-281231Y-61437D01*
X-281701Y-60692D01*
X-282190Y-60110D01*
X-282699Y-59691D01*
X-283227Y-59435D01*
X-283774Y-59343D01*
X-284340Y-59414D01*
X-272779Y-56344D01*
X-273307Y-56564D01*
D02*
G37*
G36*
X410399Y-60039D02*
X410144Y-60130D01*
X409919Y-60282D01*
X409724Y-60494D01*
X409559Y-60767D01*
X409424Y-61100D01*
X409319Y-61494D01*
X409244Y-61948D01*
X409199Y-62464D01*
X409184Y-63039D01*
X406184D01*
X406169Y-62464D01*
X406124Y-61948D01*
X406049Y-61494D01*
X405944Y-61100D01*
X405809Y-60767D01*
X405644Y-60494D01*
X405449Y-60282D01*
X405224Y-60130D01*
X404969Y-60039D01*
X404684Y-60009D01*
X410684D01*
X410399Y-60039D01*
D02*
G37*
G36*
X362887Y-58285D02*
X362632Y-58376D01*
X362407Y-58528D01*
X362212Y-58740D01*
X362047Y-59013D01*
X361912Y-59346D01*
X361807Y-59740D01*
X361732Y-60195D01*
X361687Y-60710D01*
X361672Y-61286D01*
X358672D01*
X358657Y-60710D01*
X358612Y-60195D01*
X358537Y-59740D01*
X358432Y-59346D01*
X358297Y-59013D01*
X358132Y-58740D01*
X357937Y-58528D01*
X357712Y-58376D01*
X357457Y-58285D01*
X357172Y-58255D01*
X363172D01*
X362887Y-58285D01*
D02*
G37*
G36*
X-337115Y-46390D02*
X-336934Y-46900D01*
X-336632Y-47350D01*
X-336210Y-47740D01*
X-335667Y-48070D01*
X-335004Y-48340D01*
X-334220Y-48550D01*
X-333316Y-48700D01*
X-332290Y-48790D01*
X-331144Y-48820D01*
Y-54820D01*
X-332290Y-54850D01*
X-333316Y-54940D01*
X-334220Y-55090D01*
X-335004Y-55300D01*
X-335667Y-55570D01*
X-336210Y-55900D01*
X-336632Y-56290D01*
X-336934Y-56740D01*
X-337115Y-57250D01*
X-337175Y-57820D01*
Y-45820D01*
X-337115Y-46390D01*
D02*
G37*
G36*
X-278936Y-36007D02*
X-278449Y-38430D01*
X-278140Y-39404D01*
X-277787Y-40219D01*
X-277391Y-40876D01*
X-276950Y-41374D01*
X-276466Y-41714D01*
X-275938Y-41895D01*
X-275366Y-41918D01*
X-287274Y-43056D01*
X-286718Y-42926D01*
X-286237Y-42650D01*
X-285831Y-42227D01*
X-285499Y-41658D01*
X-285243Y-40942D01*
X-285061Y-40079D01*
X-284954Y-39070D01*
X-284922Y-37915D01*
X-284965Y-36613D01*
X-285082Y-35165D01*
X-279113Y-34557D01*
X-278936Y-36007D01*
D02*
G37*
G36*
X337175Y-35718D02*
X337115Y-35148D01*
X336934Y-34638D01*
X336632Y-34188D01*
X336210Y-33798D01*
X335667Y-33468D01*
X335004Y-33198D01*
X334220Y-32988D01*
X333316Y-32838D01*
X332290Y-32748D01*
X331144Y-32718D01*
Y-26718D01*
X332290Y-26688D01*
X333316Y-26598D01*
X334220Y-26448D01*
X335004Y-26238D01*
X335667Y-25968D01*
X336210Y-25638D01*
X336632Y-25248D01*
X336934Y-24798D01*
X337115Y-24288D01*
X337175Y-23718D01*
Y-35718D01*
D02*
G37*
G36*
X-359097Y-35680D02*
X-359332Y-35512D01*
X-359610Y-35429D01*
X-359929Y-35430D01*
X-360291Y-35516D01*
X-360694Y-35686D01*
X-361139Y-35940D01*
X-361626Y-36279D01*
X-362155Y-36702D01*
X-363340Y-37801D01*
X-365509Y-35728D01*
X-364913Y-35110D01*
X-363976Y-34004D01*
X-363636Y-33516D01*
X-363382Y-33070D01*
X-363212Y-32667D01*
X-363128Y-32307D01*
X-363129Y-31990D01*
X-363216Y-31716D01*
X-363387Y-31485D01*
X-359097Y-35680D01*
D02*
G37*
G36*
X317647Y-46500D02*
X317063Y-47136D01*
X316541Y-47813D01*
X316082Y-48530D01*
X315686Y-49288D01*
X315352Y-50086D01*
X315080Y-50925D01*
X314872Y-51805D01*
X314725Y-52725D01*
X314642Y-53686D01*
X314621Y-54688D01*
X305216Y-45284D01*
X306218Y-45263D01*
X307179Y-45179D01*
X308100Y-45033D01*
X308979Y-44824D01*
X309819Y-44553D01*
X310617Y-44219D01*
X311375Y-43822D01*
X312092Y-43363D01*
X312768Y-42842D01*
X313404Y-42258D01*
X317647Y-46500D01*
D02*
G37*
G36*
X409199Y-41670D02*
X409244Y-42181D01*
X409319Y-42631D01*
X409424Y-43021D01*
X409559Y-43351D01*
X409724Y-43621D01*
X409919Y-43830D01*
X410144Y-43980D01*
X410399Y-44071D01*
X410684Y-44100D01*
X404684D01*
X404969Y-44071D01*
X405224Y-43980D01*
X405449Y-43830D01*
X405644Y-43621D01*
X405809Y-43351D01*
X405944Y-43021D01*
X406049Y-42631D01*
X406124Y-42181D01*
X406169Y-41670D01*
X406184Y-41101D01*
X409184D01*
X409199Y-41670D01*
D02*
G37*
G36*
X285070Y-35242D02*
X284953Y-36690D01*
X284942Y-39147D01*
X285049Y-40156D01*
X285231Y-41019D01*
X285487Y-41735D01*
X285818Y-42304D01*
X286224Y-42727D01*
X286705Y-43004D01*
X287261Y-43134D01*
X275354Y-41994D01*
X275926Y-41971D01*
X276454Y-41790D01*
X276938Y-41451D01*
X277379Y-40953D01*
X277775Y-40296D01*
X278128Y-39481D01*
X278437Y-38507D01*
X278702Y-37374D01*
X278924Y-36083D01*
X279101Y-34634D01*
X285070Y-35242D01*
D02*
G37*
G36*
X405460Y-68625D02*
X405520Y-69065D01*
X405620Y-69499D01*
X405760Y-69927D01*
X405940Y-70349D01*
X406160Y-70767D01*
X406420Y-71178D01*
X406720Y-71584D01*
X407060Y-71985D01*
X407440Y-72379D01*
X400440D01*
X400820Y-71985D01*
X401160Y-71584D01*
X401460Y-71178D01*
X401720Y-70767D01*
X401940Y-70349D01*
X402120Y-69927D01*
X402260Y-69499D01*
X402360Y-69065D01*
X402420Y-68625D01*
X402440Y-68180D01*
X405440D01*
X405460Y-68625D01*
D02*
G37*
G36*
X261585Y-118673D02*
X261044Y-120012D01*
X260310Y-122342D01*
X260116Y-123333D01*
X260037Y-124207D01*
X260074Y-124965D01*
X260226Y-125607D01*
X260494Y-126133D01*
X260878Y-126542D01*
X261377Y-126835D01*
X250284Y-122157D01*
X250842Y-122310D01*
X251405Y-122298D01*
X251972Y-122123D01*
X252544Y-121784D01*
X253120Y-121282D01*
X253701Y-120615D01*
X254287Y-119784D01*
X254877Y-118790D01*
X255471Y-117632D01*
X256070Y-116310D01*
X261585Y-118673D01*
D02*
G37*
G36*
X-338214Y-113246D02*
X-338120Y-113383D01*
X-337963Y-113504D01*
X-337744Y-113609D01*
X-337462Y-113698D01*
X-337117Y-113771D01*
X-336709Y-113827D01*
X-335706Y-113892D01*
X-335110Y-113900D01*
Y-116900D01*
X-335706Y-116908D01*
X-337117Y-117029D01*
X-337462Y-117102D01*
X-337744Y-117191D01*
X-337963Y-117296D01*
X-338120Y-117417D01*
X-338214Y-117554D01*
X-338246Y-117708D01*
Y-113092D01*
X-338214Y-113246D01*
D02*
G37*
G36*
X-261565Y-97374D02*
X-261938Y-97788D01*
X-262197Y-98321D01*
X-262340Y-98970D01*
X-262368Y-99737D01*
X-262280Y-100621D01*
X-262078Y-101622D01*
X-261759Y-102741D01*
X-261326Y-103977D01*
X-260777Y-105331D01*
X-266291Y-107697D01*
X-266892Y-106374D01*
X-268076Y-104220D01*
X-268659Y-103390D01*
X-269237Y-102725D01*
X-269808Y-102223D01*
X-270375Y-101886D01*
X-270935Y-101714D01*
X-271490Y-101706D01*
X-272038Y-101862D01*
X-261076Y-97077D01*
X-261565Y-97374D01*
D02*
G37*
G36*
X400369Y-143200D02*
X399974Y-142820D01*
X399574Y-142480D01*
X399168Y-142180D01*
X398756Y-141920D01*
X398339Y-141700D01*
X397917Y-141520D01*
X397488Y-141380D01*
X397347Y-141348D01*
Y-142676D01*
X397307Y-142395D01*
X397184Y-142144D01*
X396980Y-141923D01*
X396694Y-141731D01*
X396327Y-141569D01*
X395878Y-141436D01*
X395347Y-141333D01*
X394734Y-141259D01*
X394040Y-141215D01*
X393265Y-141200D01*
Y-138200D01*
X394040Y-138185D01*
X395347Y-138067D01*
X395878Y-137964D01*
X396327Y-137831D01*
X396694Y-137669D01*
X396980Y-137477D01*
X397184Y-137255D01*
X397307Y-137005D01*
X397347Y-136724D01*
Y-138053D01*
X397488Y-138020D01*
X397917Y-137880D01*
X398339Y-137700D01*
X398756Y-137480D01*
X399168Y-137220D01*
X399574Y-136920D01*
X399974Y-136580D01*
X400369Y-136200D01*
Y-143200D01*
D02*
G37*
G36*
X339438Y-130467D02*
X339262Y-130379D01*
X338979Y-130299D01*
X338587Y-130229D01*
X338088Y-130168D01*
X335944Y-130042D01*
X332829Y-130000D01*
Y-124000D01*
X333975Y-123995D01*
X338979Y-123701D01*
X339262Y-123621D01*
X339438Y-123533D01*
Y-130467D01*
D02*
G37*
G36*
X-255365Y-117862D02*
X-254175Y-120029D01*
X-253588Y-120866D01*
X-253007Y-121538D01*
X-252432Y-122046D01*
X-251863Y-122389D01*
X-251299Y-122568D01*
X-250741Y-122583D01*
X-250189Y-122433D01*
X-261208Y-127086D01*
X-260717Y-126796D01*
X-260341Y-126388D01*
X-260080Y-125863D01*
X-259935Y-125220D01*
X-259904Y-124460D01*
X-259989Y-123583D01*
X-260189Y-122589D01*
X-260505Y-121476D01*
X-260935Y-120247D01*
X-261481Y-118900D01*
X-255968Y-116532D01*
X-255365Y-117862D01*
D02*
G37*
G36*
X300897Y-94152D02*
X301636Y-94773D01*
X302390Y-95321D01*
X303160Y-95795D01*
X303945Y-96196D01*
X304746Y-96525D01*
X305562Y-96781D01*
X306394Y-96963D01*
X307241Y-97072D01*
X308104Y-97109D01*
Y-103109D01*
X307241Y-103146D01*
X306394Y-103255D01*
X305562Y-103438D01*
X304746Y-103693D01*
X303945Y-104022D01*
X303160Y-104423D01*
X302390Y-104897D01*
X301636Y-105445D01*
X300897Y-106066D01*
X300174Y-106759D01*
Y-93459D01*
X300897Y-94152D01*
D02*
G37*
G36*
X-353805Y-85504D02*
X-352876Y-86265D01*
X-352471Y-86523D01*
X-352107Y-86698D01*
X-351783Y-86790D01*
X-351499Y-86800D01*
X-351256Y-86728D01*
X-351052Y-86573D01*
X-350889Y-86337D01*
X-353307Y-91036D01*
X-353351Y-90847D01*
X-353434Y-90632D01*
X-353558Y-90393D01*
X-353722Y-90129D01*
X-353925Y-89841D01*
X-354453Y-89190D01*
X-355141Y-88440D01*
X-355546Y-88028D01*
X-354330Y-85000D01*
X-353805Y-85504D01*
D02*
G37*
G36*
X-270243Y-77906D02*
X-269395Y-80228D01*
X-268942Y-81144D01*
X-268469Y-81896D01*
X-267978Y-82485D01*
X-267467Y-82911D01*
X-266937Y-83173D01*
X-266388Y-83272D01*
X-265819Y-83208D01*
X-277416Y-86138D01*
X-276887Y-85925D01*
X-276453Y-85579D01*
X-276116Y-85099D01*
X-275875Y-84486D01*
X-275729Y-83740D01*
X-275680Y-82860D01*
X-275728Y-81846D01*
X-275871Y-80700D01*
X-276110Y-79419D01*
X-276446Y-78005D01*
X-270638Y-76500D01*
X-270243Y-77906D01*
D02*
G37*
G36*
X276527Y-77750D02*
X276192Y-79164D01*
X275810Y-81591D01*
X275763Y-82604D01*
X275812Y-83484D01*
X275958Y-84231D01*
X276199Y-84844D01*
X276537Y-85323D01*
X276970Y-85669D01*
X277500Y-85881D01*
X265901Y-82955D01*
X266470Y-83020D01*
X267020Y-82920D01*
X267550Y-82658D01*
X268060Y-82232D01*
X268552Y-81643D01*
X269024Y-80891D01*
X269476Y-79975D01*
X269910Y-78895D01*
X270324Y-77653D01*
X270718Y-76247D01*
X276527Y-77750D01*
D02*
G37*
G36*
X352073Y-98705D02*
X352196Y-98955D01*
X352400Y-99177D01*
X352686Y-99369D01*
X353053Y-99531D01*
X353502Y-99664D01*
X354033Y-99767D01*
X354645Y-99841D01*
X355340Y-99885D01*
X356115Y-99900D01*
Y-102900D01*
X355340Y-102915D01*
X354033Y-103033D01*
X353502Y-103136D01*
X353053Y-103269D01*
X352686Y-103431D01*
X352400Y-103623D01*
X352196Y-103844D01*
X352073Y-104095D01*
X352032Y-104376D01*
Y-98424D01*
X352073Y-98705D01*
D02*
G37*
G36*
X272134Y-101604D02*
X271585Y-101449D01*
X271030Y-101458D01*
X270470Y-101631D01*
X269904Y-101968D01*
X269333Y-102471D01*
X268756Y-103137D01*
X268173Y-103968D01*
X267585Y-104963D01*
X266991Y-106122D01*
X266392Y-107446D01*
X260875Y-105088D01*
X261423Y-103733D01*
X262172Y-101377D01*
X262374Y-100375D01*
X262460Y-99490D01*
X262432Y-98723D01*
X262288Y-98074D01*
X262029Y-97542D01*
X261655Y-97128D01*
X261166Y-96831D01*
X272134Y-101604D01*
D02*
G37*
G36*
X-397762Y-86622D02*
X-397479Y-86701D01*
X-397088Y-86771D01*
X-396588Y-86832D01*
X-394444Y-86958D01*
X-391329Y-87000D01*
Y-93000D01*
X-392475Y-93005D01*
X-397479Y-93299D01*
X-397762Y-93379D01*
X-397938Y-93468D01*
Y-86533D01*
X-397762Y-86622D01*
D02*
G37*
G36*
X226949Y-213002D02*
X227688Y-213623D01*
X228442Y-214170D01*
X229212Y-214645D01*
X229997Y-215046D01*
X230798Y-215375D01*
X231614Y-215630D01*
X232446Y-215813D01*
X233293Y-215922D01*
X234155Y-215959D01*
Y-221959D01*
X233293Y-221995D01*
X232446Y-222105D01*
X231614Y-222287D01*
X230798Y-222543D01*
X229997Y-222871D01*
X229212Y-223273D01*
X228442Y-223747D01*
X227688Y-224295D01*
X226949Y-224915D01*
X226226Y-225609D01*
Y-212309D01*
X226949Y-213002D01*
D02*
G37*
G36*
X-194055Y-196111D02*
X-193799Y-196618D01*
X-193391Y-197065D01*
X-192832Y-197452D01*
X-192121Y-197780D01*
X-191258Y-198048D01*
X-190245Y-198257D01*
X-189079Y-198406D01*
X-187762Y-198496D01*
X-186294Y-198525D01*
X-186186Y-201525D01*
X-177655D01*
X-154898Y-224282D01*
X-84582D01*
X-81026Y-227838D01*
Y-245364D01*
X-91694D01*
X-101854Y-255524D01*
X-101854Y-288290D01*
X-107442Y-293878D01*
X-136398D01*
X-154432Y-275844D01*
X-168656D01*
X-175768Y-268732D01*
X-173482Y-266446D01*
X-173228D01*
X-180020Y-264160D01*
X-165354Y-249494D01*
Y-230886D01*
X-165608D01*
X-174498Y-221996D01*
X-194564D01*
X-201525Y-215035D01*
Y-201525D01*
X-193869D01*
X-194160Y-195545D01*
X-194055Y-196111D01*
D02*
G37*
G36*
X110911Y-287353D02*
X111002Y-287608D01*
X111154Y-287833D01*
X111366Y-288028D01*
X111639Y-288193D01*
X111972Y-288328D01*
X112366Y-288433D01*
X112821Y-288508D01*
X113336Y-288553D01*
X113912Y-288568D01*
Y-291568D01*
X113336Y-291583D01*
X112821Y-291628D01*
X112366Y-291703D01*
X111972Y-291808D01*
X111639Y-291943D01*
X111366Y-292108D01*
X111154Y-292303D01*
X111002Y-292528D01*
X110911Y-292783D01*
X110881Y-293068D01*
Y-287068D01*
X110911Y-287353D01*
D02*
G37*
G36*
X130215D02*
X130306Y-287608D01*
X130458Y-287833D01*
X130670Y-288028D01*
X130943Y-288193D01*
X131276Y-288328D01*
X131670Y-288433D01*
X132125Y-288508D01*
X132640Y-288553D01*
X133216Y-288568D01*
Y-291568D01*
X132640Y-291583D01*
X132125Y-291628D01*
X131670Y-291703D01*
X131276Y-291808D01*
X130943Y-291943D01*
X130670Y-292108D01*
X130458Y-292303D01*
X130306Y-292528D01*
X130215Y-292783D01*
X130185Y-293068D01*
Y-287068D01*
X130215Y-287353D01*
D02*
G37*
G36*
X-20012Y-286753D02*
X-21548Y-288510D01*
X-22172Y-289341D01*
X-22700Y-290142D01*
X-23132Y-290910D01*
X-23468Y-291648D01*
X-23708Y-292355D01*
X-23802Y-292795D01*
X-23765Y-293018D01*
X-23660Y-293412D01*
X-23525Y-293745D01*
X-23360Y-294018D01*
X-23165Y-294230D01*
X-22940Y-294382D01*
X-22685Y-294473D01*
X-22400Y-294503D01*
X-28400D01*
X-28115Y-294473D01*
X-27860Y-294382D01*
X-27635Y-294230D01*
X-27440Y-294018D01*
X-27275Y-293745D01*
X-27140Y-293412D01*
X-27035Y-293018D01*
X-26998Y-292795D01*
X-27092Y-292355D01*
X-27332Y-291648D01*
X-27668Y-290910D01*
X-28100Y-290142D01*
X-28628Y-289341D01*
X-29252Y-288510D01*
X-30788Y-286753D01*
X-31700Y-285827D01*
X-19100D01*
X-20012Y-286753D01*
D02*
G37*
G36*
X5388D02*
X3852Y-288510D01*
X3228Y-289341D01*
X2700Y-290142D01*
X2268Y-290910D01*
X1932Y-291648D01*
X1692Y-292355D01*
X1598Y-292795D01*
X1635Y-293018D01*
X1740Y-293412D01*
X1875Y-293745D01*
X2040Y-294018D01*
X2235Y-294230D01*
X2460Y-294382D01*
X2715Y-294473D01*
X3000Y-294503D01*
X-3000D01*
X-2715Y-294473D01*
X-2460Y-294382D01*
X-2235Y-294230D01*
X-2040Y-294018D01*
X-1875Y-293745D01*
X-1740Y-293412D01*
X-1635Y-293018D01*
X-1598Y-292795D01*
X-1692Y-292355D01*
X-1932Y-291648D01*
X-2268Y-290910D01*
X-2700Y-290142D01*
X-3228Y-289341D01*
X-3852Y-288510D01*
X-5388Y-286753D01*
X-6300Y-285827D01*
X6300D01*
X5388Y-286753D01*
D02*
G37*
G36*
X30788D02*
X29252Y-288510D01*
X28628Y-289341D01*
X28100Y-290142D01*
X27668Y-290910D01*
X27332Y-291648D01*
X27092Y-292355D01*
X26998Y-292795D01*
X27035Y-293018D01*
X27140Y-293412D01*
X27275Y-293745D01*
X27440Y-294018D01*
X27635Y-294230D01*
X27860Y-294382D01*
X28115Y-294473D01*
X28400Y-294503D01*
X22400D01*
X22685Y-294473D01*
X22940Y-294382D01*
X23165Y-294230D01*
X23360Y-294018D01*
X23525Y-293745D01*
X23660Y-293412D01*
X23765Y-293018D01*
X23802Y-292795D01*
X23708Y-292355D01*
X23468Y-291648D01*
X23132Y-290910D01*
X22700Y-290142D01*
X22172Y-289341D01*
X21548Y-288510D01*
X20012Y-286753D01*
X19100Y-285827D01*
X31700D01*
X30788Y-286753D01*
D02*
G37*
G36*
X141087Y-293068D02*
X141057Y-292783D01*
X140966Y-292528D01*
X140814Y-292303D01*
X140602Y-292108D01*
X140329Y-291943D01*
X139996Y-291808D01*
X139602Y-291703D01*
X139148Y-291628D01*
X138632Y-291583D01*
X138056Y-291568D01*
Y-288568D01*
X138632Y-288553D01*
X139148Y-288508D01*
X139602Y-288433D01*
X139996Y-288328D01*
X140329Y-288193D01*
X140602Y-288028D01*
X140814Y-287833D01*
X140966Y-287608D01*
X141057Y-287353D01*
X141087Y-287068D01*
Y-293068D01*
D02*
G37*
G36*
X-189208Y-293041D02*
X-189276Y-292475D01*
X-189480Y-291968D01*
X-189821Y-291521D01*
X-190298Y-291133D01*
X-190911Y-290805D01*
X-191661Y-290537D01*
X-192547Y-290328D01*
X-193569Y-290179D01*
X-194727Y-290090D01*
X-196022Y-290060D01*
Y-284060D01*
X-194727Y-284030D01*
X-193569Y-283941D01*
X-192547Y-283792D01*
X-191661Y-283583D01*
X-190911Y-283315D01*
X-190298Y-282987D01*
X-189821Y-282599D01*
X-189480Y-282152D01*
X-189276Y-281645D01*
X-189208Y-281079D01*
Y-293041D01*
D02*
G37*
G36*
X-170764Y-281645D02*
X-170560Y-282152D01*
X-170219Y-282599D01*
X-169742Y-282987D01*
X-169129Y-283315D01*
X-168379Y-283583D01*
X-167493Y-283792D01*
X-166471Y-283941D01*
X-165313Y-284030D01*
X-164018Y-284060D01*
Y-290060D01*
X-165313Y-290090D01*
X-166471Y-290179D01*
X-167493Y-290328D01*
X-168379Y-290537D01*
X-169129Y-290805D01*
X-169742Y-291133D01*
X-170219Y-291521D01*
X-170560Y-291968D01*
X-170764Y-292475D01*
X-170832Y-293041D01*
Y-281079D01*
X-170764Y-281645D01*
D02*
G37*
G36*
X88956Y-285390D02*
X88566Y-285767D01*
X88217Y-286151D01*
X87909Y-286543D01*
X87642Y-286943D01*
X87416Y-287352D01*
X87232Y-287768D01*
X87088Y-288192D01*
X86985Y-288624D01*
X86924Y-289065D01*
X86903Y-289513D01*
X83903Y-289390D01*
X83884Y-288948D01*
X83825Y-288510D01*
X83728Y-288075D01*
X83592Y-287643D01*
X83418Y-287214D01*
X83204Y-286789D01*
X82952Y-286366D01*
X82660Y-285947D01*
X82330Y-285531D01*
X81961Y-285117D01*
X88956Y-285390D01*
D02*
G37*
G36*
X167299Y-287353D02*
X167390Y-287608D01*
X167542Y-287833D01*
X167754Y-288028D01*
X168027Y-288193D01*
X168360Y-288328D01*
X168754Y-288433D01*
X169209Y-288508D01*
X169724Y-288553D01*
X170299Y-288568D01*
Y-291568D01*
X169724Y-291583D01*
X169209Y-291628D01*
X168754Y-291703D01*
X168360Y-291808D01*
X168027Y-291943D01*
X167754Y-292108D01*
X167542Y-292303D01*
X167390Y-292528D01*
X167299Y-292783D01*
X167269Y-293068D01*
Y-287068D01*
X167299Y-287353D01*
D02*
G37*
G36*
X177917Y-293068D02*
X177887Y-292783D01*
X177796Y-292528D01*
X177644Y-292303D01*
X177432Y-292108D01*
X177159Y-291943D01*
X176826Y-291808D01*
X176432Y-291703D01*
X175977Y-291628D01*
X175462Y-291583D01*
X174886Y-291568D01*
Y-288568D01*
X175462Y-288553D01*
X175977Y-288508D01*
X176432Y-288433D01*
X176826Y-288328D01*
X177159Y-288193D01*
X177432Y-288028D01*
X177644Y-287833D01*
X177796Y-287608D01*
X177887Y-287353D01*
X177917Y-287068D01*
Y-293068D01*
D02*
G37*
G36*
X204129Y-287353D02*
X204220Y-287608D01*
X204372Y-287833D01*
X204584Y-288028D01*
X204857Y-288193D01*
X205190Y-288328D01*
X205584Y-288433D01*
X206038Y-288508D01*
X206554Y-288553D01*
X207129Y-288568D01*
Y-291568D01*
X206554Y-291583D01*
X206038Y-291628D01*
X205584Y-291703D01*
X205190Y-291808D01*
X204857Y-291943D01*
X204584Y-292108D01*
X204372Y-292303D01*
X204220Y-292528D01*
X204129Y-292783D01*
X204099Y-293068D01*
Y-287068D01*
X204129Y-287353D01*
D02*
G37*
G36*
X-79478Y-298082D02*
X-70771Y-298099D01*
X-71280Y-298163D01*
X-71870Y-298354D01*
X-72540Y-298672D01*
X-73290Y-299118D01*
X-74121Y-299690D01*
X-76024Y-301218D01*
X-76190Y-301370D01*
X-75650Y-301910D01*
X-75971Y-301988D01*
X-76361Y-302161D01*
X-76819Y-302427D01*
X-77345Y-302788D01*
X-78603Y-303790D01*
X-80134Y-305168D01*
X-81939Y-306921D01*
X-86181Y-302679D01*
X-85734Y-302225D01*
X-85077Y-301532D01*
X-84480Y-300807D01*
X-84054Y-300166D01*
X-83798Y-299611D01*
X-83713Y-299142D01*
X-83798Y-298757D01*
X-84054Y-298457D01*
X-84480Y-298243D01*
X-85077Y-298113D01*
X-85845Y-298069D01*
X-82042Y-298077D01*
X-81687Y-297559D01*
X-81421Y-297101D01*
X-81248Y-296712D01*
X-81170Y-296390D01*
X-79478Y-298082D01*
D02*
G37*
G36*
X128172Y-311078D02*
X128572Y-311418D01*
X128978Y-311718D01*
X129390Y-311978D01*
X129807Y-312198D01*
X130185Y-312359D01*
Y-311198D01*
X130215Y-311483D01*
X130306Y-311738D01*
X130458Y-311963D01*
X130670Y-312158D01*
X130943Y-312323D01*
X131276Y-312458D01*
X131670Y-312563D01*
X132125Y-312638D01*
X132640Y-312683D01*
X133216Y-312698D01*
Y-315698D01*
X132640Y-315713D01*
X132125Y-315758D01*
X131670Y-315833D01*
X131276Y-315938D01*
X130943Y-316073D01*
X130670Y-316238D01*
X130458Y-316433D01*
X130306Y-316658D01*
X130215Y-316913D01*
X130185Y-317198D01*
Y-316037D01*
X129807Y-316198D01*
X129390Y-316418D01*
X128978Y-316678D01*
X128572Y-316978D01*
X128172Y-317318D01*
X127777Y-317698D01*
Y-310698D01*
X128172Y-311078D01*
D02*
G37*
G36*
X141087Y-317198D02*
X141057Y-316913D01*
X140966Y-316658D01*
X140814Y-316433D01*
X140602Y-316238D01*
X140329Y-316073D01*
X139996Y-315938D01*
X139602Y-315833D01*
X139148Y-315758D01*
X138632Y-315713D01*
X138056Y-315698D01*
Y-312698D01*
X138632Y-312683D01*
X139148Y-312638D01*
X139602Y-312563D01*
X139996Y-312458D01*
X140329Y-312323D01*
X140602Y-312158D01*
X140814Y-311963D01*
X140966Y-311738D01*
X141057Y-311483D01*
X141087Y-311198D01*
Y-317198D01*
D02*
G37*
G36*
X204129Y-311483D02*
X204220Y-311738D01*
X204372Y-311963D01*
X204584Y-312158D01*
X204857Y-312323D01*
X205190Y-312458D01*
X205584Y-312563D01*
X206038Y-312638D01*
X206554Y-312683D01*
X207129Y-312698D01*
Y-315698D01*
X206554Y-315713D01*
X206038Y-315758D01*
X205584Y-315833D01*
X205190Y-315938D01*
X204857Y-316073D01*
X204584Y-316238D01*
X204372Y-316433D01*
X204220Y-316658D01*
X204129Y-316913D01*
X204099Y-317198D01*
Y-311198D01*
X204129Y-311483D01*
D02*
G37*
G36*
X29366Y-314126D02*
X29766Y-314466D01*
X30172Y-314766D01*
X30584Y-315026D01*
X31001Y-315246D01*
X31423Y-315426D01*
X31852Y-315566D01*
X31869Y-315570D01*
Y-314246D01*
X31899Y-314531D01*
X31990Y-314786D01*
X32139Y-315011D01*
X32350Y-315206D01*
X32620Y-315371D01*
X32950Y-315506D01*
X33340Y-315611D01*
X33790Y-315686D01*
X34299Y-315731D01*
X34869Y-315746D01*
Y-318746D01*
X34299Y-318761D01*
X33790Y-318806D01*
X33340Y-318881D01*
X32950Y-318986D01*
X32620Y-319121D01*
X32350Y-319286D01*
X32139Y-319481D01*
X31990Y-319706D01*
X31899Y-319961D01*
X31869Y-320246D01*
Y-318922D01*
X31852Y-318926D01*
X31423Y-319066D01*
X31001Y-319246D01*
X30584Y-319466D01*
X30172Y-319726D01*
X29766Y-320026D01*
X29366Y-320366D01*
X28971Y-320746D01*
Y-313746D01*
X29366Y-314126D01*
D02*
G37*
G36*
X123307Y-318349D02*
X123301Y-318140D01*
X123284Y-317965D01*
X123255Y-317824D01*
X123214Y-317718D01*
X123162Y-317646D01*
X123098Y-317608D01*
X123023Y-317604D01*
X122936Y-317635D01*
X122837Y-317700D01*
X122727Y-317799D01*
X120605Y-315677D01*
X121119Y-315153D01*
X122632Y-313384D01*
X122875Y-313023D01*
X123064Y-312695D01*
X123199Y-312400D01*
X123280Y-312137D01*
X123307Y-311907D01*
Y-318349D01*
D02*
G37*
G36*
X104003Y-317198D02*
X103973Y-316913D01*
X103882Y-316658D01*
X103730Y-316433D01*
X103518Y-316238D01*
X103245Y-316073D01*
X102912Y-315938D01*
X102518Y-315833D01*
X102064Y-315758D01*
X101548Y-315713D01*
X100972Y-315698D01*
Y-312698D01*
X101548Y-312683D01*
X102064Y-312638D01*
X102518Y-312563D01*
X102912Y-312458D01*
X103245Y-312323D01*
X103518Y-312158D01*
X103730Y-311963D01*
X103882Y-311738D01*
X103973Y-311483D01*
X104003Y-311198D01*
Y-317198D01*
D02*
G37*
G36*
X86923Y-306619D02*
X86983Y-307059D01*
X87083Y-307492D01*
X87223Y-307921D01*
X87403Y-308343D01*
X87623Y-308760D01*
X87883Y-309172D01*
X88183Y-309578D01*
X88523Y-309978D01*
X88903Y-310373D01*
X81903D01*
X82283Y-309978D01*
X82623Y-309578D01*
X82923Y-309172D01*
X83183Y-308760D01*
X83403Y-308343D01*
X83583Y-307921D01*
X83723Y-307492D01*
X83823Y-307059D01*
X83883Y-306619D01*
X83903Y-306174D01*
X86903D01*
X86923Y-306619D01*
D02*
G37*
G36*
X248149Y-301758D02*
X248267Y-303065D01*
X248370Y-303596D01*
X248503Y-304045D01*
X248665Y-304412D01*
X248857Y-304698D01*
X249079Y-304902D01*
X249329Y-305025D01*
X249610Y-305066D01*
X243658D01*
X243939Y-305025D01*
X244189Y-304902D01*
X244411Y-304698D01*
X244603Y-304412D01*
X244765Y-304045D01*
X244898Y-303596D01*
X245001Y-303065D01*
X245075Y-302453D01*
X245119Y-301758D01*
X245134Y-300983D01*
X248134D01*
X248149Y-301758D01*
D02*
G37*
G36*
X-296179Y-302001D02*
X-295858Y-302029D01*
X-295282Y-302044D01*
Y-305044D01*
X-295858Y-305059D01*
X-296179Y-305087D01*
Y-307044D01*
X-296574Y-306664D01*
X-296974Y-306324D01*
X-297380Y-306024D01*
X-297792Y-305764D01*
X-297939Y-305686D01*
X-298040Y-305779D01*
X-298192Y-306004D01*
X-298283Y-306259D01*
X-298313Y-306544D01*
Y-305500D01*
X-298631Y-305364D01*
X-299060Y-305224D01*
X-299493Y-305124D01*
X-299933Y-305064D01*
X-300378Y-305044D01*
Y-302044D01*
X-299933Y-302024D01*
X-299493Y-301964D01*
X-299060Y-301864D01*
X-298631Y-301724D01*
X-298313Y-301588D01*
Y-300544D01*
X-298283Y-300829D01*
X-298192Y-301084D01*
X-298040Y-301309D01*
X-297939Y-301402D01*
X-297792Y-301324D01*
X-297380Y-301064D01*
X-296974Y-300764D01*
X-296574Y-300424D01*
X-296179Y-300044D01*
Y-302001D01*
D02*
G37*
G36*
X-220870Y-290060D02*
X-222010Y-290120D01*
X-223030Y-290300D01*
X-223930Y-290600D01*
X-224710Y-291020D01*
X-225370Y-291560D01*
X-225910Y-292220D01*
X-226330Y-293000D01*
X-226630Y-293900D01*
X-226742Y-294537D01*
X-226600Y-295396D01*
X-226390Y-296180D01*
X-226120Y-296843D01*
X-225790Y-297386D01*
X-225400Y-297808D01*
X-224950Y-298110D01*
X-224440Y-298291D01*
X-223870Y-298351D01*
X-235870D01*
X-235300Y-298291D01*
X-234790Y-298110D01*
X-234340Y-297808D01*
X-233950Y-297386D01*
X-233620Y-296843D01*
X-233350Y-296180D01*
X-233140Y-295396D01*
X-232998Y-294537D01*
X-233110Y-293900D01*
X-233410Y-293000D01*
X-233830Y-292220D01*
X-234370Y-291560D01*
X-235030Y-291020D01*
X-235810Y-290600D01*
X-236710Y-290300D01*
X-237730Y-290120D01*
X-238870Y-290060D01*
X-229870Y-284060D01*
X-220870Y-290060D01*
D02*
G37*
G36*
X108944Y-306391D02*
X109020Y-307607D01*
X109043Y-307691D01*
X109070Y-307742D01*
X109101Y-307759D01*
X105784D01*
X105814Y-307742D01*
X105841Y-307691D01*
X105864Y-307607D01*
X105885Y-307489D01*
X105902Y-307337D01*
X105936Y-306678D01*
X105942Y-306070D01*
X108942D01*
X108944Y-306391D01*
D02*
G37*
G36*
X315431Y-302894D02*
X314925Y-303421D01*
X314160Y-304355D01*
X313900Y-304762D01*
X313722Y-305130D01*
X313626Y-305457D01*
X313612Y-305744D01*
X313680Y-305992D01*
X313831Y-306199D01*
X314063Y-306367D01*
X309298Y-303791D01*
X309536Y-303741D01*
X309794Y-303653D01*
X310070Y-303525D01*
X310366Y-303359D01*
X310681Y-303154D01*
X311014Y-302910D01*
X311738Y-302304D01*
X312539Y-301544D01*
X315431Y-302894D01*
D02*
G37*
G36*
X235449Y-301758D02*
X235567Y-303065D01*
X235670Y-303596D01*
X235803Y-304045D01*
X235965Y-304412D01*
X236157Y-304698D01*
X236378Y-304902D01*
X236629Y-305025D01*
X236910Y-305066D01*
X230958D01*
X231239Y-305025D01*
X231490Y-304902D01*
X231711Y-304698D01*
X231903Y-304412D01*
X232065Y-304045D01*
X232198Y-303596D01*
X232301Y-303065D01*
X232375Y-302453D01*
X232419Y-301758D01*
X232434Y-300983D01*
X235434D01*
X235449Y-301758D01*
D02*
G37*
G36*
X-45627Y-288370D02*
X-46405Y-287804D01*
X-47324Y-287521D01*
X-48385D01*
X-49587Y-287804D01*
X-50931Y-288370D01*
X-52416Y-289218D01*
X-54042Y-290349D01*
X-55810Y-291764D01*
X-59770Y-295441D01*
X-66841Y-288370D01*
X-64861Y-286319D01*
X-61749Y-282642D01*
X-60618Y-281016D01*
X-59770Y-279531D01*
X-59204Y-278187D01*
X-58921Y-276985D01*
Y-275924D01*
X-59204Y-275005D01*
X-59770Y-274227D01*
X-45627Y-288370D01*
D02*
G37*
G36*
X235399Y-243258D02*
X235517Y-244565D01*
X235620Y-245096D01*
X235753Y-245545D01*
X235915Y-245912D01*
X236107Y-246198D01*
X236329Y-246402D01*
X236579Y-246525D01*
X236860Y-246566D01*
X230908D01*
X231189Y-246525D01*
X231439Y-246402D01*
X231661Y-246198D01*
X231853Y-245912D01*
X232015Y-245545D01*
X232148Y-245096D01*
X232251Y-244565D01*
X232325Y-243953D01*
X232369Y-243258D01*
X232384Y-242483D01*
X235384D01*
X235399Y-243258D01*
D02*
G37*
G36*
X311849D02*
X311967Y-244565D01*
X312070Y-245096D01*
X312203Y-245545D01*
X312365Y-245912D01*
X312557Y-246198D01*
X312778Y-246402D01*
X313029Y-246525D01*
X313310Y-246566D01*
X307358D01*
X307639Y-246525D01*
X307889Y-246402D01*
X308111Y-246198D01*
X308303Y-245912D01*
X308465Y-245545D01*
X308598Y-245096D01*
X308701Y-244565D01*
X308775Y-243953D01*
X308819Y-243258D01*
X308834Y-242483D01*
X311834D01*
X311849Y-243258D01*
D02*
G37*
G36*
X-189845Y-246018D02*
X-189829Y-245450D01*
X-189954Y-244942D01*
X-190220Y-244494D01*
X-190626Y-244106D01*
X-191173Y-243777D01*
X-191861Y-243508D01*
X-192690Y-243299D01*
X-193660Y-243150D01*
X-194770Y-243060D01*
X-196022Y-243030D01*
X-195958Y-237030D01*
X-195124Y-237002D01*
X-194301Y-236919D01*
X-193490Y-236781D01*
X-192691Y-236587D01*
X-191903Y-236338D01*
X-191128Y-236033D01*
X-190365Y-235673D01*
X-189613Y-235258D01*
X-188874Y-234787D01*
X-188146Y-234261D01*
X-189845Y-246018D01*
D02*
G37*
G36*
X344543Y-251909D02*
X344069Y-252147D01*
X343125Y-252694D01*
X342654Y-253004D01*
X341717Y-253693D01*
X340784Y-254477D01*
X339855Y-255356D01*
X337374Y-253594D01*
X337694Y-253243D01*
X337957Y-252884D01*
X338162Y-252519D01*
X338310Y-252147D01*
X338400Y-251769D01*
X338433Y-251384D01*
X338409Y-250992D01*
X338328Y-250593D01*
X338189Y-250188D01*
X337993Y-249776D01*
X344543Y-251909D01*
D02*
G37*
G36*
X-295459Y-242220D02*
X-295278Y-242730D01*
X-294976Y-243180D01*
X-294554Y-243570D01*
X-294011Y-243900D01*
X-293348Y-244170D01*
X-292564Y-244380D01*
X-291660Y-244530D01*
X-290634Y-244620D01*
X-289489Y-244650D01*
Y-250650D01*
X-290634Y-250680D01*
X-291660Y-250770D01*
X-292564Y-250920D01*
X-293348Y-251130D01*
X-294011Y-251400D01*
X-294554Y-251730D01*
X-294976Y-252120D01*
X-295278Y-252570D01*
X-295459Y-253080D01*
X-295519Y-253650D01*
Y-241650D01*
X-295459Y-242220D01*
D02*
G37*
G36*
X264059Y-244031D02*
X263537Y-244573D01*
X262761Y-245518D01*
X262506Y-245920D01*
X262341Y-246275D01*
X262264Y-246583D01*
X262276Y-246844D01*
X262378Y-247059D01*
X262568Y-247226D01*
X262847Y-247347D01*
X257332Y-245691D01*
X257619Y-245560D01*
X257918Y-245402D01*
X258227Y-245215D01*
X258881Y-244759D01*
X259226Y-244489D01*
X260327Y-243512D01*
X260716Y-243130D01*
X264059Y-244031D01*
D02*
G37*
G36*
X301620Y-228477D02*
X301686Y-228899D01*
X301794Y-229321D01*
X301946Y-229743D01*
X302139Y-230167D01*
X302376Y-230592D01*
X302655Y-231018D01*
X302977Y-231444D01*
X303342Y-231871D01*
X303749Y-232299D01*
Y-236542D01*
X303504Y-236306D01*
X303036Y-235908D01*
X302813Y-235747D01*
X302597Y-235610D01*
X302389Y-235498D01*
X302188Y-235411D01*
X301994Y-235349D01*
X301807Y-235312D01*
X301628Y-235299D01*
X301597Y-228057D01*
X301620Y-228477D01*
D02*
G37*
G36*
X291719Y-231600D02*
X291689Y-231315D01*
X291598Y-231060D01*
X291446Y-230835D01*
X291234Y-230640D01*
X290961Y-230475D01*
X290628Y-230340D01*
X290234Y-230235D01*
X289779Y-230160D01*
X289264Y-230115D01*
X288689Y-230100D01*
Y-227100D01*
X289264Y-227085D01*
X289779Y-227040D01*
X290234Y-226965D01*
X290628Y-226860D01*
X290961Y-226725D01*
X291234Y-226560D01*
X291446Y-226365D01*
X291598Y-226140D01*
X291689Y-225885D01*
X291719Y-225600D01*
Y-231600D01*
D02*
G37*
G36*
X-295713Y-219360D02*
X-295532Y-219870D01*
X-295230Y-220320D01*
X-294808Y-220710D01*
X-294265Y-221040D01*
X-293602Y-221310D01*
X-292818Y-221520D01*
X-291914Y-221670D01*
X-290888Y-221760D01*
X-289743Y-221790D01*
Y-227790D01*
X-290888Y-227820D01*
X-291914Y-227910D01*
X-292818Y-228060D01*
X-293602Y-228270D01*
X-294265Y-228540D01*
X-294808Y-228870D01*
X-295230Y-229260D01*
X-295532Y-229710D01*
X-295713Y-230220D01*
X-295773Y-230790D01*
Y-218790D01*
X-295713Y-219360D01*
D02*
G37*
G36*
X-221562Y-228405D02*
X-222105Y-228289D01*
X-222772Y-228184D01*
X-224479Y-228012D01*
X-227973Y-227845D01*
X-232587Y-227790D01*
X-234044Y-221790D01*
X-233116Y-221750D01*
X-232273Y-221631D01*
X-231515Y-221432D01*
X-230843Y-221154D01*
X-230256Y-220796D01*
X-229754Y-220359D01*
X-229338Y-219842D01*
X-229007Y-219246D01*
X-228761Y-218570D01*
X-228601Y-217815D01*
X-221562Y-228405D01*
D02*
G37*
G36*
X331620Y-228477D02*
X331686Y-228899D01*
X331794Y-229321D01*
X331946Y-229743D01*
X332139Y-230167D01*
X332376Y-230592D01*
X332655Y-231018D01*
X332977Y-231444D01*
X333342Y-231871D01*
X333749Y-232299D01*
Y-236542D01*
X333504Y-236306D01*
X333036Y-235908D01*
X332813Y-235747D01*
X332597Y-235610D01*
X332389Y-235498D01*
X332188Y-235411D01*
X331993Y-235349D01*
X331807Y-235312D01*
X331628Y-235299D01*
X331597Y-228057D01*
X331620Y-228477D01*
D02*
G37*
G36*
X253863Y-231600D02*
X253833Y-231315D01*
X253742Y-231060D01*
X253590Y-230835D01*
X253378Y-230640D01*
X253105Y-230475D01*
X252772Y-230340D01*
X252378Y-230235D01*
X251924Y-230160D01*
X251408Y-230115D01*
X250833Y-230100D01*
Y-227100D01*
X251408Y-227085D01*
X251924Y-227040D01*
X252378Y-226965D01*
X252772Y-226860D01*
X253105Y-226725D01*
X253378Y-226560D01*
X253590Y-226365D01*
X253742Y-226140D01*
X253833Y-225885D01*
X253863Y-225600D01*
Y-231600D01*
D02*
G37*
G36*
X280075Y-225885D02*
X280166Y-226140D01*
X280318Y-226365D01*
X280530Y-226560D01*
X280803Y-226725D01*
X281136Y-226860D01*
X281530Y-226965D01*
X281985Y-227040D01*
X282500Y-227085D01*
X283076Y-227100D01*
Y-230100D01*
X282500Y-230115D01*
X281985Y-230160D01*
X281530Y-230235D01*
X281136Y-230340D01*
X280803Y-230475D01*
X280530Y-230640D01*
X280318Y-230835D01*
X280166Y-231060D01*
X280075Y-231315D01*
X280045Y-231600D01*
Y-225600D01*
X280075Y-225885D01*
D02*
G37*
G36*
X-207815Y-253913D02*
X-207695Y-255677D01*
X-207640Y-255995D01*
X-207575Y-256265D01*
X-207500Y-256485D01*
X-207415Y-256657D01*
X-207320Y-256779D01*
X-214320D01*
X-214225Y-256657D01*
X-214140Y-256485D01*
X-214065Y-256265D01*
X-214000Y-255995D01*
X-213945Y-255677D01*
X-213865Y-254893D01*
X-213825Y-253913D01*
X-213820Y-253350D01*
X-207820D01*
X-207815Y-253913D01*
D02*
G37*
G36*
X315199Y-282900D02*
X314804Y-282520D01*
X314404Y-282180D01*
X313998Y-281880D01*
X313586Y-281620D01*
X313169Y-281400D01*
X312747Y-281220D01*
X312318Y-281080D01*
X311885Y-280980D01*
X311445Y-280920D01*
X311000Y-280900D01*
Y-277900D01*
X311445Y-277880D01*
X311885Y-277820D01*
X312318Y-277720D01*
X312747Y-277580D01*
X313169Y-277400D01*
X313586Y-277180D01*
X313998Y-276920D01*
X314404Y-276620D01*
X314804Y-276280D01*
X315199Y-275900D01*
Y-282900D01*
D02*
G37*
G36*
X129715Y-273677D02*
X129460Y-273768D01*
X129235Y-273920D01*
X129040Y-274132D01*
X128875Y-274405D01*
X128740Y-274738D01*
X128635Y-275132D01*
X128560Y-275586D01*
X128515Y-276102D01*
X128500Y-276677D01*
X125500D01*
X125485Y-276102D01*
X125440Y-275586D01*
X125365Y-275132D01*
X125260Y-274738D01*
X125125Y-274405D01*
X124960Y-274132D01*
X124765Y-273920D01*
X124540Y-273768D01*
X124285Y-273677D01*
X124000Y-273647D01*
X130000D01*
X129715Y-273677D01*
D02*
G37*
G36*
X166545Y-273708D02*
X166290Y-273797D01*
X166065Y-273948D01*
X165870Y-274158D01*
X165705Y-274428D01*
X165570Y-274757D01*
X165465Y-275147D01*
X165390Y-275597D01*
X165345Y-276108D01*
X165330Y-276677D01*
X162330D01*
X162315Y-276108D01*
X162270Y-275597D01*
X162195Y-275147D01*
X162090Y-274757D01*
X161955Y-274428D01*
X161790Y-274158D01*
X161595Y-273948D01*
X161370Y-273797D01*
X161115Y-273708D01*
X160830Y-273678D01*
X166830D01*
X166545Y-273708D01*
D02*
G37*
G36*
X336754Y-284400D02*
X336206Y-284410D01*
X335682Y-284453D01*
X335183Y-284528D01*
X334708Y-284635D01*
X334258Y-284774D01*
X333832Y-284946D01*
X333430Y-285150D01*
X333052Y-285386D01*
X332699Y-285654D01*
X332371Y-285955D01*
X330249Y-283833D01*
X330550Y-283505D01*
X330818Y-283151D01*
X331054Y-282774D01*
X331258Y-282372D01*
X331429Y-281946D01*
X331569Y-281496D01*
X331676Y-281021D01*
X331751Y-280522D01*
X331794Y-279998D01*
X331804Y-279450D01*
X336754Y-284400D01*
D02*
G37*
G36*
X128515Y-281682D02*
X128560Y-282197D01*
X128635Y-282652D01*
X128740Y-283046D01*
X128875Y-283379D01*
X129040Y-283652D01*
X129235Y-283864D01*
X129460Y-284016D01*
X129715Y-284107D01*
X130000Y-284137D01*
X124000D01*
X124285Y-284107D01*
X124540Y-284016D01*
X124765Y-283864D01*
X124960Y-283652D01*
X125125Y-283379D01*
X125260Y-283046D01*
X125365Y-282652D01*
X125440Y-282197D01*
X125485Y-281682D01*
X125500Y-281106D01*
X128500D01*
X128515Y-281682D01*
D02*
G37*
G36*
X165345Y-281677D02*
X165390Y-282187D01*
X165465Y-282637D01*
X165570Y-283027D01*
X165705Y-283356D01*
X165870Y-283626D01*
X166065Y-283836D01*
X166290Y-283986D01*
X166545Y-284076D01*
X166830Y-284107D01*
X160830D01*
X161115Y-284076D01*
X161370Y-283986D01*
X161595Y-283836D01*
X161790Y-283626D01*
X161955Y-283356D01*
X162090Y-283027D01*
X162195Y-282637D01*
X162270Y-282187D01*
X162315Y-281677D01*
X162330Y-281106D01*
X165330D01*
X165345Y-281677D01*
D02*
G37*
G36*
X326877Y-277478D02*
X326319Y-278043D01*
X323811Y-280861D01*
X323533Y-281236D01*
X323099Y-281902D01*
X321684Y-275337D01*
X322044Y-275565D01*
X322403Y-275731D01*
X322762Y-275836D01*
X323121Y-275879D01*
X323479Y-275861D01*
X323836Y-275782D01*
X324193Y-275641D01*
X324550Y-275439D01*
X324906Y-275175D01*
X325262Y-274851D01*
X326877Y-277478D01*
D02*
G37*
G36*
X-214391Y-263850D02*
X-214513Y-263755D01*
X-214685Y-263670D01*
X-214905Y-263595D01*
X-215175Y-263530D01*
X-215493Y-263475D01*
X-216277Y-263395D01*
X-217257Y-263355D01*
X-217820Y-263350D01*
Y-257350D01*
X-217257Y-257345D01*
X-215493Y-257225D01*
X-215175Y-257170D01*
X-214905Y-257105D01*
X-214685Y-257030D01*
X-214513Y-256945D01*
X-214391Y-256850D01*
Y-263850D01*
D02*
G37*
G36*
X274729Y-259791D02*
X274478Y-259914D01*
X274257Y-260118D01*
X274065Y-260404D01*
X273903Y-260771D01*
X273770Y-261220D01*
X273667Y-261751D01*
X273593Y-262363D01*
X273549Y-263057D01*
X273534Y-263833D01*
X270534D01*
X270519Y-263057D01*
X270401Y-261751D01*
X270298Y-261220D01*
X270165Y-260771D01*
X270003Y-260404D01*
X269811Y-260118D01*
X269590Y-259914D01*
X269339Y-259791D01*
X269058Y-259750D01*
X275010D01*
X274729Y-259791D01*
D02*
G37*
G36*
X288004Y-257124D02*
X287664Y-257524D01*
X287364Y-257930D01*
X287104Y-258342D01*
X286884Y-258759D01*
X286704Y-259181D01*
X286564Y-259610D01*
X286464Y-260043D01*
X286404Y-260483D01*
X286397Y-260648D01*
X286751D01*
X286681Y-260672D01*
X286619Y-260744D01*
X286564Y-260864D01*
X286516Y-261031D01*
X286476Y-261246D01*
X286443Y-261509D01*
X286399Y-262179D01*
X286384Y-263040D01*
X283384D01*
X283380Y-262586D01*
X283292Y-261246D01*
X283252Y-261031D01*
X283204Y-260864D01*
X283149Y-260744D01*
X283087Y-260672D01*
X283017Y-260648D01*
X283371D01*
X283364Y-260483D01*
X283304Y-260043D01*
X283204Y-259610D01*
X283064Y-259181D01*
X282884Y-258759D01*
X282664Y-258342D01*
X282404Y-257930D01*
X282104Y-257524D01*
X281764Y-257124D01*
X281384Y-256729D01*
X288384D01*
X288004Y-257124D01*
D02*
G37*
G36*
X104257Y-269580D02*
X104233Y-269415D01*
X104161Y-269266D01*
X104041Y-269135D01*
X103872Y-269022D01*
X103656Y-268926D01*
X103392Y-268848D01*
X103080Y-268787D01*
X102719Y-268743D01*
X102311Y-268717D01*
X101854Y-268708D01*
Y-265708D01*
X102311Y-265699D01*
X103080Y-265630D01*
X103392Y-265568D01*
X103656Y-265490D01*
X103872Y-265394D01*
X104041Y-265280D01*
X104161Y-265150D01*
X104233Y-265001D01*
X104257Y-264835D01*
Y-269580D01*
D02*
G37*
G36*
X-251478Y-263452D02*
X-251388Y-264478D01*
X-251238Y-265382D01*
X-251028Y-266166D01*
X-250758Y-266829D01*
X-250428Y-267372D01*
X-250038Y-267794D01*
X-249588Y-268096D01*
X-249078Y-268277D01*
X-248508Y-268337D01*
X-260508D01*
X-259938Y-268277D01*
X-259428Y-268096D01*
X-258978Y-267794D01*
X-258588Y-267372D01*
X-258258Y-266829D01*
X-257988Y-266166D01*
X-257778Y-265382D01*
X-257628Y-264478D01*
X-257538Y-263452D01*
X-257508Y-262306D01*
X-251508D01*
X-251478Y-263452D01*
D02*
G37*
G36*
X217316Y-263881D02*
X217373Y-263944D01*
X217468Y-264000D01*
X217602Y-264049D01*
X217773Y-264090D01*
X217983Y-264124D01*
X218230Y-264150D01*
X218840Y-264180D01*
X219202Y-264184D01*
Y-267184D01*
X218840Y-267188D01*
X217983Y-267244D01*
X217773Y-267278D01*
X217602Y-267319D01*
X217468Y-267367D01*
X217373Y-267424D01*
X217316Y-267487D01*
X217297Y-267558D01*
Y-263809D01*
X217316Y-263881D01*
D02*
G37*
G36*
X407927Y202167D02*
X408930Y202124D01*
X408945Y201441D01*
X409063Y200277D01*
X409167Y199796D01*
X409300Y199382D01*
X409463Y199035D01*
X409656Y198755D01*
X409878Y198543D01*
X410130Y198397D01*
X410411Y198319D01*
X408899Y198547D01*
X408876Y196050D01*
X405289Y199093D01*
X404430Y199223D01*
X404715Y199213D01*
X404970Y199272D01*
X405035Y199309D01*
X403926Y200250D01*
X404307Y200277D01*
X404647Y200355D01*
X404948Y200485D01*
X405209Y200667D01*
X405429Y200900D01*
X405609Y201184D01*
X405750Y201520D01*
X405850Y201908D01*
X405910Y202346D01*
X405930Y202837D01*
X407927Y202167D01*
D02*
G37*
G36*
X-198174Y199563D02*
X-199212Y198536D01*
X-200830Y196667D01*
X-201411Y195827D01*
X-201840Y195049D01*
X-202117Y194333D01*
X-202241Y193680D01*
X-202213Y193089D01*
X-202034Y192561D01*
X-201701Y192095D01*
X-209890Y200814D01*
X-209448Y200454D01*
X-208935Y200243D01*
X-208352Y200180D01*
X-207698Y200267D01*
X-206975Y200502D01*
X-206182Y200886D01*
X-205319Y201419D01*
X-204386Y202101D01*
X-203382Y202932D01*
X-202309Y203911D01*
X-198174Y199563D01*
D02*
G37*
G36*
X237797Y213494D02*
X239672Y211847D01*
X240556Y211177D01*
X241403Y210611D01*
X242215Y210147D01*
X242991Y209786D01*
X243730Y209529D01*
X244434Y209375D01*
X245102Y209323D01*
Y206323D01*
X244434Y206271D01*
X243730Y206117D01*
X242991Y205860D01*
X242215Y205499D01*
X241403Y205035D01*
X240556Y204469D01*
X239672Y203799D01*
X237797Y202152D01*
X236805Y201173D01*
Y214473D01*
X237797Y213494D01*
D02*
G37*
G36*
X-321986Y198001D02*
X-322165Y197988D01*
X-322352Y197951D01*
X-322546Y197889D01*
X-322747Y197802D01*
X-322955Y197690D01*
X-323171Y197553D01*
X-323394Y197392D01*
X-323624Y197205D01*
X-324107Y196758D01*
Y201000D01*
X-323700Y201429D01*
X-323335Y201856D01*
X-323013Y202282D01*
X-322734Y202708D01*
X-322497Y203133D01*
X-322304Y203556D01*
X-322152Y203979D01*
X-322044Y204401D01*
X-321978Y204823D01*
X-321955Y205243D01*
X-321986Y198001D01*
D02*
G37*
G36*
X321978Y204823D02*
X322044Y204401D01*
X322152Y203979D01*
X322304Y203556D01*
X322497Y203133D01*
X322734Y202708D01*
X323013Y202282D01*
X323335Y201856D01*
X323700Y201429D01*
X324107Y201000D01*
Y196758D01*
X323862Y196994D01*
X323394Y197392D01*
X323171Y197553D01*
X322955Y197690D01*
X322747Y197802D01*
X322546Y197889D01*
X322352Y197951D01*
X322165Y197988D01*
X321986Y198001D01*
X321955Y205243D01*
X321978Y204823D01*
D02*
G37*
G36*
X346955Y201628D02*
X347000Y201113D01*
X347075Y200658D01*
X347180Y200264D01*
X347315Y199931D01*
X347480Y199658D01*
X347675Y199446D01*
X347900Y199295D01*
X348155Y199204D01*
X348440Y199173D01*
X342440D01*
X342725Y199204D01*
X342980Y199295D01*
X343205Y199446D01*
X343400Y199658D01*
X343565Y199931D01*
X343700Y200264D01*
X343805Y200658D01*
X343880Y201113D01*
X343925Y201628D01*
X343940Y202204D01*
X346940D01*
X346955Y201628D01*
D02*
G37*
G36*
X-295743Y207185D02*
X-295652Y206930D01*
X-295500Y206705D01*
X-295288Y206510D01*
X-295015Y206345D01*
X-294682Y206210D01*
X-294288Y206105D01*
X-293834Y206030D01*
X-293318Y205985D01*
X-292743Y205970D01*
Y202970D01*
X-293318Y202955D01*
X-293834Y202910D01*
X-294288Y202835D01*
X-294682Y202730D01*
X-295015Y202595D01*
X-295288Y202430D01*
X-295500Y202235D01*
X-295652Y202010D01*
X-295743Y201755D01*
X-295773Y201470D01*
Y207470D01*
X-295743Y207185D01*
D02*
G37*
G36*
X-408582Y210755D02*
X-408834Y211169D01*
X-409187Y211412D01*
X-409641Y211484D01*
X-410197Y211384D01*
X-410853Y211113D01*
X-411611Y210671D01*
X-412470Y210057D01*
X-413430Y209272D01*
X-415653Y207189D01*
X-416189Y213724D01*
X-415331Y214618D01*
X-413948Y216281D01*
X-413424Y217050D01*
X-413012Y217778D01*
X-412711Y218465D01*
X-412522Y219109D01*
X-412444Y219713D01*
X-412478Y220275D01*
X-412623Y220795D01*
X-408582Y210755D01*
D02*
G37*
G36*
X-181661Y211147D02*
X-182110Y211502D01*
X-182628Y211709D01*
X-183217Y211767D01*
X-183876Y211675D01*
X-184604Y211435D01*
X-185403Y211046D01*
X-186272Y210508D01*
X-187211Y209822D01*
X-188219Y208986D01*
X-189298Y208002D01*
X-193431Y212351D01*
X-192399Y213373D01*
X-190791Y215231D01*
X-190215Y216066D01*
X-189791Y216839D01*
X-189520Y217549D01*
X-189400Y218197D01*
X-189433Y218783D01*
X-189618Y219306D01*
X-189955Y219766D01*
X-181661Y211147D01*
D02*
G37*
G36*
X321978Y227683D02*
X322044Y227262D01*
X322152Y226839D01*
X322304Y226416D01*
X322497Y225993D01*
X322734Y225568D01*
X323013Y225142D01*
X323335Y224716D01*
X323700Y224289D01*
X324107Y223860D01*
Y219618D01*
X323862Y219854D01*
X323394Y220252D01*
X323171Y220413D01*
X322955Y220550D01*
X322747Y220662D01*
X322546Y220749D01*
X322352Y220811D01*
X322165Y220848D01*
X321986Y220861D01*
X321955Y228103D01*
X321978Y227683D01*
D02*
G37*
G36*
X-237852Y202419D02*
X-238399Y203159D01*
X-238963Y203820D01*
X-239547Y204404D01*
X-240149Y204910D01*
X-240769Y205338D01*
X-241409Y205689D01*
X-242067Y205961D01*
X-242744Y206156D01*
X-243439Y206273D01*
X-244153Y206311D01*
Y209311D01*
X-243439Y209350D01*
X-242744Y209467D01*
X-242067Y209662D01*
X-241409Y209934D01*
X-240769Y210285D01*
X-240149Y210713D01*
X-239547Y211219D01*
X-238963Y211803D01*
X-238399Y212464D01*
X-237852Y213204D01*
Y202419D01*
D02*
G37*
G36*
X189592Y219328D02*
X189407Y218805D01*
X189374Y218220D01*
X189494Y217572D01*
X189765Y216861D01*
X190189Y216089D01*
X190765Y215254D01*
X191493Y214356D01*
X192373Y213396D01*
X193406Y212374D01*
X189273Y208024D01*
X188194Y209008D01*
X186246Y210531D01*
X185377Y211068D01*
X184579Y211457D01*
X183850Y211697D01*
X183191Y211789D01*
X182603Y211731D01*
X182084Y211524D01*
X181635Y211169D01*
X189929Y219789D01*
X189592Y219328D01*
D02*
G37*
G36*
X410145Y211233D02*
X409890Y211142D01*
X409665Y210990D01*
X409470Y210778D01*
X409305Y210505D01*
X409170Y210172D01*
X409065Y209778D01*
X408990Y209324D01*
X408945Y208808D01*
X408930Y208232D01*
X405930D01*
X405915Y208808D01*
X405870Y209324D01*
X405795Y209778D01*
X405690Y210172D01*
X405555Y210505D01*
X405390Y210778D01*
X405195Y210990D01*
X404970Y211142D01*
X404715Y211233D01*
X404430Y211263D01*
X410430D01*
X410145Y211233D01*
D02*
G37*
G36*
X203372Y202942D02*
X205308Y201430D01*
X206172Y200897D01*
X206965Y200513D01*
X207688Y200277D01*
X208341Y200191D01*
X208924Y200253D01*
X209437Y200464D01*
X209880Y200824D01*
X201691Y192105D01*
X202024Y192571D01*
X202204Y193099D01*
X202232Y193690D01*
X202107Y194343D01*
X201831Y195059D01*
X201402Y195837D01*
X200821Y196677D01*
X200087Y197580D01*
X199202Y198545D01*
X198164Y199573D01*
X202298Y203921D01*
X203372Y202942D01*
D02*
G37*
G36*
X-293621Y166815D02*
X-294289Y166126D01*
X-295324Y164924D01*
X-295690Y164412D01*
X-295956Y163958D01*
X-296121Y163563D01*
X-296185Y163227D01*
X-296148Y162950D01*
X-296011Y162732D01*
X-295773Y162572D01*
X-301581Y165189D01*
X-301279Y165094D01*
X-300950Y165067D01*
X-300593Y165110D01*
X-300210Y165222D01*
X-299799Y165402D01*
X-299361Y165652D01*
X-298896Y165971D01*
X-298404Y166358D01*
X-297885Y166815D01*
X-297338Y167341D01*
X-293621Y166815D01*
D02*
G37*
G36*
X-226132Y167221D02*
X-227003Y166047D01*
X-228321Y163954D01*
X-228768Y163036D01*
X-229074Y162202D01*
X-229239Y161453D01*
X-229262Y160790D01*
X-229145Y160211D01*
X-228886Y159718D01*
X-228486Y159309D01*
X-237929Y166650D01*
X-237435Y166363D01*
X-236895Y166234D01*
X-236307Y166263D01*
X-235672Y166450D01*
X-234991Y166795D01*
X-234263Y167298D01*
X-233487Y167959D01*
X-232665Y168777D01*
X-231796Y169754D01*
X-230881Y170888D01*
X-226132Y167221D01*
D02*
G37*
G36*
X-352985Y166765D02*
X-353007Y166810D01*
X-353073Y166850D01*
X-353184Y166885D01*
X-353338Y166915D01*
X-353536Y166941D01*
X-354066Y166979D01*
X-355190Y167000D01*
Y170000D01*
X-354771Y170002D01*
X-353184Y170115D01*
X-353073Y170150D01*
X-353007Y170190D01*
X-352985Y170234D01*
Y166765D01*
D02*
G37*
G36*
X295193Y166689D02*
X296373Y165677D01*
X296880Y165316D01*
X297331Y165053D01*
X297728Y164886D01*
X298070Y164816D01*
X298356Y164844D01*
X298587Y164968D01*
X298763Y165189D01*
X295773Y159755D01*
X295885Y160040D01*
X295924Y160356D01*
X295891Y160703D01*
X295785Y161081D01*
X295606Y161490D01*
X295355Y161930D01*
X295030Y162400D01*
X294633Y162902D01*
X294164Y163434D01*
X293621Y163997D01*
X294520Y167341D01*
X295193Y166689D01*
D02*
G37*
G36*
X-258270Y162052D02*
X-259663Y162043D01*
X-262154Y161882D01*
X-263252Y161731D01*
X-264252Y161532D01*
X-265154Y161286D01*
X-265957Y160992D01*
X-266662Y160651D01*
X-267269Y160263D01*
X-267778Y159827D01*
X-269899Y161949D01*
X-269463Y162457D01*
X-269075Y163064D01*
X-268734Y163769D01*
X-268440Y164573D01*
X-268194Y165474D01*
X-267995Y166474D01*
X-267844Y167572D01*
X-267683Y170064D01*
X-267674Y171457D01*
X-258270Y162052D01*
D02*
G37*
G36*
X273400Y166871D02*
X272019Y164009D01*
X271424Y164529D01*
X270807Y164921D01*
X270168Y165183D01*
X269506Y165318D01*
X268823Y165324D01*
X268118Y165201D01*
X267390Y164951D01*
X266640Y164571D01*
X265868Y164064D01*
X265074Y163428D01*
X266770Y175824D01*
X273400Y166871D01*
D02*
G37*
G36*
X321695Y177165D02*
X321541Y176964D01*
X321493Y176699D01*
X321550Y176370D01*
X321712Y175978D01*
X321980Y175522D01*
X322354Y175002D01*
X322832Y174419D01*
X324107Y173060D01*
X319905Y173019D01*
X319380Y173523D01*
X318398Y174339D01*
X317940Y174650D01*
X317504Y174898D01*
X317091Y175081D01*
X316701Y175200D01*
X316332Y175254D01*
X315986Y175245D01*
X315663Y175171D01*
X321955Y177303D01*
X321695Y177165D01*
D02*
G37*
G36*
X-295743Y184325D02*
X-295652Y184070D01*
X-295500Y183845D01*
X-295288Y183650D01*
X-295015Y183485D01*
X-294682Y183350D01*
X-294288Y183245D01*
X-293834Y183170D01*
X-293318Y183125D01*
X-292743Y183110D01*
Y180110D01*
X-293318Y180095D01*
X-293834Y180050D01*
X-294288Y179975D01*
X-294682Y179870D01*
X-295015Y179735D01*
X-295288Y179570D01*
X-295500Y179375D01*
X-295652Y179150D01*
X-295743Y178895D01*
X-295773Y178610D01*
Y184610D01*
X-295743Y184325D01*
D02*
G37*
G36*
X-211527Y181218D02*
X-212024Y181501D01*
X-212568Y181627D01*
X-213159Y181595D01*
X-213796Y181405D01*
X-214480Y181057D01*
X-215210Y180552D01*
X-215988Y179889D01*
X-216812Y179068D01*
X-217682Y178089D01*
X-218600Y176953D01*
X-223344Y180626D01*
X-222478Y181793D01*
X-221170Y183873D01*
X-220727Y184785D01*
X-220425Y185613D01*
X-220264Y186357D01*
X-220244Y187015D01*
X-220365Y187589D01*
X-220627Y188078D01*
X-221030Y188482D01*
X-211527Y181218D01*
D02*
G37*
G36*
X-334347Y182962D02*
X-337973Y179198D01*
X-339212Y184455D01*
X-339107Y184158D01*
X-338955Y183951D01*
X-338755Y183833D01*
X-338507Y183806D01*
X-338211Y183869D01*
X-337867Y184023D01*
X-337476Y184266D01*
X-337037Y184599D01*
X-336550Y185023D01*
X-336015Y185536D01*
X-334347Y182962D01*
D02*
G37*
G36*
X-321986Y175140D02*
X-322165Y175128D01*
X-322352Y175091D01*
X-322546Y175029D01*
X-322747Y174942D01*
X-322955Y174830D01*
X-323171Y174693D01*
X-323394Y174532D01*
X-323624Y174345D01*
X-324107Y173898D01*
Y178141D01*
X-323700Y178569D01*
X-323335Y178996D01*
X-323013Y179422D01*
X-322734Y179848D01*
X-322497Y180273D01*
X-322304Y180697D01*
X-322152Y181119D01*
X-322044Y181542D01*
X-321978Y181963D01*
X-321955Y182383D01*
X-321986Y175140D01*
D02*
G37*
G36*
X220618Y188089D02*
X220356Y187600D01*
X220235Y187026D01*
X220255Y186368D01*
X220416Y185625D01*
X220718Y184797D01*
X221161Y183884D01*
X221745Y182886D01*
X222469Y181804D01*
X223335Y180637D01*
X218591Y176964D01*
X217674Y178100D01*
X215979Y179900D01*
X215202Y180563D01*
X214471Y181068D01*
X213787Y181416D01*
X213150Y181606D01*
X212559Y181638D01*
X212015Y181512D01*
X211518Y181229D01*
X221021Y188493D01*
X220618Y188089D01*
D02*
G37*
G36*
X-407511Y177700D02*
X-407725Y177890D01*
X-407975Y178060D01*
X-408261Y178210D01*
X-408583Y178340D01*
X-408941Y178450D01*
X-409335Y178540D01*
X-409765Y178610D01*
X-410230Y178660D01*
X-411270Y178700D01*
Y183700D01*
X-410732Y183710D01*
X-409765Y183790D01*
X-409335Y183860D01*
X-408941Y183950D01*
X-408583Y184060D01*
X-408261Y184190D01*
X-407975Y184340D01*
X-407725Y184510D01*
X-407511Y184700D01*
Y177700D01*
D02*
G37*
G36*
X170295Y231398D02*
X172439Y230196D01*
X173372Y229800D01*
X174215Y229541D01*
X174965Y229418D01*
X175624Y229431D01*
X176191Y229581D01*
X176666Y229867D01*
X177049Y230290D01*
X170275Y220431D01*
X170533Y220942D01*
X170631Y221492D01*
X170569Y222080D01*
X170347Y222707D01*
X169965Y223372D01*
X169424Y224076D01*
X168722Y224819D01*
X167860Y225601D01*
X166839Y226421D01*
X165657Y227279D01*
X169086Y232203D01*
X170295Y231398D01*
D02*
G37*
G36*
X73608Y280413D02*
X73673Y279862D01*
X73901Y279322D01*
X74294Y278793D01*
X74851Y278275D01*
X75571Y277768D01*
X76456Y277272D01*
X77505Y276787D01*
X78719Y276312D01*
X80096Y275849D01*
X78301Y270124D01*
X76898Y270533D01*
X74479Y271041D01*
X73463Y271141D01*
X72574Y271139D01*
X71814Y271033D01*
X71183Y270825D01*
X70680Y270514D01*
X70305Y270100D01*
X70059Y269584D01*
X73708Y280975D01*
X73608Y280413D01*
D02*
G37*
G36*
X96477Y261296D02*
X96570Y261861D01*
X96498Y262415D01*
X96263Y262957D01*
X95864Y263489D01*
X95300Y264010D01*
X94573Y264519D01*
X93681Y265018D01*
X92625Y265506D01*
X91405Y265982D01*
X90020Y266448D01*
X91817Y272172D01*
X93212Y271766D01*
X95617Y271261D01*
X96627Y271163D01*
X97508Y271168D01*
X98261Y271275D01*
X98885Y271485D01*
X99381Y271797D01*
X99749Y272213D01*
X99988Y272731D01*
X96477Y261296D01*
D02*
G37*
G36*
X-57392Y284176D02*
X-57092Y283710D01*
X-56649Y283325D01*
X-56063Y283023D01*
X-55335Y282803D01*
X-54465Y282666D01*
X-53452Y282610D01*
X-52296Y282636D01*
X-50998Y282745D01*
X-49558Y282935D01*
X-48648Y277005D01*
X-50087Y276754D01*
X-52483Y276145D01*
X-53440Y275788D01*
X-54236Y275394D01*
X-54872Y274965D01*
X-55347Y274500D01*
X-55662Y273999D01*
X-55816Y273462D01*
X-55810Y272890D01*
X-57550Y284724D01*
X-57392Y284176D01*
D02*
G37*
G36*
X-99763Y272208D02*
X-99395Y271793D01*
X-98899Y271480D01*
X-98275Y271270D01*
X-97522Y271163D01*
X-96641Y271158D01*
X-95631Y271257D01*
X-94493Y271458D01*
X-93226Y271761D01*
X-91831Y272168D01*
X-90034Y266444D01*
X-91418Y265978D01*
X-93694Y265014D01*
X-94586Y264515D01*
X-95314Y264005D01*
X-95877Y263485D01*
X-96276Y262953D01*
X-96512Y262410D01*
X-96583Y261856D01*
X-96490Y261292D01*
X-100002Y272726D01*
X-99763Y272208D01*
D02*
G37*
G36*
X-70088Y269576D02*
X-70334Y270093D01*
X-70709Y270507D01*
X-71212Y270818D01*
X-71843Y271026D01*
X-72603Y271131D01*
X-73492Y271134D01*
X-74509Y271034D01*
X-75654Y270830D01*
X-76928Y270525D01*
X-78330Y270116D01*
X-80125Y275841D01*
X-78748Y276304D01*
X-76486Y277264D01*
X-75601Y277760D01*
X-74880Y278267D01*
X-74324Y278785D01*
X-73931Y279314D01*
X-73702Y279855D01*
X-73638Y280406D01*
X-73738Y280967D01*
X-70088Y269576D01*
D02*
G37*
G36*
X321985Y275765D02*
X322076Y275510D01*
X322228Y275285D01*
X322440Y275090D01*
X322713Y274925D01*
X323046Y274790D01*
X323440Y274685D01*
X323895Y274610D01*
X324410Y274565D01*
X324986Y274550D01*
Y271550D01*
X324410Y271535D01*
X323895Y271490D01*
X323440Y271415D01*
X323046Y271310D01*
X322713Y271175D01*
X322440Y271010D01*
X322228Y270815D01*
X322076Y270590D01*
X321985Y270335D01*
X321955Y270050D01*
Y276050D01*
X321985Y275765D01*
D02*
G37*
G36*
X-26446Y277776D02*
X-27039Y278185D01*
X-27651Y278538D01*
X-28283Y278836D01*
X-28936Y279078D01*
X-29608Y279264D01*
X-30300Y279395D01*
X-31012Y279470D01*
X-31744Y279489D01*
X-32496Y279453D01*
X-33268Y279361D01*
X-34176Y285292D01*
X-33413Y285435D01*
X-32684Y285626D01*
X-31992Y285863D01*
X-31335Y286148D01*
X-30714Y286480D01*
X-30128Y286859D01*
X-29578Y287285D01*
X-29064Y287759D01*
X-28585Y288279D01*
X-28142Y288847D01*
X-26446Y277776D01*
D02*
G37*
G36*
X-121787Y281229D02*
X-122779Y282208D01*
X-124654Y283855D01*
X-125538Y284525D01*
X-126385Y285091D01*
X-127197Y285555D01*
X-127972Y285916D01*
X-128712Y286173D01*
X-129416Y286327D01*
X-130084Y286379D01*
Y289379D01*
X-129416Y289431D01*
X-128712Y289585D01*
X-127972Y289842D01*
X-127197Y290203D01*
X-126385Y290667D01*
X-125538Y291233D01*
X-124654Y291903D01*
X-122779Y293550D01*
X-121787Y294529D01*
Y281229D01*
D02*
G37*
G36*
X55781Y272894D02*
X55788Y273466D01*
X55634Y274003D01*
X55319Y274504D01*
X54843Y274969D01*
X54207Y275398D01*
X53411Y275791D01*
X52454Y276149D01*
X51336Y276470D01*
X50058Y276756D01*
X48619Y277007D01*
X49526Y282938D01*
X50967Y282747D01*
X53421Y282613D01*
X54433Y282669D01*
X55304Y282808D01*
X56032Y283028D01*
X56617Y283330D01*
X57060Y283714D01*
X57360Y284181D01*
X57518Y284729D01*
X55781Y272894D01*
D02*
G37*
G36*
X-75796Y296374D02*
X-76589Y297153D01*
X-78109Y298465D01*
X-78837Y298998D01*
X-79542Y299449D01*
X-80226Y299818D01*
X-80887Y300105D01*
X-81527Y300310D01*
X-82145Y300433D01*
X-82741Y300474D01*
Y303474D01*
X-82145Y303515D01*
X-81527Y303638D01*
X-80887Y303843D01*
X-80226Y304130D01*
X-79542Y304499D01*
X-78837Y304950D01*
X-78109Y305483D01*
X-77360Y306098D01*
X-75796Y307574D01*
Y296374D01*
D02*
G37*
G36*
X-15411Y289284D02*
X-14859Y288843D01*
X-14279Y288453D01*
X-13671Y288115D01*
X-13035Y287829D01*
X-12370Y287595D01*
X-11678Y287414D01*
X-10957Y287284D01*
X-10208Y287206D01*
X-9431Y287180D01*
X-9430Y281180D01*
X-10207Y281154D01*
X-10955Y281076D01*
X-11676Y280945D01*
X-12368Y280763D01*
X-13033Y280529D01*
X-13669Y280243D01*
X-14277Y279905D01*
X-14857Y279515D01*
X-15409Y279072D01*
X-15932Y278578D01*
X-15935Y289778D01*
X-15411Y289284D01*
D02*
G37*
G36*
X15784Y278587D02*
X15260Y279081D01*
X14708Y279523D01*
X14128Y279913D01*
X13520Y280250D01*
X12883Y280536D01*
X12219Y280770D01*
X11526Y280952D01*
X10806Y281082D01*
X10057Y281160D01*
X9280Y281185D01*
X9279Y287185D01*
X10055Y287212D01*
X10804Y287290D01*
X11525Y287420D01*
X12217Y287602D01*
X12881Y287836D01*
X13518Y288123D01*
X14126Y288461D01*
X14705Y288851D01*
X15257Y289293D01*
X15781Y289787D01*
X15784Y278587D01*
D02*
G37*
G36*
X28433Y288293D02*
X28911Y287773D01*
X29426Y287300D01*
X29976Y286874D01*
X30561Y286495D01*
X31183Y286163D01*
X31840Y285879D01*
X32532Y285641D01*
X33261Y285451D01*
X34025Y285308D01*
X33118Y279377D01*
X32346Y279468D01*
X31594Y279505D01*
X30862Y279485D01*
X30150Y279410D01*
X29458Y279279D01*
X28786Y279092D01*
X28134Y278850D01*
X27501Y278552D01*
X26889Y278199D01*
X26297Y277790D01*
X27989Y288861D01*
X28433Y288293D01*
D02*
G37*
G36*
X-164054Y260494D02*
X-165046Y261473D01*
X-166921Y263121D01*
X-167805Y263790D01*
X-168652Y264357D01*
X-169464Y264820D01*
X-170240Y265181D01*
X-170979Y265438D01*
X-171683Y265593D01*
X-172351Y265644D01*
Y268645D01*
X-171683Y268696D01*
X-170979Y268850D01*
X-170240Y269108D01*
X-169464Y269468D01*
X-168652Y269932D01*
X-167805Y270499D01*
X-166921Y271168D01*
X-165046Y272816D01*
X-164054Y273794D01*
Y260494D01*
D02*
G37*
G36*
X-197141Y230813D02*
X-198191Y230919D01*
X-199185Y230960D01*
X-200122Y230936D01*
X-201002Y230847D01*
X-201826Y230692D01*
X-202594Y230472D01*
X-203305Y230187D01*
X-203960Y229836D01*
X-204559Y229420D01*
X-205101Y228939D01*
X-207222Y231061D01*
X-206741Y231603D01*
X-206325Y232201D01*
X-205975Y232856D01*
X-205689Y233567D01*
X-205469Y234335D01*
X-205315Y235159D01*
X-205225Y236040D01*
X-205201Y236977D01*
X-205242Y237970D01*
X-205348Y239020D01*
X-197141Y230813D01*
D02*
G37*
G36*
X154192Y245509D02*
X154089Y244964D01*
X154145Y244380D01*
X154362Y243758D01*
X154738Y243097D01*
X155274Y242397D01*
X155969Y241659D01*
X156825Y240882D01*
X157840Y240066D01*
X159016Y239212D01*
X155589Y234287D01*
X154374Y235096D01*
X152218Y236306D01*
X151278Y236706D01*
X150429Y236969D01*
X149673Y237096D01*
X149008Y237087D01*
X148435Y236940D01*
X147953Y236658D01*
X147564Y236238D01*
X154456Y246015D01*
X154192Y245509D01*
D02*
G37*
G36*
X-147575Y236231D02*
X-147965Y236650D01*
X-148446Y236933D01*
X-149019Y237079D01*
X-149684Y237089D01*
X-150441Y236962D01*
X-151289Y236698D01*
X-152229Y236298D01*
X-153261Y235761D01*
X-154385Y235088D01*
X-155601Y234278D01*
X-159028Y239203D01*
X-157852Y240058D01*
X-155981Y241651D01*
X-155286Y242389D01*
X-154750Y243089D01*
X-154374Y243750D01*
X-154158Y244372D01*
X-154101Y244956D01*
X-154205Y245501D01*
X-154468Y246007D01*
X-147575Y236231D01*
D02*
G37*
G36*
X-321955Y224330D02*
X-321985Y224615D01*
X-322076Y224870D01*
X-322228Y225095D01*
X-322440Y225290D01*
X-322713Y225455D01*
X-323046Y225590D01*
X-323440Y225695D01*
X-323895Y225770D01*
X-324410Y225815D01*
X-324986Y225830D01*
Y228830D01*
X-324410Y228845D01*
X-323895Y228890D01*
X-323440Y228965D01*
X-323046Y229070D01*
X-322713Y229205D01*
X-322440Y229370D01*
X-322228Y229565D01*
X-322076Y229790D01*
X-321985Y230045D01*
X-321955Y230330D01*
Y224330D01*
D02*
G37*
G36*
X-295743Y230045D02*
X-295652Y229790D01*
X-295500Y229565D01*
X-295288Y229370D01*
X-295015Y229205D01*
X-294682Y229070D01*
X-294288Y228965D01*
X-293834Y228890D01*
X-293318Y228845D01*
X-292743Y228830D01*
Y225830D01*
X-293318Y225815D01*
X-293834Y225770D01*
X-294288Y225695D01*
X-294682Y225590D01*
X-295015Y225455D01*
X-295288Y225290D01*
X-295500Y225095D01*
X-295652Y224870D01*
X-295743Y224615D01*
X-295773Y224330D01*
Y230330D01*
X-295743Y230045D01*
D02*
G37*
G36*
X-165684Y227259D02*
X-166866Y226400D01*
X-168749Y224799D01*
X-169450Y224056D01*
X-169992Y223352D01*
X-170374Y222686D01*
X-170595Y222059D01*
X-170658Y221471D01*
X-170560Y220922D01*
X-170302Y220411D01*
X-177076Y230269D01*
X-176693Y229846D01*
X-176218Y229560D01*
X-175651Y229410D01*
X-174992Y229397D01*
X-174242Y229520D01*
X-173400Y229779D01*
X-172466Y230175D01*
X-171440Y230708D01*
X-170322Y231377D01*
X-169113Y232183D01*
X-165684Y227259D01*
D02*
G37*
G36*
X321978Y250543D02*
X322044Y250121D01*
X322152Y249699D01*
X322304Y249277D01*
X322497Y248853D01*
X322734Y248428D01*
X323013Y248002D01*
X323335Y247576D01*
X323700Y247149D01*
X324107Y246721D01*
Y242478D01*
X323862Y242714D01*
X323394Y243112D01*
X323171Y243273D01*
X322955Y243410D01*
X322747Y243522D01*
X322546Y243609D01*
X322352Y243671D01*
X322165Y243708D01*
X321986Y243720D01*
X321955Y250963D01*
X321978Y250543D01*
D02*
G37*
G36*
X-129343Y249737D02*
X-130641Y249067D01*
X-132744Y247770D01*
X-133550Y247141D01*
X-134192Y246528D01*
X-134671Y245928D01*
X-134985Y245341D01*
X-135135Y244769D01*
X-135122Y244211D01*
X-134944Y243667D01*
X-140147Y254438D01*
X-139833Y253962D01*
X-139406Y253607D01*
X-138869Y253373D01*
X-138220Y253260D01*
X-137459Y253268D01*
X-136587Y253397D01*
X-135604Y253647D01*
X-134510Y254018D01*
X-133304Y254510D01*
X-131986Y255123D01*
X-129343Y249737D01*
D02*
G37*
G36*
X115237Y266027D02*
X115217Y265472D01*
X115361Y264904D01*
X115669Y264322D01*
X116141Y263725D01*
X116777Y263115D01*
X117577Y262490D01*
X118540Y261852D01*
X119667Y261199D01*
X120958Y260533D01*
X118317Y255146D01*
X116993Y255762D01*
X114679Y256631D01*
X113689Y256884D01*
X112810Y257016D01*
X112043Y257027D01*
X111388Y256917D01*
X110843Y256686D01*
X110410Y256333D01*
X110089Y255860D01*
X115421Y266567D01*
X115237Y266027D01*
D02*
G37*
G36*
X-110101Y255854D02*
X-110423Y256328D01*
X-110856Y256680D01*
X-111400Y256911D01*
X-112056Y257021D01*
X-112823Y257010D01*
X-113702Y256878D01*
X-114692Y256625D01*
X-115793Y256251D01*
X-117006Y255756D01*
X-118330Y255140D01*
X-120971Y260527D01*
X-119680Y261193D01*
X-117590Y262484D01*
X-116790Y263109D01*
X-116154Y263719D01*
X-115683Y264316D01*
X-115375Y264898D01*
X-115231Y265467D01*
X-115251Y266021D01*
X-115434Y266561D01*
X-110101Y255854D01*
D02*
G37*
G36*
X133291Y254517D02*
X135591Y253654D01*
X136575Y253404D01*
X137446Y253275D01*
X138207Y253267D01*
X138856Y253380D01*
X139394Y253614D01*
X139820Y253969D01*
X140135Y254445D01*
X134932Y243674D01*
X135110Y244218D01*
X135123Y244776D01*
X134973Y245348D01*
X134658Y245934D01*
X134180Y246534D01*
X133538Y247148D01*
X132732Y247776D01*
X131762Y248418D01*
X130628Y249074D01*
X129330Y249744D01*
X131973Y255130D01*
X133291Y254517D01*
D02*
G37*
G36*
X-315047Y252905D02*
X-314956Y252650D01*
X-314804Y252425D01*
X-314592Y252230D01*
X-314319Y252065D01*
X-313986Y251930D01*
X-313592Y251825D01*
X-313137Y251750D01*
X-312622Y251705D01*
X-312047Y251690D01*
Y248690D01*
X-312622Y248675D01*
X-313137Y248630D01*
X-313592Y248555D01*
X-313986Y248450D01*
X-314319Y248315D01*
X-314592Y248150D01*
X-314804Y247955D01*
X-314956Y247730D01*
X-315047Y247475D01*
X-315077Y247190D01*
Y253190D01*
X-315047Y252905D01*
D02*
G37*
G36*
X-295743D02*
X-295652Y252650D01*
X-295500Y252425D01*
X-295288Y252230D01*
X-295015Y252065D01*
X-294682Y251930D01*
X-294288Y251825D01*
X-293834Y251750D01*
X-293318Y251705D01*
X-292743Y251690D01*
Y248690D01*
X-293318Y248675D01*
X-293834Y248630D01*
X-294288Y248555D01*
X-294682Y248450D01*
X-295015Y248315D01*
X-295288Y248150D01*
X-295500Y247955D01*
X-295652Y247730D01*
X-295743Y247475D01*
X-295773Y247190D01*
Y253190D01*
X-295743Y252905D01*
D02*
G37*
G36*
X231758Y169805D02*
X233443Y168017D01*
X234216Y167359D01*
X234942Y166860D01*
X235621Y166518D01*
X236253Y166333D01*
X236839Y166306D01*
X237378Y166437D01*
X237870Y166726D01*
X228456Y159347D01*
X228855Y159758D01*
X229113Y160253D01*
X229230Y160833D01*
X229206Y161497D01*
X229041Y162246D01*
X228734Y163080D01*
X228287Y163999D01*
X227699Y165002D01*
X226970Y166091D01*
X226100Y167264D01*
X230845Y170935D01*
X231758Y169805D01*
D02*
G37*
G36*
X363387Y39545D02*
X363478Y39290D01*
X363630Y39065D01*
X363842Y38870D01*
X364115Y38705D01*
X364448Y38570D01*
X364842Y38465D01*
X365297Y38390D01*
X365812Y38345D01*
X366387Y38330D01*
Y35330D01*
X365812Y35315D01*
X365297Y35270D01*
X364842Y35195D01*
X364448Y35090D01*
X364115Y34955D01*
X363842Y34790D01*
X363630Y34595D01*
X363478Y34370D01*
X363387Y34115D01*
X363357Y33830D01*
Y39830D01*
X363387Y39545D01*
D02*
G37*
G36*
X-363611Y34846D02*
X-363641Y35131D01*
X-363732Y35386D01*
X-363884Y35611D01*
X-364096Y35806D01*
X-364369Y35971D01*
X-364702Y36106D01*
X-365096Y36211D01*
X-365550Y36286D01*
X-366066Y36331D01*
X-366642Y36346D01*
Y39346D01*
X-366066Y39361D01*
X-365550Y39406D01*
X-365096Y39481D01*
X-364702Y39586D01*
X-364369Y39721D01*
X-364096Y39886D01*
X-363884Y40081D01*
X-363732Y40306D01*
X-363641Y40561D01*
X-363611Y40846D01*
Y34846D01*
D02*
G37*
G36*
X-337400Y40464D02*
X-337313Y40230D01*
X-337167Y40022D01*
X-336963Y39843D01*
X-336701Y39691D01*
X-336381Y39567D01*
X-336003Y39470D01*
X-335566Y39401D01*
X-335071Y39360D01*
X-334518Y39346D01*
Y36346D01*
X-335071Y36332D01*
X-335566Y36291D01*
X-336003Y36222D01*
X-336381Y36125D01*
X-336701Y36001D01*
X-336963Y35849D01*
X-337167Y35670D01*
X-337313Y35463D01*
X-337400Y35228D01*
X-337429Y34966D01*
Y40726D01*
X-337400Y40464D01*
D02*
G37*
G36*
X-303721Y30403D02*
X-303888Y30211D01*
X-304036Y29951D01*
X-304164Y29624D01*
X-304272Y29228D01*
X-304360Y28766D01*
X-304429Y28235D01*
X-304508Y26972D01*
X-304518Y26238D01*
X-310518D01*
X-310527Y26972D01*
X-310675Y28766D01*
X-310763Y29228D01*
X-310872Y29624D01*
X-310999Y29951D01*
X-311147Y30211D01*
X-311314Y30403D01*
X-311501Y30528D01*
X-303534D01*
X-303721Y30403D01*
D02*
G37*
G36*
X317036Y38071D02*
X317120Y37110D01*
X317266Y36189D01*
X317475Y35310D01*
X317746Y34471D01*
X318080Y33672D01*
X318477Y32914D01*
X318936Y32197D01*
X319457Y31521D01*
X320041Y30885D01*
X315799Y26642D01*
X315163Y27227D01*
X314486Y27748D01*
X313769Y28207D01*
X313011Y28603D01*
X312213Y28937D01*
X311374Y29209D01*
X310494Y29418D01*
X309574Y29564D01*
X308612Y29647D01*
X307611Y29668D01*
X317015Y39073D01*
X317036Y38071D01*
D02*
G37*
G36*
X335512Y46217D02*
X337901Y44164D01*
X338923Y43438D01*
X339829Y42911D01*
X340620Y42583D01*
X341295Y42455D01*
X341856Y42527D01*
X342300Y42798D01*
X342630Y43269D01*
X337175Y31814D01*
X337377Y32413D01*
X337439Y33067D01*
X337361Y33776D01*
X337144Y34541D01*
X336786Y35362D01*
X336289Y36239D01*
X335652Y37170D01*
X334875Y38158D01*
X333958Y39201D01*
X332902Y40300D01*
X334145Y47542D01*
X335512Y46217D01*
D02*
G37*
G36*
X282854Y50386D02*
X283580Y48038D01*
X283984Y47108D01*
X284415Y46339D01*
X284875Y45733D01*
X285361Y45289D01*
X285875Y45007D01*
X286417Y44887D01*
X286986Y44930D01*
X275284Y42450D01*
X275823Y42643D01*
X276273Y42974D01*
X276633Y43443D01*
X276904Y44050D01*
X277086Y44796D01*
X277178Y45679D01*
X277181Y46701D01*
X277095Y47861D01*
X276920Y49159D01*
X276655Y50595D01*
X282532Y51803D01*
X282854Y50386D01*
D02*
G37*
G36*
X335268Y66658D02*
X335736Y66260D01*
X335959Y66099D01*
X336175Y65962D01*
X336383Y65850D01*
X336585Y65763D01*
X336778Y65701D01*
X336965Y65664D01*
X337145Y65651D01*
X337175Y58409D01*
X337152Y58829D01*
X337086Y59250D01*
X336978Y59673D01*
X336826Y60096D01*
X336633Y60519D01*
X336396Y60944D01*
X336117Y61370D01*
X335795Y61796D01*
X335430Y62223D01*
X335023Y62652D01*
Y66894D01*
X335268Y66658D01*
D02*
G37*
G36*
X280898Y71737D02*
X280447Y71413D01*
X280086Y70951D01*
X279814Y70351D01*
X279631Y69612D01*
X279538Y68736D01*
X279534Y67721D01*
X279618Y66568D01*
X279793Y65277D01*
X280056Y63848D01*
X274180Y62635D01*
X273857Y64060D01*
X273127Y66423D01*
X272721Y67361D01*
X272288Y68137D01*
X271827Y68751D01*
X271338Y69202D01*
X270822Y69491D01*
X270278Y69618D01*
X269707Y69582D01*
X281437Y71922D01*
X280898Y71737D01*
D02*
G37*
G36*
X-335277Y65953D02*
X-335854Y65356D01*
X-336766Y64277D01*
X-337101Y63795D01*
X-337357Y63351D01*
X-337532Y62946D01*
X-337626Y62580D01*
X-337641Y62252D01*
X-337575Y61962D01*
X-337429Y61711D01*
X-341181Y66383D01*
X-340971Y66196D01*
X-340713Y66098D01*
X-340408Y66090D01*
X-340055Y66171D01*
X-339655Y66341D01*
X-339207Y66601D01*
X-338711Y66950D01*
X-338168Y67389D01*
X-336939Y68535D01*
X-335277Y65953D01*
D02*
G37*
G36*
X-276660Y50583D02*
X-276924Y49146D01*
X-277185Y46688D01*
X-277182Y45666D01*
X-277090Y44783D01*
X-276908Y44037D01*
X-276637Y43430D01*
X-276276Y42961D01*
X-275826Y42630D01*
X-275287Y42438D01*
X-286990Y44914D01*
X-286421Y44872D01*
X-285879Y44992D01*
X-285365Y45274D01*
X-284879Y45718D01*
X-284419Y46325D01*
X-283988Y47093D01*
X-283584Y48024D01*
X-283208Y49116D01*
X-282859Y50371D01*
X-282537Y51788D01*
X-276660Y50583D01*
D02*
G37*
G36*
X356479Y56301D02*
X356450Y56564D01*
X356362Y56799D01*
X356217Y57006D01*
X356013Y57185D01*
X355751Y57337D01*
X355431Y57461D01*
X355053Y57558D01*
X354616Y57627D01*
X354121Y57668D01*
X353568Y57682D01*
Y60682D01*
X354121Y60696D01*
X354616Y60737D01*
X355053Y60806D01*
X355431Y60903D01*
X355751Y61027D01*
X356013Y61179D01*
X356217Y61358D01*
X356362Y61565D01*
X356450Y61800D01*
X356479Y62063D01*
Y56301D01*
D02*
G37*
G36*
X-356709Y62151D02*
X-356637Y62002D01*
X-356517Y61872D01*
X-356348Y61758D01*
X-356132Y61662D01*
X-355868Y61584D01*
X-355555Y61522D01*
X-355195Y61479D01*
X-354787Y61453D01*
X-354330Y61444D01*
Y58444D01*
X-354787Y58435D01*
X-355555Y58366D01*
X-355868Y58304D01*
X-356132Y58226D01*
X-356348Y58130D01*
X-356517Y58017D01*
X-356637Y57886D01*
X-356709Y57737D01*
X-356733Y57572D01*
Y62316D01*
X-356709Y62151D01*
D02*
G37*
G36*
X288525Y28343D02*
X288030Y28091D01*
X287603Y27689D01*
X287244Y27137D01*
X286951Y26435D01*
X286726Y25583D01*
X286568Y24581D01*
X286477Y23429D01*
X286454Y22127D01*
X286498Y20674D01*
X280505Y20369D01*
X280402Y21826D01*
X280039Y24271D01*
X279780Y25260D01*
X279469Y26092D01*
X279106Y26768D01*
X278691Y27288D01*
X278225Y27652D01*
X277707Y27859D01*
X277137Y27911D01*
X289086Y28444D01*
X288525Y28343D01*
D02*
G37*
G36*
X290059Y-15661D02*
X289488Y-15676D01*
X288961Y-15850D01*
X288478Y-16182D01*
X288039Y-16673D01*
X287644Y-17323D01*
X287292Y-18131D01*
X286984Y-19097D01*
X286719Y-20223D01*
X286499Y-21506D01*
X286322Y-22949D01*
X280353Y-22341D01*
X280471Y-20886D01*
X280483Y-18414D01*
X280377Y-17398D01*
X280195Y-16528D01*
X279939Y-15805D01*
X279608Y-15228D01*
X279202Y-14798D01*
X278722Y-14514D01*
X278166Y-14377D01*
X290059Y-15661D01*
D02*
G37*
G36*
X-309995Y-17362D02*
X-310997Y-17383D01*
X-311958Y-17467D01*
X-312879Y-17613D01*
X-313758Y-17822D01*
X-314598Y-18093D01*
X-315396Y-18427D01*
X-316154Y-18823D01*
X-316871Y-19282D01*
X-317547Y-19804D01*
X-318183Y-20388D01*
X-322426Y-16146D01*
X-321842Y-15510D01*
X-321320Y-14833D01*
X-320861Y-14116D01*
X-320465Y-13359D01*
X-320131Y-12560D01*
X-319859Y-11721D01*
X-319651Y-10841D01*
X-319504Y-9921D01*
X-319421Y-8960D01*
X-319400Y-7958D01*
X-309995Y-17362D01*
D02*
G37*
G36*
X317265Y-1718D02*
X318021Y-2327D01*
X318791Y-2865D01*
X319573Y-3330D01*
X320368Y-3724D01*
X321175Y-4047D01*
X321996Y-4298D01*
X322829Y-4477D01*
X323675Y-4584D01*
X324534Y-4620D01*
X324688Y-10620D01*
X323822Y-10657D01*
X322974Y-10769D01*
X322144Y-10954D01*
X321333Y-11214D01*
X320539Y-11549D01*
X319764Y-11957D01*
X319007Y-12440D01*
X318268Y-12997D01*
X317547Y-13628D01*
X316844Y-14334D01*
X316521Y-1038D01*
X317265Y-1718D01*
D02*
G37*
G36*
X-337116Y-23863D02*
X-336938Y-24356D01*
X-336642Y-24790D01*
X-336227Y-25167D01*
X-335693Y-25486D01*
X-335041Y-25747D01*
X-334271Y-25949D01*
X-333381Y-26094D01*
X-332374Y-26181D01*
X-331247Y-26210D01*
Y-32210D01*
X-332374Y-32239D01*
X-333381Y-32326D01*
X-334271Y-32471D01*
X-335041Y-32673D01*
X-335693Y-32934D01*
X-336227Y-33253D01*
X-336642Y-33630D01*
X-336938Y-34064D01*
X-337116Y-34557D01*
X-337175Y-35107D01*
Y-23313D01*
X-337116Y-23863D01*
D02*
G37*
G36*
X363381Y-27511D02*
X363453Y-27660D01*
X363573Y-27791D01*
X363741Y-27904D01*
X363958Y-28000D01*
X364222Y-28078D01*
X364534Y-28140D01*
X364895Y-28183D01*
X365303Y-28209D01*
X365760Y-28218D01*
Y-31218D01*
X365303Y-31227D01*
X364534Y-31297D01*
X364222Y-31358D01*
X363958Y-31436D01*
X363741Y-31532D01*
X363573Y-31646D01*
X363453Y-31776D01*
X363381Y-31925D01*
X363357Y-32090D01*
Y-27345D01*
X363381Y-27511D01*
D02*
G37*
G36*
X-278722Y-14526D02*
X-279203Y-14810D01*
X-279609Y-15240D01*
X-279940Y-15817D01*
X-280196Y-16540D01*
X-280378Y-17409D01*
X-280484Y-18426D01*
X-280516Y-19588D01*
X-280472Y-20898D01*
X-280354Y-22353D01*
X-286324Y-22959D01*
X-286500Y-21517D01*
X-286985Y-19108D01*
X-287293Y-18141D01*
X-287644Y-17333D01*
X-288040Y-16684D01*
X-288479Y-16193D01*
X-288962Y-15860D01*
X-289489Y-15686D01*
X-290059Y-15671D01*
X-278167Y-14389D01*
X-278722Y-14526D01*
D02*
G37*
G36*
X337175Y-13620D02*
X337115Y-13050D01*
X336934Y-12540D01*
X336632Y-12090D01*
X336210Y-11700D01*
X335667Y-11370D01*
X335004Y-11100D01*
X334220Y-10890D01*
X333316Y-10740D01*
X332290Y-10650D01*
X331144Y-10620D01*
Y-4620D01*
X332290Y-4590D01*
X333316Y-4500D01*
X334220Y-4350D01*
X335004Y-4140D01*
X335667Y-3870D01*
X336210Y-3540D01*
X336632Y-3150D01*
X336934Y-2700D01*
X337115Y-2190D01*
X337175Y-1620D01*
Y-13620D01*
D02*
G37*
G36*
X-358843Y9025D02*
X-359090Y9181D01*
X-359376Y9255D01*
X-359702Y9247D01*
X-360067Y9158D01*
X-360472Y8987D01*
X-360916Y8734D01*
X-361399Y8399D01*
X-361922Y7982D01*
X-362484Y7484D01*
X-363086Y6903D01*
X-365509Y8723D01*
X-364901Y9351D01*
X-363950Y10473D01*
X-363606Y10965D01*
X-363350Y11412D01*
X-363182Y11813D01*
X-363101Y12170D01*
X-363109Y12480D01*
X-363204Y12745D01*
X-363387Y12965D01*
X-358843Y9025D01*
D02*
G37*
G36*
X337175Y9539D02*
X337123Y9956D01*
X336966Y10329D01*
X336705Y10658D01*
X336339Y10942D01*
X335869Y11184D01*
X335294Y11381D01*
X334616Y11535D01*
X333832Y11644D01*
X332944Y11710D01*
X331951Y11732D01*
Y17732D01*
X332944Y17754D01*
X334616Y17929D01*
X335294Y18083D01*
X335869Y18280D01*
X336339Y18521D01*
X336705Y18807D01*
X336966Y19136D01*
X337123Y19508D01*
X337175Y19925D01*
Y9539D01*
D02*
G37*
G36*
X-277138Y27897D02*
X-277708Y27845D01*
X-278226Y27638D01*
X-278693Y27274D01*
X-279107Y26754D01*
X-279470Y26078D01*
X-279781Y25246D01*
X-280040Y24257D01*
X-280247Y23113D01*
X-280403Y21812D01*
X-280506Y20355D01*
X-286499Y20660D01*
X-286455Y22112D01*
X-286569Y24567D01*
X-286727Y25569D01*
X-286952Y26421D01*
X-287245Y27123D01*
X-287605Y27675D01*
X-288032Y28077D01*
X-288526Y28328D01*
X-289088Y28430D01*
X-277138Y27897D01*
D02*
G37*
G36*
X-332902Y-3388D02*
X-333958Y-4487D01*
X-335652Y-6518D01*
X-336289Y-7449D01*
X-336786Y-8326D01*
X-337144Y-9147D01*
X-337361Y-9912D01*
X-337439Y-10621D01*
X-337377Y-11275D01*
X-337175Y-11874D01*
X-342630Y-419D01*
X-342300Y-890D01*
X-341856Y-1161D01*
X-341295Y-1233D01*
X-340620Y-1105D01*
X-339829Y-777D01*
X-338923Y-250D01*
X-337901Y476D01*
X-336764Y1403D01*
X-334145Y3854D01*
X-332902Y-3388D01*
D02*
G37*
G36*
X-281127Y8108D02*
X-281171Y6648D01*
X-281058Y4178D01*
X-280900Y3169D01*
X-280674Y2309D01*
X-280382Y1600D01*
X-280022Y1041D01*
X-279595Y632D01*
X-279100Y373D01*
X-278538Y264D01*
X-290481Y942D01*
X-289912Y986D01*
X-289395Y1186D01*
X-288929Y1543D01*
X-288515Y2056D01*
X-288153Y2725D01*
X-287843Y3549D01*
X-287585Y4530D01*
X-287378Y5668D01*
X-287223Y6961D01*
X-287120Y8410D01*
X-281127Y8108D01*
D02*
G37*
G36*
X287222Y6972D02*
X287584Y4542D01*
X287843Y3561D01*
X288153Y2736D01*
X288515Y2067D01*
X288929Y1554D01*
X289394Y1198D01*
X289912Y997D01*
X290481Y953D01*
X278538Y275D01*
X279100Y384D01*
X279595Y643D01*
X280022Y1052D01*
X280382Y1611D01*
X280674Y2320D01*
X280900Y3180D01*
X281057Y4189D01*
X281148Y5349D01*
X281171Y6659D01*
X281127Y8118D01*
X287119Y8421D01*
X287222Y6972D01*
D02*
G37*
G36*
X-269734Y69482D02*
X-270305Y69518D01*
X-270849Y69391D01*
X-271365Y69102D01*
X-271853Y68651D01*
X-272314Y68038D01*
X-272747Y67263D01*
X-273153Y66326D01*
X-273531Y65227D01*
X-273881Y63965D01*
X-274204Y62542D01*
X-280082Y63745D01*
X-279819Y65174D01*
X-279561Y67617D01*
X-279565Y68631D01*
X-279659Y69507D01*
X-279842Y70245D01*
X-280114Y70845D01*
X-280475Y71306D01*
X-280926Y71630D01*
X-281466Y71815D01*
X-269734Y69482D01*
D02*
G37*
G36*
X-338807Y132895D02*
X-338684Y132645D01*
X-338480Y132423D01*
X-338194Y132231D01*
X-337827Y132069D01*
X-337378Y131936D01*
X-336847Y131833D01*
X-336235Y131759D01*
X-335541Y131715D01*
X-334765Y131700D01*
Y128700D01*
X-335541Y128685D01*
X-336847Y128567D01*
X-337378Y128464D01*
X-337827Y128331D01*
X-338194Y128169D01*
X-338480Y127977D01*
X-338684Y127755D01*
X-338807Y127505D01*
X-338848Y127224D01*
Y133176D01*
X-338807Y132895D01*
D02*
G37*
G36*
X-248750Y131257D02*
X-249431Y129971D01*
X-250413Y127711D01*
X-250715Y126739D01*
X-250891Y125871D01*
X-250940Y125107D01*
X-250864Y124448D01*
X-250661Y123893D01*
X-250331Y123444D01*
X-249876Y123098D01*
X-260291Y128980D01*
X-259760Y128769D01*
X-259207Y128721D01*
X-258631Y128837D01*
X-258032Y129116D01*
X-257410Y129560D01*
X-256766Y130167D01*
X-256099Y130938D01*
X-255409Y131872D01*
X-254696Y132970D01*
X-253961Y134232D01*
X-248750Y131257D01*
D02*
G37*
G36*
X-338807Y145595D02*
X-338684Y145344D01*
X-338480Y145123D01*
X-338194Y144931D01*
X-337827Y144769D01*
X-337378Y144636D01*
X-336847Y144533D01*
X-336235Y144459D01*
X-335541Y144415D01*
X-334765Y144400D01*
Y141400D01*
X-335541Y141385D01*
X-336847Y141267D01*
X-337378Y141164D01*
X-337827Y141031D01*
X-338194Y140869D01*
X-338480Y140677D01*
X-338684Y140455D01*
X-338807Y140204D01*
X-338848Y139924D01*
Y145876D01*
X-338807Y145595D01*
D02*
G37*
G36*
X-282053Y120784D02*
X-283164Y120774D01*
X-285167Y120627D01*
X-286058Y120490D01*
X-286876Y120310D01*
X-287620Y120087D01*
X-288291Y119823D01*
X-288888Y119515D01*
X-289412Y119165D01*
X-289863Y118772D01*
X-291984Y120894D01*
X-291591Y121344D01*
X-291241Y121868D01*
X-290934Y122466D01*
X-290669Y123137D01*
X-290446Y123881D01*
X-290267Y124698D01*
X-290129Y125590D01*
X-290034Y126554D01*
X-289972Y128704D01*
X-282053Y120784D01*
D02*
G37*
G36*
X254799Y132752D02*
X256194Y130729D01*
X256858Y129962D01*
X257500Y129358D01*
X258119Y128917D01*
X258717Y128639D01*
X259292Y128524D01*
X259844Y128572D01*
X260375Y128783D01*
X249951Y122915D01*
X250408Y123260D01*
X250738Y123710D01*
X250941Y124266D01*
X251018Y124926D01*
X250968Y125692D01*
X250792Y126562D01*
X250489Y127538D01*
X250060Y128619D01*
X249503Y129805D01*
X248821Y131097D01*
X254067Y134008D01*
X254799Y132752D01*
D02*
G37*
G36*
X352997Y133333D02*
X353146Y133113D01*
X353355Y132841D01*
X353954Y132142D01*
X356501Y129490D01*
X354743Y127005D01*
X354208Y127520D01*
X353278Y128281D01*
X352883Y128527D01*
X352536Y128683D01*
X352237Y128750D01*
X351984Y128728D01*
X351779Y128616D01*
X351621Y128414D01*
X351510Y128123D01*
X352907Y133502D01*
X352997Y133333D01*
D02*
G37*
G36*
X338848Y141224D02*
X338807Y141505D01*
X338684Y141756D01*
X338480Y141977D01*
X338194Y142169D01*
X337827Y142331D01*
X337378Y142464D01*
X336847Y142567D01*
X336235Y142641D01*
X335541Y142685D01*
X334765Y142700D01*
Y145700D01*
X335541Y145715D01*
X336847Y145833D01*
X337378Y145936D01*
X337827Y146069D01*
X338194Y146231D01*
X338480Y146423D01*
X338684Y146645D01*
X338807Y146896D01*
X338848Y147176D01*
Y141224D01*
D02*
G37*
G36*
X321978Y159103D02*
X322044Y158681D01*
X322152Y158259D01*
X322304Y157837D01*
X322497Y157413D01*
X322734Y156988D01*
X323013Y156562D01*
X323335Y156136D01*
X323700Y155709D01*
X324107Y155281D01*
Y151038D01*
X323862Y151274D01*
X323394Y151672D01*
X323171Y151833D01*
X322955Y151970D01*
X322747Y152082D01*
X322546Y152169D01*
X322352Y152231D01*
X322165Y152268D01*
X321986Y152281D01*
X321955Y159523D01*
X321978Y159103D01*
D02*
G37*
G36*
X-338807Y158495D02*
X-338684Y158244D01*
X-338480Y158023D01*
X-338194Y157831D01*
X-337827Y157669D01*
X-337378Y157536D01*
X-336847Y157433D01*
X-336235Y157359D01*
X-335541Y157315D01*
X-334765Y157300D01*
Y154300D01*
X-335541Y154285D01*
X-336847Y154167D01*
X-337378Y154064D01*
X-337827Y153931D01*
X-338194Y153769D01*
X-338480Y153577D01*
X-338684Y153355D01*
X-338807Y153104D01*
X-338848Y152824D01*
Y158776D01*
X-338807Y158495D01*
D02*
G37*
G36*
X336426Y160763D02*
X337349Y160009D01*
X337737Y159768D01*
X338078Y159619D01*
X338369Y159560D01*
X338612Y159592D01*
X338807Y159714D01*
X338953Y159928D01*
X339051Y160232D01*
X337973Y155098D01*
X337955Y155088D01*
X337859Y155159D01*
X337687Y155310D01*
X335027Y157899D01*
X334314Y158611D01*
X335892Y161276D01*
X336426Y160763D01*
D02*
G37*
G36*
X246556Y152512D02*
X246223Y152068D01*
X246017Y151520D01*
X245937Y150866D01*
X245983Y150107D01*
X246156Y149242D01*
X246456Y148273D01*
X246882Y147199D01*
X247434Y146019D01*
X248113Y144734D01*
X242868Y141822D01*
X242133Y143084D01*
X240730Y145119D01*
X240062Y145893D01*
X239417Y146503D01*
X238793Y146950D01*
X238192Y147234D01*
X237613Y147355D01*
X237057Y147313D01*
X236522Y147109D01*
X247015Y152851D01*
X246556Y152512D01*
D02*
G37*
G36*
X-236538Y147103D02*
X-237072Y147307D01*
X-237628Y147349D01*
X-238207Y147228D01*
X-238807Y146944D01*
X-239430Y146498D01*
X-240075Y145890D01*
X-240742Y145119D01*
X-241431Y144185D01*
X-242142Y143089D01*
X-242875Y141830D01*
X-248157Y144678D01*
X-247473Y145970D01*
X-246487Y148236D01*
X-246185Y149210D01*
X-246009Y150079D01*
X-245961Y150841D01*
X-246040Y151497D01*
X-246246Y152048D01*
X-246579Y152492D01*
X-247039Y152831D01*
X-236538Y147103D01*
D02*
G37*
G36*
X-315801Y152250D02*
X-316056Y152161D01*
X-316281Y152010D01*
X-316476Y151800D01*
X-316641Y151531D01*
X-316776Y151201D01*
X-316881Y150810D01*
X-316956Y150360D01*
X-317001Y149851D01*
X-317016Y149281D01*
X-320016D01*
X-320031Y149851D01*
X-320076Y150360D01*
X-320151Y150810D01*
X-320256Y151201D01*
X-320391Y151531D01*
X-320556Y151800D01*
X-320751Y152010D01*
X-320976Y152161D01*
X-321231Y152250D01*
X-321516Y152281D01*
X-315516D01*
X-315801Y152250D01*
D02*
G37*
G36*
X290646Y125941D02*
X290459Y124783D01*
X290355Y123700D01*
X290334Y122693D01*
X290396Y121761D01*
X290541Y120904D01*
X290769Y120122D01*
X291079Y119416D01*
X291473Y118786D01*
X291949Y118230D01*
X289324Y116612D01*
X288908Y116967D01*
X288368Y117322D01*
X287705Y117677D01*
X286919Y118032D01*
X284977Y118742D01*
X283822Y119096D01*
X279615Y120160D01*
X290915Y127175D01*
X290646Y125941D01*
D02*
G37*
G36*
X337175Y79415D02*
X337154Y79533D01*
X337089Y79638D01*
X336982Y79731D01*
X336831Y79811D01*
X336638Y79879D01*
X336401Y79935D01*
X336122Y79978D01*
X335800Y80009D01*
X335026Y80034D01*
Y83034D01*
X335434Y83040D01*
X336122Y83090D01*
X336401Y83133D01*
X336638Y83189D01*
X336831Y83257D01*
X336982Y83337D01*
X337089Y83430D01*
X337154Y83535D01*
X337175Y83652D01*
Y79415D01*
D02*
G37*
G36*
X271954Y92665D02*
X273027Y90455D01*
X273567Y89596D01*
X274110Y88902D01*
X274656Y88373D01*
X275204Y88008D01*
X275755Y87807D01*
X276308Y87771D01*
X276864Y87899D01*
X265674Y83674D01*
X266177Y83946D01*
X266571Y84341D01*
X266857Y84860D01*
X267033Y85501D01*
X267099Y86265D01*
X267057Y87152D01*
X266906Y88161D01*
X266645Y89295D01*
X266275Y90550D01*
X265796Y91929D01*
X271422Y94016D01*
X271954Y92665D01*
D02*
G37*
G36*
X-265822Y91836D02*
X-266301Y90455D01*
X-266933Y88064D01*
X-267085Y87053D01*
X-267128Y86165D01*
X-267061Y85400D01*
X-266885Y84759D01*
X-266600Y84241D01*
X-266206Y83845D01*
X-265702Y83573D01*
X-276895Y87794D01*
X-276339Y87666D01*
X-275785Y87702D01*
X-275234Y87903D01*
X-274686Y88269D01*
X-274140Y88799D01*
X-273597Y89493D01*
X-273056Y90352D01*
X-272518Y91375D01*
X-271983Y92563D01*
X-271450Y93915D01*
X-265822Y91836D01*
D02*
G37*
G36*
X306214Y80247D02*
X305982Y79478D01*
X305855Y78720D01*
X305835Y77974D01*
X305920Y77240D01*
X306112Y76518D01*
X306409Y75808D01*
X306812Y75110D01*
X307322Y74424D01*
X307937Y73750D01*
X301454Y71747D01*
X300872Y72305D01*
X299608Y73372D01*
X298926Y73881D01*
X297464Y74851D01*
X296684Y75311D01*
X294144Y76595D01*
X306553Y81029D01*
X306214Y80247D01*
D02*
G37*
G36*
X-298136Y75774D02*
X-299529Y75764D01*
X-302020Y75604D01*
X-303119Y75452D01*
X-304119Y75253D01*
X-305020Y75007D01*
X-305824Y74714D01*
X-306529Y74373D01*
X-307136Y73984D01*
X-307644Y73549D01*
X-309765Y75670D01*
X-309330Y76178D01*
X-308941Y76785D01*
X-308600Y77490D01*
X-308307Y78294D01*
X-308061Y79195D01*
X-307862Y80195D01*
X-307710Y81294D01*
X-307550Y83785D01*
X-307541Y85178D01*
X-298136Y75774D01*
D02*
G37*
G36*
X-337399Y84757D02*
X-337308Y84502D01*
X-337156Y84277D01*
X-336944Y84082D01*
X-336671Y83917D01*
X-336338Y83782D01*
X-335944Y83677D01*
X-335490Y83602D01*
X-334974Y83557D01*
X-334398Y83542D01*
Y80542D01*
X-334974Y80527D01*
X-335490Y80482D01*
X-335944Y80407D01*
X-336338Y80302D01*
X-336671Y80167D01*
X-336944Y80002D01*
X-337156Y79807D01*
X-337308Y79582D01*
X-337399Y79327D01*
X-337429Y79042D01*
Y85042D01*
X-337399Y84757D01*
D02*
G37*
G36*
X361433Y90434D02*
X361478Y89923D01*
X361553Y89473D01*
X361658Y89083D01*
X361793Y88753D01*
X361958Y88483D01*
X362153Y88273D01*
X362378Y88124D01*
X362633Y88034D01*
X362918Y88004D01*
X356918D01*
X357203Y88034D01*
X357458Y88124D01*
X357683Y88273D01*
X357878Y88483D01*
X358043Y88753D01*
X358178Y89083D01*
X358283Y89473D01*
X358358Y89923D01*
X358403Y90434D01*
X358418Y91004D01*
X361418D01*
X361433Y90434D01*
D02*
G37*
G36*
X-255986Y109802D02*
X-256544Y109925D01*
X-257100Y109884D01*
X-257654Y109677D01*
X-258205Y109306D01*
X-258753Y108769D01*
X-259299Y108068D01*
X-259843Y107202D01*
X-260383Y106171D01*
X-260922Y104976D01*
X-261458Y103615D01*
X-267081Y105708D01*
X-266603Y107085D01*
X-265974Y109467D01*
X-265824Y110474D01*
X-265782Y111357D01*
X-265850Y112117D01*
X-266028Y112754D01*
X-266314Y113268D01*
X-266709Y113658D01*
X-267214Y113925D01*
X-255986Y109802D01*
D02*
G37*
G36*
X-396723Y119664D02*
X-396629Y119525D01*
X-396471Y119402D01*
X-396250Y119295D01*
X-395966Y119205D01*
X-395618Y119131D01*
X-395208Y119074D01*
X-394734Y119033D01*
X-393598Y119000D01*
Y116000D01*
X-394198Y115992D01*
X-395618Y115869D01*
X-395966Y115795D01*
X-396250Y115705D01*
X-396471Y115598D01*
X-396629Y115475D01*
X-396723Y115336D01*
X-396755Y115180D01*
Y119820D01*
X-396723Y119664D01*
D02*
G37*
G36*
X-352879Y115510D02*
X-352905Y115603D01*
X-352982Y115686D01*
X-353111Y115760D01*
X-353290Y115823D01*
X-353522Y115877D01*
X-353804Y115921D01*
X-354138Y115956D01*
X-354960Y115995D01*
X-355448Y116000D01*
Y119000D01*
X-354961Y119005D01*
X-353806Y119077D01*
X-353524Y119121D01*
X-353293Y119174D01*
X-353114Y119237D01*
X-352986Y119309D01*
X-352909Y119391D01*
X-352883Y119483D01*
X-352879Y115510D01*
D02*
G37*
G36*
X-358657Y90936D02*
X-358612Y90421D01*
X-358537Y89966D01*
X-358432Y89572D01*
X-358297Y89239D01*
X-358132Y88966D01*
X-357937Y88754D01*
X-357712Y88602D01*
X-357457Y88511D01*
X-357172Y88481D01*
X-363172D01*
X-362887Y88511D01*
X-362632Y88602D01*
X-362407Y88754D01*
X-362212Y88966D01*
X-362047Y89239D01*
X-361912Y89572D01*
X-361807Y89966D01*
X-361732Y90421D01*
X-361687Y90936D01*
X-361672Y91511D01*
X-358672D01*
X-358657Y90936D01*
D02*
G37*
G36*
X-346782Y100827D02*
X-346891Y100815D01*
X-347034Y100759D01*
X-347212Y100657D01*
X-347426Y100509D01*
X-347674Y100317D01*
X-348277Y99796D01*
X-349444Y98675D01*
X-351835Y100527D01*
X-351683Y100684D01*
X-351458Y100953D01*
X-351384Y101064D01*
X-351337Y101160D01*
X-351316Y101241D01*
X-351322Y101307D01*
X-351353Y101357D01*
X-351411Y101392D01*
X-351495Y101412D01*
X-346782Y100827D01*
D02*
G37*
G36*
X266808Y113418D02*
X266412Y113030D01*
X266124Y112519D01*
X265946Y111884D01*
X265877Y111127D01*
X265918Y110246D01*
X266067Y109243D01*
X266325Y108117D01*
X266693Y106867D01*
X267170Y105494D01*
X261544Y103409D01*
X261009Y104768D01*
X259930Y106992D01*
X259387Y107858D01*
X258841Y108559D01*
X258293Y109095D01*
X257741Y109467D01*
X257187Y109674D01*
X256631Y109717D01*
X256071Y109596D01*
X267313Y113683D01*
X266808Y113418D01*
D02*
G37*
D10*
X384810Y-204724D02*
D03*
Y-185420D02*
D03*
X368300Y-243078D02*
D03*
Y-223774D02*
D03*
X25400Y-317246D02*
D03*
Y-297942D02*
D03*
X0D02*
D03*
Y-317246D02*
D03*
X-25400D02*
D03*
Y-297942D02*
D03*
X406146Y-204978D02*
D03*
Y-185674D02*
D03*
D11*
X407670Y-244602D02*
D03*
X388874D02*
D03*
X398272Y-221488D02*
D03*
D12*
X407430Y219202D02*
D03*
X377430D02*
D03*
X407684Y-52070D02*
D03*
X377684D02*
D03*
X-407670Y-189992D02*
D03*
X-377670D02*
D03*
X-407684Y80518D02*
D03*
X-377684D02*
D03*
X-52310Y-237490D02*
D03*
X-82310D02*
D03*
X-407684Y218694D02*
D03*
X-377684D02*
D03*
X326658Y-227330D02*
D03*
X296658D02*
D03*
X182358Y-265684D02*
D03*
X212358Y-265684D02*
D03*
D13*
X299466Y-154432D02*
D03*
X318770D02*
D03*
X359918Y81534D02*
D03*
X340614D02*
D03*
X360172Y-51816D02*
D03*
X340868D02*
D03*
X299212Y-176276D02*
D03*
X318516D02*
D03*
X163830Y-290576D02*
D03*
X144526D02*
D03*
Y-314198D02*
D03*
X163830D02*
D03*
X107442D02*
D03*
X126746D02*
D03*
X181356D02*
D03*
X200660D02*
D03*
X127000Y-267208D02*
D03*
X107696D02*
D03*
X126746Y-290576D02*
D03*
X107442D02*
D03*
X181356D02*
D03*
X200660D02*
D03*
X144272Y-267208D02*
D03*
X163576D02*
D03*
X-299212Y-224790D02*
D03*
X-318516D02*
D03*
Y-201930D02*
D03*
X-299212D02*
D03*
Y-156210D02*
D03*
X-318516D02*
D03*
X-359918Y-51820D02*
D03*
X-340614D02*
D03*
Y-29210D02*
D03*
X-359918D02*
D03*
Y-6858D02*
D03*
X-340614D02*
D03*
Y15494D02*
D03*
X-359918D02*
D03*
X-318516Y-179070D02*
D03*
X-299212D02*
D03*
X-340868Y37846D02*
D03*
X-360172D02*
D03*
Y59944D02*
D03*
X-340868D02*
D03*
X-299212Y158750D02*
D03*
X-318516D02*
D03*
Y181610D02*
D03*
X-299212D02*
D03*
Y204470D02*
D03*
X-318516D02*
D03*
Y227330D02*
D03*
X-299212D02*
D03*
Y250190D02*
D03*
X-318516D02*
D03*
X-360172Y82042D02*
D03*
X-340868D02*
D03*
X299212Y273050D02*
D03*
X318516D02*
D03*
Y250190D02*
D03*
X299212D02*
D03*
Y204470D02*
D03*
X318516D02*
D03*
Y181610D02*
D03*
X299212D02*
D03*
Y158750D02*
D03*
X318516D02*
D03*
X340614Y59182D02*
D03*
X359918D02*
D03*
X318516Y227330D02*
D03*
X299212D02*
D03*
X340614Y36830D02*
D03*
X359918D02*
D03*
Y14732D02*
D03*
X340614D02*
D03*
Y-29718D02*
D03*
X359918D02*
D03*
X318770Y-198374D02*
D03*
X299466D02*
D03*
X340614Y-7620D02*
D03*
X359918D02*
D03*
X-318262Y-247650D02*
D03*
X-298958D02*
D03*
X257302Y-228600D02*
D03*
X276606D02*
D03*
X-301752Y-304038D02*
D03*
X-321056D02*
D03*
D14*
X-345440Y-115400D02*
D03*
Y-102700D02*
D03*
Y-90000D02*
D03*
Y-77300D02*
D03*
X-403940Y-115450D02*
D03*
Y-102700D02*
D03*
Y-90000D02*
D03*
Y-77300D02*
D03*
Y-128300D02*
D03*
Y-141000D02*
D03*
Y-153700D02*
D03*
Y-166450D02*
D03*
X-345440Y-128300D02*
D03*
Y-141000D02*
D03*
Y-153700D02*
D03*
Y-166400D02*
D03*
X345440Y144200D02*
D03*
Y131500D02*
D03*
Y118800D02*
D03*
Y106100D02*
D03*
X403940Y144250D02*
D03*
Y131500D02*
D03*
Y118800D02*
D03*
Y106100D02*
D03*
Y157100D02*
D03*
Y169800D02*
D03*
Y182500D02*
D03*
Y195250D02*
D03*
X345440Y157100D02*
D03*
Y169800D02*
D03*
Y182500D02*
D03*
Y195200D02*
D03*
X345440Y-76000D02*
D03*
Y-88700D02*
D03*
Y-101400D02*
D03*
Y-114100D02*
D03*
X403940Y-75950D02*
D03*
Y-88700D02*
D03*
Y-101400D02*
D03*
Y-114100D02*
D03*
Y-165100D02*
D03*
Y-152400D02*
D03*
Y-139700D02*
D03*
Y-126950D02*
D03*
X345440Y-165100D02*
D03*
Y-152400D02*
D03*
Y-139700D02*
D03*
Y-127000D02*
D03*
X-345440Y104800D02*
D03*
Y117500D02*
D03*
Y130200D02*
D03*
Y142900D02*
D03*
X-403940Y104750D02*
D03*
Y117500D02*
D03*
Y130200D02*
D03*
Y142900D02*
D03*
Y193900D02*
D03*
Y181200D02*
D03*
Y168500D02*
D03*
Y155750D02*
D03*
X-345440Y193900D02*
D03*
Y181200D02*
D03*
Y168500D02*
D03*
Y155800D02*
D03*
D15*
X-78740Y-263130D02*
D03*
Y-293130D02*
D03*
X-229870Y-273290D02*
D03*
Y-303290D02*
D03*
X-254508Y-303276D02*
D03*
Y-273276D02*
D03*
D16*
X284934Y-311658D02*
D03*
X297634D02*
D03*
X310334D02*
D03*
X323034D02*
D03*
X284884Y-253158D02*
D03*
X297634D02*
D03*
X310334D02*
D03*
X323034D02*
D03*
X272034D02*
D03*
X259334D02*
D03*
X246634D02*
D03*
X233884D02*
D03*
X272034Y-311658D02*
D03*
X259334D02*
D03*
X246634D02*
D03*
X233934D02*
D03*
D17*
X-115020Y-264160D02*
D03*
D18*
X-180020D02*
D03*
Y-241260D02*
D03*
Y-287060D02*
D03*
D19*
X-52444Y-237624D02*
X-37846Y-252222D01*
X50800Y-262636D02*
Y-256032D01*
X73660Y-233172D02*
X85852D01*
X50800Y-256032D02*
X73660Y-233172D01*
X-403860Y-54610D02*
Y104750D01*
X-319800Y-273544D02*
X-290590D01*
X-277074Y-287060D02*
X-229870D01*
X-200660Y-240030D02*
X-181250D01*
X-210820Y-250190D02*
X-200660Y-240030D01*
X-210820Y-260350D02*
Y-250190D01*
X-254508Y-273276D02*
Y-254000D01*
X-260858Y-247650D02*
X-254508Y-254000D01*
X-254254Y-260350D02*
X-210820D01*
X-403352Y-189992D02*
X-319800Y-273544D01*
X-407670Y-189992D02*
X-403352D01*
X-407670Y-170180D02*
X-403940Y-166450D01*
X-407670Y-189992D02*
Y-170180D01*
X-290590Y-273544D02*
X-277074Y-287060D01*
X-84060Y-304800D02*
X-76200Y-296940D01*
X201744Y-201301D02*
X229545Y-168927D01*
X252724Y-131747D01*
X269738Y-92011D01*
X280515Y-50365D01*
X284909Y-7218D01*
X282716Y36009D02*
X284909Y-7218D01*
X273995Y78432D02*
X282716Y36009D01*
X258970Y118993D02*
X273995Y78432D01*
X237965Y156837D02*
X258970Y118993D01*
X211471Y191063D02*
X237965Y156837D01*
X180100Y220883D02*
X211471Y191063D01*
X144574Y245608D02*
X180100Y220883D01*
X105715Y264668D02*
X144574Y245608D01*
X64402Y277628D02*
X105715Y264668D01*
X21496Y284189D02*
X64402Y277628D01*
X-21647Y284177D02*
X21496Y284189D01*
X-64431Y277621D02*
X-21647Y284177D01*
X-105728Y264663D02*
X-64431Y277621D01*
X-144587Y245601D02*
X-105728Y264663D01*
X-180126Y220861D02*
X-144587Y245601D01*
X-211480Y191052D02*
X-180126Y220861D01*
X-237987Y156805D02*
X-211480Y191052D01*
X-258887Y119190D02*
X-237987Y156805D01*
X-274024Y78333D02*
X-258887Y119190D01*
X-282718Y35995D02*
X-274024Y78333D01*
X-284908Y-7229D02*
X-282718Y35995D01*
X-284908Y-7229D02*
X-280528Y-50289D01*
X-269652Y-92264D01*
X-252607Y-131966D01*
X-229708Y-168698D01*
X-201525Y-196881D01*
Y-201525D02*
Y-196881D01*
Y-201525D02*
X-177655D01*
X-115020Y-264160D01*
X-181250Y-240030D02*
X-180020Y-241260D01*
Y-264160D02*
X-115020D01*
X-387350Y-90170D02*
Y-71120D01*
Y-160020D02*
Y-90170D01*
X-387520Y-90000D02*
X-387350Y-90170D01*
X-403940Y-90000D02*
X-387520D01*
X-403940Y-166450D02*
X-393780D01*
X-387350Y-160020D01*
X-139700Y-304800D02*
X-84060D01*
X-157440Y-287060D02*
X-139700Y-304800D01*
X-180020Y-287060D02*
X-157440D01*
X-99822Y-237490D02*
X-82310D01*
X219441Y-218959D02*
X242894D01*
X263479Y-198374D01*
X299466D01*
X249680Y-183745D02*
X257149Y-176276D01*
X299212D01*
X274892Y-143304D02*
X286020Y-154432D01*
X299466D01*
X327660Y-127000D02*
X345440D01*
X318770Y-135890D02*
X327660Y-127000D01*
X318770Y-154432D02*
Y-135890D01*
X336550Y-139700D02*
X345440D01*
X330200Y-146050D02*
X336550Y-139700D01*
X330200Y-171450D02*
Y-146050D01*
X325374Y-176276D02*
X330200Y-171450D01*
X318516Y-176276D02*
X325374D01*
X338074Y-51816D02*
X340868D01*
X320040Y-69850D02*
X338074Y-51816D01*
X320040Y-88900D02*
Y-69850D01*
X308831Y-100109D02*
X320040Y-88900D01*
X293390Y-100109D02*
X308831D01*
X305121Y-54783D02*
X330187Y-29718D01*
X340614D01*
X310131Y-7620D02*
X340614D01*
X309900Y-7851D02*
X310131Y-7620D01*
X331951Y14732D02*
X340614D01*
X307516Y39168D02*
X331951Y14732D01*
X298046Y79398D02*
X340614Y36830D01*
X298046Y79398D02*
Y85257D01*
X-229870Y-303290D02*
Y-287060D01*
X-180020D01*
X-224790Y-224790D02*
X-219203Y-219203D01*
X-287020Y-201930D02*
X-268828Y-183738D01*
X-249678D01*
X-289560Y-179070D02*
X-274765Y-164275D01*
Y-143542D01*
X-340614Y-51820D02*
X-308016D01*
X-305136Y-54700D01*
X-340614Y-29210D02*
X-331247D01*
X-309900Y-7863D01*
X-340614Y-6858D02*
X-307518Y26238D01*
Y39153D01*
X-403860Y-54610D02*
X-387350Y-71120D01*
X-298958Y-247650D02*
X-260858D01*
X-299212Y-224790D02*
X-224790D01*
X-299212Y-201930D02*
X-287020D01*
X-299212Y-179070D02*
X-289560D01*
X50800Y-279400D02*
Y-262636D01*
X40386Y-252222D02*
X50800Y-262636D01*
X-78740Y-263130D02*
X-77950D01*
X-52444Y-237624D01*
X-37846Y-252222D02*
X40386D01*
X-299212Y-156210D02*
Y-106264D01*
X-293306Y-100358D01*
D20*
X414274Y-174244D02*
X418846Y-169672D01*
X375334Y-174244D02*
X414274D01*
X342392Y-207185D02*
X375334Y-174244D01*
X419862Y-214884D02*
Y-189484D01*
X413258Y-221488D02*
X419862Y-214884D01*
X398272Y-221488D02*
X413258D01*
X416052Y-185674D02*
X419862Y-189484D01*
X406146Y-185674D02*
X416052D01*
X406146D02*
Y-174752D01*
X341630Y-251460D02*
Y-247396D01*
X405130Y-231394D02*
X407670Y-233934D01*
Y-244602D02*
Y-233934D01*
X392176Y-231394D02*
X405130D01*
X386842Y-226060D02*
X392176Y-231394D01*
X342392Y-225550D02*
Y-207185D01*
X376643Y-165100D02*
X403940D01*
X326653Y-215090D02*
X376643Y-165100D01*
X272590Y-215090D02*
X326653D01*
X381508Y-152400D02*
X403940D01*
X324358Y-209550D02*
X381508Y-152400D01*
X267208Y-209550D02*
X324358D01*
X318770Y-198374D02*
X327536D01*
X357480Y-168430D01*
Y-158598D01*
X351282Y-152400D02*
X357480Y-158598D01*
X345440Y-152400D02*
X351282D01*
X365506Y-116586D02*
X388620Y-139700D01*
X418338Y186944D02*
Y230124D01*
X414274Y234188D02*
X418338Y230124D01*
X364744Y234188D02*
X414274D01*
X413894Y182500D02*
X418338Y186944D01*
X403940Y182500D02*
X413894D01*
X418592Y-110090D02*
Y152400D01*
X413892Y157100D02*
X418592Y152400D01*
X403940Y157100D02*
X413892D01*
X414582Y-114100D02*
X418592Y-110090D01*
X385826Y118800D02*
Y188722D01*
Y81868D02*
Y118800D01*
Y81868D02*
X407684Y60010D01*
X385826Y188722D02*
X392354Y195250D01*
X403940D01*
X338582Y94488D02*
X343662D01*
X332486Y100584D02*
X338582Y94488D01*
X332486Y100584D02*
Y112776D01*
X343662Y94488D02*
X350520Y87630D01*
X332486Y112776D02*
X338510Y118800D01*
X345440D01*
X225582Y-244856D02*
X233884Y-253158D01*
X394116Y-88503D02*
X403743D01*
X389890Y-84277D02*
Y-67003D01*
Y-84277D02*
X394116Y-88503D01*
X403743D02*
X403940Y-88700D01*
X389890Y-67003D02*
X396494Y-60399D01*
X368808Y36830D02*
X396494Y9144D01*
Y-60399D02*
Y9144D01*
X26831Y309097D02*
X31892Y314158D01*
X52544D01*
X23635Y309097D02*
X26831D01*
X52544Y314158D02*
X52544Y314158D01*
X122214D01*
X-26762Y309104D02*
X-23546D01*
X-134927Y314145D02*
X-31803D01*
X-149606Y299466D02*
X-134927Y314145D01*
X-31803D02*
X-26762Y309104D01*
X133604Y302768D02*
X198882D01*
X228600Y273050D02*
X299212D01*
X198882Y302768D02*
X228600Y273050D01*
X122214Y314158D02*
X133604Y302768D01*
X197001Y287885D02*
X257556Y227330D01*
X198628Y294894D02*
X243332Y250190D01*
X157256Y267152D02*
X209352D01*
X130712Y294894D02*
X198628D01*
X209352Y267152D02*
X271574Y204930D01*
X114988Y287885D02*
X197001D01*
X70051Y301982D02*
X123625D01*
X130712Y294894D01*
X243332Y250190D02*
X299212D01*
X257556Y227330D02*
X299212D01*
X271574Y204930D02*
X298752D01*
X227610Y240258D02*
X286258Y181610D01*
X299212D01*
X195898Y240258D02*
X227610D01*
X197612Y-265680D02*
Y-257556D01*
X192786Y-252730D02*
X197612Y-257556D01*
X120904Y-252730D02*
X192786D01*
X117094Y-256540D02*
X120904Y-252730D01*
X117094Y-287528D02*
Y-256540D01*
X-411899Y-127343D02*
X-404897D01*
X-403940Y-128300D01*
X336804Y-279400D02*
X371094Y-245110D01*
X371300Y-223774D02*
X373300Y-225774D01*
Y-226637D02*
X388509Y-241846D01*
X373300Y-226637D02*
Y-225774D01*
X368300Y-223774D02*
X371300D01*
X163830Y-290068D02*
X181356D01*
X163830D02*
Y-266700D01*
X-409050Y117500D02*
X-393598D01*
X283347Y124711D02*
Y131092D01*
X107442Y-290068D02*
X114554D01*
X200660D02*
X208026D01*
X126746D02*
X144526D01*
X-324612Y-201930D02*
X-318516D01*
X-345440Y-181102D02*
X-324612Y-201930D01*
X-345440Y-181102D02*
Y-166400D01*
X-324866Y-179070D02*
X-318516D01*
X-330962Y-172974D02*
X-324866Y-179070D01*
X-330962Y-172974D02*
Y-160528D01*
X-337790Y-153700D02*
X-330962Y-160528D01*
X-345440Y-153700D02*
X-337790D01*
X-336266Y-141000D02*
X-321056Y-156210D01*
X-345440Y-141000D02*
X-336266D01*
X-345440Y-128300D02*
X-336834D01*
X284988Y-279400D02*
X318770D01*
X272034Y-266446D02*
X284988Y-279400D01*
X272034Y-266446D02*
Y-253158D01*
X356108Y-248158D02*
Y-219202D01*
X339598Y-264668D02*
X356108Y-248158D01*
X337566Y-264668D02*
X339598D01*
X336564Y-237236D02*
X355600D01*
X326658Y-227330D02*
X336564Y-237236D01*
X325120Y-267970D02*
X341630Y-251460D01*
X407430Y198740D02*
Y219202D01*
X403940Y195250D02*
X407430Y198740D01*
X359918Y-29718D02*
X365760D01*
X368644Y-32602D01*
Y-91604D02*
Y-32602D01*
X358848Y-101400D02*
X368644Y-91604D01*
X407684Y-52070D02*
Y60010D01*
Y-63232D02*
Y-52070D01*
X403940Y-66976D02*
X407684Y-63232D01*
X403940Y-75950D02*
Y-66976D01*
X243564Y-265198D02*
X246634Y-262128D01*
X241234Y-273662D02*
X243374Y-275802D01*
X224536Y-282194D02*
X233068Y-273662D01*
X241234D01*
X284884Y-263040D02*
Y-253158D01*
X246634Y-262128D02*
Y-253158D01*
X272034D02*
Y-252142D01*
X-324104Y-283210D02*
X-296418D01*
X-399796Y-207518D02*
X-324104Y-283210D01*
X-413258Y-207518D02*
X-399796D01*
X-419100Y-201676D02*
X-413258Y-207518D01*
X-419100Y-201676D02*
Y-147320D01*
X-301752Y-304038D02*
X-301258Y-303544D01*
X-292608D01*
X-389890Y58166D02*
Y113792D01*
Y58166D02*
X-369570Y37846D01*
X-360172D01*
X-393598Y117500D02*
X-389890Y113792D01*
X310334Y-253158D02*
Y-241006D01*
X257302Y-228600D02*
Y-219456D01*
X259334Y-253158D02*
Y-246634D01*
X267208Y-238760D01*
Y-220472D01*
X272590Y-215090D01*
X295388Y-228600D02*
X296658Y-227330D01*
X276606Y-228600D02*
X295388D01*
X244044D02*
X257302D01*
X233884Y-238760D02*
X244044Y-228600D01*
X356108Y-219202D02*
X361950Y-213360D01*
X381762D01*
X386842Y-218440D01*
Y-226060D02*
Y-218440D01*
X284884Y-263040D02*
X289814Y-267970D01*
X414582Y-114100D02*
X418846Y-118364D01*
Y-169672D02*
Y-118364D01*
X-232558Y230000D02*
X-206161D01*
X-299212Y163346D02*
X-232558Y230000D01*
X-244153Y207811D02*
X-230031D01*
X-272480Y179484D02*
X-244153Y207811D01*
X-272480Y166246D02*
Y179484D01*
X299212Y158750D02*
Y160528D01*
X251917Y207823D02*
X299212Y160528D01*
X-376428Y-65024D02*
X-351452Y-90000D01*
X-369316Y-61722D02*
X-362966Y-68072D01*
X-350774Y99466D02*
X-345440Y104800D01*
X-350774Y63500D02*
Y99466D01*
X-328168Y87122D02*
Y102870D01*
X-333248Y82042D02*
X-328168Y87122D01*
X-340868Y82042D02*
X-333248D01*
X-360172Y59944D02*
X-354330D01*
X-350774Y63500D01*
X-355448Y117500D02*
X-345440D01*
X-360172Y112776D02*
X-355448Y117500D01*
X-360172Y82042D02*
Y112776D01*
X-330454Y63500D02*
X-314876Y79078D01*
X-330454Y41910D02*
Y63500D01*
X-334518Y37846D02*
X-330454Y41910D01*
X-340868Y59944D02*
Y62484D01*
X-321056Y100330D02*
X-297608Y123778D01*
X-321056Y82296D02*
Y100330D01*
X-340868Y62484D02*
X-321056Y82296D01*
X-314876Y95880D02*
X-281973Y128784D01*
X-314876Y79078D02*
Y95880D01*
X-340868Y37846D02*
X-334518D01*
X-322402Y60913D02*
X-298041Y85273D01*
X-322402Y29643D02*
Y60913D01*
X-336550Y15494D02*
X-322402Y29643D01*
X-340614Y15494D02*
X-336550D01*
X-351452Y-90000D02*
X-345440D01*
X-362966Y-68072D02*
X-338328D01*
X-359918Y-59182D02*
X-356740Y-62360D01*
X-359918Y-59182D02*
Y-51820D01*
X-338328Y-68072D02*
X-331470Y-74930D01*
Y-111760D02*
Y-74930D01*
X318516Y273050D02*
X325882D01*
X364744Y234188D01*
X318516Y227330D02*
X332740Y213106D01*
Y186690D02*
Y213106D01*
Y186690D02*
X336930Y182500D01*
X345440D01*
X318516Y204470D02*
X326898Y196088D01*
Y179832D02*
Y196088D01*
Y179832D02*
X336930Y169800D01*
X345440D01*
X318516Y176530D02*
X337946Y157100D01*
X318516Y176530D02*
Y181610D01*
X298752Y204930D02*
X299212Y204470D01*
X337946Y157100D02*
X345440D01*
X318516Y158750D02*
X333066Y144200D01*
X345440D01*
X258839Y170595D02*
X267556D01*
X345440Y131500D02*
X352370D01*
X359918Y123952D01*
Y81534D02*
Y123952D01*
Y36830D02*
X368808D01*
X350520Y62230D02*
Y87630D01*
Y62230D02*
X353568Y59182D01*
X359918D01*
X345440Y-101400D02*
X358848D01*
X360172Y-61976D02*
Y-51816D01*
X356362Y-65786D02*
X360172Y-61976D01*
X338836Y-65786D02*
X356362D01*
X-412780Y-141000D02*
X-403940D01*
X-419100Y-147320D02*
X-412780Y-141000D01*
X112014Y-301498D02*
X175768D01*
X107442Y-306070D02*
X112014Y-301498D01*
X107442Y-314198D02*
Y-306070D01*
X114554Y-290068D02*
X117094Y-287528D01*
X233884Y-253158D02*
Y-238760D01*
X-409804Y130200D02*
X-403940D01*
X-410058Y142900D02*
X-403940D01*
X-335110Y-115400D02*
X-331470Y-111760D01*
X-345440Y-115400D02*
X-335110D01*
X-25400Y-295402D02*
Y-279400D01*
X0Y-295402D02*
Y-279400D01*
X25400Y-295402D02*
Y-279400D01*
X163576Y-266446D02*
X163830Y-266700D01*
X126746Y-290068D02*
X127000Y-289814D01*
X297634Y-253158D02*
Y-252142D01*
X347870Y-164940D02*
X348120Y-164690D01*
X-206161Y230000D02*
X-195926Y240235D01*
X246634Y-253158D02*
Y-252142D01*
X-350520Y196300D02*
X-348120Y193900D01*
X181356Y-315976D02*
Y-314198D01*
X175768Y-301498D02*
X181356Y-307086D01*
Y-314198D02*
Y-307086D01*
X-297608Y123778D02*
Y132118D01*
X-259726Y170000D01*
X-345440Y130200D02*
X-329794D01*
X-318516Y141478D01*
X-345440Y142900D02*
X-333350D01*
X-326390Y149860D01*
Y173736D01*
X-318516Y181610D01*
X-345440Y155800D02*
X-334420D01*
X-331930Y158290D01*
X-299212Y181610D02*
X-290830D01*
X-205296Y267145D01*
X-157270D01*
X-355190Y168500D02*
X-345440D01*
X-359410Y172720D02*
X-355190Y168500D01*
X-345440Y181200D02*
X-338230D01*
X-325120Y215900D02*
X-311150D01*
X-308610Y218440D01*
Y247650D01*
X-311150Y250190D02*
X-308610Y247650D01*
X-318516Y250190D02*
X-311150D01*
X-136176Y301974D02*
X-70083D01*
X25400Y-317246D02*
X49784D01*
X-376428Y-65024D02*
Y-4318D01*
X-359918Y12192D01*
Y15494D01*
X-369316Y-61722D02*
Y-41656D01*
X-359918Y-32258D01*
Y-29210D01*
X403940Y-114100D02*
X414582D01*
X403940Y-165100D02*
X409702D01*
X257302Y-219456D02*
X267208Y-209550D01*
X-268478Y-213106D02*
X-265938Y-210566D01*
X388620Y-139700D02*
X403940D01*
X385826Y118800D02*
X403940D01*
X-299212Y204470D02*
X-275805D01*
X-192396Y287879D01*
X-115003D01*
X-299212Y227330D02*
X-261620D01*
X-299212Y250190D02*
X-247396D01*
X-261620Y227330D02*
X-195072Y293878D01*
X-144272D01*
X-136176Y301974D01*
X-247396Y250190D02*
X-198120Y299466D01*
X-149606D01*
X267556Y170595D02*
X324358Y113792D01*
Y92202D02*
Y113792D01*
Y92202D02*
X335026Y81534D01*
X340614D01*
X317264Y82532D02*
X340614Y59182D01*
X317264Y82532D02*
Y90794D01*
X283347Y124711D02*
X317264Y90794D01*
X337366Y-114100D02*
X345440D01*
X331724Y-108458D02*
X337366Y-114100D01*
X331724Y-108458D02*
Y-72898D01*
X338836Y-65786D01*
X143510Y-315214D02*
X144526Y-314198D01*
X121666Y-316738D02*
X124206Y-314198D01*
X126746D01*
X142494D01*
X233934Y-311658D02*
Y-286258D01*
X243374Y-275802D02*
X243374D01*
X246634Y-279062D01*
Y-311658D02*
Y-279062D01*
X201168Y-289560D02*
Y-286766D01*
X233934Y-286258D02*
X237490Y-282702D01*
X230021Y207823D02*
X251917D01*
X-338230Y181200D02*
X-333400Y186030D01*
Y207620D01*
X-325120Y215900D01*
X-327740Y195246D02*
X-318516Y204470D01*
X-331930Y158290D02*
Y178610D01*
X-327740Y182800D01*
Y195246D01*
X-328168Y102870D02*
X-304800Y126238D01*
Y133926D01*
X-272480Y166246D01*
X318516Y250190D02*
X345440Y223266D01*
Y195200D02*
Y223266D01*
X-341376Y-213106D02*
X-268478D01*
X-332232Y227330D02*
X-318516D01*
X-359410Y172720D02*
Y200152D01*
X-332232Y227330D01*
X296658Y-227330D02*
X310334Y-241006D01*
X145796Y-313690D02*
X146812Y-314706D01*
X127000Y-289814D02*
Y-267208D01*
Y-266446D01*
X212358Y-265684D02*
X219202D01*
X231728Y-253158D01*
X233884D01*
X208026Y-290068D02*
X232896Y-265198D01*
X243564D01*
X200660Y-314198D02*
X209042D01*
X224536Y-298704D01*
Y-282194D01*
X85403Y-281881D02*
X85598Y-281686D01*
X85403Y-313944D02*
Y-281881D01*
X99314Y-314198D02*
X107442D01*
X97028Y-311912D02*
X99314Y-314198D01*
X97028Y-311912D02*
Y-272034D01*
X101854Y-267208D01*
X107696D01*
X310334Y-311658D02*
Y-305870D01*
X371094Y-245110D02*
Y-244094D01*
X310334Y-305870D02*
X336804Y-279400D01*
X289814Y-267970D02*
X325120D01*
X318770Y-279400D02*
X322834D01*
X337566Y-264668D01*
X-299212Y158750D02*
Y163346D01*
X-318516Y141478D02*
Y158750D01*
X49784Y-317246D02*
X73660Y-293370D01*
Y-266700D01*
X86106Y-254254D01*
X59690Y-296164D02*
X65786Y-290068D01*
X37846Y-290576D02*
X43434Y-296164D01*
X59690D01*
X37846Y-290576D02*
Y-270256D01*
X-50800Y-279400D02*
X-36068Y-264668D01*
X32258D01*
X37846Y-270256D01*
X-53340Y-307340D02*
X-9906D01*
X0Y-317246D01*
X-296418Y-283210D02*
X-265684Y-313944D01*
X-59944D01*
X-53340Y-307340D01*
X65786Y-290068D02*
Y-260604D01*
X81534Y-244856D01*
X225582D01*
X-336834Y-128300D02*
X-325374Y-116840D01*
X-356740Y-62360D02*
X-334134D01*
X-325374Y-71120D01*
Y-116840D02*
Y-71120D01*
X-418592Y-120650D02*
X-411899Y-127343D01*
X-418592Y-120650D02*
Y134366D01*
X-410058Y142900D01*
D21*
X-76200Y-296940D02*
X-68340D01*
X-50800Y-279400D01*
D22*
X-413864Y181200D02*
X-403940D01*
X-418592Y185928D02*
X-413864Y181200D01*
X-418592Y185928D02*
Y207786D01*
X-407684Y218694D01*
D23*
X50800Y-279400D02*
D03*
D24*
X25400D02*
D03*
D25*
X0D02*
D03*
X-25400D02*
D03*
Y-123190D02*
D03*
X0D02*
D03*
X25400D02*
D03*
X50800D02*
D03*
D26*
X-50800Y-279400D02*
D03*
Y-123190D02*
D03*
D27*
X0Y0D02*
D03*
D28*
X387350Y285750D02*
D03*
X-387350D02*
D03*
Y-285750D02*
D03*
X387350D02*
D03*
D29*
X219441Y-218959D02*
D03*
X281687Y129431D02*
D03*
X-298041Y85273D02*
D03*
X249680Y-183745D02*
D03*
X258839Y170595D02*
D03*
X-307518Y39153D02*
D03*
X274892Y-143304D02*
D03*
X230021Y207823D02*
D03*
X-115003Y287879D02*
D03*
X-309900Y-7863D02*
D03*
X293390Y-100109D02*
D03*
X195898Y240258D02*
D03*
X-157270Y267145D02*
D03*
X-305136Y-54700D02*
D03*
X305121Y-54783D02*
D03*
X157256Y267152D02*
D03*
X-195926Y240235D02*
D03*
X-293306Y-100358D02*
D03*
X309900Y-7851D02*
D03*
X114988Y287885D02*
D03*
X-230031Y207811D02*
D03*
X-274765Y-143542D02*
D03*
X307516Y39168D02*
D03*
X-258174Y171552D02*
D03*
X-249678Y-183738D02*
D03*
X298046Y85257D02*
D03*
X-219203Y-219203D02*
D03*
D30*
X201744Y-201301D02*
D03*
D31*
X258970Y118993D02*
D03*
D32*
X-23546Y309104D02*
D03*
X-21647Y284177D02*
D03*
X-70083Y301974D02*
D03*
X70051Y301982D02*
D03*
X23635Y309097D02*
D03*
X21496Y284189D02*
D03*
X-281973Y128784D02*
D03*
D33*
X-274024Y78333D02*
D03*
D34*
X229545Y-168927D02*
D03*
X-237987Y156805D02*
D03*
D35*
X237965Y156837D02*
D03*
D36*
X-64431Y277621D02*
D03*
D37*
X-282718Y35995D02*
D03*
D38*
X252724Y-131747D02*
D03*
D39*
X211471Y191063D02*
D03*
D40*
X-105728Y264663D02*
D03*
D41*
X-284908Y-7229D02*
D03*
D42*
X269738Y-92011D02*
D03*
D43*
X180100Y220883D02*
D03*
D44*
X-144587Y245601D02*
D03*
D45*
X-280528Y-50289D02*
D03*
D46*
X280515Y-50365D02*
D03*
D47*
X144574Y245608D02*
D03*
D48*
X-180126Y220861D02*
D03*
D49*
X-269652Y-92264D02*
D03*
D50*
X284909Y-7218D02*
D03*
D51*
X105715Y264668D02*
D03*
D52*
X-211480Y191052D02*
D03*
D53*
X-252607Y-131966D02*
D03*
D54*
X282716Y36009D02*
D03*
D55*
X64402Y277628D02*
D03*
D56*
X-229708Y-168698D02*
D03*
D57*
X273995Y78432D02*
D03*
D58*
X-258887Y119190D02*
D03*
D59*
X-201525Y-201525D02*
D03*
D60*
X25400Y69850D02*
D03*
X-25400D02*
D03*
X0Y-76200D02*
D03*
X25400D02*
D03*
X-25400D02*
D03*
D61*
X-57150Y0D02*
D03*
X57150Y0D02*
D03*
D62*
X85852Y-233172D02*
D03*
X384810Y-204724D02*
D03*
Y-185420D02*
D03*
X406146Y-203200D02*
D03*
X407670Y-244602D02*
D03*
X365506Y-116586D02*
D03*
X403940Y106100D02*
D03*
X403940Y-101400D02*
D03*
X-25400Y-318158D02*
D03*
X358140Y15240D02*
D03*
Y-7620D02*
D03*
X385214Y-52070D02*
D03*
X403940Y169800D02*
D03*
X-403940Y193900D02*
D03*
X197612Y-265680D02*
D03*
X86106Y-254000D02*
D03*
X342390Y-247396D02*
D03*
X342392Y-225550D02*
D03*
X321564D02*
D03*
X318770Y-279400D02*
D03*
X-341630Y-304040D02*
D03*
X-254508Y-303276D02*
D03*
X-229870Y-273290D02*
D03*
X-292610Y-273558D02*
D03*
X-292608Y-303544D02*
D03*
X-321056Y-304038D02*
D03*
X345440Y-165100D02*
D03*
X-403940Y104750D02*
D03*
X-357124Y-6858D02*
D03*
X345440Y-76200D02*
D03*
Y-88900D02*
D03*
X145034Y-266700D02*
D03*
X259334Y-311658D02*
D03*
X163830Y-314198D02*
D03*
X-210820Y-260350D02*
D03*
X-345440Y193900D02*
D03*
X25400Y-317246D02*
D03*
X0D02*
D03*
X-403940Y-115450D02*
D03*
Y-102700D02*
D03*
Y-153700D02*
D03*
Y168500D02*
D03*
Y155750D02*
D03*
X-345440Y-102700D02*
D03*
Y-77300D02*
D03*
Y-128300D02*
D03*
X-377684Y80518D02*
D03*
X-403940Y-128300D02*
D03*
X-377670Y-189992D02*
D03*
X403940Y-139700D02*
D03*
Y-152400D02*
D03*
Y-126950D02*
D03*
Y-75950D02*
D03*
X377430Y219202D02*
D03*
X403940Y195250D02*
D03*
Y144250D02*
D03*
Y131500D02*
D03*
X345440Y106100D02*
D03*
X323088Y-312166D02*
D03*
X297634Y-253158D02*
D03*
X284884D02*
D03*
X182880Y-265938D02*
D03*
X-265938Y-210566D02*
D03*
X-341630Y-213106D02*
D03*
X-106680Y-287020D02*
D03*
X-118110D02*
D03*
X-129540D02*
D03*
Y-275590D02*
D03*
X-118110D02*
D03*
X-106680D02*
D03*
X124206Y-314198D02*
D03*
X237490Y-282702D02*
D03*
X336804Y-279400D02*
D03*
X-403940Y181200D02*
D03*
X-377684Y218694D02*
D03*
X85403Y-313944D02*
D03*
X85598Y-281686D02*
D03*
X-318262Y-247650D02*
D03*
X-318516Y-224790D02*
D03*
X-403940Y-77300D02*
D03*
Y130200D02*
D03*
M02*
