G04 Layer_Color=8388736*
%FSLAX44Y44*%
%MOMM*%
G71*
G01*
G75*
%ADD66R,1.5032X0.9032*%
G04:AMPARAMS|DCode=67|XSize=1.2032mm|YSize=1.2032mm|CornerRadius=0.2016mm|HoleSize=0mm|Usage=FLASHONLY|Rotation=0.000|XOffset=0mm|YOffset=0mm|HoleType=Round|Shape=RoundedRectangle|*
%AMROUNDEDRECTD67*
21,1,1.2032,0.8000,0,0,0.0*
21,1,0.8000,1.2032,0,0,0.0*
1,1,0.4032,0.4000,-0.4000*
1,1,0.4032,-0.4000,-0.4000*
1,1,0.4032,-0.4000,0.4000*
1,1,0.4032,0.4000,0.4000*
%
%ADD67ROUNDEDRECTD67*%
%ADD68R,1.2032X1.8032*%
%ADD69R,0.9032X1.5032*%
%ADD70O,1.8032X1.0032*%
%ADD71R,1.8032X1.2032*%
%ADD72O,1.0032X1.8032*%
G04:AMPARAMS|DCode=73|XSize=6.2032mm|YSize=3.2032mm|CornerRadius=0.8516mm|HoleSize=0mm|Usage=FLASHONLY|Rotation=270.000|XOffset=0mm|YOffset=0mm|HoleType=Round|Shape=RoundedRectangle|*
%AMROUNDEDRECTD73*
21,1,6.2032,1.5000,0,0,270.0*
21,1,4.5000,3.2032,0,0,270.0*
1,1,1.7032,-0.7500,-2.2500*
1,1,1.7032,-0.7500,2.2500*
1,1,1.7032,0.7500,2.2500*
1,1,1.7032,0.7500,-2.2500*
%
%ADD73ROUNDEDRECTD73*%
G04:AMPARAMS|DCode=74|XSize=1.7032mm|YSize=2.2032mm|CornerRadius=0.4766mm|HoleSize=0mm|Usage=FLASHONLY|Rotation=270.000|XOffset=0mm|YOffset=0mm|HoleType=Round|Shape=RoundedRectangle|*
%AMROUNDEDRECTD74*
21,1,1.7032,1.2500,0,0,270.0*
21,1,0.7500,2.2032,0,0,270.0*
1,1,0.9532,-0.6250,-0.3750*
1,1,0.9532,-0.6250,0.3750*
1,1,0.9532,0.6250,0.3750*
1,1,0.9532,0.6250,-0.3750*
%
%ADD74ROUNDEDRECTD74*%
%ADD75O,1.9032X2.0032*%
%ADD76O,1.8032X2.0032*%
%ADD77C,2.0032*%
%ADD78R,2.0032X2.0032*%
%ADD79C,2.2032*%
G04:AMPARAMS|DCode=80|XSize=6.2032mm|YSize=6.2032mm|CornerRadius=1.9016mm|HoleSize=0mm|Usage=FLASHONLY|Rotation=0.000|XOffset=0mm|YOffset=0mm|HoleType=Round|Shape=RoundedRectangle|*
%AMROUNDEDRECTD80*
21,1,6.2032,2.4000,0,0,0.0*
21,1,2.4000,6.2032,0,0,0.0*
1,1,3.8032,1.2000,-1.2000*
1,1,3.8032,-1.2000,-1.2000*
1,1,3.8032,-1.2000,1.2000*
1,1,3.8032,1.2000,1.2000*
%
%ADD80ROUNDEDRECTD80*%
%ADD81C,2.1032*%
G04:AMPARAMS|DCode=82|XSize=2.1032mm|YSize=2.2032mm|CornerRadius=0mm|HoleSize=0mm|Usage=FLASHONLY|Rotation=315.063|XOffset=0mm|YOffset=0mm|HoleType=Round|Shape=Round|*
%AMOVALD82*
21,1,0.1000,2.1032,0.0000,0.0000,45.1*
1,1,2.1032,-0.0353,-0.0354*
1,1,2.1032,0.0353,0.0354*
%
%ADD82OVALD82*%

G04:AMPARAMS|DCode=83|XSize=2.1032mm|YSize=2.2032mm|CornerRadius=0mm|HoleSize=0mm|Usage=FLASHONLY|Rotation=24.678|XOffset=0mm|YOffset=0mm|HoleType=Round|Shape=Round|*
%AMOVALD83*
21,1,0.1000,2.1032,0.0000,0.0000,114.7*
1,1,2.1032,0.0209,-0.0454*
1,1,2.1032,-0.0209,0.0454*
%
%ADD83OVALD83*%

%ADD84C,1.8032*%
G04:AMPARAMS|DCode=85|XSize=2.1032mm|YSize=2.2032mm|CornerRadius=0mm|HoleSize=0mm|Usage=FLASHONLY|Rotation=163.883|XOffset=0mm|YOffset=0mm|HoleType=Round|Shape=Round|*
%AMOVALD85*
21,1,0.1000,2.1032,0.0000,0.0000,253.9*
1,1,2.1032,0.0139,0.0480*
1,1,2.1032,-0.0139,-0.0480*
%
%ADD85OVALD85*%

G04:AMPARAMS|DCode=86|XSize=2.1032mm|YSize=2.2032mm|CornerRadius=0mm|HoleSize=0mm|Usage=FLASHONLY|Rotation=323.650|XOffset=0mm|YOffset=0mm|HoleType=Round|Shape=Round|*
%AMOVALD86*
21,1,0.1000,2.1032,0.0000,0.0000,53.6*
1,1,2.1032,-0.0296,-0.0403*
1,1,2.1032,0.0296,0.0403*
%
%ADD86OVALD86*%

G04:AMPARAMS|DCode=87|XSize=2.1032mm|YSize=2.2032mm|CornerRadius=0mm|HoleSize=0mm|Usage=FLASHONLY|Rotation=33.388|XOffset=0mm|YOffset=0mm|HoleType=Round|Shape=Round|*
%AMOVALD87*
21,1,0.1000,2.1032,0.0000,0.0000,123.4*
1,1,2.1032,0.0275,-0.0418*
1,1,2.1032,-0.0275,0.0418*
%
%ADD87OVALD87*%

G04:AMPARAMS|DCode=88|XSize=2.1032mm|YSize=2.2032mm|CornerRadius=0mm|HoleSize=0mm|Usage=FLASHONLY|Rotation=103.066|XOffset=0mm|YOffset=0mm|HoleType=Round|Shape=Round|*
%AMOVALD88*
21,1,0.1000,2.1032,0.0000,0.0000,193.1*
1,1,2.1032,0.0487,0.0113*
1,1,2.1032,-0.0487,-0.0113*
%
%ADD88OVALD88*%

G04:AMPARAMS|DCode=89|XSize=2.1032mm|YSize=2.2032mm|CornerRadius=0mm|HoleSize=0mm|Usage=FLASHONLY|Rotation=172.744|XOffset=0mm|YOffset=0mm|HoleType=Round|Shape=Round|*
%AMOVALD89*
21,1,0.1000,2.1032,0.0000,0.0000,262.7*
1,1,2.1032,0.0063,0.0496*
1,1,2.1032,-0.0063,-0.0496*
%
%ADD89OVALD89*%

G04:AMPARAMS|DCode=90|XSize=2.1032mm|YSize=2.2032mm|CornerRadius=0mm|HoleSize=0mm|Usage=FLASHONLY|Rotation=332.467|XOffset=0mm|YOffset=0mm|HoleType=Round|Shape=Round|*
%AMOVALD90*
21,1,0.1000,2.1032,0.0000,0.0000,62.5*
1,1,2.1032,-0.0231,-0.0443*
1,1,2.1032,0.0231,0.0443*
%
%ADD90OVALD90*%

G04:AMPARAMS|DCode=91|XSize=2.1032mm|YSize=2.2032mm|CornerRadius=0mm|HoleSize=0mm|Usage=FLASHONLY|Rotation=42.098|XOffset=0mm|YOffset=0mm|HoleType=Round|Shape=Round|*
%AMOVALD91*
21,1,0.1000,2.1032,0.0000,0.0000,132.1*
1,1,2.1032,0.0335,-0.0371*
1,1,2.1032,-0.0335,0.0371*
%
%ADD91OVALD91*%

G04:AMPARAMS|DCode=92|XSize=2.1032mm|YSize=2.2032mm|CornerRadius=0mm|HoleSize=0mm|Usage=FLASHONLY|Rotation=111.776|XOffset=0mm|YOffset=0mm|HoleType=Round|Shape=Round|*
%AMOVALD92*
21,1,0.1000,2.1032,0.0000,0.0000,201.8*
1,1,2.1032,0.0464,0.0186*
1,1,2.1032,-0.0464,-0.0186*
%
%ADD92OVALD92*%

G04:AMPARAMS|DCode=93|XSize=2.1032mm|YSize=2.2032mm|CornerRadius=0mm|HoleSize=0mm|Usage=FLASHONLY|Rotation=181.453|XOffset=0mm|YOffset=0mm|HoleType=Round|Shape=Round|*
%AMOVALD93*
21,1,0.1000,2.1032,0.0000,0.0000,271.5*
1,1,2.1032,-0.0013,0.0500*
1,1,2.1032,0.0013,-0.0500*
%
%ADD93OVALD93*%

G04:AMPARAMS|DCode=94|XSize=2.1032mm|YSize=2.2032mm|CornerRadius=0mm|HoleSize=0mm|Usage=FLASHONLY|Rotation=341.100|XOffset=0mm|YOffset=0mm|HoleType=Round|Shape=Round|*
%AMOVALD94*
21,1,0.1000,2.1032,0.0000,0.0000,71.1*
1,1,2.1032,-0.0162,-0.0473*
1,1,2.1032,0.0162,0.0473*
%
%ADD94OVALD94*%

G04:AMPARAMS|DCode=95|XSize=2.1032mm|YSize=2.2032mm|CornerRadius=0mm|HoleSize=0mm|Usage=FLASHONLY|Rotation=50.807|XOffset=0mm|YOffset=0mm|HoleType=Round|Shape=Round|*
%AMOVALD95*
21,1,0.1000,2.1032,0.0000,0.0000,140.8*
1,1,2.1032,0.0387,-0.0316*
1,1,2.1032,-0.0387,0.0316*
%
%ADD95OVALD95*%

G04:AMPARAMS|DCode=96|XSize=2.1032mm|YSize=2.2032mm|CornerRadius=0mm|HoleSize=0mm|Usage=FLASHONLY|Rotation=120.486|XOffset=0mm|YOffset=0mm|HoleType=Round|Shape=Round|*
%AMOVALD96*
21,1,0.1000,2.1032,0.0000,0.0000,210.5*
1,1,2.1032,0.0431,0.0254*
1,1,2.1032,-0.0431,-0.0254*
%
%ADD96OVALD96*%

G04:AMPARAMS|DCode=97|XSize=2.1032mm|YSize=2.2032mm|CornerRadius=0mm|HoleSize=0mm|Usage=FLASHONLY|Rotation=190.163|XOffset=0mm|YOffset=0mm|HoleType=Round|Shape=Round|*
%AMOVALD97*
21,1,0.1000,2.1032,0.0000,0.0000,280.2*
1,1,2.1032,-0.0088,0.0492*
1,1,2.1032,0.0088,-0.0492*
%
%ADD97OVALD97*%

G04:AMPARAMS|DCode=98|XSize=2.1032mm|YSize=2.2032mm|CornerRadius=0mm|HoleSize=0mm|Usage=FLASHONLY|Rotation=349.821|XOffset=0mm|YOffset=0mm|HoleType=Round|Shape=Round|*
%AMOVALD98*
21,1,0.1000,2.1032,0.0000,0.0000,79.8*
1,1,2.1032,-0.0088,-0.0492*
1,1,2.1032,0.0088,0.0492*
%
%ADD98OVALD98*%

G04:AMPARAMS|DCode=99|XSize=2.1032mm|YSize=2.2032mm|CornerRadius=0mm|HoleSize=0mm|Usage=FLASHONLY|Rotation=59.517|XOffset=0mm|YOffset=0mm|HoleType=Round|Shape=Round|*
%AMOVALD99*
21,1,0.1000,2.1032,0.0000,0.0000,149.5*
1,1,2.1032,0.0431,-0.0254*
1,1,2.1032,-0.0431,0.0254*
%
%ADD99OVALD99*%

G04:AMPARAMS|DCode=100|XSize=2.1032mm|YSize=2.2032mm|CornerRadius=0mm|HoleSize=0mm|Usage=FLASHONLY|Rotation=129.199|XOffset=0mm|YOffset=0mm|HoleType=Round|Shape=Round|*
%AMOVALD100*
21,1,0.1000,2.1032,0.0000,0.0000,219.2*
1,1,2.1032,0.0387,0.0316*
1,1,2.1032,-0.0387,-0.0316*
%
%ADD100OVALD100*%

G04:AMPARAMS|DCode=101|XSize=2.1032mm|YSize=2.2032mm|CornerRadius=0mm|HoleSize=0mm|Usage=FLASHONLY|Rotation=198.889|XOffset=0mm|YOffset=0mm|HoleType=Round|Shape=Round|*
%AMOVALD101*
21,1,0.1000,2.1032,0.0000,0.0000,288.9*
1,1,2.1032,-0.0162,0.0473*
1,1,2.1032,0.0162,-0.0473*
%
%ADD101OVALD101*%

G04:AMPARAMS|DCode=102|XSize=2.1032mm|YSize=2.2032mm|CornerRadius=0mm|HoleSize=0mm|Usage=FLASHONLY|Rotation=358.549|XOffset=0mm|YOffset=0mm|HoleType=Round|Shape=Round|*
%AMOVALD102*
21,1,0.1000,2.1032,0.0000,0.0000,88.5*
1,1,2.1032,-0.0013,-0.0500*
1,1,2.1032,0.0013,0.0500*
%
%ADD102OVALD102*%

G04:AMPARAMS|DCode=103|XSize=2.1032mm|YSize=2.2032mm|CornerRadius=0mm|HoleSize=0mm|Usage=FLASHONLY|Rotation=68.227|XOffset=0mm|YOffset=0mm|HoleType=Round|Shape=Round|*
%AMOVALD103*
21,1,0.1000,2.1032,0.0000,0.0000,158.2*
1,1,2.1032,0.0464,-0.0186*
1,1,2.1032,-0.0464,0.0186*
%
%ADD103OVALD103*%

G04:AMPARAMS|DCode=104|XSize=2.1032mm|YSize=2.2032mm|CornerRadius=0mm|HoleSize=0mm|Usage=FLASHONLY|Rotation=137.905|XOffset=0mm|YOffset=0mm|HoleType=Round|Shape=Round|*
%AMOVALD104*
21,1,0.1000,2.1032,0.0000,0.0000,227.9*
1,1,2.1032,0.0335,0.0371*
1,1,2.1032,-0.0335,-0.0371*
%
%ADD104OVALD104*%

G04:AMPARAMS|DCode=105|XSize=2.1032mm|YSize=2.2032mm|CornerRadius=0mm|HoleSize=0mm|Usage=FLASHONLY|Rotation=207.583|XOffset=0mm|YOffset=0mm|HoleType=Round|Shape=Round|*
%AMOVALD105*
21,1,0.1000,2.1032,0.0000,0.0000,297.6*
1,1,2.1032,-0.0232,0.0443*
1,1,2.1032,0.0232,-0.0443*
%
%ADD105OVALD105*%

G04:AMPARAMS|DCode=106|XSize=2.1032mm|YSize=2.2032mm|CornerRadius=0mm|HoleSize=0mm|Usage=FLASHONLY|Rotation=7.259|XOffset=0mm|YOffset=0mm|HoleType=Round|Shape=Round|*
%AMOVALD106*
21,1,0.1000,2.1032,0.0000,0.0000,97.3*
1,1,2.1032,0.0063,-0.0496*
1,1,2.1032,-0.0063,0.0496*
%
%ADD106OVALD106*%

G04:AMPARAMS|DCode=107|XSize=2.1032mm|YSize=2.2032mm|CornerRadius=0mm|HoleSize=0mm|Usage=FLASHONLY|Rotation=76.940|XOffset=0mm|YOffset=0mm|HoleType=Round|Shape=Round|*
%AMOVALD107*
21,1,0.1000,2.1032,0.0000,0.0000,166.9*
1,1,2.1032,0.0487,-0.0113*
1,1,2.1032,-0.0487,0.0113*
%
%ADD107OVALD107*%

G04:AMPARAMS|DCode=108|XSize=2.1032mm|YSize=2.2032mm|CornerRadius=0mm|HoleSize=0mm|Usage=FLASHONLY|Rotation=216.983|XOffset=0mm|YOffset=0mm|HoleType=Round|Shape=Round|*
%AMOVALD108*
21,1,0.1000,2.1032,0.0000,0.0000,307.0*
1,1,2.1032,-0.0301,0.0399*
1,1,2.1032,0.0301,-0.0399*
%
%ADD108OVALD108*%

G04:AMPARAMS|DCode=109|XSize=2.1032mm|YSize=2.2032mm|CornerRadius=0mm|HoleSize=0mm|Usage=FLASHONLY|Rotation=15.844|XOffset=0mm|YOffset=0mm|HoleType=Round|Shape=Round|*
%AMOVALD109*
21,1,0.1000,2.1032,0.0000,0.0000,105.8*
1,1,2.1032,0.0137,-0.0481*
1,1,2.1032,-0.0137,0.0481*
%
%ADD109OVALD109*%

G04:AMPARAMS|DCode=110|XSize=2.1032mm|YSize=2.2032mm|CornerRadius=0mm|HoleSize=0mm|Usage=FLASHONLY|Rotation=157.434|XOffset=0mm|YOffset=0mm|HoleType=Round|Shape=Round|*
%AMOVALD110*
21,1,0.1000,2.1032,0.0000,0.0000,247.4*
1,1,2.1032,0.0192,0.0462*
1,1,2.1032,-0.0192,-0.0462*
%
%ADD110OVALD110*%

G04:AMPARAMS|DCode=111|XSize=2.1032mm|YSize=2.2032mm|CornerRadius=0mm|HoleSize=0mm|Usage=FLASHONLY|Rotation=225.000|XOffset=0mm|YOffset=0mm|HoleType=Round|Shape=Round|*
%AMOVALD111*
21,1,0.1000,2.1032,0.0000,0.0000,315.0*
1,1,2.1032,-0.0353,0.0353*
1,1,2.1032,0.0353,-0.0353*
%
%ADD111OVALD111*%

%ADD112O,2.2032X2.8032*%
%ADD113C,4.2032*%
%ADD114C,1.2032*%
D66*
X384810Y-204724D02*
D03*
Y-185420D02*
D03*
X368300Y-243078D02*
D03*
Y-223774D02*
D03*
X25400Y-317246D02*
D03*
Y-297942D02*
D03*
X0D02*
D03*
Y-317246D02*
D03*
X-25400D02*
D03*
Y-297942D02*
D03*
X406146Y-204978D02*
D03*
Y-185674D02*
D03*
D67*
X407670Y-244602D02*
D03*
X388874D02*
D03*
X398272Y-221488D02*
D03*
D68*
X407430Y219202D02*
D03*
X377430D02*
D03*
X407684Y-52070D02*
D03*
X377684D02*
D03*
X-407670Y-189992D02*
D03*
X-377670D02*
D03*
X-407684Y80518D02*
D03*
X-377684D02*
D03*
X-52310Y-237490D02*
D03*
X-82310D02*
D03*
X-407684Y218694D02*
D03*
X-377684D02*
D03*
X326658Y-227330D02*
D03*
X296658D02*
D03*
X182358Y-265684D02*
D03*
X212358Y-265684D02*
D03*
D69*
X299466Y-154432D02*
D03*
X318770D02*
D03*
X359918Y81534D02*
D03*
X340614D02*
D03*
X360172Y-51816D02*
D03*
X340868D02*
D03*
X299212Y-176276D02*
D03*
X318516D02*
D03*
X163830Y-290576D02*
D03*
X144526D02*
D03*
Y-314198D02*
D03*
X163830D02*
D03*
X107442D02*
D03*
X126746D02*
D03*
X181356D02*
D03*
X200660D02*
D03*
X127000Y-267208D02*
D03*
X107696D02*
D03*
X126746Y-290576D02*
D03*
X107442D02*
D03*
X181356D02*
D03*
X200660D02*
D03*
X144272Y-267208D02*
D03*
X163576D02*
D03*
X-299212Y-224790D02*
D03*
X-318516D02*
D03*
Y-201930D02*
D03*
X-299212D02*
D03*
Y-156210D02*
D03*
X-318516D02*
D03*
X-359918Y-51820D02*
D03*
X-340614D02*
D03*
Y-29210D02*
D03*
X-359918D02*
D03*
Y-6858D02*
D03*
X-340614D02*
D03*
Y15494D02*
D03*
X-359918D02*
D03*
X-318516Y-179070D02*
D03*
X-299212D02*
D03*
X-340868Y37846D02*
D03*
X-360172D02*
D03*
Y59944D02*
D03*
X-340868D02*
D03*
X-299212Y158750D02*
D03*
X-318516D02*
D03*
Y181610D02*
D03*
X-299212D02*
D03*
Y204470D02*
D03*
X-318516D02*
D03*
Y227330D02*
D03*
X-299212D02*
D03*
Y250190D02*
D03*
X-318516D02*
D03*
X-360172Y82042D02*
D03*
X-340868D02*
D03*
X299212Y273050D02*
D03*
X318516D02*
D03*
Y250190D02*
D03*
X299212D02*
D03*
Y204470D02*
D03*
X318516D02*
D03*
Y181610D02*
D03*
X299212D02*
D03*
Y158750D02*
D03*
X318516D02*
D03*
X340614Y59182D02*
D03*
X359918D02*
D03*
X318516Y227330D02*
D03*
X299212D02*
D03*
X340614Y36830D02*
D03*
X359918D02*
D03*
Y14732D02*
D03*
X340614D02*
D03*
Y-29718D02*
D03*
X359918D02*
D03*
X318770Y-198374D02*
D03*
X299466D02*
D03*
X340614Y-7620D02*
D03*
X359918D02*
D03*
X-318262Y-247650D02*
D03*
X-298958D02*
D03*
X257302Y-228600D02*
D03*
X276606D02*
D03*
X-301752Y-304038D02*
D03*
X-321056D02*
D03*
D70*
X-345440Y-115400D02*
D03*
Y-102700D02*
D03*
Y-90000D02*
D03*
Y-77300D02*
D03*
X-403940Y-115450D02*
D03*
Y-102700D02*
D03*
Y-90000D02*
D03*
Y-77300D02*
D03*
Y-128300D02*
D03*
Y-141000D02*
D03*
Y-153700D02*
D03*
Y-166450D02*
D03*
X-345440Y-128300D02*
D03*
Y-141000D02*
D03*
Y-153700D02*
D03*
Y-166400D02*
D03*
X345440Y144200D02*
D03*
Y131500D02*
D03*
Y118800D02*
D03*
Y106100D02*
D03*
X403940Y144250D02*
D03*
Y131500D02*
D03*
Y118800D02*
D03*
Y106100D02*
D03*
Y157100D02*
D03*
Y169800D02*
D03*
Y182500D02*
D03*
Y195250D02*
D03*
X345440Y157100D02*
D03*
Y169800D02*
D03*
Y182500D02*
D03*
Y195200D02*
D03*
X345440Y-76000D02*
D03*
Y-88700D02*
D03*
Y-101400D02*
D03*
Y-114100D02*
D03*
X403940Y-75950D02*
D03*
Y-88700D02*
D03*
Y-101400D02*
D03*
Y-114100D02*
D03*
Y-165100D02*
D03*
Y-152400D02*
D03*
Y-139700D02*
D03*
Y-126950D02*
D03*
X345440Y-165100D02*
D03*
Y-152400D02*
D03*
Y-139700D02*
D03*
Y-127000D02*
D03*
X-345440Y104800D02*
D03*
Y117500D02*
D03*
Y130200D02*
D03*
Y142900D02*
D03*
X-403940Y104750D02*
D03*
Y117500D02*
D03*
Y130200D02*
D03*
Y142900D02*
D03*
Y193900D02*
D03*
Y181200D02*
D03*
Y168500D02*
D03*
Y155750D02*
D03*
X-345440Y193900D02*
D03*
Y181200D02*
D03*
Y168500D02*
D03*
Y155800D02*
D03*
D71*
X-78740Y-263130D02*
D03*
Y-293130D02*
D03*
X-229870Y-273290D02*
D03*
Y-303290D02*
D03*
X-254508Y-303276D02*
D03*
Y-273276D02*
D03*
D72*
X284934Y-311658D02*
D03*
X297634D02*
D03*
X310334D02*
D03*
X323034D02*
D03*
X284884Y-253158D02*
D03*
X297634D02*
D03*
X310334D02*
D03*
X323034D02*
D03*
X272034D02*
D03*
X259334D02*
D03*
X246634D02*
D03*
X233884D02*
D03*
X272034Y-311658D02*
D03*
X259334D02*
D03*
X246634D02*
D03*
X233934D02*
D03*
D73*
X-115020Y-264160D02*
D03*
D74*
X-180020D02*
D03*
Y-241260D02*
D03*
Y-287060D02*
D03*
D75*
X50800Y-279400D02*
D03*
D76*
X25400D02*
D03*
D77*
X0D02*
D03*
X-25400D02*
D03*
Y-123190D02*
D03*
X0D02*
D03*
X25400D02*
D03*
X50800D02*
D03*
D78*
X-50800Y-279400D02*
D03*
Y-123190D02*
D03*
D79*
X0Y0D02*
D03*
D80*
X387350Y285750D02*
D03*
X-387350D02*
D03*
Y-285750D02*
D03*
X387350D02*
D03*
D81*
X219441Y-218959D02*
D03*
X281687Y129431D02*
D03*
X-298041Y85273D02*
D03*
X249680Y-183745D02*
D03*
X258839Y170595D02*
D03*
X-307518Y39153D02*
D03*
X274892Y-143304D02*
D03*
X230021Y207823D02*
D03*
X-115003Y287879D02*
D03*
X-309900Y-7863D02*
D03*
X293390Y-100109D02*
D03*
X195898Y240258D02*
D03*
X-157270Y267145D02*
D03*
X-305136Y-54700D02*
D03*
X305121Y-54783D02*
D03*
X157256Y267152D02*
D03*
X-195926Y240235D02*
D03*
X-293306Y-100358D02*
D03*
X309900Y-7851D02*
D03*
X114988Y287885D02*
D03*
X-230031Y207811D02*
D03*
X-274765Y-143542D02*
D03*
X307516Y39168D02*
D03*
X-258174Y171552D02*
D03*
X-249678Y-183738D02*
D03*
X298046Y85257D02*
D03*
X-219203Y-219203D02*
D03*
D82*
X201744Y-201301D02*
D03*
D83*
X258970Y118993D02*
D03*
D84*
X-23546Y309104D02*
D03*
X-21647Y284177D02*
D03*
X-70083Y301974D02*
D03*
X70051Y301982D02*
D03*
X23635Y309097D02*
D03*
X21496Y284189D02*
D03*
X-281973Y128784D02*
D03*
D85*
X-274024Y78333D02*
D03*
D86*
X229545Y-168927D02*
D03*
X-237987Y156805D02*
D03*
D87*
X237965Y156837D02*
D03*
D88*
X-64431Y277621D02*
D03*
D89*
X-282718Y35995D02*
D03*
D90*
X252724Y-131747D02*
D03*
D91*
X211471Y191063D02*
D03*
D92*
X-105728Y264663D02*
D03*
D93*
X-284908Y-7229D02*
D03*
D94*
X269738Y-92011D02*
D03*
D95*
X180100Y220883D02*
D03*
D96*
X-144587Y245601D02*
D03*
D97*
X-280528Y-50289D02*
D03*
D98*
X280515Y-50365D02*
D03*
D99*
X144574Y245608D02*
D03*
D100*
X-180126Y220861D02*
D03*
D101*
X-269652Y-92264D02*
D03*
D102*
X284909Y-7218D02*
D03*
D103*
X105715Y264668D02*
D03*
D104*
X-211480Y191052D02*
D03*
D105*
X-252607Y-131966D02*
D03*
D106*
X282716Y36009D02*
D03*
D107*
X64402Y277628D02*
D03*
D108*
X-229708Y-168698D02*
D03*
D109*
X273995Y78432D02*
D03*
D110*
X-258887Y119190D02*
D03*
D111*
X-201525Y-201525D02*
D03*
D112*
X25400Y69850D02*
D03*
X-25400D02*
D03*
X0Y-76200D02*
D03*
X25400D02*
D03*
X-25400D02*
D03*
D113*
X-57150Y0D02*
D03*
X57150Y0D02*
D03*
D114*
X-341630Y-304040D02*
D03*
X-229870Y-273290D02*
D03*
X-210820Y-260350D02*
D03*
M02*
