M48
;Layer_Color=9474304
;FILE_FORMAT=4:4
METRIC,TZ
;TYPE=PLATED
T1F00S00C0.5000
T2F00S00C0.8000
T3F00S00C1.0000
T4F00S00C1.2000
T5F00S00C2.4000
T6F00S00C3.2000
%
T01
X85403Y-313944
X85598Y-281686
X86106Y-254000
X85807Y-233183
X145034Y-266700
X182880Y-265938
X197612Y-265680
X237490Y-282702
X259334Y-311658
X323088Y-312166
X318770Y-279400
X336804
X342390Y-247396
X342392Y-225550
X318770
X297634Y-253158
X284884
X407670Y-244602
X406146Y-203200
X384810
Y-185420
X403940Y-152400
Y-139700
Y-126950
Y-101400
Y-75950
X385214Y-52070
X345440Y-76200
Y-88900
X365506Y-116586
X345440Y-165100
X358140Y-7620
X163830Y-314198
X124206
X25400Y-317246
X0
X-25400Y-318158
X-52145Y-234401
X0Y-218440
X-106680Y-275590
X-118110
Y-287020
X-129540
Y-275590
X-106680Y-287020
X-206502Y-271526
X-229870Y-273290
X-254508Y-303276
X-292608Y-303544
X-321056Y-304038
X-341630Y-304040
X-292610Y-273558
X-318262Y-247650
X-318516Y-224790
X-341630Y-213106
X-265938Y-210566
X-345440Y-128300
Y-102700
Y-77300
X-403940
Y-102700
Y-115450
Y-128300
Y-153700
X-377670Y-189992
X-357124Y-6858
X-377684Y80518
X-403940Y104750
Y130200
Y155750
Y168500
Y181200
Y193900
X-377684Y218694
X-345440Y193900
X377430Y219202
X403940Y195250
Y169800
Y144250
Y131500
Y106100
X345440
X358140Y15240
T02
X201744Y-201301
X219441Y-218959
X229545Y-168927
X249680Y-183745
X252724Y-131747
X274892Y-143304
X269738Y-92011
X293390Y-100109
X305121Y-54783
X280515Y-50365
X284909Y-7218
X309900Y-7851
X-284908Y-7229
X-309900Y-7863
X-305136Y-54700
X-280528Y-50289
X-269652Y-92264
X-293306Y-100358
X-274765Y-143542
X-252607Y-131966
X-249678Y-183738
X-229708Y-168698
X-219203Y-219203
X-201525Y-201525
X-282718Y35995
X-307518Y39153
X-298041Y85273
X-274024Y78333
X-258887Y119190
X-281973Y128784
X-258174Y171552
X-237987Y156805
X-230031Y207811
X-211480Y191052
X-180126Y220861
X-195926Y240235
X-144587Y245601
X-157270Y267145
X-105728Y264663
X-115003Y287879
X-70083Y301974
X-64431Y277621
X-21647Y284177
X-23546Y309104
X23635Y309097
X21496Y284189
X0Y0
X282716Y36009
X307516Y39168
X298046Y85257
X273995Y78432
X258970Y118993
X281687Y129431
X258839Y170595
X237965Y156837
X230021Y207823
X211471Y191063
X180100Y220883
X195898Y240258
X144574Y245608
X157256Y267152
X105715Y264668
X114988Y287885
X70051Y301982
X64402Y277628
T03
X50800Y-279400
Y-123190
X25400
X0
X-25400
X-50800
Y-279400
X-25400
X0
X25400
T04
X-25400Y-76200
X0
X25400
Y69850
X-25400
T05
X-57150Y0
X57150Y0
T06
X387350Y-285750
X-387350
Y285750
X387350
M30
