G04 Layer_Physical_Order=2*
G04 Layer_Color=16711680*
%FSLAX44Y44*%
%MOMM*%
G71*
G01*
G75*
%ADD11R,1.6000X1.0000*%
%ADD13R,1.3000X0.7000*%
%ADD19C,0.3000*%
%ADD20C,0.6000*%
%ADD21C,0.5000*%
%ADD23C,1.8000*%
%ADD24R,1.8000X1.8000*%
%ADD25C,4.0000*%
%ADD26O,2.0000X2.6000*%
%ADD27C,1.9000*%
G04:AMPARAMS|DCode=28|XSize=1.9mm|YSize=2mm|CornerRadius=0mm|HoleSize=0mm|Usage=FLASHONLY|Rotation=225.000|XOffset=0mm|YOffset=0mm|HoleType=Round|Shape=Round|*
%AMOVALD28*
21,1,0.1000,1.9000,0.0000,0.0000,315.0*
1,1,1.9000,-0.0353,0.0353*
1,1,1.9000,0.0353,-0.0353*
%
%ADD28OVALD28*%

G04:AMPARAMS|DCode=29|XSize=1.9mm|YSize=2mm|CornerRadius=0mm|HoleSize=0mm|Usage=FLASHONLY|Rotation=157.434|XOffset=0mm|YOffset=0mm|HoleType=Round|Shape=Round|*
%AMOVALD29*
21,1,0.1000,1.9000,0.0000,0.0000,247.4*
1,1,1.9000,0.0192,0.0462*
1,1,1.9000,-0.0192,-0.0462*
%
%ADD29OVALD29*%

%ADD30C,1.6000*%
G04:AMPARAMS|DCode=31|XSize=1.9mm|YSize=2mm|CornerRadius=0mm|HoleSize=0mm|Usage=FLASHONLY|Rotation=15.844|XOffset=0mm|YOffset=0mm|HoleType=Round|Shape=Round|*
%AMOVALD31*
21,1,0.1000,1.9000,0.0000,0.0000,105.8*
1,1,1.9000,0.0137,-0.0481*
1,1,1.9000,-0.0137,0.0481*
%
%ADD31OVALD31*%

G04:AMPARAMS|DCode=32|XSize=1.9mm|YSize=2mm|CornerRadius=0mm|HoleSize=0mm|Usage=FLASHONLY|Rotation=216.983|XOffset=0mm|YOffset=0mm|HoleType=Round|Shape=Round|*
%AMOVALD32*
21,1,0.1000,1.9000,0.0000,0.0000,307.0*
1,1,1.9000,-0.0301,0.0399*
1,1,1.9000,0.0301,-0.0399*
%
%ADD32OVALD32*%

G04:AMPARAMS|DCode=33|XSize=1.9mm|YSize=2mm|CornerRadius=0mm|HoleSize=0mm|Usage=FLASHONLY|Rotation=143.853|XOffset=0mm|YOffset=0mm|HoleType=Round|Shape=Round|*
%AMOVALD33*
21,1,0.1000,1.9000,0.0000,0.0000,233.9*
1,1,1.9000,0.0295,0.0404*
1,1,1.9000,-0.0295,-0.0404*
%
%ADD33OVALD33*%

G04:AMPARAMS|DCode=34|XSize=1.9mm|YSize=2mm|CornerRadius=0mm|HoleSize=0mm|Usage=FLASHONLY|Rotation=76.940|XOffset=0mm|YOffset=0mm|HoleType=Round|Shape=Round|*
%AMOVALD34*
21,1,0.1000,1.9000,0.0000,0.0000,166.9*
1,1,1.9000,0.0487,-0.0113*
1,1,1.9000,-0.0487,0.0113*
%
%ADD34OVALD34*%

G04:AMPARAMS|DCode=35|XSize=1.9mm|YSize=2mm|CornerRadius=0mm|HoleSize=0mm|Usage=FLASHONLY|Rotation=7.259|XOffset=0mm|YOffset=0mm|HoleType=Round|Shape=Round|*
%AMOVALD35*
21,1,0.1000,1.9000,0.0000,0.0000,97.3*
1,1,1.9000,0.0063,-0.0496*
1,1,1.9000,-0.0063,0.0496*
%
%ADD35OVALD35*%

G04:AMPARAMS|DCode=36|XSize=1.9mm|YSize=2mm|CornerRadius=0mm|HoleSize=0mm|Usage=FLASHONLY|Rotation=207.583|XOffset=0mm|YOffset=0mm|HoleType=Round|Shape=Round|*
%AMOVALD36*
21,1,0.1000,1.9000,0.0000,0.0000,297.6*
1,1,1.9000,-0.0232,0.0443*
1,1,1.9000,0.0232,-0.0443*
%
%ADD36OVALD36*%

G04:AMPARAMS|DCode=37|XSize=1.9mm|YSize=2mm|CornerRadius=0mm|HoleSize=0mm|Usage=FLASHONLY|Rotation=137.905|XOffset=0mm|YOffset=0mm|HoleType=Round|Shape=Round|*
%AMOVALD37*
21,1,0.1000,1.9000,0.0000,0.0000,227.9*
1,1,1.9000,0.0335,0.0371*
1,1,1.9000,-0.0335,-0.0371*
%
%ADD37OVALD37*%

G04:AMPARAMS|DCode=38|XSize=1.9mm|YSize=2mm|CornerRadius=0mm|HoleSize=0mm|Usage=FLASHONLY|Rotation=68.227|XOffset=0mm|YOffset=0mm|HoleType=Round|Shape=Round|*
%AMOVALD38*
21,1,0.1000,1.9000,0.0000,0.0000,158.2*
1,1,1.9000,0.0464,-0.0186*
1,1,1.9000,-0.0464,0.0186*
%
%ADD38OVALD38*%

G04:AMPARAMS|DCode=39|XSize=1.9mm|YSize=2mm|CornerRadius=0mm|HoleSize=0mm|Usage=FLASHONLY|Rotation=358.549|XOffset=0mm|YOffset=0mm|HoleType=Round|Shape=Round|*
%AMOVALD39*
21,1,0.1000,1.9000,0.0000,0.0000,88.5*
1,1,1.9000,-0.0013,-0.0500*
1,1,1.9000,0.0013,0.0500*
%
%ADD39OVALD39*%

G04:AMPARAMS|DCode=40|XSize=1.9mm|YSize=2mm|CornerRadius=0mm|HoleSize=0mm|Usage=FLASHONLY|Rotation=198.889|XOffset=0mm|YOffset=0mm|HoleType=Round|Shape=Round|*
%AMOVALD40*
21,1,0.1000,1.9000,0.0000,0.0000,288.9*
1,1,1.9000,-0.0162,0.0473*
1,1,1.9000,0.0162,-0.0473*
%
%ADD40OVALD40*%

G04:AMPARAMS|DCode=41|XSize=1.9mm|YSize=2mm|CornerRadius=0mm|HoleSize=0mm|Usage=FLASHONLY|Rotation=129.199|XOffset=0mm|YOffset=0mm|HoleType=Round|Shape=Round|*
%AMOVALD41*
21,1,0.1000,1.9000,0.0000,0.0000,219.2*
1,1,1.9000,0.0387,0.0316*
1,1,1.9000,-0.0387,-0.0316*
%
%ADD41OVALD41*%

G04:AMPARAMS|DCode=42|XSize=1.9mm|YSize=2mm|CornerRadius=0mm|HoleSize=0mm|Usage=FLASHONLY|Rotation=59.517|XOffset=0mm|YOffset=0mm|HoleType=Round|Shape=Round|*
%AMOVALD42*
21,1,0.1000,1.9000,0.0000,0.0000,149.5*
1,1,1.9000,0.0431,-0.0254*
1,1,1.9000,-0.0431,0.0254*
%
%ADD42OVALD42*%

G04:AMPARAMS|DCode=43|XSize=1.9mm|YSize=2mm|CornerRadius=0mm|HoleSize=0mm|Usage=FLASHONLY|Rotation=349.821|XOffset=0mm|YOffset=0mm|HoleType=Round|Shape=Round|*
%AMOVALD43*
21,1,0.1000,1.9000,0.0000,0.0000,79.8*
1,1,1.9000,-0.0088,-0.0492*
1,1,1.9000,0.0088,0.0492*
%
%ADD43OVALD43*%

G04:AMPARAMS|DCode=44|XSize=1.9mm|YSize=2mm|CornerRadius=0mm|HoleSize=0mm|Usage=FLASHONLY|Rotation=190.163|XOffset=0mm|YOffset=0mm|HoleType=Round|Shape=Round|*
%AMOVALD44*
21,1,0.1000,1.9000,0.0000,0.0000,280.2*
1,1,1.9000,-0.0088,0.0492*
1,1,1.9000,0.0088,-0.0492*
%
%ADD44OVALD44*%

G04:AMPARAMS|DCode=45|XSize=1.9mm|YSize=2mm|CornerRadius=0mm|HoleSize=0mm|Usage=FLASHONLY|Rotation=120.486|XOffset=0mm|YOffset=0mm|HoleType=Round|Shape=Round|*
%AMOVALD45*
21,1,0.1000,1.9000,0.0000,0.0000,210.5*
1,1,1.9000,0.0431,0.0254*
1,1,1.9000,-0.0431,-0.0254*
%
%ADD45OVALD45*%

G04:AMPARAMS|DCode=46|XSize=1.9mm|YSize=2mm|CornerRadius=0mm|HoleSize=0mm|Usage=FLASHONLY|Rotation=50.807|XOffset=0mm|YOffset=0mm|HoleType=Round|Shape=Round|*
%AMOVALD46*
21,1,0.1000,1.9000,0.0000,0.0000,140.8*
1,1,1.9000,0.0387,-0.0316*
1,1,1.9000,-0.0387,0.0316*
%
%ADD46OVALD46*%

G04:AMPARAMS|DCode=47|XSize=1.9mm|YSize=2mm|CornerRadius=0mm|HoleSize=0mm|Usage=FLASHONLY|Rotation=341.100|XOffset=0mm|YOffset=0mm|HoleType=Round|Shape=Round|*
%AMOVALD47*
21,1,0.1000,1.9000,0.0000,0.0000,71.1*
1,1,1.9000,-0.0162,-0.0473*
1,1,1.9000,0.0162,0.0473*
%
%ADD47OVALD47*%

G04:AMPARAMS|DCode=48|XSize=1.9mm|YSize=2mm|CornerRadius=0mm|HoleSize=0mm|Usage=FLASHONLY|Rotation=181.453|XOffset=0mm|YOffset=0mm|HoleType=Round|Shape=Round|*
%AMOVALD48*
21,1,0.1000,1.9000,0.0000,0.0000,271.5*
1,1,1.9000,-0.0013,0.0500*
1,1,1.9000,0.0013,-0.0500*
%
%ADD48OVALD48*%

G04:AMPARAMS|DCode=49|XSize=1.9mm|YSize=2mm|CornerRadius=0mm|HoleSize=0mm|Usage=FLASHONLY|Rotation=111.776|XOffset=0mm|YOffset=0mm|HoleType=Round|Shape=Round|*
%AMOVALD49*
21,1,0.1000,1.9000,0.0000,0.0000,201.8*
1,1,1.9000,0.0464,0.0186*
1,1,1.9000,-0.0464,-0.0186*
%
%ADD49OVALD49*%

G04:AMPARAMS|DCode=50|XSize=1.9mm|YSize=2mm|CornerRadius=0mm|HoleSize=0mm|Usage=FLASHONLY|Rotation=42.098|XOffset=0mm|YOffset=0mm|HoleType=Round|Shape=Round|*
%AMOVALD50*
21,1,0.1000,1.9000,0.0000,0.0000,132.1*
1,1,1.9000,0.0335,-0.0371*
1,1,1.9000,-0.0335,0.0371*
%
%ADD50OVALD50*%

G04:AMPARAMS|DCode=51|XSize=1.9mm|YSize=2mm|CornerRadius=0mm|HoleSize=0mm|Usage=FLASHONLY|Rotation=332.467|XOffset=0mm|YOffset=0mm|HoleType=Round|Shape=Round|*
%AMOVALD51*
21,1,0.1000,1.9000,0.0000,0.0000,62.5*
1,1,1.9000,-0.0231,-0.0443*
1,1,1.9000,0.0231,0.0443*
%
%ADD51OVALD51*%

G04:AMPARAMS|DCode=52|XSize=1.9mm|YSize=2mm|CornerRadius=0mm|HoleSize=0mm|Usage=FLASHONLY|Rotation=172.744|XOffset=0mm|YOffset=0mm|HoleType=Round|Shape=Round|*
%AMOVALD52*
21,1,0.1000,1.9000,0.0000,0.0000,262.7*
1,1,1.9000,0.0063,0.0496*
1,1,1.9000,-0.0063,-0.0496*
%
%ADD52OVALD52*%

G04:AMPARAMS|DCode=53|XSize=1.9mm|YSize=2mm|CornerRadius=0mm|HoleSize=0mm|Usage=FLASHONLY|Rotation=103.066|XOffset=0mm|YOffset=0mm|HoleType=Round|Shape=Round|*
%AMOVALD53*
21,1,0.1000,1.9000,0.0000,0.0000,193.1*
1,1,1.9000,0.0487,0.0113*
1,1,1.9000,-0.0487,-0.0113*
%
%ADD53OVALD53*%

G04:AMPARAMS|DCode=54|XSize=1.9mm|YSize=2mm|CornerRadius=0mm|HoleSize=0mm|Usage=FLASHONLY|Rotation=33.388|XOffset=0mm|YOffset=0mm|HoleType=Round|Shape=Round|*
%AMOVALD54*
21,1,0.1000,1.9000,0.0000,0.0000,123.4*
1,1,1.9000,0.0275,-0.0418*
1,1,1.9000,-0.0275,0.0418*
%
%ADD54OVALD54*%

G04:AMPARAMS|DCode=55|XSize=1.9mm|YSize=2mm|CornerRadius=0mm|HoleSize=0mm|Usage=FLASHONLY|Rotation=163.883|XOffset=0mm|YOffset=0mm|HoleType=Round|Shape=Round|*
%AMOVALD55*
21,1,0.1000,1.9000,0.0000,0.0000,253.9*
1,1,1.9000,0.0139,0.0480*
1,1,1.9000,-0.0139,-0.0480*
%
%ADD55OVALD55*%

G04:AMPARAMS|DCode=56|XSize=1.9mm|YSize=2mm|CornerRadius=0mm|HoleSize=0mm|Usage=FLASHONLY|Rotation=24.678|XOffset=0mm|YOffset=0mm|HoleType=Round|Shape=Round|*
%AMOVALD56*
21,1,0.1000,1.9000,0.0000,0.0000,114.7*
1,1,1.9000,0.0209,-0.0454*
1,1,1.9000,-0.0209,0.0454*
%
%ADD56OVALD56*%

G04:AMPARAMS|DCode=57|XSize=1.9mm|YSize=2mm|CornerRadius=0mm|HoleSize=0mm|Usage=FLASHONLY|Rotation=315.063|XOffset=0mm|YOffset=0mm|HoleType=Round|Shape=Round|*
%AMOVALD57*
21,1,0.1000,1.9000,0.0000,0.0000,45.1*
1,1,1.9000,-0.0353,-0.0354*
1,1,1.9000,0.0353,0.0354*
%
%ADD57OVALD57*%

G04:AMPARAMS|DCode=58|XSize=6mm|YSize=6mm|CornerRadius=1.8mm|HoleSize=0mm|Usage=FLASHONLY|Rotation=0.000|XOffset=0mm|YOffset=0mm|HoleType=Round|Shape=RoundedRectangle|*
%AMROUNDEDRECTD58*
21,1,6.0000,2.4000,0,0,0.0*
21,1,2.4000,6.0000,0,0,0.0*
1,1,3.6000,1.2000,-1.2000*
1,1,3.6000,-1.2000,-1.2000*
1,1,3.6000,-1.2000,1.2000*
1,1,3.6000,1.2000,1.2000*
%
%ADD58ROUNDEDRECTD58*%
%ADD59C,2.0000*%
%ADD60O,1.6000X1.8000*%
%ADD61O,1.7000X1.8000*%
%ADD62C,1.0000*%
%ADD63R,12.5984X4.8006*%
G36*
X-399974Y-150580D02*
X-399574Y-150920D01*
X-399168Y-151220D01*
X-398756Y-151480D01*
X-398339Y-151700D01*
X-397917Y-151880D01*
X-397488Y-152020D01*
X-397055Y-152120D01*
X-396615Y-152180D01*
X-396170Y-152200D01*
Y-155200D01*
X-396615Y-155220D01*
X-397055Y-155280D01*
X-397488Y-155380D01*
X-397917Y-155520D01*
X-398339Y-155700D01*
X-398756Y-155920D01*
X-399168Y-156180D01*
X-399574Y-156480D01*
X-399974Y-156820D01*
X-400369Y-157200D01*
Y-150200D01*
X-399974Y-150580D01*
D02*
G37*
G36*
X407060Y-156366D02*
X406720Y-156766D01*
X406420Y-157172D01*
X406160Y-157584D01*
X405940Y-158001D01*
X405760Y-158423D01*
X405620Y-158852D01*
X405520Y-159285D01*
X405460Y-159725D01*
X405440Y-160170D01*
X402440D01*
X402420Y-159725D01*
X402360Y-159285D01*
X402260Y-158852D01*
X402120Y-158423D01*
X401940Y-158001D01*
X401720Y-157584D01*
X401460Y-157172D01*
X401160Y-156766D01*
X400820Y-156366D01*
X400440Y-155971D01*
X407440D01*
X407060Y-156366D01*
D02*
G37*
G36*
X346641Y-295306D02*
X346023Y-295946D01*
X345055Y-297081D01*
X344705Y-297576D01*
X344445Y-298025D01*
X344275Y-298425D01*
X344194Y-298778D01*
X344203Y-299083D01*
X344301Y-299340D01*
X344489Y-299549D01*
X339803Y-295811D01*
X340055Y-295956D01*
X340345Y-296022D01*
X340673Y-296007D01*
X341040Y-295912D01*
X341445Y-295737D01*
X341889Y-295482D01*
X342370Y-295146D01*
X342890Y-294731D01*
X344045Y-293659D01*
X346641Y-295306D01*
D02*
G37*
G36*
X-407511Y177700D02*
X-407906Y178080D01*
X-408306Y178420D01*
X-408712Y178720D01*
X-409124Y178980D01*
X-409541Y179200D01*
X-409963Y179380D01*
X-410392Y179520D01*
X-410825Y179620D01*
X-411265Y179680D01*
X-411710Y179700D01*
Y182700D01*
X-411265Y182720D01*
X-410825Y182780D01*
X-410392Y182880D01*
X-409963Y183020D01*
X-409541Y183200D01*
X-409124Y183420D01*
X-408712Y183680D01*
X-408306Y183980D01*
X-407906Y184320D01*
X-407511Y184700D01*
Y177700D01*
D02*
G37*
G36*
X-408045Y-96446D02*
X-407691Y-96714D01*
X-407314Y-96950D01*
X-406912Y-97154D01*
X-406486Y-97326D01*
X-406036Y-97465D01*
X-405561Y-97572D01*
X-405061Y-97647D01*
X-404538Y-97690D01*
X-403990Y-97700D01*
X-408383Y-102094D01*
X-405327Y-107504D01*
X-405814Y-107385D01*
X-406286Y-107314D01*
X-406741Y-107290D01*
X-407180Y-107315D01*
X-407603Y-107388D01*
X-408011Y-107508D01*
X-408402Y-107676D01*
X-408778Y-107893D01*
X-409138Y-108157D01*
X-409482Y-108469D01*
X-410979Y-105724D01*
X-410698Y-105421D01*
X-410430Y-105090D01*
X-410175Y-104730D01*
X-409934Y-104342D01*
X-409707Y-103925D01*
X-409292Y-103005D01*
X-409105Y-102501D01*
X-408957Y-102019D01*
X-408993Y-101579D01*
X-409068Y-101079D01*
X-409175Y-100604D01*
X-409314Y-100154D01*
X-409486Y-99728D01*
X-409690Y-99326D01*
X-409926Y-98949D01*
X-410194Y-98596D01*
X-410495Y-98267D01*
X-408373Y-96145D01*
X-408045Y-96446D01*
D02*
G37*
G36*
X201578Y-262560D02*
X201978Y-262900D01*
X202384Y-263200D01*
X202796Y-263460D01*
X203213Y-263680D01*
X203635Y-263860D01*
X204064Y-264000D01*
X204497Y-264100D01*
X204937Y-264160D01*
X205382Y-264180D01*
Y-267180D01*
X204937Y-267200D01*
X204497Y-267260D01*
X204064Y-267360D01*
X203635Y-267500D01*
X203213Y-267680D01*
X202796Y-267900D01*
X202384Y-268160D01*
X201978Y-268460D01*
X201578Y-268800D01*
X201183Y-269180D01*
Y-262180D01*
X201578Y-262560D01*
D02*
G37*
G36*
X-402420Y201225D02*
X-402360Y200785D01*
X-402260Y200352D01*
X-402120Y199923D01*
X-401940Y199501D01*
X-401720Y199083D01*
X-401460Y198672D01*
X-401160Y198266D01*
X-400820Y197866D01*
X-400440Y197471D01*
X-407440D01*
X-407060Y197866D01*
X-406720Y198266D01*
X-406420Y198672D01*
X-406160Y199083D01*
X-405940Y199501D01*
X-405760Y199923D01*
X-405620Y200352D01*
X-405520Y200785D01*
X-405460Y201225D01*
X-405440Y201670D01*
X-402440D01*
X-402420Y201225D01*
D02*
G37*
G36*
X399835Y-95146D02*
X400188Y-95414D01*
X400566Y-95650D01*
X400968Y-95854D01*
X401394Y-96025D01*
X401844Y-96165D01*
X402319Y-96272D01*
X402818Y-96347D01*
X403342Y-96390D01*
X403890Y-96400D01*
X398940Y-101350D01*
X398930Y-100802D01*
X398887Y-100279D01*
X398812Y-99779D01*
X398705Y-99305D01*
X398565Y-98854D01*
X398394Y-98428D01*
X398190Y-98026D01*
X397954Y-97648D01*
X397686Y-97295D01*
X397385Y-96967D01*
X399507Y-94845D01*
X399835Y-95146D01*
D02*
G37*
G36*
X-408045Y111004D02*
X-407691Y110736D01*
X-407314Y110500D01*
X-406912Y110296D01*
X-406486Y110124D01*
X-406036Y109985D01*
X-405561Y109878D01*
X-405061Y109803D01*
X-404538Y109760D01*
X-403990Y109750D01*
X-408940Y104800D01*
X-408950Y105348D01*
X-408993Y105871D01*
X-409068Y106371D01*
X-409175Y106846D01*
X-409314Y107296D01*
X-409486Y107722D01*
X-409690Y108124D01*
X-409926Y108501D01*
X-410194Y108855D01*
X-410495Y109183D01*
X-408373Y111305D01*
X-408045Y111004D01*
D02*
G37*
G36*
X-398930Y129602D02*
X-398887Y129079D01*
X-398812Y128579D01*
X-398705Y128104D01*
X-398565Y127654D01*
X-398394Y127228D01*
X-398190Y126826D01*
X-397954Y126448D01*
X-397686Y126095D01*
X-397385Y125767D01*
X-399507Y123645D01*
X-399835Y123946D01*
X-400188Y124214D01*
X-400566Y124450D01*
X-400968Y124654D01*
X-401394Y124825D01*
X-401844Y124965D01*
X-402319Y125072D01*
X-402818Y125147D01*
X-403342Y125190D01*
X-403890Y125200D01*
X-398940Y130150D01*
X-398930Y129602D01*
D02*
G37*
G36*
X349182Y-243489D02*
X348888Y-243810D01*
X348618Y-244156D01*
X348374Y-244529D01*
X348155Y-244929D01*
X347961Y-245356D01*
X347792Y-245809D01*
X347648Y-246288D01*
X347529Y-246794D01*
X347435Y-247327D01*
X347366Y-247887D01*
X342980Y-242431D01*
X343509Y-242476D01*
X344016Y-242481D01*
X344502Y-242448D01*
X344966Y-242376D01*
X345409Y-242265D01*
X345831Y-242115D01*
X346231Y-241926D01*
X346609Y-241698D01*
X346967Y-241432D01*
X347303Y-241126D01*
X349182Y-243489D01*
D02*
G37*
G36*
X371770Y-111665D02*
X371464Y-112001D01*
X371198Y-112358D01*
X370970Y-112737D01*
X370782Y-113137D01*
X370632Y-113558D01*
X370522Y-114001D01*
X370450Y-114465D01*
X370418Y-114951D01*
X370424Y-115458D01*
X370470Y-115986D01*
X365005Y-111611D01*
X365565Y-111541D01*
X366604Y-111326D01*
X367084Y-111181D01*
X367537Y-111012D01*
X367963Y-110817D01*
X368363Y-110598D01*
X368736Y-110354D01*
X369082Y-110084D01*
X369402Y-109790D01*
X371770Y-111665D01*
D02*
G37*
G36*
X-406028Y147956D02*
X-403940Y147681D01*
X-402543Y147865D01*
X-383915Y129236D01*
Y118323D01*
X-385088Y117837D01*
X-396055Y128803D01*
X-395871Y130200D01*
X-396146Y132288D01*
X-396952Y134235D01*
X-398234Y135906D01*
X-399906Y137188D01*
X-401852Y137994D01*
X-403940Y138269D01*
X-406028Y137994D01*
X-407122Y137541D01*
X-408392Y138390D01*
Y147560D01*
X-407122Y148409D01*
X-406028Y147956D01*
D02*
G37*
G36*
X408953Y143676D02*
X408998Y143152D01*
X409075Y142652D01*
X409184Y142177D01*
X409324Y141726D01*
X409497Y141300D01*
X409701Y140898D01*
X409938Y140521D01*
X410206Y140168D01*
X410506Y139839D01*
X408396Y137707D01*
X408067Y138008D01*
X407714Y138276D01*
X407336Y138512D01*
X406934Y138715D01*
X406508Y138886D01*
X406058Y139024D01*
X405583Y139129D01*
X405085Y139202D01*
X404562Y139243D01*
X404014Y139251D01*
X408940Y144225D01*
X408953Y143676D01*
D02*
G37*
G36*
X409258Y322971D02*
X413419Y321248D01*
X417163Y318746D01*
X420347Y315562D01*
X422848Y311818D01*
X424571Y307658D01*
X425450Y303241D01*
X425450Y300990D01*
X425450Y300990D01*
X425450Y300990D01*
X425450Y-300990D01*
Y-303242D01*
X424571Y-307658D01*
X422848Y-311818D01*
X420346Y-315562D01*
X417162Y-318746D01*
X413418Y-321248D01*
X409258Y-322971D01*
X404841Y-323850D01*
X361950D01*
X31896Y-323850D01*
X31391Y-322580D01*
X32388Y-321281D01*
X33194Y-319334D01*
X33469Y-317246D01*
X33194Y-315158D01*
X32388Y-313211D01*
X31106Y-311540D01*
X33408Y-309238D01*
X77427D01*
X78167Y-310508D01*
X77609Y-311856D01*
X77334Y-313944D01*
X77609Y-316032D01*
X78415Y-317978D01*
X79697Y-319650D01*
X81369Y-320932D01*
X83315Y-321738D01*
X85403Y-322013D01*
X87491Y-321738D01*
X89438Y-320932D01*
X91109Y-319650D01*
X91966Y-318532D01*
X117448D01*
X118500Y-319904D01*
X120171Y-321186D01*
X122118Y-321992D01*
X124206Y-322267D01*
X126294Y-321992D01*
X128240Y-321186D01*
X129912Y-319904D01*
X131194Y-318232D01*
X132000Y-316286D01*
X132275Y-314198D01*
X132000Y-312110D01*
X131337Y-310508D01*
X131928Y-309238D01*
X156108D01*
X156699Y-310508D01*
X156036Y-312110D01*
X155761Y-314198D01*
X156036Y-316286D01*
X156842Y-318232D01*
X158124Y-319904D01*
X159796Y-321186D01*
X161742Y-321992D01*
X163830Y-322267D01*
X165918Y-321992D01*
X167864Y-321186D01*
X169536Y-319904D01*
X170818Y-318232D01*
X171624Y-316286D01*
X171629Y-316246D01*
X252771D01*
X253628Y-317364D01*
X255299Y-318646D01*
X257246Y-319452D01*
X259334Y-319727D01*
X261422Y-319452D01*
X263368Y-318646D01*
X265040Y-317364D01*
X266322Y-315693D01*
X267128Y-313746D01*
X267403Y-311658D01*
X267128Y-309570D01*
X266322Y-307624D01*
X265040Y-305952D01*
X263368Y-304670D01*
X261422Y-303864D01*
X259334Y-303589D01*
X258277Y-303728D01*
X257683Y-302525D01*
X288128Y-272080D01*
X289123Y-270592D01*
X289472Y-268836D01*
Y-259721D01*
X290590Y-258864D01*
X290624Y-258819D01*
X291894D01*
X291928Y-258864D01*
X293599Y-260146D01*
X295546Y-260952D01*
X297634Y-261227D01*
X299030Y-261043D01*
X302942Y-264954D01*
X304430Y-265949D01*
X306186Y-266298D01*
X318788D01*
X319090Y-266358D01*
X325550D01*
Y-273764D01*
X324280Y-274195D01*
X324148Y-274022D01*
X322573Y-272814D01*
X320738Y-272054D01*
X320040Y-271962D01*
Y-279400D01*
Y-286838D01*
X320738Y-286746D01*
X322573Y-285986D01*
X324148Y-284778D01*
X325356Y-283202D01*
X326116Y-281368D01*
X326375Y-279400D01*
X326931Y-278766D01*
X328179D01*
X328735Y-279400D01*
X329010Y-281488D01*
X329816Y-283435D01*
X331098Y-285106D01*
X332770Y-286388D01*
X334716Y-287194D01*
X336804Y-287469D01*
X338892Y-287194D01*
X340839Y-286388D01*
X342510Y-285106D01*
X343792Y-283435D01*
X344598Y-281488D01*
X344873Y-279400D01*
X345443Y-278750D01*
X346694D01*
Y-286644D01*
X340587Y-292750D01*
X325550D01*
Y-303750D01*
X324358Y-304658D01*
Y-310896D01*
X330526D01*
X330434Y-310198D01*
X330272Y-309806D01*
X330977Y-308750D01*
X347550D01*
Y-298765D01*
X353075Y-293239D01*
X354248Y-293726D01*
Y-297750D01*
X354654Y-301867D01*
X355855Y-305825D01*
X357805Y-309473D01*
X360429Y-312671D01*
X363627Y-315295D01*
X367275Y-317245D01*
X371233Y-318446D01*
X375350Y-318852D01*
X399350D01*
X403467Y-318446D01*
X407425Y-317245D01*
X411073Y-315295D01*
X414271Y-312671D01*
X416895Y-309473D01*
X418845Y-305825D01*
X420046Y-301867D01*
X420452Y-297750D01*
Y-273750D01*
X420046Y-269633D01*
X418845Y-265675D01*
X416895Y-262027D01*
X414271Y-258829D01*
X411073Y-256205D01*
X407425Y-254255D01*
X403467Y-253054D01*
X399350Y-252648D01*
X375350D01*
X371233Y-253054D01*
X367877Y-254072D01*
X367203Y-252949D01*
X388054Y-232098D01*
X389049Y-230610D01*
X389398Y-228854D01*
Y-209763D01*
X390516Y-208906D01*
X391798Y-207234D01*
X392604Y-205288D01*
X392879Y-203200D01*
X392604Y-201112D01*
X391798Y-199165D01*
X390516Y-197494D01*
X388844Y-196212D01*
X386898Y-195406D01*
X384810Y-195131D01*
X382722Y-195406D01*
X380775Y-196212D01*
X379104Y-197494D01*
X377822Y-199165D01*
X377016Y-201112D01*
X376741Y-203200D01*
X377016Y-205288D01*
X377822Y-207234D01*
X379104Y-208906D01*
X380222Y-209763D01*
Y-226954D01*
X368474Y-238702D01*
X367300Y-238216D01*
Y-182829D01*
X395026Y-155103D01*
X396524Y-155401D01*
X396952Y-156434D01*
X398234Y-158106D01*
X399352Y-158963D01*
Y-198913D01*
X399158Y-199165D01*
X398352Y-201112D01*
X398077Y-203200D01*
X398352Y-205288D01*
X399158Y-207234D01*
X400440Y-208906D01*
X402112Y-210188D01*
X404058Y-210994D01*
X406146Y-211269D01*
X408234Y-210994D01*
X410181Y-210188D01*
X411852Y-208906D01*
X413134Y-207234D01*
X413940Y-205288D01*
X414215Y-203200D01*
X413940Y-201112D01*
X413134Y-199165D01*
X411852Y-197494D01*
X410181Y-196212D01*
X408528Y-195528D01*
Y-158963D01*
X409646Y-158106D01*
X410739Y-156681D01*
X410950Y-156639D01*
X412438Y-155644D01*
X416248Y-151834D01*
X417243Y-150346D01*
X417592Y-148590D01*
Y-85014D01*
X417243Y-83258D01*
X416248Y-81770D01*
X411825Y-77347D01*
X412009Y-75950D01*
X411734Y-73862D01*
X410928Y-71915D01*
X409646Y-70244D01*
X407975Y-68962D01*
X406163Y-68212D01*
X405725Y-67263D01*
X405621Y-66957D01*
X406342Y-66236D01*
X407337Y-64748D01*
X407686Y-62992D01*
Y98993D01*
X407975Y99112D01*
X409646Y100394D01*
X410928Y102066D01*
X411734Y104012D01*
X412009Y106100D01*
X411734Y108188D01*
X410928Y110135D01*
X409646Y111806D01*
X407975Y113088D01*
X406028Y113894D01*
X403940Y114169D01*
X402545Y113985D01*
X401952Y115188D01*
X404635Y117872D01*
X407685D01*
X409440Y118221D01*
X410929Y119216D01*
X416224Y124511D01*
X417219Y126000D01*
X417568Y127756D01*
Y135245D01*
X417219Y137000D01*
X416224Y138489D01*
X411829Y142884D01*
X412009Y144250D01*
X411734Y146339D01*
X410928Y148285D01*
X409646Y149956D01*
X407975Y151238D01*
X406028Y152044D01*
X403940Y152319D01*
X401852Y152044D01*
X399906Y151238D01*
X398234Y149956D01*
X396952Y148285D01*
X396146Y146339D01*
X395871Y144250D01*
X396146Y142162D01*
X396952Y140216D01*
X398234Y138544D01*
X398279Y138510D01*
Y137240D01*
X398234Y137206D01*
X396952Y135535D01*
X396146Y133588D01*
X395871Y131500D01*
X396055Y130104D01*
X368341Y102390D01*
X367347Y100902D01*
X366998Y99146D01*
Y18079D01*
X365728Y17827D01*
X365128Y19274D01*
X363846Y20946D01*
X362174Y22228D01*
X360228Y23034D01*
X358140Y23309D01*
X356052Y23034D01*
X354105Y22228D01*
X352434Y20946D01*
X351152Y19274D01*
X350346Y17328D01*
X350071Y15240D01*
X350255Y13843D01*
X344736Y8324D01*
X343741Y6836D01*
X343392Y5080D01*
Y-68401D01*
X343352Y-68406D01*
X341405Y-69212D01*
X339734Y-70494D01*
X338452Y-72165D01*
X337646Y-74112D01*
X337371Y-76200D01*
X337646Y-78288D01*
X338452Y-80234D01*
X339734Y-81906D01*
X339747Y-81915D01*
Y-83185D01*
X339734Y-83194D01*
X338452Y-84866D01*
X337646Y-86812D01*
X337371Y-88900D01*
X337646Y-90988D01*
X338452Y-92935D01*
X339734Y-94606D01*
X341405Y-95888D01*
X343352Y-96694D01*
X345440Y-96969D01*
X347528Y-96694D01*
X349474Y-95888D01*
X351146Y-94606D01*
X352428Y-92935D01*
X353234Y-90988D01*
X353509Y-88900D01*
X353335Y-87578D01*
X358844Y-82069D01*
X359839Y-80580D01*
X360188Y-78825D01*
Y-15419D01*
X360228Y-15414D01*
X362174Y-14608D01*
X363846Y-13326D01*
X365128Y-11654D01*
X365728Y-10207D01*
X366998Y-10459D01*
Y-107707D01*
X366043Y-108588D01*
X365506Y-108517D01*
X363418Y-108792D01*
X361471Y-109598D01*
X359800Y-110880D01*
X358518Y-112551D01*
X357712Y-114498D01*
X357437Y-116586D01*
X357712Y-118674D01*
X358518Y-120620D01*
X359800Y-122292D01*
X361471Y-123574D01*
X363418Y-124380D01*
X365506Y-124655D01*
X367594Y-124380D01*
X369540Y-123574D01*
X371212Y-122292D01*
X372494Y-120620D01*
X373300Y-118674D01*
X373575Y-116586D01*
X373301Y-114502D01*
X374830Y-112972D01*
X375825Y-111484D01*
X376174Y-109728D01*
Y97245D01*
X388955Y110026D01*
X390128Y109540D01*
Y-44936D01*
X388858Y-45418D01*
X387182Y-44724D01*
X386484Y-44632D01*
Y-52070D01*
Y-59508D01*
X387182Y-59416D01*
X388445Y-58893D01*
X389699Y-59540D01*
X389816Y-60387D01*
X384360Y-65844D01*
X383365Y-67332D01*
X383016Y-69088D01*
Y-99314D01*
X383365Y-101070D01*
X384360Y-102558D01*
X399352Y-117550D01*
Y-120387D01*
X398234Y-121244D01*
X396952Y-122915D01*
X396146Y-124862D01*
X395871Y-126950D01*
X396051Y-128316D01*
X391656Y-132711D01*
X391586Y-132815D01*
X353626Y-170776D01*
X352631Y-172264D01*
X352282Y-174020D01*
Y-231779D01*
X344462Y-239600D01*
X342390Y-239327D01*
X340302Y-239602D01*
X338355Y-240408D01*
X336684Y-241690D01*
X335402Y-243361D01*
X334596Y-245308D01*
X334321Y-247396D01*
X334596Y-249484D01*
X335402Y-251430D01*
X336684Y-253102D01*
X338355Y-254384D01*
X340020Y-255074D01*
X340419Y-256284D01*
X339748Y-257122D01*
X326638D01*
X326337Y-257182D01*
X319331D01*
X319030Y-257122D01*
X308086D01*
X305519Y-254555D01*
X305703Y-253158D01*
X305428Y-251070D01*
X304992Y-250017D01*
X305905Y-248903D01*
X306070Y-248936D01*
X323594D01*
X325350Y-248587D01*
X326838Y-247592D01*
X340995Y-233435D01*
X342392Y-233619D01*
X344480Y-233344D01*
X346427Y-232538D01*
X348098Y-231256D01*
X349380Y-229585D01*
X350186Y-227638D01*
X350461Y-225550D01*
X350186Y-223462D01*
X349380Y-221516D01*
X348098Y-219844D01*
X346427Y-218562D01*
X344480Y-217756D01*
X342392Y-217481D01*
X340304Y-217756D01*
X338358Y-218562D01*
X336686Y-219844D01*
X335404Y-221516D01*
X334598Y-223462D01*
X334323Y-225550D01*
X334507Y-226947D01*
X321693Y-239760D01*
X307971D01*
X300424Y-232214D01*
X298936Y-231219D01*
X297180Y-230870D01*
X276860D01*
X275104Y-231219D01*
X273616Y-232214D01*
X264218Y-241612D01*
X263223Y-243100D01*
X262874Y-244856D01*
Y-264799D01*
X246506Y-281168D01*
X245303Y-280759D01*
X245284Y-280614D01*
X244478Y-278668D01*
X243196Y-276996D01*
X241525Y-275714D01*
X239578Y-274908D01*
X237490Y-274633D01*
X236094Y-274817D01*
X223712Y-262436D01*
X222224Y-261441D01*
X220468Y-261092D01*
X204175D01*
X203318Y-259974D01*
X201646Y-258692D01*
X199700Y-257886D01*
X197612Y-257611D01*
X195524Y-257886D01*
X193577Y-258692D01*
X191906Y-259974D01*
X190624Y-261646D01*
X190579Y-261755D01*
X189194Y-261780D01*
X188258Y-260560D01*
X186682Y-259352D01*
X184848Y-258592D01*
X184150Y-258500D01*
Y-265938D01*
Y-273376D01*
X184848Y-273284D01*
X186682Y-272524D01*
X188258Y-271316D01*
X189332Y-269915D01*
X190009Y-269810D01*
X190772Y-269907D01*
X191906Y-271386D01*
X193577Y-272668D01*
X195524Y-273474D01*
X197612Y-273749D01*
X199700Y-273474D01*
X201646Y-272668D01*
X203318Y-271386D01*
X204175Y-270268D01*
X218568D01*
X229605Y-281306D01*
X229421Y-282702D01*
X229696Y-284790D01*
X230502Y-286737D01*
X230613Y-286881D01*
X230051Y-288020D01*
X113576D01*
X88524Y-262967D01*
X88868Y-261515D01*
X90140Y-260988D01*
X91812Y-259706D01*
X93094Y-258034D01*
X93900Y-256088D01*
X94175Y-254000D01*
X93900Y-251912D01*
X93094Y-249965D01*
X91812Y-248294D01*
X90140Y-247012D01*
X88194Y-246206D01*
X86106Y-245931D01*
X84710Y-246115D01*
X80704Y-242110D01*
X79216Y-241115D01*
X77460Y-240766D01*
X-46129D01*
X-46550Y-239496D01*
X-45559Y-238204D01*
X-44799Y-236370D01*
X-44707Y-235672D01*
X-59583D01*
X-59491Y-236370D01*
X-58731Y-238204D01*
X-57740Y-239496D01*
X-58160Y-240766D01*
X-248046D01*
X-271107Y-217705D01*
X-270268Y-216748D01*
X-269741Y-217152D01*
X-267906Y-217912D01*
X-267208Y-218004D01*
Y-211836D01*
X-273376D01*
X-273284Y-212534D01*
X-272524Y-214368D01*
X-272120Y-214895D01*
X-273077Y-215735D01*
X-376606Y-112206D01*
X-378094Y-111211D01*
X-379850Y-110862D01*
X-391170D01*
X-391460Y-110160D01*
X-391591Y-109592D01*
X-391586Y-109585D01*
X-390710Y-108708D01*
X-389715Y-107220D01*
X-389366Y-105464D01*
Y79325D01*
X-386327Y82364D01*
X-385160Y81788D01*
X-378954D01*
Y87994D01*
X-379530Y89161D01*
X-376082Y92608D01*
X-375088Y94097D01*
X-374739Y95853D01*
Y131137D01*
X-375088Y132892D01*
X-376082Y134381D01*
X-396055Y154353D01*
X-395871Y155750D01*
X-396146Y157838D01*
X-396952Y159784D01*
X-398108Y161291D01*
X-398279Y161891D01*
Y162359D01*
X-398108Y162959D01*
X-396952Y164465D01*
X-396146Y166411D01*
X-395871Y168500D01*
X-396146Y170588D01*
X-396952Y172535D01*
X-398084Y174009D01*
X-398246Y174757D01*
Y174943D01*
X-398084Y175691D01*
X-396952Y177165D01*
X-396146Y179111D01*
X-395871Y181200D01*
X-396146Y183288D01*
X-396952Y185234D01*
X-398234Y186906D01*
X-398246Y186915D01*
Y188185D01*
X-398234Y188194D01*
X-396952Y189865D01*
X-396146Y191812D01*
X-395871Y193900D01*
X-396146Y195988D01*
X-396952Y197934D01*
X-398234Y199606D01*
X-399352Y200463D01*
Y216714D01*
X-383163Y232902D01*
X-244602D01*
X-242846Y233251D01*
X-241358Y234246D01*
X-166178Y309426D01*
X-79684D01*
X-79141Y308277D01*
X-79499Y307843D01*
X-80697Y305206D01*
X-81172Y302348D01*
X-80891Y299466D01*
X-79873Y296754D01*
X-78189Y294398D01*
X-75952Y292558D01*
X-73315Y291360D01*
X-70458Y290885D01*
X-67575Y291166D01*
X-64863Y292184D01*
X-62507Y293868D01*
X-60667Y296105D01*
X-59469Y298742D01*
X-58995Y301600D01*
X-59276Y304482D01*
X-60293Y307194D01*
X-61081Y308296D01*
X-60500Y309426D01*
X-56836D01*
X-41223Y293813D01*
X-39734Y292818D01*
X-37978Y292469D01*
X-30586D01*
X-30199Y291199D01*
X-31649Y288978D01*
X-32551Y286226D01*
X-32710Y283334D01*
X-32115Y280499D01*
X-30806Y277915D01*
X-28874Y275758D01*
X-26449Y274175D01*
X-23696Y273273D01*
X-20804Y273114D01*
X-17970Y273709D01*
X-15386Y275017D01*
X-13228Y276950D01*
X-11645Y279375D01*
X-10743Y282127D01*
X-10584Y285019D01*
X-11179Y287854D01*
X-12487Y290438D01*
X-13268Y291309D01*
X-12750Y292469D01*
X12587D01*
X13099Y291307D01*
X12397Y290538D01*
X11064Y287967D01*
X10441Y285138D01*
X10572Y282245D01*
X11448Y279484D01*
X13008Y277043D01*
X15146Y275090D01*
X17718Y273757D01*
X20546Y273135D01*
X23440Y273265D01*
X26201Y274141D01*
X28641Y275701D01*
X30594Y277840D01*
X31927Y280411D01*
X32550Y283239D01*
X32419Y286133D01*
X31543Y288894D01*
X30070Y291199D01*
X30372Y292335D01*
X30424Y292469D01*
X38047D01*
X39802Y292818D01*
X41291Y293813D01*
X56912Y309433D01*
X60468D01*
X61049Y308304D01*
X60260Y307201D01*
X59243Y304489D01*
X58962Y301606D01*
X59438Y298749D01*
X60636Y296112D01*
X62476Y293875D01*
X64832Y292191D01*
X67544Y291173D01*
X70427Y290893D01*
X73284Y291368D01*
X75921Y292566D01*
X78157Y294406D01*
X79842Y296763D01*
X80859Y299474D01*
X81140Y302357D01*
X80665Y305214D01*
X79466Y307851D01*
X79109Y308285D01*
X79652Y309433D01*
X167186D01*
X310064Y166556D01*
X311552Y165561D01*
X313308Y165212D01*
X397377D01*
X398234Y164094D01*
X399906Y162812D01*
X401852Y162006D01*
X403940Y161731D01*
X406028Y162006D01*
X407975Y162812D01*
X409646Y164094D01*
X410928Y165766D01*
X411734Y167712D01*
X412009Y169800D01*
X411734Y171889D01*
X410928Y173835D01*
X409646Y175506D01*
X407975Y176788D01*
X406028Y177594D01*
X403940Y177869D01*
X401852Y177594D01*
X399906Y176788D01*
X398234Y175506D01*
X397377Y174388D01*
X315208D01*
X172331Y317266D01*
X170842Y318260D01*
X169086Y318610D01*
X55011D01*
X53255Y318260D01*
X51767Y317266D01*
X36146Y301645D01*
X33245D01*
X32820Y302915D01*
X34066Y305319D01*
X34689Y308148D01*
X34558Y311041D01*
X33682Y313802D01*
X32122Y316242D01*
X29984Y318196D01*
X27413Y319529D01*
X24584Y320151D01*
X21690Y320020D01*
X18930Y319145D01*
X16489Y317585D01*
X14536Y315446D01*
X13203Y312875D01*
X12580Y310046D01*
X12711Y307153D01*
X13587Y304392D01*
X14531Y302915D01*
X13835Y301645D01*
X-13762D01*
X-14450Y302915D01*
X-13544Y304303D01*
X-12642Y307055D01*
X-12483Y309947D01*
X-13078Y312782D01*
X-14386Y315366D01*
X-16319Y317523D01*
X-18744Y319107D01*
X-21497Y320009D01*
X-24388Y320167D01*
X-27223Y319572D01*
X-29807Y318264D01*
X-31964Y316331D01*
X-33548Y313906D01*
X-34450Y311154D01*
X-34609Y308262D01*
X-34014Y305427D01*
X-32742Y302915D01*
X-32966Y302144D01*
X-33189Y301645D01*
X-36078D01*
X-51691Y317258D01*
X-53179Y318253D01*
X-54935Y318602D01*
X-168078D01*
X-169834Y318253D01*
X-171322Y317258D01*
X-246502Y242078D01*
X-385064D01*
X-386820Y241729D01*
X-388308Y240734D01*
X-407184Y221858D01*
X-408179Y220370D01*
X-408528Y218614D01*
Y200463D01*
X-409646Y199606D01*
X-410928Y197934D01*
X-411734Y195988D01*
X-412009Y193900D01*
X-411734Y191812D01*
X-410928Y189865D01*
X-409646Y188194D01*
X-409633Y188185D01*
Y187457D01*
X-409796Y186709D01*
X-410503Y185788D01*
X-412009D01*
X-413765Y185439D01*
X-415253Y184444D01*
X-421764Y177933D01*
X-422759Y176445D01*
X-423108Y174689D01*
Y119330D01*
X-422759Y117574D01*
X-421764Y116086D01*
X-411825Y106146D01*
X-412009Y104750D01*
X-411734Y102662D01*
X-410928Y100715D01*
X-409646Y99044D01*
X-407975Y97762D01*
X-406282Y97061D01*
X-405765Y95783D01*
X-416224Y85323D01*
X-417219Y83835D01*
X-417568Y82079D01*
Y-93660D01*
X-417219Y-95416D01*
X-416224Y-96904D01*
X-411825Y-101304D01*
X-411962Y-102339D01*
X-416248Y-106625D01*
X-417243Y-108114D01*
X-417592Y-109870D01*
Y-134112D01*
X-417243Y-135868D01*
X-416248Y-137356D01*
X-411064Y-142541D01*
X-409576Y-143535D01*
X-407820Y-143884D01*
X-373574D01*
X-369520Y-147939D01*
X-370006Y-149112D01*
X-397377D01*
X-398234Y-147994D01*
X-399906Y-146712D01*
X-401852Y-145906D01*
X-403940Y-145631D01*
X-406028Y-145906D01*
X-407975Y-146712D01*
X-409646Y-147994D01*
X-410928Y-149665D01*
X-411734Y-151612D01*
X-412009Y-153700D01*
X-411734Y-155788D01*
X-410928Y-157735D01*
X-409646Y-159406D01*
X-407975Y-160688D01*
X-406028Y-161494D01*
X-403940Y-161769D01*
X-401852Y-161494D01*
X-399906Y-160688D01*
X-398234Y-159406D01*
X-397377Y-158288D01*
X-367376D01*
X-323104Y-202561D01*
Y-218227D01*
X-324222Y-219084D01*
X-325504Y-220756D01*
X-326310Y-222702D01*
X-326585Y-224790D01*
X-326310Y-226878D01*
X-325504Y-228825D01*
X-324222Y-230496D01*
X-322551Y-231778D01*
X-320604Y-232584D01*
X-318516Y-232859D01*
X-316428Y-232584D01*
X-314482Y-231778D01*
X-312810Y-230496D01*
X-311528Y-228825D01*
X-310722Y-226878D01*
X-310447Y-224790D01*
X-310722Y-222702D01*
X-311528Y-220756D01*
X-312810Y-219084D01*
X-313928Y-218227D01*
Y-205190D01*
X-312754Y-204704D01*
X-255730Y-261728D01*
X-254242Y-262722D01*
X-252486Y-263071D01*
X-229319D01*
X-227665Y-264726D01*
X-228294Y-265892D01*
X-228600Y-265852D01*
Y-272020D01*
X-222432D01*
X-222472Y-271714D01*
X-221306Y-271084D01*
X-219726Y-272665D01*
Y-307848D01*
X-219377Y-309604D01*
X-218382Y-311092D01*
X-212540Y-316934D01*
X-211052Y-317929D01*
X-209296Y-318278D01*
X-33453D01*
X-33194Y-320246D01*
X-32388Y-322192D01*
X-31990Y-322711D01*
X-32552Y-323850D01*
X-402082Y-323850D01*
X-404383Y-323850D01*
X-408898Y-322952D01*
X-413151Y-321191D01*
X-416978Y-318633D01*
X-420233Y-315378D01*
X-422791Y-311551D01*
X-424552Y-307298D01*
X-425450Y-302783D01*
Y-300482D01*
X-425450Y300990D01*
X-425298Y303195D01*
X-424212Y307479D01*
X-422380Y311502D01*
X-419861Y315135D01*
X-416735Y318260D01*
X-413103Y320779D01*
X-409080Y322611D01*
X-404795Y323697D01*
X-402590Y323849D01*
X-402590Y323850D01*
X402590Y323850D01*
X404842D01*
X409258Y322971D01*
D02*
G37*
G36*
X400369Y166300D02*
X399974Y166680D01*
X399574Y167020D01*
X399168Y167320D01*
X398756Y167580D01*
X398339Y167800D01*
X397917Y167980D01*
X397488Y168120D01*
X397055Y168220D01*
X396615Y168280D01*
X396170Y168300D01*
Y171300D01*
X396615Y171320D01*
X397055Y171380D01*
X397488Y171480D01*
X397917Y171620D01*
X398339Y171800D01*
X398756Y172020D01*
X399168Y172280D01*
X399574Y172580D01*
X399974Y172920D01*
X400369Y173300D01*
Y166300D01*
D02*
G37*
G36*
X233385Y-276448D02*
X233738Y-276716D01*
X234116Y-276952D01*
X234518Y-277156D01*
X234944Y-277327D01*
X235394Y-277467D01*
X235869Y-277574D01*
X236369Y-277649D01*
X236892Y-277692D01*
X237440Y-277702D01*
X232490Y-282652D01*
X232480Y-282104D01*
X232437Y-281581D01*
X232362Y-281081D01*
X232255Y-280606D01*
X232115Y-280156D01*
X231944Y-279730D01*
X231740Y-279328D01*
X231504Y-278951D01*
X231236Y-278597D01*
X230935Y-278269D01*
X233057Y-276147D01*
X233385Y-276448D01*
D02*
G37*
G36*
X-398930Y155152D02*
X-398887Y154628D01*
X-398812Y154129D01*
X-398705Y153654D01*
X-398565Y153204D01*
X-398394Y152778D01*
X-398190Y152376D01*
X-397954Y151999D01*
X-397686Y151645D01*
X-397385Y151317D01*
X-399507Y149195D01*
X-399835Y149496D01*
X-400188Y149764D01*
X-400566Y150000D01*
X-400968Y150204D01*
X-401394Y150375D01*
X-401844Y150515D01*
X-402319Y150622D01*
X-402818Y150697D01*
X-403342Y150740D01*
X-403890Y150750D01*
X-398940Y155700D01*
X-398930Y155152D01*
D02*
G37*
G36*
X79501Y-276490D02*
X78610Y-277652D01*
X77804Y-279598D01*
X77529Y-281686D01*
X77804Y-283774D01*
X78610Y-285721D01*
X79892Y-287392D01*
X81564Y-288674D01*
X83510Y-289480D01*
X85598Y-289755D01*
X87686Y-289480D01*
X89633Y-288674D01*
X91304Y-287392D01*
X92586Y-285721D01*
X93392Y-283774D01*
X93528Y-282745D01*
X94868Y-282290D01*
X105927Y-293349D01*
X105441Y-294522D01*
X-19202D01*
X-20958Y-294871D01*
X-22446Y-295866D01*
X-29434Y-302853D01*
X-30428Y-304342D01*
X-30777Y-306097D01*
Y-309102D01*
X-68061D01*
Y-261997D01*
X65008D01*
X79501Y-276490D01*
D02*
G37*
G36*
X255763Y-315158D02*
X255368Y-314778D01*
X254968Y-314438D01*
X254562Y-314138D01*
X254150Y-313878D01*
X253733Y-313658D01*
X253311Y-313478D01*
X252882Y-313338D01*
X252449Y-313238D01*
X252009Y-313178D01*
X251564Y-313158D01*
Y-310158D01*
X252009Y-310138D01*
X252449Y-310078D01*
X252882Y-309978D01*
X253311Y-309838D01*
X253733Y-309658D01*
X254150Y-309438D01*
X254562Y-309178D01*
X254968Y-308878D01*
X255368Y-308538D01*
X255763Y-308158D01*
Y-315158D01*
D02*
G37*
G36*
X89369Y-310824D02*
X89769Y-311164D01*
X90175Y-311464D01*
X90587Y-311724D01*
X91004Y-311944D01*
X91426Y-312124D01*
X91855Y-312264D01*
X92288Y-312364D01*
X92728Y-312424D01*
X93173Y-312444D01*
Y-315444D01*
X92728Y-315464D01*
X92288Y-315524D01*
X91855Y-315624D01*
X91426Y-315764D01*
X91004Y-315944D01*
X90587Y-316164D01*
X90175Y-316424D01*
X89769Y-316724D01*
X89369Y-317064D01*
X88974Y-317444D01*
Y-310444D01*
X89369Y-310824D01*
D02*
G37*
G36*
X26902Y-311084D02*
X26985Y-312227D01*
X27016Y-312358D01*
X27051Y-312457D01*
X27092Y-312523D01*
X27137Y-312557D01*
X23663D01*
X23708Y-312523D01*
X23749Y-312457D01*
X23784Y-312358D01*
X23815Y-312227D01*
X23841Y-312064D01*
X23879Y-311639D01*
X23898Y-311084D01*
X23900Y-310757D01*
X26900D01*
X26902Y-311084D01*
D02*
G37*
G36*
X-24668Y-310666D02*
X-24602Y-311107D01*
X-24493Y-311533D01*
X-24340Y-311943D01*
X-24144Y-312338D01*
X-23904Y-312717D01*
X-23620Y-313081D01*
X-23293Y-313430D01*
X-22922Y-313762D01*
X-22508Y-314079D01*
X-28658Y-315063D01*
X-30288Y-317106D01*
X-30273Y-316945D01*
X-30293Y-316768D01*
X-30348Y-316574D01*
X-30438Y-316364D01*
X-30564Y-316136D01*
X-30724Y-315893D01*
X-30920Y-315632D01*
X-31417Y-315061D01*
X-31718Y-314751D01*
X-29597Y-312629D01*
X-29334Y-312881D01*
X-28845Y-313283D01*
X-28619Y-313433D01*
X-28411Y-313546D01*
X-28312Y-313346D01*
X-28122Y-312897D01*
X-27966Y-312452D01*
X-27845Y-312011D01*
X-27759Y-311574D01*
X-27707Y-311141D01*
X-27689Y-310713D01*
X-24689Y-310209D01*
X-24668Y-310666D01*
D02*
G37*
G36*
X120462Y-317512D02*
X120092Y-317119D01*
X119712Y-316768D01*
X119324Y-316457D01*
X118928Y-316189D01*
X118522Y-315961D01*
X118108Y-315775D01*
X117685Y-315630D01*
X117253Y-315527D01*
X116813Y-315465D01*
X116364Y-315444D01*
X116524Y-312444D01*
X116964Y-312425D01*
X117402Y-312367D01*
X117837Y-312271D01*
X118270Y-312136D01*
X118701Y-311963D01*
X119129Y-311752D01*
X119555Y-311502D01*
X119978Y-311213D01*
X120399Y-310886D01*
X120818Y-310521D01*
X120462Y-317512D01*
D02*
G37*
G36*
X405463Y-195723D02*
X405531Y-196163D01*
X405644Y-196568D01*
X405803Y-196940D01*
X406008Y-197277D01*
X406258Y-197580D01*
X406553Y-197849D01*
X406894Y-198084D01*
X407280Y-198285D01*
X407711Y-198451D01*
X401464Y-201445D01*
X401649Y-200931D01*
X402089Y-199459D01*
X402196Y-198993D01*
X402352Y-198097D01*
X402401Y-197667D01*
X402440Y-196844D01*
X405440Y-195250D01*
X405463Y-195723D01*
D02*
G37*
G36*
X24797Y-304872D02*
X22156Y-307513D01*
X21161Y-309002D01*
X20829Y-310669D01*
X19694Y-311540D01*
X18412Y-313211D01*
X17606Y-315158D01*
X17331Y-317246D01*
X17606Y-319334D01*
X18412Y-321281D01*
X19409Y-322580D01*
X18904Y-323850D01*
X6496D01*
X5991Y-322580D01*
X6988Y-321281D01*
X7794Y-319334D01*
X8069Y-317246D01*
X7794Y-315158D01*
X6988Y-313211D01*
X5706Y-311540D01*
X4035Y-310258D01*
X2088Y-309452D01*
X0Y-309177D01*
X-2088Y-309452D01*
X-4035Y-310258D01*
X-5706Y-311540D01*
X-6988Y-313211D01*
X-7794Y-315158D01*
X-8069Y-317246D01*
X-7794Y-319334D01*
X-6988Y-321281D01*
X-5991Y-322580D01*
X-6496Y-323850D01*
X-18248D01*
X-18810Y-322711D01*
X-18412Y-322192D01*
X-17606Y-320246D01*
X-17331Y-318158D01*
X-17606Y-316070D01*
X-18412Y-314123D01*
X-19694Y-312452D01*
X-21365Y-311170D01*
X-21601Y-311072D01*
Y-307998D01*
X-17301Y-303698D01*
X24311D01*
X24797Y-304872D01*
D02*
G37*
G36*
X-402420Y-69975D02*
X-402360Y-70415D01*
X-402260Y-70848D01*
X-402120Y-71277D01*
X-401940Y-71700D01*
X-401720Y-72116D01*
X-401460Y-72528D01*
X-401160Y-72934D01*
X-400820Y-73334D01*
X-400440Y-73729D01*
X-407440D01*
X-407060Y-73334D01*
X-406720Y-72934D01*
X-406420Y-72528D01*
X-406160Y-72116D01*
X-405940Y-71700D01*
X-405760Y-71277D01*
X-405620Y-70848D01*
X-405520Y-70415D01*
X-405460Y-69975D01*
X-405440Y-69530D01*
X-402440D01*
X-402420Y-69975D01*
D02*
G37*
G36*
X82001Y-247746D02*
X82354Y-248014D01*
X82732Y-248250D01*
X83134Y-248454D01*
X83560Y-248626D01*
X84010Y-248765D01*
X84485Y-248872D01*
X84985Y-248947D01*
X85508Y-248990D01*
X86056Y-249000D01*
X81106Y-253950D01*
X81096Y-253402D01*
X81053Y-252878D01*
X80978Y-252379D01*
X80871Y-251904D01*
X80731Y-251454D01*
X80560Y-251028D01*
X80356Y-250626D01*
X80120Y-250249D01*
X79852Y-249895D01*
X79551Y-249567D01*
X81673Y-247445D01*
X82001Y-247746D01*
D02*
G37*
G36*
X-399974Y-125180D02*
X-399574Y-125520D01*
X-399168Y-125820D01*
X-398756Y-126080D01*
X-398339Y-126300D01*
X-397917Y-126480D01*
X-397488Y-126620D01*
X-397055Y-126720D01*
X-396615Y-126780D01*
X-396170Y-126800D01*
Y-129800D01*
X-396615Y-129820D01*
X-397055Y-129880D01*
X-397488Y-129980D01*
X-397917Y-130120D01*
X-398339Y-130300D01*
X-398756Y-130520D01*
X-399168Y-130780D01*
X-399574Y-131080D01*
X-399974Y-131420D01*
X-400369Y-131800D01*
Y-124800D01*
X-399974Y-125180D01*
D02*
G37*
G36*
X339809Y-272963D02*
X339929Y-274727D01*
X339984Y-275045D01*
X340049Y-275315D01*
X340124Y-275535D01*
X340200Y-275689D01*
X340485D01*
X340355Y-275726D01*
X340280Y-275798D01*
X340304Y-275829D01*
X340248D01*
X340239Y-275837D01*
X340137Y-276023D01*
X340049Y-276283D01*
X339974Y-276617D01*
X339913Y-277025D01*
X339831Y-278064D01*
X339804Y-279400D01*
X333804D01*
X333797Y-278695D01*
X333634Y-276617D01*
X333559Y-276283D01*
X333471Y-276023D01*
X333368Y-275837D01*
X333360Y-275829D01*
X333304D01*
X333328Y-275798D01*
X333253Y-275726D01*
X333124Y-275689D01*
X333408D01*
X333484Y-275535D01*
X333559Y-275315D01*
X333624Y-275045D01*
X333679Y-274727D01*
X333759Y-273943D01*
X333799Y-272963D01*
X333804Y-272400D01*
X339804D01*
X339809Y-272963D01*
D02*
G37*
G36*
X-200163Y-309102D02*
X-207395D01*
X-210550Y-305947D01*
Y-270764D01*
X-210772Y-269647D01*
X-210019Y-268406D01*
X-209851Y-268291D01*
X-208732Y-268144D01*
X-206786Y-267338D01*
X-205114Y-266056D01*
X-203832Y-264384D01*
X-203026Y-262438D01*
X-202968Y-261997D01*
X-200163D01*
Y-309102D01*
D02*
G37*
G36*
X-316996Y-217465D02*
X-316936Y-217905D01*
X-316836Y-218338D01*
X-316696Y-218767D01*
X-316516Y-219189D01*
X-316296Y-219606D01*
X-316036Y-220018D01*
X-315736Y-220424D01*
X-315396Y-220824D01*
X-315016Y-221219D01*
X-322016D01*
X-321636Y-220824D01*
X-321296Y-220424D01*
X-320996Y-220018D01*
X-320736Y-219606D01*
X-320516Y-219189D01*
X-320336Y-218767D01*
X-320196Y-218338D01*
X-320096Y-217905D01*
X-320036Y-217465D01*
X-320016Y-217020D01*
X-317016D01*
X-316996Y-217465D01*
D02*
G37*
G36*
X299153Y-245852D02*
X299210Y-246303D01*
X299305Y-246743D01*
X299437Y-247171D01*
X299608Y-247586D01*
X299816Y-247990D01*
X300062Y-248382D01*
X300346Y-248762D01*
X300668Y-249130D01*
X301028Y-249487D01*
X294240D01*
X294600Y-249130D01*
X294922Y-248762D01*
X295206Y-248382D01*
X295452Y-247990D01*
X295660Y-247586D01*
X295831Y-247171D01*
X295963Y-246743D01*
X296058Y-246303D01*
X296115Y-245852D01*
X296134Y-245388D01*
X299134D01*
X299153Y-245852D01*
D02*
G37*
G36*
X406789Y101991D02*
X406372Y101679D01*
X406000Y101351D01*
X405672Y101007D01*
X405387Y100646D01*
X405146Y100270D01*
X404949Y99877D01*
X404795Y99468D01*
X404686Y99043D01*
X404620Y98601D01*
X404598Y98144D01*
X401598Y98682D01*
X401581Y99110D01*
X401530Y99542D01*
X401444Y99979D01*
X401325Y100420D01*
X401171Y100866D01*
X400983Y101318D01*
X400760Y101773D01*
X400504Y102234D01*
X399889Y103170D01*
X406789Y101991D01*
D02*
G37*
G36*
X408950Y-76548D02*
X408993Y-77071D01*
X409068Y-77571D01*
X409175Y-78046D01*
X409314Y-78496D01*
X409486Y-78922D01*
X409690Y-79324D01*
X409926Y-79701D01*
X410194Y-80055D01*
X410495Y-80383D01*
X408373Y-82505D01*
X408045Y-82204D01*
X407691Y-81936D01*
X407314Y-81700D01*
X406912Y-81496D01*
X406486Y-81325D01*
X406035Y-81185D01*
X405561Y-81078D01*
X405061Y-81003D01*
X404538Y-80960D01*
X403990Y-80950D01*
X408940Y-76000D01*
X408950Y-76548D01*
D02*
G37*
G36*
X288004Y-257124D02*
X287664Y-257524D01*
X287364Y-257930D01*
X287104Y-258342D01*
X286884Y-258759D01*
X286704Y-259181D01*
X286564Y-259610D01*
X286464Y-260043D01*
X286404Y-260483D01*
X286384Y-260928D01*
X283384D01*
X283364Y-260483D01*
X283304Y-260043D01*
X283204Y-259610D01*
X283064Y-259181D01*
X282884Y-258759D01*
X282664Y-258342D01*
X282404Y-257930D01*
X282104Y-257524D01*
X281764Y-257124D01*
X281384Y-256729D01*
X288384D01*
X288004Y-257124D01*
D02*
G37*
G36*
X302644Y-253756D02*
X302687Y-254279D01*
X302762Y-254779D01*
X302869Y-255254D01*
X303008Y-255704D01*
X303180Y-256130D01*
X303384Y-256532D01*
X303620Y-256910D01*
X303888Y-257263D01*
X304189Y-257591D01*
X302067Y-259713D01*
X301739Y-259412D01*
X301385Y-259144D01*
X301008Y-258908D01*
X300606Y-258704D01*
X300180Y-258533D01*
X299730Y-258393D01*
X299255Y-258286D01*
X298755Y-258211D01*
X298232Y-258168D01*
X297684Y-258158D01*
X302634Y-253208D01*
X302644Y-253756D01*
D02*
G37*
%LPC*%
G36*
X93245Y-234453D02*
X87077D01*
Y-240621D01*
X87776Y-240529D01*
X89610Y-239769D01*
X91185Y-238560D01*
X92394Y-236985D01*
X93153Y-235151D01*
X93245Y-234453D01*
D02*
G37*
G36*
X-316992Y-240212D02*
Y-246380D01*
X-310824D01*
X-310916Y-245682D01*
X-311676Y-243848D01*
X-312884Y-242272D01*
X-314459Y-241064D01*
X-316294Y-240304D01*
X-316992Y-240212D01*
D02*
G37*
G36*
X-319532D02*
X-320230Y-240304D01*
X-322065Y-241064D01*
X-323640Y-242272D01*
X-324848Y-243848D01*
X-325608Y-245682D01*
X-325700Y-246380D01*
X-319532D01*
Y-240212D01*
D02*
G37*
G36*
X415108Y-245872D02*
X408940D01*
Y-252040D01*
X409638Y-251948D01*
X411473Y-251188D01*
X413048Y-249980D01*
X414256Y-248405D01*
X415016Y-246570D01*
X415108Y-245872D01*
D02*
G37*
G36*
X84537Y-234453D02*
X78369D01*
X78461Y-235151D01*
X79221Y-236985D01*
X80430Y-238560D01*
X82005Y-239769D01*
X83839Y-240529D01*
X84537Y-240621D01*
Y-234453D01*
D02*
G37*
G36*
X408940Y-237164D02*
Y-243332D01*
X415108D01*
X415016Y-242634D01*
X414256Y-240800D01*
X413048Y-239224D01*
X411473Y-238016D01*
X409638Y-237256D01*
X408940Y-237164D01*
D02*
G37*
G36*
X406400D02*
X405702Y-237256D01*
X403867Y-238016D01*
X402292Y-239224D01*
X401084Y-240800D01*
X400324Y-242634D01*
X400232Y-243332D01*
X406400D01*
Y-237164D01*
D02*
G37*
G36*
X-53415Y-226964D02*
X-54113Y-227056D01*
X-55947Y-227815D01*
X-57523Y-229024D01*
X-58731Y-230599D01*
X-59491Y-232433D01*
X-59583Y-233132D01*
X-53415D01*
Y-226964D01*
D02*
G37*
G36*
X-258500Y-211836D02*
X-264668D01*
Y-218004D01*
X-263970Y-217912D01*
X-262136Y-217152D01*
X-260560Y-215944D01*
X-259352Y-214368D01*
X-258592Y-212534D01*
X-258500Y-211836D01*
D02*
G37*
G36*
X-342900Y-205668D02*
X-343598Y-205760D01*
X-345433Y-206520D01*
X-347008Y-207728D01*
X-348216Y-209303D01*
X-348976Y-211138D01*
X-349068Y-211836D01*
X-342900D01*
Y-205668D01*
D02*
G37*
G36*
Y-214376D02*
X-349068D01*
X-348976Y-215074D01*
X-348216Y-216908D01*
X-347008Y-218484D01*
X-345433Y-219692D01*
X-343598Y-220452D01*
X-342900Y-220544D01*
Y-214376D01*
D02*
G37*
G36*
X-334192D02*
X-340360D01*
Y-220544D01*
X-339662Y-220452D01*
X-337827Y-219692D01*
X-336252Y-218484D01*
X-335044Y-216908D01*
X-334284Y-215074D01*
X-334192Y-214376D01*
D02*
G37*
G36*
X-340360Y-205668D02*
Y-211836D01*
X-334192D01*
X-334284Y-211138D01*
X-335044Y-209303D01*
X-336252Y-207728D01*
X-337827Y-206520D01*
X-339662Y-205760D01*
X-340360Y-205668D01*
D02*
G37*
G36*
X-201879Y-188564D02*
X-205142Y-188994D01*
X-208183Y-190253D01*
X-210794Y-192257D01*
X-212798Y-194868D01*
X-214057Y-197909D01*
X-214487Y-201172D01*
X-214057Y-204435D01*
X-213060Y-206843D01*
X-214032Y-207815D01*
X-215940Y-207025D01*
X-219203Y-206595D01*
X-222466Y-207025D01*
X-225507Y-208284D01*
X-228118Y-210288D01*
X-230122Y-212899D01*
X-231381Y-215940D01*
X-231811Y-219203D01*
X-231381Y-222466D01*
X-230122Y-225507D01*
X-228118Y-228118D01*
X-225507Y-230122D01*
X-222466Y-231381D01*
X-219203Y-231811D01*
X-215940Y-231381D01*
X-212899Y-230122D01*
X-210288Y-228118D01*
X-208284Y-225507D01*
X-207025Y-222466D01*
X-206595Y-219203D01*
X-207025Y-215940D01*
X-207815Y-214032D01*
X-206843Y-213060D01*
X-204435Y-214057D01*
X-201172Y-214487D01*
X-197909Y-214057D01*
X-194868Y-212798D01*
X-192257Y-210794D01*
X-190253Y-208183D01*
X-188994Y-205142D01*
X-188564Y-201879D01*
X-188994Y-198616D01*
X-190253Y-195575D01*
X-192257Y-192964D01*
X-192964Y-192257D01*
X-195575Y-190253D01*
X-198616Y-188994D01*
X-201879Y-188564D01*
D02*
G37*
G36*
X311Y208636D02*
X-6501D01*
X-20095Y207745D01*
X-33602Y205966D01*
X-46964Y203309D01*
X-60124Y199782D01*
X-73025Y195403D01*
X-85611Y190190D01*
X-97830Y184164D01*
X-109629Y177352D01*
X-120956Y169783D01*
X-131765Y161490D01*
X-142008Y152507D01*
X-151641Y142873D01*
X-160624Y132630D01*
X-168917Y121822D01*
X-176486Y110494D01*
X-183298Y98696D01*
X-189324Y86477D01*
X-194537Y73890D01*
X-198916Y60989D01*
X-202442Y47830D01*
X-205100Y34468D01*
X-206879Y20961D01*
X-207770Y7366D01*
X-207769Y554D01*
X-207770D01*
X-207844Y-6313D01*
X-207077Y-20026D01*
X-205398Y-33658D01*
X-202815Y-47148D01*
X-199338Y-60435D01*
X-194984Y-73462D01*
X-189771Y-86169D01*
X-183723Y-98500D01*
X-176866Y-110401D01*
X-169232Y-121819D01*
X-160854Y-132703D01*
X-151769Y-143004D01*
X-142018Y-152677D01*
X-131644Y-161678D01*
X-120694Y-169968D01*
X-109215Y-177510D01*
X-97259Y-184271D01*
X-84879Y-190219D01*
X-72130Y-195330D01*
X-59069Y-199579D01*
X-45754Y-202949D01*
X-32244Y-205424D01*
X-18599Y-206993D01*
X-6118Y-207590D01*
Y-214027D01*
X-6586Y-214638D01*
X-7346Y-216472D01*
X-7438Y-217170D01*
X7438D01*
X7346Y-216472D01*
X6586Y-214638D01*
X6118Y-214027D01*
Y-207519D01*
X8715D01*
X22143Y-206639D01*
X35484Y-204883D01*
X48683Y-202257D01*
X61681Y-198774D01*
X74424Y-194449D01*
X86856Y-189299D01*
X98926Y-183347D01*
X110580Y-176619D01*
X121769Y-169142D01*
X132445Y-160951D01*
X142562Y-152078D01*
X152078Y-142562D01*
X160951Y-132445D01*
X169142Y-121769D01*
X176619Y-110580D01*
X183347Y-98926D01*
X189299Y-86856D01*
X194449Y-74424D01*
X198774Y-61681D01*
X202257Y-48683D01*
X204883Y-35484D01*
X206639Y-22143D01*
X207519Y-8715D01*
X207519Y-1986D01*
X207502Y4833D01*
X206588Y18442D01*
X204798Y31963D01*
X202140Y45341D01*
X198624Y58519D01*
X194265Y71443D01*
X189081Y84058D01*
X183094Y96313D01*
X176329Y108156D01*
X168814Y119538D01*
X160580Y130412D01*
X151662Y140732D01*
X142097Y150454D01*
X131925Y159540D01*
X121187Y167950D01*
X109929Y175650D01*
X98198Y182608D01*
X86043Y188794D01*
X73513Y194183D01*
X60663Y198753D01*
X47544Y202484D01*
X34211Y205360D01*
X20721Y207371D01*
X7129Y208507D01*
X311Y208636D01*
D02*
G37*
G36*
X-267208Y-203128D02*
X-267906Y-203220D01*
X-269741Y-203980D01*
X-271316Y-205188D01*
X-272524Y-206763D01*
X-273284Y-208598D01*
X-273376Y-209296D01*
X-267208D01*
Y-203128D01*
D02*
G37*
G36*
X-264668D02*
Y-209296D01*
X-258500D01*
X-258592Y-208598D01*
X-259352Y-206763D01*
X-260560Y-205188D01*
X-262136Y-203980D01*
X-263970Y-203220D01*
X-264668Y-203128D01*
D02*
G37*
G36*
X320040Y-218112D02*
Y-224280D01*
X326208D01*
X326116Y-223582D01*
X325356Y-221747D01*
X324148Y-220172D01*
X322573Y-218964D01*
X320738Y-218204D01*
X320040Y-218112D01*
D02*
G37*
G36*
X326208Y-226820D02*
X320040D01*
Y-232988D01*
X320738Y-232896D01*
X322573Y-232136D01*
X324148Y-230928D01*
X325356Y-229352D01*
X326116Y-227518D01*
X326208Y-226820D01*
D02*
G37*
G36*
X84537Y-225745D02*
X83839Y-225837D01*
X82005Y-226597D01*
X80430Y-227805D01*
X79221Y-229380D01*
X78461Y-231214D01*
X78369Y-231913D01*
X84537D01*
Y-225745D01*
D02*
G37*
G36*
X-50875Y-226964D02*
Y-233132D01*
X-44707D01*
X-44799Y-232433D01*
X-45559Y-230599D01*
X-46767Y-229024D01*
X-48342Y-227815D01*
X-50177Y-227056D01*
X-50875Y-226964D01*
D02*
G37*
G36*
X317500Y-226820D02*
X311332D01*
X311424Y-227518D01*
X312184Y-229352D01*
X313392Y-230928D01*
X314967Y-232136D01*
X316802Y-232896D01*
X317500Y-232988D01*
Y-226820D01*
D02*
G37*
G36*
X87077Y-225745D02*
Y-231913D01*
X93245D01*
X93153Y-231214D01*
X92394Y-229380D01*
X91185Y-227805D01*
X89610Y-226597D01*
X87776Y-225837D01*
X87077Y-225745D01*
D02*
G37*
G36*
X7438Y-219710D02*
X1270D01*
Y-225878D01*
X1968Y-225786D01*
X3803Y-225026D01*
X5378Y-223818D01*
X6586Y-222243D01*
X7346Y-220408D01*
X7438Y-219710D01*
D02*
G37*
G36*
X317500Y-218112D02*
X316802Y-218204D01*
X314967Y-218964D01*
X313392Y-220172D01*
X312184Y-221747D01*
X311424Y-223582D01*
X311332Y-224280D01*
X317500D01*
Y-218112D01*
D02*
G37*
G36*
X202083Y-188339D02*
X198821Y-188772D01*
X195781Y-190035D01*
X193172Y-192041D01*
X192466Y-192749D01*
X190465Y-195363D01*
X189209Y-198405D01*
X188783Y-201668D01*
X189216Y-204931D01*
X190479Y-207971D01*
X192486Y-210579D01*
X195099Y-212580D01*
X198141Y-213836D01*
X201405Y-214262D01*
X204668Y-213829D01*
X207075Y-212829D01*
X208048Y-213800D01*
X207260Y-215709D01*
X206833Y-218973D01*
X207267Y-222235D01*
X208530Y-225275D01*
X210536Y-227884D01*
X213150Y-229884D01*
X216192Y-231141D01*
X219455Y-231567D01*
X222718Y-231133D01*
X225757Y-229870D01*
X228366Y-227864D01*
X230367Y-225251D01*
X231623Y-222208D01*
X232049Y-218945D01*
X231616Y-215682D01*
X230353Y-212643D01*
X228347Y-210034D01*
X225733Y-208033D01*
X222691Y-206777D01*
X219428Y-206351D01*
X216165Y-206784D01*
X214258Y-207577D01*
X213284Y-206606D01*
X214279Y-204196D01*
X214705Y-200933D01*
X214272Y-197670D01*
X213009Y-194631D01*
X211003Y-192022D01*
X208389Y-190021D01*
X205347Y-188765D01*
X202083Y-188339D01*
D02*
G37*
G36*
X-1270Y-219710D02*
X-7438D01*
X-7346Y-220408D01*
X-6586Y-222243D01*
X-5378Y-223818D01*
X-3803Y-225026D01*
X-1968Y-225786D01*
X-1270Y-225878D01*
Y-219710D01*
D02*
G37*
G36*
X406400Y-245872D02*
X400232D01*
X400324Y-246570D01*
X401084Y-248405D01*
X402292Y-249980D01*
X403867Y-251188D01*
X405702Y-251948D01*
X406400Y-252040D01*
Y-245872D01*
D02*
G37*
G36*
X-340360Y-296602D02*
Y-302770D01*
X-334192D01*
X-334284Y-302072D01*
X-335044Y-300238D01*
X-336252Y-298662D01*
X-337827Y-297454D01*
X-339662Y-296694D01*
X-340360Y-296602D01*
D02*
G37*
G36*
X-322326Y-296600D02*
X-323024Y-296692D01*
X-324859Y-297452D01*
X-326434Y-298660D01*
X-327642Y-300236D01*
X-328402Y-302070D01*
X-328494Y-302768D01*
X-322326D01*
Y-296600D01*
D02*
G37*
G36*
X-247070Y-304546D02*
X-253238D01*
Y-310714D01*
X-252540Y-310622D01*
X-250706Y-309862D01*
X-249130Y-308654D01*
X-247922Y-307078D01*
X-247162Y-305244D01*
X-247070Y-304546D01*
D02*
G37*
G36*
X-342900Y-296602D02*
X-343598Y-296694D01*
X-345433Y-297454D01*
X-347008Y-298662D01*
X-348216Y-300238D01*
X-348976Y-302072D01*
X-349068Y-302770D01*
X-342900D01*
Y-296602D01*
D02*
G37*
G36*
X-319786Y-296600D02*
Y-302768D01*
X-313618D01*
X-313710Y-302070D01*
X-314470Y-300236D01*
X-315678Y-298660D01*
X-317253Y-297452D01*
X-319088Y-296692D01*
X-319786Y-296600D01*
D02*
G37*
G36*
X-255778Y-295838D02*
X-256476Y-295930D01*
X-258311Y-296690D01*
X-259886Y-297898D01*
X-261094Y-299473D01*
X-261854Y-301308D01*
X-261946Y-302006D01*
X-255778D01*
Y-295838D01*
D02*
G37*
G36*
X-253238D02*
Y-302006D01*
X-247070D01*
X-247162Y-301308D01*
X-247922Y-299473D01*
X-249130Y-297898D01*
X-250706Y-296690D01*
X-252540Y-295930D01*
X-253238Y-295838D01*
D02*
G37*
G36*
X-255778Y-304546D02*
X-261946D01*
X-261854Y-305244D01*
X-261094Y-307078D01*
X-259886Y-308654D01*
X-258311Y-309862D01*
X-256476Y-310622D01*
X-255778Y-310714D01*
Y-304546D01*
D02*
G37*
G36*
X-375350Y-252648D02*
X-399350D01*
X-403467Y-253054D01*
X-407425Y-254255D01*
X-411073Y-256205D01*
X-414271Y-258829D01*
X-416895Y-262027D01*
X-418845Y-265675D01*
X-420046Y-269633D01*
X-420452Y-273750D01*
Y-297750D01*
X-420046Y-301867D01*
X-418845Y-305825D01*
X-416895Y-309473D01*
X-414271Y-312671D01*
X-411073Y-315295D01*
X-407425Y-317245D01*
X-403467Y-318446D01*
X-399350Y-318852D01*
X-375350D01*
X-371233Y-318446D01*
X-367275Y-317245D01*
X-363627Y-315295D01*
X-360429Y-312671D01*
X-357805Y-309473D01*
X-355855Y-305825D01*
X-354654Y-301867D01*
X-354248Y-297750D01*
Y-273750D01*
X-354654Y-269633D01*
X-355855Y-265675D01*
X-357805Y-262027D01*
X-360429Y-258829D01*
X-363627Y-256205D01*
X-367275Y-254255D01*
X-371233Y-253054D01*
X-375350Y-252648D01*
D02*
G37*
G36*
X-292608Y-295475D02*
X-293132Y-295544D01*
X-303608D01*
Y-311544D01*
X-293132D01*
X-292608Y-311613D01*
X-292084Y-311544D01*
X-281608D01*
Y-295544D01*
X-292084D01*
X-292608Y-295475D01*
D02*
G37*
G36*
X321818Y-313436D02*
X315650D01*
X315742Y-314134D01*
X316502Y-315968D01*
X317710Y-317544D01*
X319286Y-318752D01*
X321120Y-319512D01*
X321818Y-319604D01*
Y-313436D01*
D02*
G37*
G36*
X330526D02*
X324358D01*
Y-319604D01*
X325056Y-319512D01*
X326890Y-318752D01*
X328466Y-317544D01*
X329674Y-315968D01*
X330434Y-314134D01*
X330526Y-313436D01*
D02*
G37*
G36*
X-342900Y-305310D02*
X-349068D01*
X-348976Y-306008D01*
X-348216Y-307843D01*
X-347008Y-309418D01*
X-345433Y-310626D01*
X-343598Y-311386D01*
X-342900Y-311478D01*
Y-305310D01*
D02*
G37*
G36*
X-313618Y-305308D02*
X-319786D01*
Y-311476D01*
X-319088Y-311384D01*
X-317253Y-310624D01*
X-315678Y-309416D01*
X-314470Y-307840D01*
X-313710Y-306006D01*
X-313618Y-305308D01*
D02*
G37*
G36*
X321818Y-304728D02*
X321120Y-304820D01*
X319286Y-305580D01*
X317710Y-306788D01*
X316502Y-308363D01*
X315742Y-310198D01*
X315650Y-310896D01*
X321818D01*
Y-304728D01*
D02*
G37*
G36*
X-334192Y-305310D02*
X-340360D01*
Y-311478D01*
X-339662Y-311386D01*
X-337827Y-310626D01*
X-336252Y-309418D01*
X-335044Y-307843D01*
X-334284Y-306008D01*
X-334192Y-305310D01*
D02*
G37*
G36*
X-322326Y-305308D02*
X-328494D01*
X-328402Y-306006D01*
X-327642Y-307840D01*
X-326434Y-309416D01*
X-324859Y-310624D01*
X-323024Y-311384D01*
X-322326Y-311476D01*
Y-305308D01*
D02*
G37*
G36*
X181610Y-267208D02*
X175442D01*
X175534Y-267906D01*
X176294Y-269741D01*
X177502Y-271316D01*
X179077Y-272524D01*
X180912Y-273284D01*
X181610Y-273376D01*
Y-267208D01*
D02*
G37*
G36*
X-231140Y-265852D02*
X-231838Y-265944D01*
X-233673Y-266704D01*
X-235248Y-267912D01*
X-236456Y-269487D01*
X-237216Y-271322D01*
X-237308Y-272020D01*
X-231140D01*
Y-265852D01*
D02*
G37*
G36*
X143764Y-267970D02*
X137596D01*
X137688Y-268668D01*
X138448Y-270502D01*
X139656Y-272078D01*
X141231Y-273286D01*
X143066Y-274046D01*
X143764Y-274138D01*
Y-267970D01*
D02*
G37*
G36*
X152472D02*
X146304D01*
Y-274138D01*
X147002Y-274046D01*
X148836Y-273286D01*
X150412Y-272078D01*
X151620Y-270502D01*
X152380Y-268668D01*
X152472Y-267970D01*
D02*
G37*
G36*
X143764Y-259262D02*
X143066Y-259354D01*
X141231Y-260114D01*
X139656Y-261322D01*
X138448Y-262897D01*
X137688Y-264732D01*
X137596Y-265430D01*
X143764D01*
Y-259262D01*
D02*
G37*
G36*
X-319532Y-248920D02*
X-325700D01*
X-325608Y-249618D01*
X-324848Y-251453D01*
X-323640Y-253028D01*
X-322065Y-254236D01*
X-320230Y-254996D01*
X-319532Y-255088D01*
Y-248920D01*
D02*
G37*
G36*
X-310824D02*
X-316992D01*
Y-255088D01*
X-316294Y-254996D01*
X-314459Y-254236D01*
X-312884Y-253028D01*
X-311676Y-251453D01*
X-310916Y-249618D01*
X-310824Y-248920D01*
D02*
G37*
G36*
X146304Y-259262D02*
Y-265430D01*
X152472D01*
X152380Y-264732D01*
X151620Y-262897D01*
X150412Y-261322D01*
X148836Y-260114D01*
X147002Y-259354D01*
X146304Y-259262D01*
D02*
G37*
G36*
X181610Y-258500D02*
X180912Y-258592D01*
X179077Y-259352D01*
X177502Y-260560D01*
X176294Y-262136D01*
X175534Y-263970D01*
X175442Y-264668D01*
X181610D01*
Y-258500D01*
D02*
G37*
G36*
X317500Y-280670D02*
X311332D01*
X311424Y-281368D01*
X312184Y-283202D01*
X313392Y-284778D01*
X314967Y-285986D01*
X316802Y-286746D01*
X317500Y-286838D01*
Y-280670D01*
D02*
G37*
G36*
X-292610Y-265489D02*
X-293028Y-265544D01*
X-303608D01*
Y-281544D01*
X-293241D01*
X-292610Y-281627D01*
X-291979Y-281544D01*
X-281608D01*
Y-265544D01*
X-292192D01*
X-292610Y-265489D01*
D02*
G37*
G36*
X-231140Y-274560D02*
X-237308D01*
X-237216Y-275258D01*
X-236456Y-277092D01*
X-235248Y-278668D01*
X-233673Y-279876D01*
X-231838Y-280636D01*
X-231140Y-280728D01*
Y-274560D01*
D02*
G37*
G36*
X317500Y-271962D02*
X316802Y-272054D01*
X314967Y-272814D01*
X313392Y-274022D01*
X312184Y-275597D01*
X311424Y-277432D01*
X311332Y-278130D01*
X317500D01*
Y-271962D01*
D02*
G37*
G36*
X-222432Y-274560D02*
X-228600D01*
Y-280728D01*
X-227902Y-280636D01*
X-226068Y-279876D01*
X-224492Y-278668D01*
X-223284Y-277092D01*
X-222524Y-275258D01*
X-222432Y-274560D01*
D02*
G37*
G36*
X282856Y141985D02*
X279567Y141860D01*
X276423Y140888D01*
X273637Y139135D01*
X271400Y136721D01*
X269864Y133810D01*
X269133Y130601D01*
X269212Y128537D01*
X267963Y127963D01*
X266051Y129735D01*
X263140Y131271D01*
X259931Y132001D01*
X256642Y131876D01*
X253497Y130904D01*
X250712Y129151D01*
X248474Y126737D01*
X246938Y123826D01*
X246208Y120617D01*
X246333Y117328D01*
X247305Y114184D01*
X247723Y113275D01*
X249475Y110489D01*
X251889Y108252D01*
X254800Y106716D01*
X258009Y105985D01*
X261299Y106111D01*
X264443Y107083D01*
X267229Y108835D01*
X269466Y111250D01*
X271002Y114160D01*
X271732Y117370D01*
X271633Y119974D01*
X272882Y120548D01*
X274397Y119144D01*
X277308Y117608D01*
X280518Y116878D01*
X283806Y117003D01*
X286951Y117975D01*
X289737Y119728D01*
X291974Y122142D01*
X293510Y125053D01*
X294240Y128262D01*
X294115Y131551D01*
X293143Y134696D01*
X291390Y137481D01*
X288976Y139718D01*
X286066Y141255D01*
X282856Y141985D01*
D02*
G37*
G36*
X-256824Y184087D02*
X-260115Y184009D01*
X-263273Y183083D01*
X-266084Y181370D01*
X-268355Y178989D01*
X-269933Y176100D01*
X-270710Y172902D01*
X-270632Y169611D01*
X-269706Y166453D01*
X-267993Y163643D01*
X-265611Y161371D01*
X-262723Y159793D01*
X-259525Y159017D01*
X-256234Y159094D01*
X-253076Y160021D01*
X-251312Y161096D01*
X-250202Y160285D01*
X-250817Y157752D01*
X-250739Y154461D01*
X-249813Y151303D01*
X-248100Y148492D01*
X-245719Y146221D01*
X-242830Y144643D01*
X-239632Y143866D01*
X-236341Y143944D01*
X-233183Y144871D01*
X-230373Y146583D01*
X-228101Y148965D01*
X-227511Y149772D01*
X-225933Y152661D01*
X-225157Y155859D01*
X-225234Y159150D01*
X-226161Y162308D01*
X-227873Y165118D01*
X-230255Y167390D01*
X-233144Y168968D01*
X-236342Y169744D01*
X-239632Y169667D01*
X-242790Y168740D01*
X-245016Y167384D01*
X-246126Y168195D01*
X-245639Y170202D01*
X-245717Y173492D01*
X-246644Y176650D01*
X-248356Y179461D01*
X-250738Y181733D01*
X-253626Y183311D01*
X-256824Y184087D01*
D02*
G37*
G36*
X-283408Y139785D02*
X-286207Y139039D01*
X-288717Y137594D01*
X-290767Y135548D01*
X-292218Y133041D01*
X-292971Y130245D01*
X-292974Y127348D01*
X-292228Y124550D01*
X-290783Y122040D01*
X-288737Y119989D01*
X-286230Y118538D01*
X-283433Y117785D01*
X-280537Y117782D01*
X-277739Y118528D01*
X-275229Y119974D01*
X-273178Y122020D01*
X-271727Y124526D01*
X-270974Y127323D01*
X-270971Y130219D01*
X-271717Y133018D01*
X-273163Y135528D01*
X-275208Y137578D01*
X-277715Y139029D01*
X-280512Y139782D01*
X-283408Y139785D01*
D02*
G37*
G36*
X344170Y113538D02*
X343472Y113446D01*
X341637Y112686D01*
X340062Y111478D01*
X338854Y109903D01*
X338094Y108068D01*
X338002Y107370D01*
X344170D01*
Y113538D01*
D02*
G37*
G36*
X346710D02*
Y107370D01*
X352878D01*
X352786Y108068D01*
X352026Y109903D01*
X350818Y111478D01*
X349243Y112686D01*
X347408Y113446D01*
X346710Y113538D01*
D02*
G37*
G36*
X-338002Y192630D02*
X-344170D01*
Y186462D01*
X-343472Y186554D01*
X-341637Y187314D01*
X-340062Y188522D01*
X-338854Y190097D01*
X-338094Y191932D01*
X-338002Y192630D01*
D02*
G37*
G36*
X403940Y203319D02*
X401852Y203044D01*
X399906Y202238D01*
X398234Y200956D01*
X396952Y199285D01*
X396146Y197339D01*
X395871Y195250D01*
X396146Y193162D01*
X396952Y191215D01*
X398234Y189544D01*
X399906Y188262D01*
X401852Y187456D01*
X403940Y187181D01*
X406028Y187456D01*
X407975Y188262D01*
X409646Y189544D01*
X410928Y191215D01*
X411734Y193162D01*
X412009Y195250D01*
X411734Y197339D01*
X410928Y199285D01*
X409646Y200956D01*
X407975Y202238D01*
X406028Y203044D01*
X403940Y203319D01*
D02*
G37*
G36*
X-346710Y192630D02*
X-352878D01*
X-352786Y191932D01*
X-352026Y190097D01*
X-350818Y188522D01*
X-349243Y187314D01*
X-347408Y186554D01*
X-346710Y186462D01*
Y192630D01*
D02*
G37*
G36*
X258094Y183180D02*
X254862Y182559D01*
X251901Y181122D01*
X249412Y178967D01*
X247567Y176242D01*
X246489Y173132D01*
X246253Y169849D01*
X246643Y167821D01*
X245495Y167065D01*
X243337Y168526D01*
X240227Y169604D01*
X236944Y169840D01*
X233712Y169219D01*
X230751Y167782D01*
X228263Y165627D01*
X226417Y162902D01*
X225340Y159792D01*
X225104Y156509D01*
X225725Y153277D01*
X227162Y150316D01*
X227713Y149481D01*
X229867Y146993D01*
X232592Y145147D01*
X235702Y144069D01*
X238985Y143834D01*
X242217Y144455D01*
X245178Y145892D01*
X247666Y148047D01*
X249512Y150772D01*
X250590Y153882D01*
X250826Y157164D01*
X250333Y159724D01*
X251481Y160481D01*
X253191Y159322D01*
X256301Y158245D01*
X259584Y158009D01*
X262816Y158630D01*
X265777Y160067D01*
X268265Y162222D01*
X270111Y164947D01*
X271189Y168057D01*
X271425Y171339D01*
X270803Y174572D01*
X269366Y177533D01*
X267211Y180021D01*
X264486Y181867D01*
X261376Y182944D01*
X258094Y183180D01*
D02*
G37*
G36*
X-230670Y220403D02*
X-233907Y219809D01*
X-236880Y218397D01*
X-239387Y216263D01*
X-241255Y213554D01*
X-242359Y210453D01*
X-242623Y207172D01*
X-242028Y203935D01*
X-240616Y200962D01*
X-238483Y198456D01*
X-235774Y196587D01*
X-232673Y195483D01*
X-229392Y195220D01*
X-226155Y195814D01*
X-224289Y196700D01*
X-223269Y195779D01*
X-224144Y193323D01*
X-224407Y190042D01*
X-223813Y186805D01*
X-222401Y183832D01*
X-220267Y181326D01*
X-217558Y179457D01*
X-214457Y178353D01*
X-211176Y178090D01*
X-207939Y178684D01*
X-204966Y180096D01*
X-202460Y182230D01*
X-201790Y182972D01*
X-199921Y185681D01*
X-198817Y188782D01*
X-198554Y192062D01*
X-199148Y195300D01*
X-200560Y198273D01*
X-202693Y200779D01*
X-205403Y202648D01*
X-208503Y203752D01*
X-211784Y204015D01*
X-215021Y203421D01*
X-217376Y202302D01*
X-218396Y203224D01*
X-217703Y205170D01*
X-217440Y208451D01*
X-218034Y211688D01*
X-219446Y214661D01*
X-221579Y217167D01*
X-224289Y219036D01*
X-227390Y220139D01*
X-230670Y220403D01*
D02*
G37*
G36*
X-378954Y79248D02*
X-385122D01*
X-385030Y78550D01*
X-384270Y76715D01*
X-383062Y75140D01*
X-381487Y73932D01*
X-379652Y73172D01*
X-378954Y73080D01*
Y79248D01*
D02*
G37*
G36*
X-370246D02*
X-376414D01*
Y73080D01*
X-375716Y73172D01*
X-373881Y73932D01*
X-372306Y75140D01*
X-371098Y76715D01*
X-370338Y78550D01*
X-370246Y79248D01*
D02*
G37*
G36*
X-297795Y97879D02*
X-301066Y97513D01*
X-304131Y96313D01*
X-306781Y94360D01*
X-308835Y91789D01*
X-310153Y88773D01*
X-310646Y85519D01*
X-310281Y82248D01*
X-309081Y79183D01*
X-307128Y76533D01*
X-304557Y74479D01*
X-301541Y73161D01*
X-298287Y72668D01*
X-295016Y73033D01*
X-291951Y74234D01*
X-289301Y76186D01*
X-288012Y77800D01*
X-286692Y77418D01*
X-286402Y74828D01*
X-285202Y71763D01*
X-283249Y69113D01*
X-280678Y67059D01*
X-277662Y65740D01*
X-274408Y65247D01*
X-271137Y65613D01*
X-268072Y66813D01*
X-265423Y68766D01*
X-263368Y71337D01*
X-262050Y74353D01*
X-261772Y75314D01*
X-261279Y78568D01*
X-261645Y81839D01*
X-262845Y84904D01*
X-264798Y87553D01*
X-267369Y89607D01*
X-270385Y90926D01*
X-273639Y91419D01*
X-276910Y91053D01*
X-279975Y89853D01*
X-282624Y87901D01*
X-284251Y85864D01*
X-285572Y86246D01*
X-285802Y88298D01*
X-287002Y91363D01*
X-288954Y94013D01*
X-291525Y96067D01*
X-294541Y97385D01*
X-297795Y97879D01*
D02*
G37*
G36*
X-305925Y51659D02*
X-309216Y51645D01*
X-312392Y50780D01*
X-315235Y49122D01*
X-317553Y46785D01*
X-319186Y43928D01*
X-320024Y40745D01*
X-320010Y37454D01*
X-319145Y34278D01*
X-317487Y31435D01*
X-315150Y29118D01*
X-312293Y27484D01*
X-309110Y26646D01*
X-305819Y26660D01*
X-302643Y27525D01*
X-299800Y29183D01*
X-297482Y31520D01*
X-296457Y33313D01*
X-295094Y33140D01*
X-294408Y30625D01*
X-292751Y27781D01*
X-290413Y25464D01*
X-287556Y23830D01*
X-284373Y22992D01*
X-281082Y23006D01*
X-277906Y23872D01*
X-275063Y25529D01*
X-272746Y27867D01*
X-271112Y30724D01*
X-270274Y33907D01*
X-270148Y34899D01*
X-270162Y38190D01*
X-271027Y41366D01*
X-272685Y44209D01*
X-275022Y46526D01*
X-277880Y48160D01*
X-281062Y48998D01*
X-284354Y48984D01*
X-287529Y48119D01*
X-290372Y46461D01*
X-292690Y44124D01*
X-293983Y41861D01*
X-295347Y42034D01*
X-295890Y44027D01*
X-297548Y46870D01*
X-299885Y49188D01*
X-302742Y50821D01*
X-305925Y51659D01*
D02*
G37*
G36*
X305923Y51675D02*
X302740Y50836D01*
X299883Y49203D01*
X297546Y46885D01*
X295888Y44042D01*
X295345Y42049D01*
X293981Y41875D01*
X292687Y44138D01*
X290370Y46475D01*
X287527Y48133D01*
X284351Y48998D01*
X281060Y49012D01*
X277877Y48174D01*
X275020Y46540D01*
X272683Y44222D01*
X271025Y41379D01*
X270160Y38204D01*
X270146Y34912D01*
X270272Y33920D01*
X271111Y30738D01*
X272744Y27880D01*
X275062Y25543D01*
X277905Y23886D01*
X281081Y23020D01*
X284372Y23006D01*
X287555Y23845D01*
X290412Y25478D01*
X292749Y27796D01*
X294407Y30639D01*
X295092Y33154D01*
X296456Y33328D01*
X297481Y31535D01*
X299798Y29198D01*
X302642Y27540D01*
X305817Y26675D01*
X309109Y26661D01*
X312291Y27499D01*
X315149Y29133D01*
X317486Y31451D01*
X319143Y34294D01*
X320009Y37470D01*
X320022Y40761D01*
X319184Y43944D01*
X317550Y46801D01*
X315233Y49138D01*
X312390Y50796D01*
X309214Y51661D01*
X305923Y51675D01*
D02*
G37*
G36*
X352878Y104830D02*
X346710D01*
Y98662D01*
X347408Y98754D01*
X349243Y99514D01*
X350818Y100723D01*
X352026Y102298D01*
X352786Y104132D01*
X352878Y104830D01*
D02*
G37*
G36*
X-260326Y132154D02*
X-263506Y131306D01*
X-266359Y129663D01*
X-268689Y127339D01*
X-270337Y124490D01*
X-270721Y123567D01*
X-271577Y120388D01*
X-271580Y117097D01*
X-270732Y113917D01*
X-269090Y111065D01*
X-266765Y108735D01*
X-263917Y107086D01*
X-260739Y106230D01*
X-257447Y106227D01*
X-254267Y107075D01*
X-251415Y108717D01*
X-249085Y111042D01*
X-247436Y113890D01*
X-247052Y114814D01*
X-246197Y117992D01*
X-246193Y121283D01*
X-247041Y124463D01*
X-248683Y127316D01*
X-251008Y129646D01*
X-253857Y131295D01*
X-257035Y132150D01*
X-260326Y132154D01*
D02*
G37*
G36*
X344170Y104830D02*
X338002D01*
X338094Y104132D01*
X338854Y102298D01*
X340062Y100723D01*
X341637Y99514D01*
X343472Y98754D01*
X344170Y98662D01*
Y104830D01*
D02*
G37*
G36*
X-376414Y87956D02*
Y81788D01*
X-370246D01*
X-370338Y82486D01*
X-371098Y84320D01*
X-372306Y85896D01*
X-373881Y87104D01*
X-375716Y87864D01*
X-376414Y87956D01*
D02*
G37*
G36*
X297860Y97864D02*
X294603Y97386D01*
X291581Y96082D01*
X289000Y94040D01*
X287035Y91399D01*
X285821Y88341D01*
X285581Y86289D01*
X284259Y85914D01*
X282642Y87958D01*
X280001Y89923D01*
X276942Y91138D01*
X273673Y91519D01*
X270417Y91041D01*
X267395Y89737D01*
X264813Y87695D01*
X262848Y85055D01*
X261634Y81996D01*
X261252Y78727D01*
X261730Y75470D01*
X262003Y74508D01*
X263307Y71486D01*
X265349Y68905D01*
X267990Y66940D01*
X271049Y65725D01*
X274318Y65344D01*
X277574Y65822D01*
X280596Y67126D01*
X283177Y69168D01*
X285142Y71808D01*
X286357Y74867D01*
X286659Y77456D01*
X287981Y77832D01*
X289263Y76212D01*
X291903Y74247D01*
X294962Y73032D01*
X298231Y72651D01*
X301488Y73128D01*
X304510Y74432D01*
X307091Y76474D01*
X309056Y79115D01*
X310271Y82174D01*
X310652Y85443D01*
X310174Y88699D01*
X308870Y91721D01*
X306828Y94303D01*
X304188Y96267D01*
X301129Y97482D01*
X297860Y97864D01*
D02*
G37*
G36*
X-346710Y201338D02*
X-347408Y201246D01*
X-349243Y200486D01*
X-350818Y199277D01*
X-352026Y197702D01*
X-352786Y195868D01*
X-352878Y195170D01*
X-346710D01*
Y201338D01*
D02*
G37*
G36*
X-116490Y300399D02*
X-119680Y299587D01*
X-122551Y297978D01*
X-124907Y295680D01*
X-126589Y292851D01*
X-127481Y289683D01*
X-127522Y286392D01*
X-126711Y283202D01*
X-125101Y280331D01*
X-122804Y277974D01*
X-119974Y276293D01*
X-116806Y275401D01*
X-114741Y275375D01*
X-114231Y274098D01*
X-116097Y272278D01*
X-117779Y269449D01*
X-118671Y266281D01*
X-118713Y262990D01*
X-117901Y259800D01*
X-116291Y256929D01*
X-113994Y254573D01*
X-111164Y252891D01*
X-107996Y251999D01*
X-104705Y251958D01*
X-101515Y252769D01*
X-100587Y253140D01*
X-97716Y254750D01*
X-95359Y257048D01*
X-93678Y259877D01*
X-92786Y263045D01*
X-92744Y266336D01*
X-93556Y269526D01*
X-95165Y272397D01*
X-97463Y274753D01*
X-100292Y276435D01*
X-103461Y277327D01*
X-106067Y277360D01*
X-106577Y278636D01*
X-105098Y280078D01*
X-103417Y282907D01*
X-102524Y286075D01*
X-102483Y289367D01*
X-103294Y292556D01*
X-104904Y295427D01*
X-107202Y297784D01*
X-110031Y299465D01*
X-113199Y300357D01*
X-116490Y300399D01*
D02*
G37*
G36*
X116475Y300405D02*
X113184Y300363D01*
X110016Y299471D01*
X107187Y297789D01*
X104889Y295432D01*
X103280Y292561D01*
X102468Y289372D01*
X102510Y286081D01*
X103402Y282913D01*
X105084Y280083D01*
X106563Y278641D01*
X106053Y277365D01*
X103447Y277332D01*
X100279Y276440D01*
X97449Y274758D01*
X95152Y272401D01*
X93542Y269530D01*
X92731Y266341D01*
X92773Y263050D01*
X93665Y259881D01*
X95346Y257052D01*
X97703Y254755D01*
X100574Y253145D01*
X101503Y252774D01*
X104692Y251963D01*
X107984Y252005D01*
X111152Y252897D01*
X113981Y254578D01*
X116278Y256935D01*
X117888Y259806D01*
X118699Y262996D01*
X118658Y266287D01*
X117765Y269455D01*
X116084Y272284D01*
X114217Y274104D01*
X114727Y275380D01*
X116792Y275407D01*
X119960Y276299D01*
X122790Y277980D01*
X125087Y280337D01*
X126697Y283208D01*
X127508Y286398D01*
X127466Y289689D01*
X126574Y292857D01*
X124893Y295686D01*
X122536Y297984D01*
X119665Y299593D01*
X116475Y300405D01*
D02*
G37*
G36*
X194622Y252801D02*
X191419Y252044D01*
X188521Y250483D01*
X186126Y248225D01*
X184397Y245425D01*
X183452Y242272D01*
X183355Y238983D01*
X184112Y235780D01*
X185092Y233961D01*
X184223Y232896D01*
X181726Y233645D01*
X178436Y233742D01*
X175233Y232984D01*
X172336Y231423D01*
X169941Y229166D01*
X168211Y226365D01*
X167266Y223213D01*
X167169Y219923D01*
X167926Y216720D01*
X169487Y213822D01*
X171745Y211427D01*
X172520Y210795D01*
X175320Y209066D01*
X178473Y208121D01*
X181763Y208023D01*
X184966Y208781D01*
X187863Y210342D01*
X190259Y212599D01*
X191988Y215400D01*
X192933Y218552D01*
X193030Y221842D01*
X192273Y225045D01*
X191036Y227340D01*
X191905Y228406D01*
X193884Y227812D01*
X197173Y227715D01*
X200376Y228473D01*
X203274Y230033D01*
X205669Y232291D01*
X207398Y235092D01*
X208344Y238244D01*
X208441Y241534D01*
X207683Y244737D01*
X206122Y247635D01*
X203865Y250030D01*
X201064Y251759D01*
X197912Y252704D01*
X194622Y252801D01*
D02*
G37*
G36*
X378700Y226640D02*
Y220472D01*
X384868D01*
X384776Y221170D01*
X384016Y223004D01*
X382808Y224580D01*
X381232Y225788D01*
X379398Y226548D01*
X378700Y226640D01*
D02*
G37*
G36*
X-157377Y279752D02*
X-160636Y279295D01*
X-163666Y278009D01*
X-166260Y275984D01*
X-168242Y273356D01*
X-169475Y270304D01*
X-169877Y267038D01*
X-169420Y263778D01*
X-168135Y260748D01*
X-166109Y258154D01*
X-163481Y256173D01*
X-160430Y254939D01*
X-157163Y254537D01*
X-155118Y254824D01*
X-154420Y253639D01*
X-155990Y251558D01*
X-157223Y248507D01*
X-157625Y245240D01*
X-157168Y241981D01*
X-155883Y238951D01*
X-153857Y236357D01*
X-151229Y234375D01*
X-148178Y233141D01*
X-144911Y232740D01*
X-141651Y233197D01*
X-138622Y234482D01*
X-137760Y234989D01*
X-135166Y237015D01*
X-133184Y239643D01*
X-131951Y242694D01*
X-131549Y245961D01*
X-132006Y249221D01*
X-133291Y252250D01*
X-135317Y254845D01*
X-137945Y256826D01*
X-140996Y258060D01*
X-144263Y258462D01*
X-146844Y258099D01*
X-147542Y259284D01*
X-146298Y260933D01*
X-145064Y263985D01*
X-144663Y267251D01*
X-145120Y270511D01*
X-146405Y273541D01*
X-148431Y276135D01*
X-151059Y278116D01*
X-154110Y279350D01*
X-157377Y279752D01*
D02*
G37*
G36*
X-63519Y290335D02*
X-66795Y290016D01*
X-67769Y289790D01*
X-70850Y288633D01*
X-73528Y286719D01*
X-75618Y284177D01*
X-76980Y281180D01*
X-77519Y277934D01*
X-77200Y274658D01*
X-76044Y271576D01*
X-74129Y268899D01*
X-71587Y266808D01*
X-68591Y265447D01*
X-65344Y264907D01*
X-62068Y265227D01*
X-61094Y265453D01*
X-58012Y266609D01*
X-55335Y268523D01*
X-53245Y271065D01*
X-51883Y274062D01*
X-51344Y277309D01*
X-51663Y280585D01*
X-52819Y283666D01*
X-54733Y286343D01*
X-57276Y288434D01*
X-60272Y289795D01*
X-63519Y290335D01*
D02*
G37*
G36*
X63488Y290342D02*
X60241Y289802D01*
X57245Y288440D01*
X54703Y286349D01*
X52789Y283672D01*
X51633Y280590D01*
X51314Y277314D01*
X51854Y274068D01*
X53216Y271071D01*
X55307Y268529D01*
X57984Y266615D01*
X61066Y265459D01*
X62040Y265233D01*
X65316Y264914D01*
X68562Y265454D01*
X71559Y266816D01*
X74101Y268907D01*
X76015Y271584D01*
X77171Y274666D01*
X77490Y277942D01*
X76950Y281189D01*
X75588Y284185D01*
X73497Y286727D01*
X70820Y288641D01*
X67738Y289797D01*
X66764Y290023D01*
X63488Y290342D01*
D02*
G37*
G36*
X157363Y279760D02*
X154096Y279358D01*
X151045Y278124D01*
X148417Y276142D01*
X146391Y273548D01*
X145106Y270518D01*
X144649Y267258D01*
X145051Y263992D01*
X146285Y260941D01*
X147528Y259291D01*
X146831Y258107D01*
X144250Y258469D01*
X140983Y258067D01*
X137932Y256833D01*
X135304Y254851D01*
X133278Y252257D01*
X131993Y249227D01*
X131536Y245968D01*
X131938Y242701D01*
X133172Y239650D01*
X135154Y237022D01*
X137748Y234996D01*
X138610Y234489D01*
X141640Y233204D01*
X144899Y232747D01*
X148166Y233149D01*
X151217Y234383D01*
X153845Y236364D01*
X155871Y238958D01*
X157156Y241989D01*
X157613Y245248D01*
X157211Y248514D01*
X155977Y251566D01*
X154408Y253647D01*
X155105Y254832D01*
X157150Y254545D01*
X160417Y254947D01*
X163468Y256181D01*
X166096Y258162D01*
X168122Y260757D01*
X169407Y263787D01*
X169864Y267046D01*
X169462Y270313D01*
X168228Y273364D01*
X166246Y275992D01*
X163652Y278018D01*
X160622Y279303D01*
X157363Y279760D01*
D02*
G37*
G36*
X-375350Y318852D02*
X-399350D01*
X-403467Y318446D01*
X-407425Y317245D01*
X-411073Y315295D01*
X-414271Y312671D01*
X-416895Y309473D01*
X-418845Y305825D01*
X-420046Y301867D01*
X-420452Y297750D01*
Y273750D01*
X-420046Y269633D01*
X-418845Y265675D01*
X-416895Y262027D01*
X-414271Y258829D01*
X-411073Y256205D01*
X-407425Y254255D01*
X-403467Y253054D01*
X-399350Y252648D01*
X-375350D01*
X-371233Y253054D01*
X-367275Y254255D01*
X-363627Y256205D01*
X-360429Y258829D01*
X-357805Y262027D01*
X-355855Y265675D01*
X-354654Y269633D01*
X-354248Y273750D01*
Y297750D01*
X-354654Y301867D01*
X-355855Y305825D01*
X-357805Y309473D01*
X-360429Y312671D01*
X-363627Y315295D01*
X-367275Y317245D01*
X-371233Y318446D01*
X-375350Y318852D01*
D02*
G37*
G36*
X399350D02*
X375350D01*
X371233Y318446D01*
X367275Y317245D01*
X363627Y315295D01*
X360429Y312671D01*
X357805Y309473D01*
X355855Y305825D01*
X354654Y301867D01*
X354248Y297750D01*
Y273750D01*
X354654Y269633D01*
X355855Y265675D01*
X357805Y262027D01*
X360429Y258829D01*
X363627Y256205D01*
X367275Y254255D01*
X371233Y253054D01*
X375350Y252648D01*
X399350D01*
X403467Y253054D01*
X407425Y254255D01*
X411073Y256205D01*
X414271Y258829D01*
X416895Y262027D01*
X418845Y265675D01*
X420046Y269633D01*
X420452Y273750D01*
Y297750D01*
X420046Y301867D01*
X418845Y305825D01*
X416895Y309473D01*
X414271Y312671D01*
X411073Y315295D01*
X407425Y317245D01*
X403467Y318446D01*
X399350Y318852D01*
D02*
G37*
G36*
X-378954Y217424D02*
X-385122D01*
X-385030Y216726D01*
X-384270Y214891D01*
X-383062Y213316D01*
X-381487Y212108D01*
X-379652Y211348D01*
X-378954Y211256D01*
Y217424D01*
D02*
G37*
G36*
X-370246D02*
X-376414D01*
Y211256D01*
X-375716Y211348D01*
X-373881Y212108D01*
X-372306Y213316D01*
X-371098Y214891D01*
X-370338Y216726D01*
X-370246Y217424D01*
D02*
G37*
G36*
X-194652Y252778D02*
X-197942Y252680D01*
X-201094Y251735D01*
X-203895Y250005D01*
X-206152Y247610D01*
X-207712Y244712D01*
X-208470Y241509D01*
X-208372Y238219D01*
X-207426Y235067D01*
X-205697Y232266D01*
X-203302Y230009D01*
X-200404Y228449D01*
X-197201Y227692D01*
X-193911Y227789D01*
X-191933Y228383D01*
X-191064Y227317D01*
X-192299Y225022D01*
X-193057Y221819D01*
X-192959Y218529D01*
X-192013Y215377D01*
X-190284Y212577D01*
X-187889Y210319D01*
X-184991Y208759D01*
X-181788Y208002D01*
X-178498Y208099D01*
X-175345Y209045D01*
X-172545Y210775D01*
X-171770Y211407D01*
X-169513Y213802D01*
X-167952Y216700D01*
X-167195Y219903D01*
X-167293Y223193D01*
X-168238Y226345D01*
X-169968Y229146D01*
X-172363Y231403D01*
X-175261Y232963D01*
X-178464Y233720D01*
X-181754Y233623D01*
X-184251Y232874D01*
X-185119Y233939D01*
X-184140Y235758D01*
X-183383Y238961D01*
X-183481Y242250D01*
X-184426Y245403D01*
X-186156Y248203D01*
X-188551Y250461D01*
X-191449Y252021D01*
X-194652Y252778D01*
D02*
G37*
G36*
X-344170Y201338D02*
Y195170D01*
X-338002D01*
X-338094Y195868D01*
X-338854Y197702D01*
X-340062Y199277D01*
X-341637Y200486D01*
X-343472Y201246D01*
X-344170Y201338D01*
D02*
G37*
G36*
X230659Y220415D02*
X227379Y220151D01*
X224278Y219047D01*
X221569Y217178D01*
X219435Y214672D01*
X218023Y211699D01*
X217429Y208461D01*
X217693Y205181D01*
X218386Y203235D01*
X217366Y202313D01*
X215011Y203431D01*
X211774Y204026D01*
X208493Y203762D01*
X205392Y202658D01*
X202683Y200789D01*
X200550Y198283D01*
X199138Y195310D01*
X198544Y192072D01*
X198808Y188792D01*
X199912Y185691D01*
X201780Y182982D01*
X202451Y182240D01*
X204957Y180107D01*
X207930Y178695D01*
X211168Y178100D01*
X214448Y178364D01*
X217549Y179468D01*
X220258Y181337D01*
X222391Y183843D01*
X223803Y186816D01*
X224398Y190054D01*
X224134Y193334D01*
X223260Y195790D01*
X224279Y196712D01*
X226145Y195826D01*
X229382Y195231D01*
X232663Y195495D01*
X235764Y196599D01*
X238473Y198468D01*
X240606Y200974D01*
X242018Y203947D01*
X242612Y207185D01*
X242349Y210465D01*
X241245Y213566D01*
X239376Y216275D01*
X236870Y218409D01*
X233896Y219820D01*
X230659Y220415D01*
D02*
G37*
G36*
X-376414Y226132D02*
Y219964D01*
X-370246D01*
X-370338Y220662D01*
X-371098Y222496D01*
X-372306Y224072D01*
X-373881Y225280D01*
X-375716Y226040D01*
X-376414Y226132D01*
D02*
G37*
G36*
X376160Y226640D02*
X375462Y226548D01*
X373628Y225788D01*
X372052Y224580D01*
X370844Y223004D01*
X370084Y221170D01*
X369992Y220472D01*
X376160D01*
Y226640D01*
D02*
G37*
G36*
X-378954Y226132D02*
X-379652Y226040D01*
X-381487Y225280D01*
X-383062Y224072D01*
X-384270Y222496D01*
X-385030Y220662D01*
X-385122Y219964D01*
X-378954D01*
Y226132D01*
D02*
G37*
G36*
X376160Y217932D02*
X369992D01*
X370084Y217234D01*
X370844Y215399D01*
X372052Y213824D01*
X373628Y212616D01*
X375462Y211856D01*
X376160Y211764D01*
Y217932D01*
D02*
G37*
G36*
X384868D02*
X378700D01*
Y211764D01*
X379398Y211856D01*
X381232Y212616D01*
X382808Y213824D01*
X384016Y215399D01*
X384776Y217234D01*
X384868Y217932D01*
D02*
G37*
G36*
X-376400Y-182554D02*
Y-188722D01*
X-370232D01*
X-370324Y-188024D01*
X-371084Y-186189D01*
X-372292Y-184614D01*
X-373867Y-183406D01*
X-375702Y-182646D01*
X-376400Y-182554D01*
D02*
G37*
G36*
X383540Y-177982D02*
X382842Y-178074D01*
X381007Y-178834D01*
X379432Y-180042D01*
X378224Y-181618D01*
X377464Y-183452D01*
X377372Y-184150D01*
X383540D01*
Y-177982D01*
D02*
G37*
G36*
X386080D02*
Y-184150D01*
X392248D01*
X392156Y-183452D01*
X391396Y-181618D01*
X390188Y-180042D01*
X388613Y-178834D01*
X386778Y-178074D01*
X386080Y-177982D01*
D02*
G37*
G36*
X270757Y-78959D02*
X267472Y-79166D01*
X264353Y-80216D01*
X261611Y-82037D01*
X259435Y-84506D01*
X257971Y-87454D01*
X257647Y-88400D01*
X256997Y-91627D01*
X257204Y-94911D01*
X258253Y-98031D01*
X260075Y-100772D01*
X262544Y-102949D01*
X265492Y-104412D01*
X268718Y-105063D01*
X272003Y-104856D01*
X275122Y-103806D01*
X277864Y-101985D01*
X279587Y-100030D01*
X280888Y-100475D01*
X281018Y-102536D01*
X282068Y-105656D01*
X283889Y-108397D01*
X286358Y-110574D01*
X289306Y-112037D01*
X292532Y-112688D01*
X295817Y-112481D01*
X298936Y-111431D01*
X301678Y-109610D01*
X303854Y-107141D01*
X305318Y-104193D01*
X305968Y-100967D01*
X305762Y-97682D01*
X304712Y-94562D01*
X302890Y-91821D01*
X300422Y-89644D01*
X297474Y-88181D01*
X294247Y-87530D01*
X290962Y-87737D01*
X287843Y-88787D01*
X285102Y-90608D01*
X283736Y-92157D01*
X282435Y-91712D01*
X282271Y-89111D01*
X281222Y-85991D01*
X279400Y-83250D01*
X276931Y-81073D01*
X273983Y-79610D01*
X270757Y-78959D01*
D02*
G37*
G36*
X-270669Y-79212D02*
X-273896Y-79862D01*
X-276844Y-81325D01*
X-279313Y-83501D01*
X-281135Y-86242D01*
X-282186Y-89361D01*
X-282350Y-91963D01*
X-283651Y-92408D01*
X-285016Y-90858D01*
X-287757Y-89037D01*
X-290876Y-87986D01*
X-294161Y-87779D01*
X-297388Y-88429D01*
X-300336Y-89892D01*
X-302805Y-92068D01*
X-304627Y-94809D01*
X-305678Y-97928D01*
X-305885Y-101213D01*
X-305235Y-104439D01*
X-303772Y-107388D01*
X-301596Y-109857D01*
X-298855Y-111679D01*
X-295736Y-112729D01*
X-292451Y-112936D01*
X-289224Y-112287D01*
X-286276Y-110824D01*
X-283807Y-108648D01*
X-281985Y-105906D01*
X-280935Y-102787D01*
X-280804Y-100726D01*
X-279504Y-100281D01*
X-277780Y-102237D01*
X-275039Y-104059D01*
X-271920Y-105109D01*
X-268635Y-105316D01*
X-265409Y-104666D01*
X-262460Y-103203D01*
X-259991Y-101027D01*
X-258169Y-98286D01*
X-257119Y-95167D01*
X-256912Y-91882D01*
X-257562Y-88656D01*
X-257885Y-87710D01*
X-259348Y-84761D01*
X-261524Y-82292D01*
X-264265Y-80470D01*
X-267384Y-79420D01*
X-270669Y-79212D01*
D02*
G37*
G36*
X392248Y-186690D02*
X386080D01*
Y-192858D01*
X386778Y-192766D01*
X388613Y-192006D01*
X390188Y-190798D01*
X391396Y-189223D01*
X392156Y-187388D01*
X392248Y-186690D01*
D02*
G37*
G36*
X-378940Y-182554D02*
X-379638Y-182646D01*
X-381473Y-183406D01*
X-383048Y-184614D01*
X-384256Y-186189D01*
X-385016Y-188024D01*
X-385108Y-188722D01*
X-378940D01*
Y-182554D01*
D02*
G37*
G36*
X-231542Y-155785D02*
X-234729Y-156608D01*
X-237594Y-158228D01*
X-239942Y-160534D01*
X-241613Y-163369D01*
X-242494Y-166541D01*
X-242523Y-169832D01*
X-241871Y-172356D01*
X-242969Y-173183D01*
X-244749Y-172134D01*
X-247920Y-171253D01*
X-251211Y-171224D01*
X-254398Y-172047D01*
X-257263Y-173667D01*
X-259611Y-175973D01*
X-261283Y-178808D01*
X-262163Y-181980D01*
X-262193Y-185271D01*
X-261370Y-188457D01*
X-259750Y-191322D01*
X-257444Y-193671D01*
X-254608Y-195342D01*
X-251437Y-196222D01*
X-248146Y-196252D01*
X-244959Y-195429D01*
X-242094Y-193809D01*
X-239746Y-191503D01*
X-238074Y-188668D01*
X-237194Y-185496D01*
X-237164Y-182205D01*
X-237681Y-180205D01*
X-236583Y-179378D01*
X-234337Y-180702D01*
X-231166Y-181582D01*
X-227875Y-181612D01*
X-224688Y-180789D01*
X-221823Y-179169D01*
X-219475Y-176863D01*
X-217803Y-174028D01*
X-216923Y-170856D01*
X-216893Y-167565D01*
X-217716Y-164378D01*
X-219336Y-161513D01*
X-219938Y-160714D01*
X-222244Y-158366D01*
X-225079Y-156695D01*
X-228251Y-155814D01*
X-231542Y-155785D01*
D02*
G37*
G36*
X252412Y-118708D02*
X249170Y-119277D01*
X246187Y-120666D01*
X243664Y-122781D01*
X241775Y-125476D01*
X241312Y-126362D01*
X240185Y-129454D01*
X239896Y-132733D01*
X240466Y-135975D01*
X241855Y-138958D01*
X243969Y-141481D01*
X246664Y-143370D01*
X249756Y-144498D01*
X253035Y-144787D01*
X256277Y-144217D01*
X259260Y-142828D01*
X261258Y-141153D01*
X262477Y-141789D01*
X262296Y-143846D01*
X262866Y-147088D01*
X264255Y-150072D01*
X266369Y-152594D01*
X269064Y-154484D01*
X272156Y-155611D01*
X275435Y-155900D01*
X278676Y-155330D01*
X281660Y-153941D01*
X284182Y-151827D01*
X286072Y-149132D01*
X287199Y-146040D01*
X287488Y-142761D01*
X286919Y-139519D01*
X285529Y-136536D01*
X283415Y-134013D01*
X280720Y-132124D01*
X277628Y-130996D01*
X274349Y-130708D01*
X271108Y-131277D01*
X268124Y-132666D01*
X266541Y-133993D01*
X265322Y-133358D01*
X265551Y-130761D01*
X264981Y-127519D01*
X263592Y-124536D01*
X261478Y-122013D01*
X258783Y-120124D01*
X255691Y-118996D01*
X252412Y-118708D01*
D02*
G37*
G36*
X346710Y-157662D02*
Y-163830D01*
X352878D01*
X352786Y-163132D01*
X352026Y-161297D01*
X350818Y-159722D01*
X349243Y-158514D01*
X347408Y-157754D01*
X346710Y-157662D01*
D02*
G37*
G36*
X344170D02*
X343472Y-157754D01*
X341637Y-158514D01*
X340062Y-159722D01*
X338854Y-161297D01*
X338094Y-163132D01*
X338002Y-163830D01*
X344170D01*
Y-157662D01*
D02*
G37*
G36*
X352878Y-166370D02*
X346710D01*
Y-172538D01*
X347408Y-172446D01*
X349243Y-171686D01*
X350818Y-170478D01*
X352026Y-168902D01*
X352786Y-167068D01*
X352878Y-166370D01*
D02*
G37*
G36*
X-252306Y-118926D02*
X-255585Y-119218D01*
X-258676Y-120348D01*
X-261369Y-122240D01*
X-263481Y-124764D01*
X-264868Y-127749D01*
X-265435Y-130991D01*
X-265204Y-133587D01*
X-266422Y-134224D01*
X-268006Y-132899D01*
X-270991Y-131512D01*
X-274233Y-130945D01*
X-277512Y-131237D01*
X-280603Y-132367D01*
X-283296Y-134259D01*
X-285408Y-136783D01*
X-286795Y-139768D01*
X-287362Y-143010D01*
X-287070Y-146289D01*
X-285940Y-149380D01*
X-284048Y-152073D01*
X-281524Y-154185D01*
X-278539Y-155572D01*
X-275297Y-156138D01*
X-272018Y-155847D01*
X-268927Y-154717D01*
X-266234Y-152825D01*
X-264122Y-150301D01*
X-262735Y-147316D01*
X-262168Y-144073D01*
X-262351Y-142016D01*
X-261133Y-141380D01*
X-259134Y-143052D01*
X-256149Y-144439D01*
X-252907Y-145006D01*
X-249628Y-144714D01*
X-246537Y-143584D01*
X-243844Y-141692D01*
X-241732Y-139168D01*
X-240345Y-136183D01*
X-239778Y-132941D01*
X-240070Y-129662D01*
X-241200Y-126571D01*
X-241663Y-125685D01*
X-243555Y-122991D01*
X-246079Y-120879D01*
X-249064Y-119493D01*
X-252306Y-118926D01*
D02*
G37*
G36*
X-345440Y-120231D02*
X-347528Y-120506D01*
X-349474Y-121312D01*
X-351146Y-122594D01*
X-352428Y-124266D01*
X-353234Y-126212D01*
X-353509Y-128300D01*
X-353234Y-130388D01*
X-352428Y-132335D01*
X-351146Y-134006D01*
X-349474Y-135288D01*
X-347528Y-136094D01*
X-345440Y-136369D01*
X-343352Y-136094D01*
X-341405Y-135288D01*
X-339734Y-134006D01*
X-338452Y-132335D01*
X-337646Y-130388D01*
X-337371Y-128300D01*
X-337646Y-126212D01*
X-338452Y-124266D01*
X-339734Y-122594D01*
X-341405Y-121312D01*
X-343352Y-120506D01*
X-345440Y-120231D01*
D02*
G37*
G36*
X344170Y-166370D02*
X338002D01*
X338094Y-167068D01*
X338854Y-168902D01*
X340062Y-170478D01*
X341637Y-171686D01*
X343472Y-172446D01*
X344170Y-172538D01*
Y-166370D01*
D02*
G37*
G36*
X285240Y5886D02*
X281968Y5539D01*
X278896Y4357D01*
X276235Y2420D01*
X274166Y-139D01*
X272829Y-3147D01*
X272317Y-6398D01*
X272292Y-7398D01*
X272639Y-10671D01*
X273821Y-13743D01*
X275758Y-16404D01*
X278318Y-18473D01*
X281325Y-19809D01*
X284577Y-20321D01*
X287850Y-19974D01*
X290921Y-18792D01*
X293582Y-16855D01*
X295651Y-14296D01*
X296710Y-11914D01*
X298084Y-11948D01*
X298826Y-13876D01*
X300763Y-16537D01*
X303322Y-18606D01*
X306330Y-19942D01*
X309581Y-20454D01*
X312854Y-20108D01*
X315926Y-18925D01*
X318587Y-16989D01*
X320656Y-14429D01*
X321992Y-11421D01*
X322504Y-8170D01*
X322158Y-4897D01*
X320975Y-1825D01*
X319039Y836D01*
X316479Y2905D01*
X313471Y4241D01*
X310220Y4753D01*
X306947Y4406D01*
X303875Y3224D01*
X301214Y1287D01*
X299145Y-1272D01*
X298307Y-3160D01*
X296932Y-3125D01*
X295996Y-692D01*
X294059Y1969D01*
X291500Y4038D01*
X288492Y5374D01*
X285240Y5886D01*
D02*
G37*
G36*
X231236Y-155994D02*
X227945Y-156060D01*
X224784Y-156975D01*
X221967Y-158678D01*
X219687Y-161051D01*
X219094Y-161857D01*
X217506Y-164739D01*
X216718Y-167935D01*
X216784Y-171226D01*
X217700Y-174387D01*
X219402Y-177204D01*
X221776Y-179484D01*
X224659Y-181072D01*
X227854Y-181860D01*
X231145Y-181794D01*
X234306Y-180879D01*
X236537Y-179530D01*
X237644Y-180345D01*
X237150Y-182350D01*
X237216Y-185641D01*
X238131Y-188802D01*
X239834Y-191619D01*
X242207Y-193899D01*
X245090Y-195487D01*
X248286Y-196275D01*
X251576Y-196209D01*
X254738Y-195294D01*
X257555Y-193591D01*
X259835Y-191218D01*
X261423Y-188335D01*
X262211Y-185139D01*
X262145Y-181849D01*
X261229Y-178687D01*
X259527Y-175870D01*
X257153Y-173590D01*
X254270Y-172002D01*
X251075Y-171214D01*
X247784Y-171280D01*
X244623Y-172196D01*
X242855Y-173264D01*
X241748Y-172449D01*
X242372Y-169919D01*
X242306Y-166628D01*
X241390Y-163466D01*
X239688Y-160650D01*
X237314Y-158370D01*
X234431Y-156782D01*
X231236Y-155994D01*
D02*
G37*
G36*
X383944Y-44632D02*
X383246Y-44724D01*
X381412Y-45484D01*
X379836Y-46692D01*
X378628Y-48267D01*
X377868Y-50102D01*
X377776Y-50800D01*
X383944D01*
Y-44632D01*
D02*
G37*
G36*
X-279553Y-37234D02*
X-282841Y-37386D01*
X-285977Y-38385D01*
X-288748Y-40161D01*
X-290965Y-42594D01*
X-292476Y-45518D01*
X-293033Y-48064D01*
X-294386Y-48307D01*
X-295501Y-46568D01*
X-297934Y-44352D01*
X-300858Y-42840D01*
X-304073Y-42137D01*
X-307360Y-42290D01*
X-310497Y-43289D01*
X-313267Y-45065D01*
X-315484Y-47498D01*
X-316996Y-50422D01*
X-317699Y-53637D01*
X-317546Y-56925D01*
X-316547Y-60061D01*
X-314771Y-62832D01*
X-312338Y-65048D01*
X-309414Y-66560D01*
X-306199Y-67263D01*
X-302911Y-67110D01*
X-299775Y-66111D01*
X-297004Y-64335D01*
X-294788Y-61902D01*
X-293276Y-58978D01*
X-292835Y-56961D01*
X-291482Y-56718D01*
X-290075Y-58913D01*
X-287642Y-61129D01*
X-284718Y-62641D01*
X-281503Y-63344D01*
X-278215Y-63191D01*
X-275079Y-62192D01*
X-272308Y-60416D01*
X-270092Y-57983D01*
X-268580Y-55059D01*
X-267877Y-51844D01*
X-268030Y-48556D01*
X-268206Y-47572D01*
X-269205Y-44436D01*
X-270981Y-41665D01*
X-273414Y-39448D01*
X-276338Y-37937D01*
X-279553Y-37234D01*
D02*
G37*
G36*
X-357124Y1211D02*
X-359212Y936D01*
X-361158Y130D01*
X-362830Y-1152D01*
X-364112Y-2824D01*
X-364918Y-4770D01*
X-365193Y-6858D01*
X-365009Y-8255D01*
X-366464Y-9710D01*
X-367459Y-11198D01*
X-367808Y-12954D01*
Y-92710D01*
X-367459Y-94466D01*
X-366464Y-95954D01*
X-356474Y-105944D01*
X-354986Y-106939D01*
X-353230Y-107288D01*
X-352003D01*
X-351146Y-108406D01*
X-349474Y-109688D01*
X-347528Y-110494D01*
X-345440Y-110769D01*
X-343352Y-110494D01*
X-341405Y-109688D01*
X-339734Y-108406D01*
X-338452Y-106735D01*
X-337646Y-104789D01*
X-337371Y-102700D01*
X-337646Y-100612D01*
X-338452Y-98666D01*
X-339734Y-96994D01*
X-341405Y-95712D01*
X-343352Y-94906D01*
X-345440Y-94631D01*
X-347528Y-94906D01*
X-349474Y-95712D01*
X-351146Y-96994D01*
X-352367Y-97074D01*
X-358632Y-90809D01*
Y-16010D01*
X-357362Y-14896D01*
X-357124Y-14927D01*
X-355036Y-14652D01*
X-353089Y-13846D01*
X-351418Y-12564D01*
X-350136Y-10892D01*
X-349330Y-8946D01*
X-349055Y-6858D01*
X-349330Y-4770D01*
X-350136Y-2824D01*
X-351418Y-1152D01*
X-353089Y130D01*
X-355036Y936D01*
X-357124Y1211D01*
D02*
G37*
G36*
X-285241Y5875D02*
X-288492Y5363D01*
X-291500Y4027D01*
X-294059Y1957D01*
X-295996Y-704D01*
X-296932Y-3137D01*
X-298306Y-3171D01*
X-299145Y-1284D01*
X-301214Y1276D01*
X-303875Y3212D01*
X-306947Y4394D01*
X-310220Y4741D01*
X-313471Y4229D01*
X-316479Y2893D01*
X-319039Y824D01*
X-320975Y-1838D01*
X-322157Y-4909D01*
X-322504Y-8182D01*
X-321992Y-11434D01*
X-320656Y-14441D01*
X-318586Y-17001D01*
X-315925Y-18938D01*
X-312853Y-20120D01*
X-309580Y-20466D01*
X-306329Y-19954D01*
X-303321Y-18618D01*
X-300762Y-16549D01*
X-298825Y-13888D01*
X-298083Y-11960D01*
X-296709Y-11925D01*
X-295651Y-14307D01*
X-293582Y-16867D01*
X-290921Y-18803D01*
X-287849Y-19986D01*
X-284576Y-20332D01*
X-281325Y-19820D01*
X-278317Y-18484D01*
X-275757Y-16415D01*
X-273820Y-13753D01*
X-272638Y-10682D01*
X-272292Y-7409D01*
X-272317Y-6409D01*
X-272829Y-3158D01*
X-274166Y-150D01*
X-276235Y2410D01*
X-278896Y4346D01*
X-281968Y5528D01*
X-285241Y5875D01*
D02*
G37*
G36*
X-370232Y-191262D02*
X-376400D01*
Y-197430D01*
X-375702Y-197338D01*
X-373867Y-196578D01*
X-372292Y-195370D01*
X-371084Y-193794D01*
X-370324Y-191960D01*
X-370232Y-191262D01*
D02*
G37*
G36*
X-378940D02*
X-385108D01*
X-385016Y-191960D01*
X-384256Y-193794D01*
X-383048Y-195370D01*
X-381473Y-196578D01*
X-379638Y-197338D01*
X-378940Y-197430D01*
Y-191262D01*
D02*
G37*
G36*
X-344170Y-69862D02*
Y-76030D01*
X-338002D01*
X-338094Y-75332D01*
X-338854Y-73498D01*
X-340062Y-71922D01*
X-341637Y-70714D01*
X-343472Y-69954D01*
X-344170Y-69862D01*
D02*
G37*
G36*
X-346710D02*
X-347408Y-69954D01*
X-349243Y-70714D01*
X-350818Y-71922D01*
X-352026Y-73498D01*
X-352786Y-75332D01*
X-352878Y-76030D01*
X-346710D01*
Y-69862D01*
D02*
G37*
G36*
X-338002Y-78570D02*
X-344170D01*
Y-84738D01*
X-343472Y-84646D01*
X-341637Y-83886D01*
X-340062Y-82678D01*
X-338854Y-81103D01*
X-338094Y-79268D01*
X-338002Y-78570D01*
D02*
G37*
G36*
X-346710D02*
X-352878D01*
X-352786Y-79268D01*
X-352026Y-81103D01*
X-350818Y-82678D01*
X-349243Y-83886D01*
X-347408Y-84646D01*
X-346710Y-84738D01*
Y-78570D01*
D02*
G37*
G36*
X383944Y-53340D02*
X377776D01*
X377868Y-54038D01*
X378628Y-55873D01*
X379836Y-57448D01*
X381412Y-58656D01*
X383246Y-59416D01*
X383944Y-59508D01*
Y-53340D01*
D02*
G37*
G36*
X383540Y-186690D02*
X377372D01*
X377464Y-187388D01*
X378224Y-189223D01*
X379432Y-190798D01*
X381007Y-192006D01*
X382842Y-192766D01*
X383540Y-192858D01*
Y-186690D01*
D02*
G37*
G36*
X279543Y-37310D02*
X276328Y-38012D01*
X273404Y-39523D01*
X270970Y-41739D01*
X269193Y-44509D01*
X268194Y-47645D01*
X268017Y-48629D01*
X267863Y-51917D01*
X268565Y-55133D01*
X270076Y-58057D01*
X272292Y-60490D01*
X275062Y-62267D01*
X278198Y-63267D01*
X281486Y-63421D01*
X284701Y-62718D01*
X287626Y-61208D01*
X290059Y-58992D01*
X291467Y-56798D01*
X292820Y-57041D01*
X293260Y-59058D01*
X294771Y-61983D01*
X296987Y-64416D01*
X299757Y-66193D01*
X302893Y-67193D01*
X306181Y-67347D01*
X309396Y-66644D01*
X312320Y-65134D01*
X314754Y-62918D01*
X316531Y-60147D01*
X317531Y-57011D01*
X317684Y-53724D01*
X316982Y-50508D01*
X315471Y-47584D01*
X313256Y-45150D01*
X310485Y-43373D01*
X307349Y-42374D01*
X304062Y-42220D01*
X300846Y-42922D01*
X297922Y-44433D01*
X295488Y-46649D01*
X294373Y-48387D01*
X293020Y-48145D01*
X292464Y-45598D01*
X290953Y-42674D01*
X288737Y-40240D01*
X285967Y-38463D01*
X282831Y-37464D01*
X279543Y-37310D01*
D02*
G37*
%LPD*%
G36*
X3005Y-212003D02*
X3125Y-213767D01*
X3180Y-214085D01*
X3245Y-214355D01*
X3320Y-214575D01*
X3405Y-214747D01*
X3500Y-214869D01*
X-3500D01*
X-3405Y-214747D01*
X-3320Y-214575D01*
X-3245Y-214355D01*
X-3180Y-214085D01*
X-3125Y-213767D01*
X-3045Y-212983D01*
X-3005Y-212003D01*
X-3000Y-211440D01*
X3000D01*
X3005Y-212003D01*
D02*
G37*
G36*
X-22875Y-59691D02*
X-22676Y-61628D01*
X-22502Y-62415D01*
X-22279Y-63081D01*
X-22005Y-63626D01*
X-21682Y-64050D01*
X-21309Y-64353D01*
X-20887Y-64535D01*
X-20414Y-64595D01*
X-30386D01*
X-29913Y-64535D01*
X-29491Y-64353D01*
X-29118Y-64050D01*
X-28795Y-63626D01*
X-28521Y-63081D01*
X-28298Y-62415D01*
X-28124Y-61628D01*
X-27999Y-60720D01*
X-27925Y-59691D01*
X-27900Y-58540D01*
X-22900D01*
X-22875Y-59691D01*
D02*
G37*
G36*
X29913Y-87865D02*
X29491Y-88047D01*
X29118Y-88350D01*
X28795Y-88774D01*
X28521Y-89319D01*
X28298Y-89985D01*
X28124Y-90772D01*
X27999Y-91680D01*
X27925Y-92709D01*
X27900Y-93860D01*
X22900D01*
X22875Y-92709D01*
X22676Y-90772D01*
X22502Y-89985D01*
X22279Y-89319D01*
X22005Y-88774D01*
X21682Y-88350D01*
X21309Y-88047D01*
X20887Y-87865D01*
X20414Y-87805D01*
X30386D01*
X29913Y-87865D01*
D02*
G37*
G36*
X5414Y-87225D02*
X4908Y-87452D01*
X4460Y-87830D01*
X4073Y-88359D01*
X3745Y-89039D01*
X3477Y-89871D01*
X3268Y-90853D01*
X3119Y-91987D01*
X3030Y-93272D01*
X3000Y-94708D01*
X-3000D01*
X-3030Y-93272D01*
X-3268Y-90853D01*
X-3477Y-89871D01*
X-3745Y-89039D01*
X-4073Y-88359D01*
X-4460Y-87830D01*
X-4908Y-87452D01*
X-5414Y-87225D01*
X-5981Y-87149D01*
X5981D01*
X5414Y-87225D01*
D02*
G37*
G36*
X27925Y51202D02*
X28000Y50346D01*
X28125Y49592D01*
X28300Y48938D01*
X28525Y48385D01*
X28800Y47932D01*
X29125Y47580D01*
X29500Y47328D01*
X29925Y47177D01*
X30400Y47127D01*
X20400D01*
X20875Y47177D01*
X21300Y47328D01*
X21675Y47580D01*
X22000Y47932D01*
X22275Y48385D01*
X22500Y48938D01*
X22675Y49592D01*
X22800Y50346D01*
X22875Y51202D01*
X22900Y52158D01*
X27900D01*
X27925Y51202D01*
D02*
G37*
G36*
X29913Y58185D02*
X29491Y58003D01*
X29118Y57700D01*
X28795Y57276D01*
X28521Y56731D01*
X28298Y56065D01*
X28124Y55278D01*
X27999Y54370D01*
X27925Y53341D01*
X27900Y52190D01*
X22900D01*
X22875Y53341D01*
X22676Y55278D01*
X22502Y56065D01*
X22279Y56731D01*
X22005Y57276D01*
X21682Y57700D01*
X21309Y58003D01*
X20887Y58185D01*
X20414Y58245D01*
X30386D01*
X29913Y58185D01*
D02*
G37*
G36*
X-22481Y57349D02*
X-22954Y57404D01*
X-23377Y57325D01*
X-23751Y57112D01*
X-24075Y56765D01*
X-24349Y56284D01*
X-24573Y55670D01*
X-24748Y54922D01*
X-24872Y54040D01*
X-24947Y53024D01*
X-24972Y51874D01*
X-29972Y52989D01*
X-29997Y54171D01*
X-30195Y56199D01*
X-30369Y57045D01*
X-30592Y57780D01*
X-30865Y58403D01*
X-31187Y58915D01*
X-31559Y59315D01*
X-31981Y59604D01*
X-32452Y59780D01*
X-22481Y57349D01*
D02*
G37*
G36*
X-48275Y-110176D02*
X-48200Y-111032D01*
X-48075Y-111786D01*
X-47900Y-112440D01*
X-47675Y-112993D01*
X-47400Y-113446D01*
X-47075Y-113798D01*
X-46700Y-114050D01*
X-46275Y-114201D01*
X-45800Y-114251D01*
X-55800D01*
X-55325Y-114201D01*
X-54900Y-114050D01*
X-54525Y-113798D01*
X-54200Y-113446D01*
X-53925Y-112993D01*
X-53700Y-112440D01*
X-53525Y-111786D01*
X-53400Y-111032D01*
X-53325Y-110176D01*
X-53300Y-109221D01*
X-48300D01*
X-48275Y-110176D01*
D02*
G37*
G36*
X3033Y-110140D02*
X3132Y-110955D01*
X3297Y-111750D01*
X3528Y-112525D01*
X3825Y-113281D01*
X4188Y-114017D01*
X4617Y-114733D01*
X5112Y-115429D01*
X5673Y-116106D01*
X6300Y-116763D01*
X-6300D01*
X-5673Y-116106D01*
X-5112Y-115429D01*
X-4617Y-114733D01*
X-4188Y-114017D01*
X-3825Y-113281D01*
X-3528Y-112525D01*
X-3297Y-111750D01*
X-3132Y-110955D01*
X-3033Y-110140D01*
X-3000Y-109305D01*
X3000D01*
X3033Y-110140D01*
D02*
G37*
G36*
X5673Y-130274D02*
X5112Y-130951D01*
X4617Y-131647D01*
X4188Y-132363D01*
X3825Y-133099D01*
X3528Y-133855D01*
X3297Y-134630D01*
X3132Y-135426D01*
X3033Y-136241D01*
X3000Y-137075D01*
X-3000D01*
X-3033Y-136241D01*
X-3132Y-135426D01*
X-3297Y-134630D01*
X-3528Y-133855D01*
X-3825Y-133099D01*
X-4188Y-132363D01*
X-4617Y-131647D01*
X-5112Y-130951D01*
X-5673Y-130274D01*
X-6300Y-129617D01*
X6300D01*
X5673Y-130274D01*
D02*
G37*
G36*
X3050Y-139960D02*
X3200Y-140980D01*
X3450Y-141880D01*
X3800Y-142660D01*
X4250Y-143320D01*
X4800Y-143860D01*
X5450Y-144280D01*
X6200Y-144580D01*
X7050Y-144760D01*
X8000Y-144820D01*
Y-149820D01*
X7050Y-149880D01*
X6200Y-150060D01*
X5450Y-150360D01*
X4800Y-150780D01*
X4250Y-151320D01*
X3800Y-151980D01*
X3450Y-152760D01*
X3200Y-153660D01*
X3050Y-154680D01*
X3000Y-155820D01*
X-3000Y-147320D01*
X3000Y-138820D01*
X3050Y-139960D01*
D02*
G37*
G36*
X-22882Y-111224D02*
X-22827Y-111901D01*
X-22736Y-112522D01*
X-22609Y-113087D01*
X-22446Y-113596D01*
X-22246Y-114048D01*
X-22010Y-114444D01*
X-21737Y-114783D01*
X-21428Y-115066D01*
X-21083Y-115293D01*
X-29717D01*
X-29372Y-115066D01*
X-29063Y-114783D01*
X-28790Y-114444D01*
X-28554Y-114048D01*
X-28354Y-113596D01*
X-28191Y-113087D01*
X-28063Y-112522D01*
X-27973Y-111901D01*
X-27918Y-111224D01*
X-27900Y-110490D01*
X-22900D01*
X-22882Y-111224D01*
D02*
G37*
G36*
X53338Y-109921D02*
X53452Y-110695D01*
X53642Y-111465D01*
X53908Y-112232D01*
X54250Y-112996D01*
X54668Y-113756D01*
X55162Y-114513D01*
X55732Y-115266D01*
X56378Y-116016D01*
X57100Y-116763D01*
X44500D01*
X45222Y-116016D01*
X45868Y-115266D01*
X46438Y-114513D01*
X46932Y-113756D01*
X47350Y-112996D01*
X47692Y-112232D01*
X47958Y-111465D01*
X48148Y-110695D01*
X48262Y-109921D01*
X48300Y-109144D01*
X53300D01*
X53338Y-109921D01*
D02*
G37*
G36*
X27938D02*
X28052Y-110695D01*
X28242Y-111465D01*
X28508Y-112232D01*
X28850Y-112996D01*
X29268Y-113756D01*
X29762Y-114513D01*
X30332Y-115266D01*
X30978Y-116016D01*
X31700Y-116763D01*
X19100D01*
X19822Y-116016D01*
X20468Y-115266D01*
X21038Y-114513D01*
X21532Y-113756D01*
X21950Y-112996D01*
X22292Y-112232D01*
X22558Y-111465D01*
X22748Y-110695D01*
X22862Y-109921D01*
X22900Y-109144D01*
X27900D01*
X27938Y-109921D01*
D02*
G37*
%LPC*%
G36*
X25400Y-267305D02*
X22528Y-267683D01*
X19853Y-268792D01*
X17555Y-270555D01*
X15791Y-272853D01*
X14683Y-275528D01*
X14305Y-278400D01*
Y-280400D01*
X14683Y-283272D01*
X15791Y-285947D01*
X17555Y-288245D01*
X19853Y-290009D01*
X22528Y-291117D01*
X25400Y-291495D01*
X28272Y-291117D01*
X30947Y-290009D01*
X33245Y-288245D01*
X35008Y-285947D01*
X36117Y-283272D01*
X36495Y-280400D01*
Y-278400D01*
X36117Y-275528D01*
X35008Y-272853D01*
X33245Y-270555D01*
X30947Y-268792D01*
X28272Y-267683D01*
X25400Y-267305D01*
D02*
G37*
G36*
X-38800Y-267400D02*
X-62800D01*
Y-291400D01*
X-38800D01*
Y-267400D01*
D02*
G37*
G36*
X52070Y-267932D02*
Y-278130D01*
X61834D01*
X61556Y-276018D01*
X60443Y-273332D01*
X58674Y-271026D01*
X56368Y-269257D01*
X53682Y-268144D01*
X52070Y-267932D01*
D02*
G37*
G36*
X49530Y-280670D02*
X39766D01*
X40044Y-282782D01*
X41157Y-285468D01*
X42926Y-287774D01*
X45232Y-289543D01*
X47918Y-290656D01*
X49530Y-290868D01*
Y-280670D01*
D02*
G37*
G36*
X61834D02*
X52070D01*
Y-290868D01*
X53682Y-290656D01*
X56368Y-289543D01*
X58674Y-287774D01*
X60443Y-285468D01*
X61556Y-282782D01*
X61834Y-280670D01*
D02*
G37*
G36*
X49530Y-267932D02*
X47918Y-268144D01*
X45232Y-269257D01*
X42926Y-271026D01*
X41157Y-273332D01*
X40044Y-276018D01*
X39766Y-278130D01*
X49530D01*
Y-267932D01*
D02*
G37*
G36*
X0Y-267297D02*
X-3133Y-267709D01*
X-6052Y-268918D01*
X-8558Y-270842D01*
X-10482Y-273348D01*
X-11691Y-276267D01*
X-11984Y-278495D01*
X-12060Y-279066D01*
X-13340D01*
X-13416Y-278495D01*
X-13709Y-276267D01*
X-14918Y-273348D01*
X-16841Y-270842D01*
X-19348Y-268918D01*
X-22267Y-267709D01*
X-25400Y-267297D01*
X-28533Y-267709D01*
X-31452Y-268918D01*
X-33958Y-270842D01*
X-35882Y-273348D01*
X-37091Y-276267D01*
X-37503Y-279400D01*
X-37091Y-282533D01*
X-35882Y-285452D01*
X-33958Y-287959D01*
X-31452Y-289882D01*
X-28533Y-291091D01*
X-25400Y-291504D01*
X-22267Y-291091D01*
X-19348Y-289882D01*
X-16841Y-287959D01*
X-14918Y-285452D01*
X-13709Y-282533D01*
X-13416Y-280305D01*
X-13340Y-279734D01*
X-12060D01*
X-11984Y-280305D01*
X-11691Y-282533D01*
X-10482Y-285452D01*
X-8558Y-287959D01*
X-6052Y-289882D01*
X-3133Y-291091D01*
X0Y-291504D01*
X3133Y-291091D01*
X6052Y-289882D01*
X8558Y-287959D01*
X10482Y-285452D01*
X11691Y-282533D01*
X12104Y-279400D01*
X11691Y-276267D01*
X10482Y-273348D01*
X8558Y-270842D01*
X6052Y-268918D01*
X3133Y-267709D01*
X0Y-267297D01*
D02*
G37*
%LPD*%
D11*
X336550Y-300750D02*
D03*
Y-270750D02*
D03*
X-292608Y-303544D02*
D03*
Y-273544D02*
D03*
D13*
X25400Y24384D02*
D03*
Y43688D02*
D03*
D19*
X323594Y-244348D02*
X342392Y-225550D01*
X306070Y-244348D02*
X323594D01*
X384810Y-228854D02*
Y-203200D01*
X403957Y144267D02*
X412980Y135245D01*
X341630Y-248920D02*
Y-247396D01*
X-394900Y-106410D02*
X-393954Y-105464D01*
X-394900Y-106445D02*
Y-106410D01*
X-400196Y-111740D02*
X-394900Y-106445D01*
X-400230Y-111740D02*
X-400196D01*
X-393954Y-105464D02*
Y81225D01*
X-363220Y-12954D02*
X-357124Y-6858D01*
X-363220Y-92710D02*
Y-12954D01*
Y-92710D02*
X-353230Y-102700D01*
X403940Y-126950D02*
Y-115650D01*
X387604Y-99314D02*
X403940Y-115650D01*
X387604Y-99314D02*
Y-69088D01*
X347980Y5080D02*
X358140Y15240D01*
X347980Y-73660D02*
Y5080D01*
X345440Y-76200D02*
X347980Y-73660D01*
X355600Y-10160D02*
X358140Y-7620D01*
X355600Y-78825D02*
Y-10160D01*
X345524Y-88900D02*
X355600Y-78825D01*
X-393954Y81225D02*
X-379327Y95853D01*
X31507Y-304650D02*
X249070D01*
X25400Y-310757D02*
X31507Y-304650D01*
X25400Y-317246D02*
Y-310757D01*
X-413004Y-109870D02*
X-405834Y-102700D01*
X-413004Y-134112D02*
Y-109870D01*
Y-134112D02*
X-407820Y-139296D01*
X-371673D01*
X-403940Y130200D02*
X-387096Y113356D01*
X-400304Y117348D02*
X-394900Y111944D01*
X-405638Y117348D02*
X-400304D01*
X244450Y-299110D02*
X274320Y-269240D01*
X249070Y-304650D02*
X284884Y-268836D01*
X400230Y-130660D02*
X403940Y-126950D01*
X400196Y-130660D02*
X400230D01*
X394900Y-135955D02*
X400196Y-130660D01*
X394900Y-135990D02*
Y-135955D01*
X400280Y-143360D02*
X403940Y-139700D01*
X400196Y-143360D02*
X400280D01*
X394900Y-148656D02*
X400196Y-143360D01*
X394900Y-148740D02*
Y-148656D01*
X-412009Y181200D02*
X-403940D01*
X336550Y-270750D02*
X336804Y-271004D01*
X297634Y-253158D02*
Y-245249D01*
X-403940Y-115450D02*
X-400230Y-111740D01*
X-403940Y-128300D02*
X-374835D01*
X-403940Y-115450D02*
X-379850D01*
X403940Y-152400D02*
X409194D01*
X284884Y-268836D02*
Y-253158D01*
X-353230Y-102700D02*
X-345440D01*
X336550Y-300750D02*
X339076D01*
X351282Y-288544D01*
X297634Y-253158D02*
X306186Y-261710D01*
X319030D01*
X319090Y-261770D01*
X326578D01*
X326638Y-261710D01*
X293685Y-241300D02*
X297634Y-245249D01*
X280416Y-241300D02*
X293685D01*
X274320Y-269240D02*
Y-247396D01*
X280416Y-241300D01*
X241554Y-292608D02*
X267462Y-266700D01*
Y-244856D01*
X276860Y-235458D01*
X297180D01*
X306070Y-244348D01*
X-37978Y297057D02*
X38047D01*
X351282Y-288544D02*
Y-262382D01*
X342390Y-247396D02*
X343154D01*
X326638Y-261710D02*
X341794D01*
X-54935Y314014D02*
X-37978Y297057D01*
X38047D02*
X55011Y314021D01*
X409194Y-152400D02*
X413004Y-148590D01*
Y-85014D01*
X403940Y-75950D02*
X413004Y-85014D01*
X111676Y-292608D02*
X241554D01*
X85598Y-281686D02*
Y-276098D01*
X85403Y-313944D02*
X124206D01*
X197612Y-265680D02*
X220468D01*
X237490Y-282702D01*
X-215138Y-307848D02*
Y-270764D01*
X-405834Y-102700D02*
X-403940D01*
X-365476Y-153700D02*
X-318516Y-200660D01*
Y-224790D02*
Y-200660D01*
X-209296Y-313690D02*
X-30657D01*
X-215138Y-307848D02*
X-209296Y-313690D01*
X-168078Y314014D02*
X-54935D01*
X-403940Y193900D02*
Y218614D01*
X-385064Y237490D02*
X-244602D01*
X-168078Y314014D01*
X-403940Y218614D02*
X-385064Y237490D01*
X169086Y314021D02*
X313308Y169800D01*
X403940D01*
X55011Y314021D02*
X169086D01*
X345440Y-88900D02*
X345524D01*
X371586Y99146D02*
X403940Y131500D01*
X371586Y-109728D02*
Y99146D01*
X365506Y-115808D02*
X371586Y-109728D01*
X394716Y114441D02*
X402735Y122460D01*
X407685D01*
X412980Y127756D01*
Y135245D01*
X393700Y-91160D02*
X403940Y-101400D01*
X403098Y105258D02*
X403940Y106100D01*
X393700Y-91160D02*
Y-72390D01*
X403098Y-62992D01*
Y105258D01*
X387604Y-69088D02*
X394716Y-61976D01*
Y114441D01*
X365506Y-116586D02*
Y-115808D01*
X343154Y-247396D02*
X356870Y-233680D01*
Y-174020D01*
X394900Y-135990D01*
X341794Y-261710D02*
X362712Y-240792D01*
Y-180928D01*
X394900Y-148740D01*
X403940Y-200994D02*
Y-152400D01*
Y-200994D02*
X406146Y-203200D01*
X351282Y-262382D02*
X384810Y-228854D01*
X-252486Y-258483D02*
X-227419D01*
X-371673Y-139296D02*
X-252486Y-258483D01*
X-227419D02*
X-215138Y-270764D01*
X-403940Y-153700D02*
X-365476D01*
X-412980Y-93660D02*
Y82079D01*
Y-93660D02*
X-404887Y-101753D01*
X-403940Y-102700D01*
X-412980Y82079D02*
X-394900Y100159D01*
Y111944D01*
X-403940Y81661D02*
X-387096Y98505D01*
X-403940Y-77300D02*
Y81661D01*
X-387096Y98505D02*
Y113356D01*
X-30657Y-313690D02*
X-26189Y-318158D01*
X-19202Y-299110D02*
X244450D01*
X-26189Y-318158D02*
Y-306097D01*
X-19202Y-299110D01*
X70936Y-251869D02*
X111676Y-292608D01*
X66909Y-257409D02*
X85598Y-276098D01*
X-90165Y-251869D02*
X70936D01*
X-379327Y95853D02*
Y131137D01*
X-409604Y168500D02*
X-403940D01*
Y155750D02*
X-379327Y131137D01*
X-418520Y119330D02*
X-403940Y104750D01*
X-418520Y174689D02*
X-412009Y181200D01*
X-412980Y165124D02*
X-409604Y168500D01*
X-412980Y124690D02*
Y165124D01*
Y124690D02*
X-405638Y117348D01*
X-418520Y119330D02*
Y174689D01*
X163830Y-314198D02*
X165724D01*
X168264Y-311658D02*
X259334D01*
X165724Y-314198D02*
X168264Y-311658D01*
X-90724Y-251310D02*
X-90165Y-251869D01*
X-208926Y-260350D02*
X-205984Y-257409D01*
X-374835Y-128300D02*
X-251825Y-251310D01*
X-210820Y-260350D02*
X-208926D01*
X-205984Y-257409D02*
X66909D01*
X-251825Y-251310D02*
X-90724D01*
X-379850Y-115450D02*
X-249946Y-245354D01*
X77460D01*
X86106Y-254000D01*
D20*
X336804Y-279400D02*
Y-271004D01*
X0Y-123190D02*
Y-76200D01*
Y-147320D02*
Y-123190D01*
Y-218440D02*
Y-147320D01*
D21*
X25400Y43688D02*
Y69850D01*
X50800Y-123190D02*
Y-59690D01*
X41910Y-50800D02*
X50800Y-59690D01*
X-19050Y-50800D02*
X41910D01*
X-25400Y-57150D02*
X-19050Y-50800D01*
X-25400Y-76200D02*
Y-57150D01*
X25400Y-123190D02*
Y-76200D01*
X-25400Y-123190D02*
Y-110490D01*
X-46990Y-88900D02*
X-25400Y-110490D01*
X13970Y69850D02*
X25400D01*
X-50800Y-123190D02*
Y-109220D01*
X-64770Y-95250D02*
X-50800Y-109220D01*
X-64770Y-95250D02*
Y-49530D01*
X-16510Y39370D02*
X13970Y69850D01*
X25400Y-26670D02*
X34290Y-35560D01*
X54610D01*
X74930Y-55880D01*
X60960Y-147320D02*
X74930Y-133350D01*
Y-55880D01*
X0Y-147320D02*
X60960D01*
X-46990Y-54610D02*
X-16510Y-24130D01*
X-46990Y-88900D02*
Y-54610D01*
X-16510Y-24130D02*
Y39370D01*
X-27472Y-12232D02*
Y67778D01*
X-64770Y-49530D02*
X-27472Y-12232D01*
Y67778D02*
X-25400Y69850D01*
X56388Y-762D02*
X57150Y0D01*
X25400Y-762D02*
X56388D01*
X25400Y-26670D02*
Y-762D01*
Y24384D01*
D23*
X50800Y-123190D02*
D03*
X25400D02*
D03*
X0D02*
D03*
X-25400D02*
D03*
Y-279400D02*
D03*
X0D02*
D03*
D24*
X-50800Y-123190D02*
D03*
Y-279400D02*
D03*
D25*
X57150Y0D02*
D03*
X-57150Y0D02*
D03*
D26*
X-25400Y-76200D02*
D03*
X25400D02*
D03*
X0D02*
D03*
X-25400Y69850D02*
D03*
X25400D02*
D03*
D27*
X-219203Y-219203D02*
D03*
X298046Y85257D02*
D03*
X-249678Y-183738D02*
D03*
X-258174Y171552D02*
D03*
X307516Y39168D02*
D03*
X-274765Y-143542D02*
D03*
X-230031Y207811D02*
D03*
X114988Y287885D02*
D03*
X309900Y-7851D02*
D03*
X-293306Y-100358D02*
D03*
X-195926Y240235D02*
D03*
X157256Y267152D02*
D03*
X305121Y-54783D02*
D03*
X-305136Y-54700D02*
D03*
X-157270Y267145D02*
D03*
X195898Y240258D02*
D03*
X293390Y-100109D02*
D03*
X-309900Y-7863D02*
D03*
X-115003Y287879D02*
D03*
X230021Y207823D02*
D03*
X274892Y-143304D02*
D03*
X-307518Y39153D02*
D03*
X258839Y170595D02*
D03*
X249680Y-183745D02*
D03*
X-298041Y85273D02*
D03*
X281687Y129431D02*
D03*
X219441Y-218959D02*
D03*
D28*
X-201525Y-201525D02*
D03*
D29*
X-258887Y119190D02*
D03*
D30*
X-281973Y128784D02*
D03*
X21496Y284189D02*
D03*
X23635Y309097D02*
D03*
X70051Y301982D02*
D03*
X-70083Y301974D02*
D03*
X-21647Y284177D02*
D03*
X-23546Y309104D02*
D03*
D31*
X273995Y78432D02*
D03*
D32*
X-229708Y-168698D02*
D03*
D33*
X-237987Y156805D02*
D03*
X229545Y-168927D02*
D03*
D34*
X64402Y277628D02*
D03*
D35*
X282716Y36009D02*
D03*
D36*
X-252607Y-131966D02*
D03*
D37*
X-211480Y191052D02*
D03*
D38*
X105715Y264668D02*
D03*
D39*
X284909Y-7218D02*
D03*
D40*
X-269652Y-92264D02*
D03*
D41*
X-180126Y220861D02*
D03*
D42*
X144574Y245608D02*
D03*
D43*
X280515Y-50365D02*
D03*
D44*
X-280528Y-50289D02*
D03*
D45*
X-144587Y245601D02*
D03*
D46*
X180100Y220883D02*
D03*
D47*
X269738Y-92011D02*
D03*
D48*
X-284908Y-7229D02*
D03*
D49*
X-105728Y264663D02*
D03*
D50*
X211471Y191063D02*
D03*
D51*
X252724Y-131747D02*
D03*
D52*
X-282718Y35995D02*
D03*
D53*
X-64431Y277621D02*
D03*
D54*
X237965Y156837D02*
D03*
D55*
X-274024Y78333D02*
D03*
D56*
X258970Y118993D02*
D03*
D57*
X201744Y-201301D02*
D03*
D58*
X387350Y-285750D02*
D03*
X-387350D02*
D03*
Y285750D02*
D03*
X387350D02*
D03*
D59*
X0Y0D02*
D03*
D60*
X25400Y-279400D02*
D03*
D61*
X50800D02*
D03*
D62*
X384810Y-203200D02*
D03*
X-403940Y130200D02*
D03*
Y-77300D02*
D03*
X-318516Y-224790D02*
D03*
X-318262Y-247650D02*
D03*
X85598Y-281686D02*
D03*
X85403Y-313944D02*
D03*
X-377684Y218694D02*
D03*
X-403940Y181200D02*
D03*
X336804Y-279400D02*
D03*
X237490Y-282702D02*
D03*
X124206Y-314198D02*
D03*
X-106680Y-275590D02*
D03*
X-118110D02*
D03*
X-129540Y-287020D02*
D03*
X-118110D02*
D03*
X-106680D02*
D03*
X-341630Y-213106D02*
D03*
X-265938Y-210566D02*
D03*
X182880Y-265938D02*
D03*
X284884Y-253158D02*
D03*
X297634D02*
D03*
X323088Y-312166D02*
D03*
X345440Y106100D02*
D03*
X403940Y131500D02*
D03*
Y144250D02*
D03*
Y195250D02*
D03*
X377430Y219202D02*
D03*
X403940Y-75950D02*
D03*
Y-126950D02*
D03*
Y-152400D02*
D03*
Y-139700D02*
D03*
X-377670Y-189992D02*
D03*
X-403940Y-128300D02*
D03*
X-345440D02*
D03*
Y-77300D02*
D03*
Y-102700D02*
D03*
X-403940Y168500D02*
D03*
Y-153700D02*
D03*
Y-102700D02*
D03*
Y-115450D02*
D03*
X0Y-317246D02*
D03*
X25400D02*
D03*
X-345440Y193900D02*
D03*
X163830Y-314198D02*
D03*
X259334Y-311658D02*
D03*
X145034Y-266700D02*
D03*
X345440Y-88900D02*
D03*
Y-76200D02*
D03*
X-357124Y-6858D02*
D03*
X-403940Y104750D02*
D03*
X345440Y-165100D02*
D03*
X-321056Y-304038D02*
D03*
X-292608Y-303544D02*
D03*
X-292610Y-273558D02*
D03*
X-229870Y-273290D02*
D03*
X-254508Y-303276D02*
D03*
X-341630Y-304040D02*
D03*
X318770Y-279400D02*
D03*
Y-225550D02*
D03*
X342392D02*
D03*
X342390Y-247396D02*
D03*
X86106Y-254000D02*
D03*
X197612Y-265680D02*
D03*
X-403940Y193900D02*
D03*
X403940Y169800D02*
D03*
X385214Y-52070D02*
D03*
X358140Y-7620D02*
D03*
Y15240D02*
D03*
X-25400Y-318158D02*
D03*
X403940Y-101400D02*
D03*
X403940Y106100D02*
D03*
X365506Y-116586D02*
D03*
X407670Y-244602D02*
D03*
X406146Y-203200D02*
D03*
X384810Y-185420D02*
D03*
X-210820Y-260350D02*
D03*
X-52145Y-234401D02*
D03*
X85807Y-233183D02*
D03*
X-377684Y80518D02*
D03*
X0Y-218440D02*
D03*
X-403940Y155750D02*
D03*
X-129540Y-275590D02*
D03*
D63*
X-134112Y-285623D02*
D03*
M02*
