G04 Layer_Color=16711935*
%FSLAX44Y44*%
%MOMM*%
G71*
G01*
G75*
%ADD65C,0.2000*%
D65*
X-400051Y330200D02*
X-402542Y330102D01*
X-405017Y329809D01*
X-407462Y329322D01*
X-409862Y328646D01*
X-412201Y327783D01*
X-414464Y326739D01*
X-416640Y325521D01*
X-418712Y324136D01*
X-420670Y322593D01*
X-422501Y320900D01*
X-424193Y319070D01*
X-425737Y317112D01*
X-427122Y315039D01*
X-428340Y312864D01*
X-429383Y310600D01*
X-430246Y308261D01*
X-430923Y305862D01*
X-431409Y303417D01*
X-431702Y300941D01*
X-431800Y298450D01*
X431800Y298450D02*
X431702Y300941D01*
X431409Y303417D01*
X430923Y305862D01*
X430246Y308261D01*
X429383Y310600D01*
X428340Y312864D01*
X427121Y315040D01*
X425736Y317112D01*
X424193Y319070D01*
X422501Y320901D01*
X420670Y322593D01*
X418712Y324136D01*
X416639Y325521D01*
X414464Y326740D01*
X412200Y327783D01*
X409861Y328646D01*
X407462Y329323D01*
X405017Y329809D01*
X402541Y330102D01*
X400050Y330200D01*
X400050Y-330200D02*
X402541Y-330102D01*
X405017Y-329809D01*
X407462Y-329323D01*
X409861Y-328646D01*
X412200Y-327783D01*
X414464Y-326740D01*
X416639Y-325522D01*
X418712Y-324137D01*
X420670Y-322593D01*
X422501Y-320901D01*
X424193Y-319070D01*
X425736Y-317112D01*
X427122Y-315040D01*
X428340Y-312864D01*
X429383Y-310600D01*
X430246Y-308262D01*
X430923Y-305862D01*
X431409Y-303417D01*
X431702Y-300941D01*
X431800Y-298450D01*
X-431800Y-298450D02*
X-431702Y-300941D01*
X-431409Y-303417D01*
X-430923Y-305862D01*
X-430246Y-308262D01*
X-429383Y-310600D01*
X-428340Y-312864D01*
X-427121Y-315040D01*
X-425736Y-317112D01*
X-424193Y-319070D01*
X-422501Y-320901D01*
X-420670Y-322593D01*
X-418712Y-324137D01*
X-416639Y-325522D01*
X-414464Y-326740D01*
X-412200Y-327783D01*
X-409861Y-328646D01*
X-407462Y-329323D01*
X-405017Y-329809D01*
X-402541Y-330102D01*
X-400050Y-330200D01*
X-431800Y298450D02*
X-431800Y-298450D01*
X-400050Y330200D02*
X400050Y330200D01*
X431800Y-298450D02*
X431800Y298450D01*
X-400050Y-330200D02*
X400050Y-330200D01*
M02*
